<?xml version="1.0" encoding="utf-8" standalone="no"?>
<!DOCTYPE svg PUBLIC "-//W3C//DTD SVG 1.1//EN"
  "http://www.w3.org/Graphics/SVG/1.1/DTD/svg11.dtd">
<!-- Created with matplotlib (https://matplotlib.org/) -->
<svg height="438.15625pt" version="1.1" viewBox="0 0 423.475 438.15625" width="423.475pt" xmlns="http://www.w3.org/2000/svg" xmlns:xlink="http://www.w3.org/1999/xlink">
 <metadata>
  <rdf:RDF xmlns:cc="http://creativecommons.org/ns#" xmlns:dc="http://purl.org/dc/elements/1.1/" xmlns:rdf="http://www.w3.org/1999/02/22-rdf-syntax-ns#">
   <cc:Work>
    <dc:type rdf:resource="http://purl.org/dc/dcmitype/StillImage"/>
    <dc:date>2021-01-09T15:37:40.361510</dc:date>
    <dc:format>image/svg+xml</dc:format>
    <dc:creator>
     <cc:Agent>
      <dc:title>Matplotlib v3.3.2, https://matplotlib.org/</dc:title>
     </cc:Agent>
    </dc:creator>
   </cc:Work>
  </rdf:RDF>
 </metadata>
 <defs>
  <style type="text/css">*{stroke-linecap:butt;stroke-linejoin:round;}</style>
 </defs>
 <g id="figure_1">
  <g id="patch_1">
   <path d="M 0 438.15625 
L 423.475 438.15625 
L 423.475 0 
L 0 0 
z
" style="fill:none;"/>
  </g>
  <g id="axes_1">
   <g id="patch_2">
    <path d="M 43.78125 400.6 
L 352.418929 400.6 
L 352.418929 74.64 
L 43.78125 74.64 
z
" style="fill:#ffffff;"/>
   </g>
   <g id="PathCollection_1">
    <defs>
     <path d="M 0 3 
C 0.795609 3 1.55874 2.683901 2.12132 2.12132 
C 2.683901 1.55874 3 0.795609 3 0 
C 3 -0.795609 2.683901 -1.55874 2.12132 -2.12132 
C 1.55874 -2.683901 0.795609 -3 0 -3 
C -0.795609 -3 -1.55874 -2.683901 -2.12132 -2.12132 
C -2.683901 -1.55874 -3 -0.795609 -3 0 
C -3 0.795609 -2.683901 1.55874 -2.12132 2.12132 
C -1.55874 2.683901 -0.795609 3 0 3 
z
" id="mb8ba73c4bb" style="stroke:#1f77b4;stroke-opacity:0.8;"/>
    </defs>
    <g clip-path="url(#pdfa8f721b7)">
     <use style="fill:#1f77b4;fill-opacity:0.8;stroke:#1f77b4;stroke-opacity:0.8;" x="127.302978" xlink:href="#mb8ba73c4bb" y="294.434137"/>
     <use style="fill:#1f77b4;fill-opacity:0.8;stroke:#1f77b4;stroke-opacity:0.8;" x="223.544698" xlink:href="#mb8ba73c4bb" y="215.13791"/>
     <use style="fill:#1f77b4;fill-opacity:0.8;stroke:#1f77b4;stroke-opacity:0.8;" x="119.234155" xlink:href="#mb8ba73c4bb" y="373.730365"/>
     <use style="fill:#1f77b4;fill-opacity:0.8;stroke:#1f77b4;stroke-opacity:0.8;" x="150.229746" xlink:href="#mb8ba73c4bb" y="283.530627"/>
     <use style="fill:#1f77b4;fill-opacity:0.8;stroke:#1f77b4;stroke-opacity:0.8;" x="197.155628" xlink:href="#mb8ba73c4bb" y="230.413938"/>
     <use style="fill:#1f77b4;fill-opacity:0.8;stroke:#1f77b4;stroke-opacity:0.8;" x="150.671864" xlink:href="#mb8ba73c4bb" y="306.487409"/>
     <use style="fill:#1f77b4;fill-opacity:0.8;stroke:#1f77b4;stroke-opacity:0.8;" x="200.794781" xlink:href="#mb8ba73c4bb" y="240.665594"/>
     <use style="fill:#1f77b4;fill-opacity:0.8;stroke:#1f77b4;stroke-opacity:0.8;" x="147.357763" xlink:href="#mb8ba73c4bb" y="306.487409"/>
     <use style="fill:#1f77b4;fill-opacity:0.8;stroke:#1f77b4;stroke-opacity:0.8;" x="102.369168" xlink:href="#mb8ba73c4bb" y="306.487409"/>
     <use style="fill:#1f77b4;fill-opacity:0.8;stroke:#1f77b4;stroke-opacity:0.8;" x="56.577402" xlink:href="#mb8ba73c4bb" y="327.345045"/>
     <use style="fill:#1f77b4;fill-opacity:0.8;stroke:#1f77b4;stroke-opacity:0.8;" x="149.009245" xlink:href="#mb8ba73c4bb" y="319.961821"/>
     <use style="fill:#1f77b4;fill-opacity:0.8;stroke:#1f77b4;stroke-opacity:0.8;" x="120.864476" xlink:href="#mb8ba73c4bb" y="327.345045"/>
     <use style="fill:#1f77b4;fill-opacity:0.8;stroke:#1f77b4;stroke-opacity:0.8;" x="182.478815" xlink:href="#mb8ba73c4bb" y="215.13791"/>
     <use style="fill:#1f77b4;fill-opacity:0.8;stroke:#1f77b4;stroke-opacity:0.8;" x="149.870374" xlink:href="#mb8ba73c4bb" y="313.026347"/>
     <use style="fill:#1f77b4;fill-opacity:0.8;stroke:#1f77b4;stroke-opacity:0.8;" x="187.006467" xlink:href="#mb8ba73c4bb" y="255.941621"/>
     <use style="fill:#1f77b4;fill-opacity:0.8;stroke:#1f77b4;stroke-opacity:0.8;" x="100.378743" xlink:href="#mb8ba73c4bb" y="343.715821"/>
     <use style="fill:#1f77b4;fill-opacity:0.8;stroke:#1f77b4;stroke-opacity:0.8;" x="301.266809" xlink:href="#mb8ba73c4bb" y="178.706716"/>
     <use style="fill:#1f77b4;fill-opacity:0.8;stroke:#1f77b4;stroke-opacity:0.8;" x="145.678159" xlink:href="#mb8ba73c4bb" y="283.530627"/>
     <use style="fill:#1f77b4;fill-opacity:0.8;stroke:#1f77b4;stroke-opacity:0.8;" x="88.103127" xlink:href="#mb8ba73c4bb" y="373.730365"/>
     <use style="fill:#1f77b4;fill-opacity:0.8;stroke:#1f77b4;stroke-opacity:0.8;" x="70.229379" xlink:href="#mb8ba73c4bb" y="327.345045"/>
     <use style="fill:#1f77b4;fill-opacity:0.8;stroke:#1f77b4;stroke-opacity:0.8;" x="266.991919" xlink:href="#mb8ba73c4bb" y="151.117711"/>
     <use style="fill:#1f77b4;fill-opacity:0.8;stroke:#1f77b4;stroke-opacity:0.8;" x="68.76382" xlink:href="#mb8ba73c4bb" y="271.217649"/>
     <use style="fill:#1f77b4;fill-opacity:0.8;stroke:#1f77b4;stroke-opacity:0.8;" x="140.246792" xlink:href="#mb8ba73c4bb" y="319.961821"/>
     <use style="fill:#1f77b4;fill-opacity:0.8;stroke:#1f77b4;stroke-opacity:0.8;" x="244.871308" xlink:href="#mb8ba73c4bb" y="122.367271"/>
     <use style="fill:#1f77b4;fill-opacity:0.8;stroke:#1f77b4;stroke-opacity:0.8;" x="116.588917" xlink:href="#mb8ba73c4bb" y="306.487409"/>
     <use style="fill:#1f77b4;fill-opacity:0.8;stroke:#1f77b4;stroke-opacity:0.8;" x="220.049741" xlink:href="#mb8ba73c4bb" y="230.413938"/>
     <use style="fill:#1f77b4;fill-opacity:0.8;stroke:#1f77b4;stroke-opacity:0.8;" x="76.188474" xlink:href="#mb8ba73c4bb" y="327.345045"/>
     <use style="fill:#1f77b4;fill-opacity:0.8;stroke:#1f77b4;stroke-opacity:0.8;" x="128.078827" xlink:href="#mb8ba73c4bb" y="230.413938"/>
     <use style="fill:#1f77b4;fill-opacity:0.8;stroke:#1f77b4;stroke-opacity:0.8;" x="258.836337" xlink:href="#mb8ba73c4bb" y="168.752591"/>
     <use style="fill:#1f77b4;fill-opacity:0.8;stroke:#1f77b4;stroke-opacity:0.8;" x="128.849133" xlink:href="#mb8ba73c4bb" y="306.487409"/>
     <use style="fill:#1f77b4;fill-opacity:0.8;stroke:#1f77b4;stroke-opacity:0.8;" x="175.870204" xlink:href="#mb8ba73c4bb" y="237.145307"/>
     <use style="fill:#1f77b4;fill-opacity:0.8;stroke:#1f77b4;stroke-opacity:0.8;" x="101.810378" xlink:href="#mb8ba73c4bb" y="319.961821"/>
     <use style="fill:#1f77b4;fill-opacity:0.8;stroke:#1f77b4;stroke-opacity:0.8;" x="207.402798" xlink:href="#mb8ba73c4bb" y="240.665594"/>
     <use style="fill:#1f77b4;fill-opacity:0.8;stroke:#1f77b4;stroke-opacity:0.8;" x="92.566463" xlink:href="#mb8ba73c4bb" y="352.872729"/>
     <use style="fill:#1f77b4;fill-opacity:0.8;stroke:#1f77b4;stroke-opacity:0.8;" x="235.890693" xlink:href="#mb8ba73c4bb" y="178.706716"/>
     <use style="fill:#1f77b4;fill-opacity:0.8;stroke:#1f77b4;stroke-opacity:0.8;" x="231.09223" xlink:href="#mb8ba73c4bb" y="221.005877"/>
     <use style="fill:#1f77b4;fill-opacity:0.8;stroke:#1f77b4;stroke-opacity:0.8;" x="70.931142" xlink:href="#mb8ba73c4bb" y="352.872729"/>
     <use style="fill:#1f77b4;fill-opacity:0.8;stroke:#1f77b4;stroke-opacity:0.8;" x="150.195016" xlink:href="#mb8ba73c4bb" y="215.13791"/>
     <use style="fill:#1f77b4;fill-opacity:0.8;stroke:#1f77b4;stroke-opacity:0.8;" x="215.486404" xlink:href="#mb8ba73c4bb" y="215.13791"/>
     <use style="fill:#1f77b4;fill-opacity:0.8;stroke:#1f77b4;stroke-opacity:0.8;" x="123.065223" xlink:href="#mb8ba73c4bb" y="300.302104"/>
     <use style="fill:#1f77b4;fill-opacity:0.8;stroke:#1f77b4;stroke-opacity:0.8;" x="169.365868" xlink:href="#mb8ba73c4bb" y="248.048818"/>
     <use style="fill:#1f77b4;fill-opacity:0.8;stroke:#1f77b4;stroke-opacity:0.8;" x="237.527809" xlink:href="#mb8ba73c4bb" y="201.663499"/>
     <use style="fill:#1f77b4;fill-opacity:0.8;stroke:#1f77b4;stroke-opacity:0.8;" x="228.813111" xlink:href="#mb8ba73c4bb" y="221.005877"/>
     <use style="fill:#1f77b4;fill-opacity:0.8;stroke:#1f77b4;stroke-opacity:0.8;" x="102.509611" xlink:href="#mb8ba73c4bb" y="362.826854"/>
     <use style="fill:#1f77b4;fill-opacity:0.8;stroke:#1f77b4;stroke-opacity:0.8;" x="99.619832" xlink:href="#mb8ba73c4bb" y="294.434137"/>
     <use style="fill:#1f77b4;fill-opacity:0.8;stroke:#1f77b4;stroke-opacity:0.8;" x="122.560413" xlink:href="#mb8ba73c4bb" y="306.487409"/>
     <use style="fill:#1f77b4;fill-opacity:0.8;stroke:#1f77b4;stroke-opacity:0.8;" x="125.236268" xlink:href="#mb8ba73c4bb" y="306.487409"/>
     <use style="fill:#1f77b4;fill-opacity:0.8;stroke:#1f77b4;stroke-opacity:0.8;" x="251.907059" xlink:href="#mb8ba73c4bb" y="168.752591"/>
     <use style="fill:#1f77b4;fill-opacity:0.8;stroke:#1f77b4;stroke-opacity:0.8;" x="120.530058" xlink:href="#mb8ba73c4bb" y="294.434137"/>
     <use style="fill:#1f77b4;fill-opacity:0.8;stroke:#1f77b4;stroke-opacity:0.8;" x="127.179173" xlink:href="#mb8ba73c4bb" y="294.434137"/>
     <use style="fill:#1f77b4;fill-opacity:0.8;stroke:#1f77b4;stroke-opacity:0.8;" x="140.064899" xlink:href="#mb8ba73c4bb" y="255.941621"/>
     <use style="fill:#1f77b4;fill-opacity:0.8;stroke:#1f77b4;stroke-opacity:0.8;" x="190.901872" xlink:href="#mb8ba73c4bb" y="215.13791"/>
     <use style="fill:#1f77b4;fill-opacity:0.8;stroke:#1f77b4;stroke-opacity:0.8;" x="283.86452" xlink:href="#mb8ba73c4bb" y="168.752591"/>
     <use style="fill:#1f77b4;fill-opacity:0.8;stroke:#1f77b4;stroke-opacity:0.8;" x="168.603122" xlink:href="#mb8ba73c4bb" y="268.906454"/>
     <use style="fill:#1f77b4;fill-opacity:0.8;stroke:#1f77b4;stroke-opacity:0.8;" x="95.920704" xlink:href="#mb8ba73c4bb" y="373.730365"/>
     <use style="fill:#1f77b4;fill-opacity:0.8;stroke:#1f77b4;stroke-opacity:0.8;" x="95.841709" xlink:href="#mb8ba73c4bb" y="327.345045"/>
     <use style="fill:#1f77b4;fill-opacity:0.8;stroke:#1f77b4;stroke-opacity:0.8;" x="269.707267" xlink:href="#mb8ba73c4bb" y="215.13791"/>
     <use style="fill:#1f77b4;fill-opacity:0.8;stroke:#1f77b4;stroke-opacity:0.8;" x="194.992885" xlink:href="#mb8ba73c4bb" y="248.048818"/>
     <use style="fill:#1f77b4;fill-opacity:0.8;stroke:#1f77b4;stroke-opacity:0.8;" x="188.263328" xlink:href="#mb8ba73c4bb" y="230.413938"/>
     <use style="fill:#1f77b4;fill-opacity:0.8;stroke:#1f77b4;stroke-opacity:0.8;" x="174.521505" xlink:href="#mb8ba73c4bb" y="313.026347"/>
     <use style="fill:#1f77b4;fill-opacity:0.8;stroke:#1f77b4;stroke-opacity:0.8;" x="96.586862" xlink:href="#mb8ba73c4bb" y="327.345045"/>
     <use style="fill:#1f77b4;fill-opacity:0.8;stroke:#1f77b4;stroke-opacity:0.8;" x="87.173111" xlink:href="#mb8ba73c4bb" y="327.345045"/>
     <use style="fill:#1f77b4;fill-opacity:0.8;stroke:#1f77b4;stroke-opacity:0.8;" x="84.005916" xlink:href="#mb8ba73c4bb" y="352.872729"/>
     <use style="fill:#1f77b4;fill-opacity:0.8;stroke:#1f77b4;stroke-opacity:0.8;" x="256.981341" xlink:href="#mb8ba73c4bb" y="89.456364"/>
     <use style="fill:#1f77b4;fill-opacity:0.8;stroke:#1f77b4;stroke-opacity:0.8;" x="237.141419" xlink:href="#mb8ba73c4bb" y="255.941621"/>
     <use style="fill:#1f77b4;fill-opacity:0.8;stroke:#1f77b4;stroke-opacity:0.8;" x="141.349663" xlink:href="#mb8ba73c4bb" y="294.434137"/>
     <use style="fill:#1f77b4;fill-opacity:0.8;stroke:#1f77b4;stroke-opacity:0.8;" x="74.551675" xlink:href="#mb8ba73c4bb" y="221.005877"/>
     <use style="fill:#1f77b4;fill-opacity:0.8;stroke:#1f77b4;stroke-opacity:0.8;" x="43.78125" xlink:href="#mb8ba73c4bb" y="385.783636"/>
     <use style="fill:#1f77b4;fill-opacity:0.8;stroke:#1f77b4;stroke-opacity:0.8;" x="148.167746" xlink:href="#mb8ba73c4bb" y="294.434137"/>
     <use style="fill:#1f77b4;fill-opacity:0.8;stroke:#1f77b4;stroke-opacity:0.8;" x="173.916737" xlink:href="#mb8ba73c4bb" y="215.13791"/>
     <use style="fill:#1f77b4;fill-opacity:0.8;stroke:#1f77b4;stroke-opacity:0.8;" x="251.871926" xlink:href="#mb8ba73c4bb" y="189.610227"/>
     <use style="fill:#1f77b4;fill-opacity:0.8;stroke:#1f77b4;stroke-opacity:0.8;" x="256.727006" xlink:href="#mb8ba73c4bb" y="178.706716"/>
     <use style="fill:#1f77b4;fill-opacity:0.8;stroke:#1f77b4;stroke-opacity:0.8;" x="118.699567" xlink:href="#mb8ba73c4bb" y="230.413938"/>
     <use style="fill:#1f77b4;fill-opacity:0.8;stroke:#1f77b4;stroke-opacity:0.8;" x="175.7698" xlink:href="#mb8ba73c4bb" y="255.941621"/>
     <use style="fill:#1f77b4;fill-opacity:0.8;stroke:#1f77b4;stroke-opacity:0.8;" x="76.46344" xlink:href="#mb8ba73c4bb" y="327.345045"/>
     <use style="fill:#1f77b4;fill-opacity:0.8;stroke:#1f77b4;stroke-opacity:0.8;" x="101.398938" xlink:href="#mb8ba73c4bb" y="268.906454"/>
     <use style="fill:#1f77b4;fill-opacity:0.8;stroke:#1f77b4;stroke-opacity:0.8;" x="115.418679" xlink:href="#mb8ba73c4bb" y="319.961821"/>
     <use style="fill:#1f77b4;fill-opacity:0.8;stroke:#1f77b4;stroke-opacity:0.8;" x="142.609808" xlink:href="#mb8ba73c4bb" y="268.906454"/>
     <use style="fill:#1f77b4;fill-opacity:0.8;stroke:#1f77b4;stroke-opacity:0.8;" x="174.674992" xlink:href="#mb8ba73c4bb" y="248.048818"/>
     <use style="fill:#1f77b4;fill-opacity:0.8;stroke:#1f77b4;stroke-opacity:0.8;" x="72.672643" xlink:href="#mb8ba73c4bb" y="335.237849"/>
     <use style="fill:#1f77b4;fill-opacity:0.8;stroke:#1f77b4;stroke-opacity:0.8;" x="70.905384" xlink:href="#mb8ba73c4bb" y="294.434137"/>
     <use style="fill:#1f77b4;fill-opacity:0.8;stroke:#1f77b4;stroke-opacity:0.8;" x="271.627442" xlink:href="#mb8ba73c4bb" y="255.941621"/>
     <use style="fill:#1f77b4;fill-opacity:0.8;stroke:#1f77b4;stroke-opacity:0.8;" x="165.926021" xlink:href="#mb8ba73c4bb" y="248.048818"/>
     <use style="fill:#1f77b4;fill-opacity:0.8;stroke:#1f77b4;stroke-opacity:0.8;" x="222.010527" xlink:href="#mb8ba73c4bb" y="189.610227"/>
     <use style="fill:#1f77b4;fill-opacity:0.8;stroke:#1f77b4;stroke-opacity:0.8;" x="108.369571" xlink:href="#mb8ba73c4bb" y="327.345045"/>
     <use style="fill:#1f77b4;fill-opacity:0.8;stroke:#1f77b4;stroke-opacity:0.8;" x="154.312316" xlink:href="#mb8ba73c4bb" y="283.530627"/>
     <use style="fill:#1f77b4;fill-opacity:0.8;stroke:#1f77b4;stroke-opacity:0.8;" x="161.348638" xlink:href="#mb8ba73c4bb" y="306.487409"/>
     <use style="fill:#1f77b4;fill-opacity:0.8;stroke:#1f77b4;stroke-opacity:0.8;" x="217.991572" xlink:href="#mb8ba73c4bb" y="134.420543"/>
     <use style="fill:#1f77b4;fill-opacity:0.8;stroke:#1f77b4;stroke-opacity:0.8;" x="64.59754" xlink:href="#mb8ba73c4bb" y="343.715821"/>
     <use style="fill:#1f77b4;fill-opacity:0.8;stroke:#1f77b4;stroke-opacity:0.8;" x="103.438167" xlink:href="#mb8ba73c4bb" y="278.445333"/>
     <use style="fill:#1f77b4;fill-opacity:0.8;stroke:#1f77b4;stroke-opacity:0.8;" x="115.333971" xlink:href="#mb8ba73c4bb" y="306.487409"/>
     <use style="fill:#1f77b4;fill-opacity:0.8;stroke:#1f77b4;stroke-opacity:0.8;" x="339.327971" xlink:href="#mb8ba73c4bb" y="89.456364"/>
     <use style="fill:#1f77b4;fill-opacity:0.8;stroke:#1f77b4;stroke-opacity:0.8;" x="97.881753" xlink:href="#mb8ba73c4bb" y="335.237849"/>
     <use style="fill:#1f77b4;fill-opacity:0.8;stroke:#1f77b4;stroke-opacity:0.8;" x="147.509811" xlink:href="#mb8ba73c4bb" y="255.941621"/>
     <use style="fill:#1f77b4;fill-opacity:0.8;stroke:#1f77b4;stroke-opacity:0.8;" x="169.419932" xlink:href="#mb8ba73c4bb" y="248.048818"/>
     <use style="fill:#1f77b4;fill-opacity:0.8;stroke:#1f77b4;stroke-opacity:0.8;" x="228.952564" xlink:href="#mb8ba73c4bb" y="240.665594"/>
     <use style="fill:#1f77b4;fill-opacity:0.8;stroke:#1f77b4;stroke-opacity:0.8;" x="175.458736" xlink:href="#mb8ba73c4bb" y="224.056732"/>
     <use style="fill:#1f77b4;fill-opacity:0.8;stroke:#1f77b4;stroke-opacity:0.8;" x="91.830625" xlink:href="#mb8ba73c4bb" y="294.434137"/>
     <use style="fill:#1f77b4;fill-opacity:0.8;stroke:#1f77b4;stroke-opacity:0.8;" x="215.6831" xlink:href="#mb8ba73c4bb" y="201.663499"/>
     <use style="fill:#1f77b4;fill-opacity:0.8;stroke:#1f77b4;stroke-opacity:0.8;" x="175.414632" xlink:href="#mb8ba73c4bb" y="255.941621"/>
     <use style="fill:#1f77b4;fill-opacity:0.8;stroke:#1f77b4;stroke-opacity:0.8;" x="82.871613" xlink:href="#mb8ba73c4bb" y="294.434137"/>
     <use style="fill:#1f77b4;fill-opacity:0.8;stroke:#1f77b4;stroke-opacity:0.8;" x="136.761779" xlink:href="#mb8ba73c4bb" y="327.345045"/>
     <use style="fill:#1f77b4;fill-opacity:0.8;stroke:#1f77b4;stroke-opacity:0.8;" x="61.901536" xlink:href="#mb8ba73c4bb" y="352.872729"/>
     <use style="fill:#1f77b4;fill-opacity:0.8;stroke:#1f77b4;stroke-opacity:0.8;" x="164.567397" xlink:href="#mb8ba73c4bb" y="283.530627"/>
     <use style="fill:#1f77b4;fill-opacity:0.8;stroke:#1f77b4;stroke-opacity:0.8;" x="179.314996" xlink:href="#mb8ba73c4bb" y="327.345045"/>
     <use style="fill:#1f77b4;fill-opacity:0.8;stroke:#1f77b4;stroke-opacity:0.8;" x="171.186361" xlink:href="#mb8ba73c4bb" y="230.413938"/>
     <use style="fill:#1f77b4;fill-opacity:0.8;stroke:#1f77b4;stroke-opacity:0.8;" x="187.787074" xlink:href="#mb8ba73c4bb" y="294.434137"/>
     <use style="fill:#1f77b4;fill-opacity:0.8;stroke:#1f77b4;stroke-opacity:0.8;" x="130.870544" xlink:href="#mb8ba73c4bb" y="319.961821"/>
     <use style="fill:#1f77b4;fill-opacity:0.8;stroke:#1f77b4;stroke-opacity:0.8;" x="159.454739" xlink:href="#mb8ba73c4bb" y="230.413938"/>
     <use style="fill:#1f77b4;fill-opacity:0.8;stroke:#1f77b4;stroke-opacity:0.8;" x="145.52058" xlink:href="#mb8ba73c4bb" y="189.610227"/>
     <use style="fill:#1f77b4;fill-opacity:0.8;stroke:#1f77b4;stroke-opacity:0.8;" x="304.810538" xlink:href="#mb8ba73c4bb" y="135.841683"/>
     <use style="fill:#1f77b4;fill-opacity:0.8;stroke:#1f77b4;stroke-opacity:0.8;" x="159.166786" xlink:href="#mb8ba73c4bb" y="215.13791"/>
     <use style="fill:#1f77b4;fill-opacity:0.8;stroke:#1f77b4;stroke-opacity:0.8;" x="173.272498" xlink:href="#mb8ba73c4bb" y="278.445333"/>
     <use style="fill:#1f77b4;fill-opacity:0.8;stroke:#1f77b4;stroke-opacity:0.8;" x="49.139997" xlink:href="#mb8ba73c4bb" y="352.872729"/>
     <use style="fill:#1f77b4;fill-opacity:0.8;stroke:#1f77b4;stroke-opacity:0.8;" x="97.883682" xlink:href="#mb8ba73c4bb" y="327.345045"/>
     <use style="fill:#1f77b4;fill-opacity:0.8;stroke:#1f77b4;stroke-opacity:0.8;" x="252.952082" xlink:href="#mb8ba73c4bb" y="189.610227"/>
     <use style="fill:#1f77b4;fill-opacity:0.8;stroke:#1f77b4;stroke-opacity:0.8;" x="272.624154" xlink:href="#mb8ba73c4bb" y="201.663499"/>
     <use style="fill:#1f77b4;fill-opacity:0.8;stroke:#1f77b4;stroke-opacity:0.8;" x="114.084926" xlink:href="#mb8ba73c4bb" y="268.906454"/>
     <use style="fill:#1f77b4;fill-opacity:0.8;stroke:#1f77b4;stroke-opacity:0.8;" x="140.890962" xlink:href="#mb8ba73c4bb" y="294.434137"/>
     <use style="fill:#1f77b4;fill-opacity:0.8;stroke:#1f77b4;stroke-opacity:0.8;" x="71.603863" xlink:href="#mb8ba73c4bb" y="352.872729"/>
     <use style="fill:#1f77b4;fill-opacity:0.8;stroke:#1f77b4;stroke-opacity:0.8;" x="151.658965" xlink:href="#mb8ba73c4bb" y="240.665594"/>
     <use style="fill:#1f77b4;fill-opacity:0.8;stroke:#1f77b4;stroke-opacity:0.8;" x="134.178287" xlink:href="#mb8ba73c4bb" y="313.026347"/>
     <use style="fill:#1f77b4;fill-opacity:0.8;stroke:#1f77b4;stroke-opacity:0.8;" x="75.757025" xlink:href="#mb8ba73c4bb" y="368.148756"/>
     <use style="fill:#1f77b4;fill-opacity:0.8;stroke:#1f77b4;stroke-opacity:0.8;" x="175.952695" xlink:href="#mb8ba73c4bb" y="215.13791"/>
     <use style="fill:#1f77b4;fill-opacity:0.8;stroke:#1f77b4;stroke-opacity:0.8;" x="117.578427" xlink:href="#mb8ba73c4bb" y="306.487409"/>
     <use style="fill:#1f77b4;fill-opacity:0.8;stroke:#1f77b4;stroke-opacity:0.8;" x="352.418929" xlink:href="#mb8ba73c4bb" y="89.456364"/>
     <use style="fill:#1f77b4;fill-opacity:0.8;stroke:#1f77b4;stroke-opacity:0.8;" x="168.721492" xlink:href="#mb8ba73c4bb" y="268.906454"/>
     <use style="fill:#1f77b4;fill-opacity:0.8;stroke:#1f77b4;stroke-opacity:0.8;" x="116.017006" xlink:href="#mb8ba73c4bb" y="280.959726"/>
     <use style="fill:#1f77b4;fill-opacity:0.8;stroke:#1f77b4;stroke-opacity:0.8;" x="131.973477" xlink:href="#mb8ba73c4bb" y="373.730365"/>
     <use style="fill:#1f77b4;fill-opacity:0.8;stroke:#1f77b4;stroke-opacity:0.8;" x="65.422554" xlink:href="#mb8ba73c4bb" y="385.783636"/>
     <use style="fill:#1f77b4;fill-opacity:0.8;stroke:#1f77b4;stroke-opacity:0.8;" x="153.843599" xlink:href="#mb8ba73c4bb" y="306.487409"/>
     <use style="fill:#1f77b4;fill-opacity:0.8;stroke:#1f77b4;stroke-opacity:0.8;" x="188.309327" xlink:href="#mb8ba73c4bb" y="168.752591"/>
     <use style="fill:#1f77b4;fill-opacity:0.8;stroke:#1f77b4;stroke-opacity:0.8;" x="108.528538" xlink:href="#mb8ba73c4bb" y="268.906454"/>
     <use style="fill:#1f77b4;fill-opacity:0.8;stroke:#1f77b4;stroke-opacity:0.8;" x="224.097284" xlink:href="#mb8ba73c4bb" y="215.13791"/>
     <use style="fill:#1f77b4;fill-opacity:0.8;stroke:#1f77b4;stroke-opacity:0.8;" x="114.50851" xlink:href="#mb8ba73c4bb" y="319.961821"/>
     <use style="fill:#1f77b4;fill-opacity:0.8;stroke:#1f77b4;stroke-opacity:0.8;" x="145.446892" xlink:href="#mb8ba73c4bb" y="268.906454"/>
     <use style="fill:#1f77b4;fill-opacity:0.8;stroke:#1f77b4;stroke-opacity:0.8;" x="220.149769" xlink:href="#mb8ba73c4bb" y="215.13791"/>
     <use style="fill:#1f77b4;fill-opacity:0.8;stroke:#1f77b4;stroke-opacity:0.8;" x="145.872625" xlink:href="#mb8ba73c4bb" y="268.906454"/>
     <use style="fill:#1f77b4;fill-opacity:0.8;stroke:#1f77b4;stroke-opacity:0.8;" x="206.732188" xlink:href="#mb8ba73c4bb" y="159.595683"/>
     <use style="fill:#1f77b4;fill-opacity:0.8;stroke:#1f77b4;stroke-opacity:0.8;" x="258.840012" xlink:href="#mb8ba73c4bb" y="168.752591"/>
     <use style="fill:#1f77b4;fill-opacity:0.8;stroke:#1f77b4;stroke-opacity:0.8;" x="272.211503" xlink:href="#mb8ba73c4bb" y="215.13791"/>
     <use style="fill:#1f77b4;fill-opacity:0.8;stroke:#1f77b4;stroke-opacity:0.8;" x="157.615849" xlink:href="#mb8ba73c4bb" y="294.434137"/>
     <use style="fill:#1f77b4;fill-opacity:0.8;stroke:#1f77b4;stroke-opacity:0.8;" x="140.403937" xlink:href="#mb8ba73c4bb" y="255.941621"/>
     <use style="fill:#1f77b4;fill-opacity:0.8;stroke:#1f77b4;stroke-opacity:0.8;" x="332.194888" xlink:href="#mb8ba73c4bb" y="99.410489"/>
     <use style="fill:#1f77b4;fill-opacity:0.8;stroke:#1f77b4;stroke-opacity:0.8;" x="80.505816" xlink:href="#mb8ba73c4bb" y="268.906454"/>
     <use style="fill:#1f77b4;fill-opacity:0.8;stroke:#1f77b4;stroke-opacity:0.8;" x="273.124069" xlink:href="#mb8ba73c4bb" y="215.13791"/>
     <use style="fill:#1f77b4;fill-opacity:0.8;stroke:#1f77b4;stroke-opacity:0.8;" x="169.602617" xlink:href="#mb8ba73c4bb" y="278.445333"/>
     <use style="fill:#1f77b4;fill-opacity:0.8;stroke:#1f77b4;stroke-opacity:0.8;" x="175.542809" xlink:href="#mb8ba73c4bb" y="283.530627"/>
     <use style="fill:#1f77b4;fill-opacity:0.8;stroke:#1f77b4;stroke-opacity:0.8;" x="272.610155" xlink:href="#mb8ba73c4bb" y="168.752591"/>
     <use style="fill:#1f77b4;fill-opacity:0.8;stroke:#1f77b4;stroke-opacity:0.8;" x="124.570683" xlink:href="#mb8ba73c4bb" y="306.487409"/>
     <use style="fill:#1f77b4;fill-opacity:0.8;stroke:#1f77b4;stroke-opacity:0.8;" x="255.17634" xlink:href="#mb8ba73c4bb" y="194.280274"/>
     <use style="fill:#1f77b4;fill-opacity:0.8;stroke:#1f77b4;stroke-opacity:0.8;" x="313.071729" xlink:href="#mb8ba73c4bb" y="147.894955"/>
     <use style="fill:#1f77b4;fill-opacity:0.8;stroke:#1f77b4;stroke-opacity:0.8;" x="246.298455" xlink:href="#mb8ba73c4bb" y="161.369366"/>
     <use style="fill:#1f77b4;fill-opacity:0.8;stroke:#1f77b4;stroke-opacity:0.8;" x="131.507667" xlink:href="#mb8ba73c4bb" y="288.852529"/>
     <use style="fill:#1f77b4;fill-opacity:0.8;stroke:#1f77b4;stroke-opacity:0.8;" x="219.79045" xlink:href="#mb8ba73c4bb" y="189.610227"/>
     <use style="fill:#1f77b4;fill-opacity:0.8;stroke:#1f77b4;stroke-opacity:0.8;" x="338.879448" xlink:href="#mb8ba73c4bb" y="89.456364"/>
     <use style="fill:#1f77b4;fill-opacity:0.8;stroke:#1f77b4;stroke-opacity:0.8;" x="156.435786" xlink:href="#mb8ba73c4bb" y="240.665594"/>
     <use style="fill:#1f77b4;fill-opacity:0.8;stroke:#1f77b4;stroke-opacity:0.8;" x="246.997925" xlink:href="#mb8ba73c4bb" y="230.413938"/>
     <use style="fill:#1f77b4;fill-opacity:0.8;stroke:#1f77b4;stroke-opacity:0.8;" x="145.324543" xlink:href="#mb8ba73c4bb" y="294.434137"/>
     <use style="fill:#1f77b4;fill-opacity:0.8;stroke:#1f77b4;stroke-opacity:0.8;" x="152.425215" xlink:href="#mb8ba73c4bb" y="306.487409"/>
     <use style="fill:#1f77b4;fill-opacity:0.8;stroke:#1f77b4;stroke-opacity:0.8;" x="141.010864" xlink:href="#mb8ba73c4bb" y="306.487409"/>
     <use style="fill:#1f77b4;fill-opacity:0.8;stroke:#1f77b4;stroke-opacity:0.8;" x="212.912897" xlink:href="#mb8ba73c4bb" y="255.941621"/>
     <use style="fill:#1f77b4;fill-opacity:0.8;stroke:#1f77b4;stroke-opacity:0.8;" x="132.782855" xlink:href="#mb8ba73c4bb" y="294.434137"/>
     <use style="fill:#1f77b4;fill-opacity:0.8;stroke:#1f77b4;stroke-opacity:0.8;" x="119.683909" xlink:href="#mb8ba73c4bb" y="313.026347"/>
     <use style="fill:#1f77b4;fill-opacity:0.8;stroke:#1f77b4;stroke-opacity:0.8;" x="181.676177" xlink:href="#mb8ba73c4bb" y="248.048818"/>
     <use style="fill:#1f77b4;fill-opacity:0.8;stroke:#1f77b4;stroke-opacity:0.8;" x="137.438382" xlink:href="#mb8ba73c4bb" y="294.434137"/>
     <use style="fill:#1f77b4;fill-opacity:0.8;stroke:#1f77b4;stroke-opacity:0.8;" x="280.203493" xlink:href="#mb8ba73c4bb" y="215.13791"/>
     <use style="fill:#1f77b4;fill-opacity:0.8;stroke:#1f77b4;stroke-opacity:0.8;" x="58.411817" xlink:href="#mb8ba73c4bb" y="327.345045"/>
     <use style="fill:#1f77b4;fill-opacity:0.8;stroke:#1f77b4;stroke-opacity:0.8;" x="90.56804" xlink:href="#mb8ba73c4bb" y="309.710165"/>
     <use style="fill:#1f77b4;fill-opacity:0.8;stroke:#1f77b4;stroke-opacity:0.8;" x="149.394354" xlink:href="#mb8ba73c4bb" y="189.610227"/>
     <use style="fill:#1f77b4;fill-opacity:0.8;stroke:#1f77b4;stroke-opacity:0.8;" x="244.440323" xlink:href="#mb8ba73c4bb" y="151.117711"/>
     <use style="fill:#1f77b4;fill-opacity:0.8;stroke:#1f77b4;stroke-opacity:0.8;" x="68.461179" xlink:href="#mb8ba73c4bb" y="352.872729"/>
     <use style="fill:#1f77b4;fill-opacity:0.8;stroke:#1f77b4;stroke-opacity:0.8;" x="71.221028" xlink:href="#mb8ba73c4bb" y="306.487409"/>
     <use style="fill:#1f77b4;fill-opacity:0.8;stroke:#1f77b4;stroke-opacity:0.8;" x="164.978758" xlink:href="#mb8ba73c4bb" y="189.610227"/>
     <use style="fill:#1f77b4;fill-opacity:0.8;stroke:#1f77b4;stroke-opacity:0.8;" x="122.870072" xlink:href="#mb8ba73c4bb" y="268.906454"/>
     <use style="fill:#1f77b4;fill-opacity:0.8;stroke:#1f77b4;stroke-opacity:0.8;" x="252.10161" xlink:href="#mb8ba73c4bb" y="201.663499"/>
     <use style="fill:#1f77b4;fill-opacity:0.8;stroke:#1f77b4;stroke-opacity:0.8;" x="244.567852" xlink:href="#mb8ba73c4bb" y="189.610227"/>
     <use style="fill:#1f77b4;fill-opacity:0.8;stroke:#1f77b4;stroke-opacity:0.8;" x="69.372233" xlink:href="#mb8ba73c4bb" y="294.434137"/>
     <use style="fill:#1f77b4;fill-opacity:0.8;stroke:#1f77b4;stroke-opacity:0.8;" x="148.820522" xlink:href="#mb8ba73c4bb" y="294.434137"/>
     <use style="fill:#1f77b4;fill-opacity:0.8;stroke:#1f77b4;stroke-opacity:0.8;" x="163.931041" xlink:href="#mb8ba73c4bb" y="248.048818"/>
     <use style="fill:#1f77b4;fill-opacity:0.8;stroke:#1f77b4;stroke-opacity:0.8;" x="128.706601" xlink:href="#mb8ba73c4bb" y="313.026347"/>
     <use style="fill:#1f77b4;fill-opacity:0.8;stroke:#1f77b4;stroke-opacity:0.8;" x="160.505575" xlink:href="#mb8ba73c4bb" y="327.345045"/>
     <use style="fill:#1f77b4;fill-opacity:0.8;stroke:#1f77b4;stroke-opacity:0.8;" x="243.541545" xlink:href="#mb8ba73c4bb" y="189.610227"/>
     <use style="fill:#1f77b4;fill-opacity:0.8;stroke:#1f77b4;stroke-opacity:0.8;" x="125.201384" xlink:href="#mb8ba73c4bb" y="327.345045"/>
     <use style="fill:#1f77b4;fill-opacity:0.8;stroke:#1f77b4;stroke-opacity:0.8;" x="102.806542" xlink:href="#mb8ba73c4bb" y="343.715821"/>
     <use style="fill:#1f77b4;fill-opacity:0.8;stroke:#1f77b4;stroke-opacity:0.8;" x="112.585118" xlink:href="#mb8ba73c4bb" y="268.906454"/>
     <use style="fill:#1f77b4;fill-opacity:0.8;stroke:#1f77b4;stroke-opacity:0.8;" x="169.684488" xlink:href="#mb8ba73c4bb" y="215.13791"/>
    </g>
   </g>
   <g id="PolyCollection_1">
    <path clip-path="url(#pdfa8f721b7)" d="M 43.78125 350.690821 
L 43.78125 370.282527 
L 46.898802 367.51584 
L 50.016355 364.842882 
L 53.133907 362.169923 
L 56.251459 359.495007 
L 59.369012 356.819394 
L 62.486564 354.142222 
L 65.604116 351.353731 
L 68.721668 348.525947 
L 71.839221 345.671346 
L 74.956773 342.899847 
L 78.074325 340.128334 
L 81.191878 337.321985 
L 84.30943 334.551726 
L 87.426982 331.85707 
L 90.544535 329.108968 
L 93.662087 326.359769 
L 96.779639 323.599447 
L 99.897192 320.686902 
L 103.014744 317.997488 
L 106.132296 315.311295 
L 109.249848 312.627622 
L 112.367401 309.941072 
L 115.484953 307.262884 
L 118.602505 304.626206 
L 121.720058 302.043181 
L 124.83761 299.429279 
L 127.955162 296.812962 
L 131.072715 294.146101 
L 134.190267 291.505547 
L 137.307819 288.730531 
L 140.425372 286.141017 
L 143.542924 283.506186 
L 146.660476 280.886325 
L 149.778028 278.276083 
L 152.895581 275.682027 
L 156.013133 273.137227 
L 159.130685 270.583935 
L 162.248238 268.04586 
L 165.36579 265.513249 
L 168.483342 262.929219 
L 171.600895 260.363008 
L 174.718447 257.765187 
L 177.835999 255.203367 
L 180.953552 252.73027 
L 184.071104 250.172205 
L 187.188656 247.718443 
L 190.306209 245.297733 
L 193.423761 242.809391 
L 196.541313 240.308418 
L 199.658865 237.823405 
L 202.776418 235.323857 
L 205.89397 232.852982 
L 209.011522 230.404058 
L 212.129075 227.952381 
L 215.246627 225.479359 
L 218.364179 222.886094 
L 221.481732 220.41437 
L 224.599284 217.953998 
L 227.716836 215.50961 
L 230.834389 213.079602 
L 233.951941 210.638061 
L 237.069493 208.238672 
L 240.187045 205.780188 
L 243.304598 203.309667 
L 246.42215 200.99956 
L 249.539702 198.538115 
L 252.657255 196.114954 
L 255.774807 193.689877 
L 258.892359 191.285575 
L 262.009912 188.933201 
L 265.127464 186.530363 
L 268.245016 184.11316 
L 271.362569 181.695957 
L 274.480121 179.288201 
L 277.597673 176.878912 
L 280.715225 174.462819 
L 283.832778 172.073044 
L 286.95033 169.695408 
L 290.067882 167.317772 
L 293.185435 164.961344 
L 296.302987 162.565446 
L 299.420539 160.200419 
L 302.538092 157.824292 
L 305.655644 155.43386 
L 308.773196 153.057483 
L 311.890749 150.681106 
L 315.008301 148.304729 
L 318.125853 145.928351 
L 321.243405 143.551714 
L 324.360958 141.195626 
L 327.47851 138.828565 
L 330.596062 136.414589 
L 333.713615 134.040165 
L 336.831167 131.665009 
L 339.948719 129.289852 
L 343.066272 126.914696 
L 346.183824 124.53954 
L 349.301376 122.207179 
L 352.418929 119.889086 
L 352.418929 92.283592 
L 352.418929 92.283592 
L 349.301376 95.056798 
L 346.183824 97.828748 
L 343.066272 100.600231 
L 339.948719 103.372267 
L 336.831167 106.146135 
L 333.713615 108.932488 
L 330.596062 111.708619 
L 327.47851 114.483923 
L 324.360958 117.259226 
L 321.243405 120.03453 
L 318.125853 122.809834 
L 315.008301 125.585137 
L 311.890749 128.360441 
L 308.773196 131.135744 
L 305.655644 133.906283 
L 302.538092 136.645911 
L 299.420539 139.347374 
L 296.302987 142.066054 
L 293.185435 144.785946 
L 290.067882 147.507189 
L 286.95033 150.234031 
L 283.832778 152.995143 
L 280.715225 155.756255 
L 277.597673 158.517367 
L 274.480121 161.278479 
L 271.362569 164.039844 
L 268.245016 166.763976 
L 265.127464 169.468279 
L 262.009912 172.31573 
L 258.892359 175.093618 
L 255.774807 177.824813 
L 252.657255 180.516879 
L 249.539702 183.288792 
L 246.42215 185.997908 
L 243.304598 188.76755 
L 240.187045 191.53758 
L 237.069493 194.302299 
L 233.951941 197.057213 
L 230.834389 199.757292 
L 227.716836 202.457646 
L 224.599284 205.135903 
L 221.481732 207.86329 
L 218.364179 210.562492 
L 215.246627 213.239837 
L 212.129075 215.964076 
L 209.011522 218.664731 
L 205.89397 221.280293 
L 202.776418 223.818105 
L 199.658865 226.457309 
L 196.541313 229.100202 
L 193.423761 231.833665 
L 190.306209 234.55135 
L 187.188656 237.210181 
L 184.071104 239.811944 
L 180.953552 242.440404 
L 177.835999 245.088887 
L 174.718447 247.716086 
L 171.600895 250.340551 
L 168.483342 252.949165 
L 165.36579 255.493123 
L 162.248238 258.150552 
L 159.130685 260.713616 
L 156.013133 263.293501 
L 152.895581 265.896756 
L 149.778028 268.395333 
L 146.660476 270.897581 
L 143.542924 273.390557 
L 140.425372 275.896125 
L 137.307819 278.369046 
L 134.190267 280.838308 
L 131.072715 283.233815 
L 127.955162 285.644312 
L 124.83761 288.127046 
L 121.720058 290.497355 
L 118.602505 293.010624 
L 115.484953 295.458873 
L 112.367401 297.796709 
L 109.249848 300.240971 
L 106.132296 302.648251 
L 103.014744 305.003398 
L 99.897192 307.469303 
L 96.779639 309.787885 
L 93.662087 312.168469 
L 90.544535 314.624936 
L 87.426982 317.134355 
L 84.30943 319.474809 
L 81.191878 321.883117 
L 78.074325 324.312182 
L 74.956773 326.725617 
L 71.839221 329.115464 
L 68.721668 331.507464 
L 65.604116 333.902399 
L 62.486564 336.263663 
L 59.369012 338.693552 
L 56.251459 341.089128 
L 53.133907 343.492649 
L 50.016355 345.901823 
L 46.898802 348.310997 
L 43.78125 350.690821 
z
" style="fill:#1f77b4;fill-opacity:0.15;"/>
   </g>
   <g id="matplotlib.axis_1">
    <g id="xtick_1">
     <g id="line2d_1">
      <defs>
       <path d="M 0 0 
L 0 3.5 
" id="m76a6df3198" style="stroke:#000000;stroke-width:0.8;"/>
      </defs>
      <g>
       <use style="stroke:#000000;stroke-width:0.8;" x="55.143338" xlink:href="#m76a6df3198" y="400.6"/>
      </g>
     </g>
     <g id="text_1">
      <!-- 2.50 -->
      <g transform="translate(44.010525 415.198437)scale(0.1 -0.1)">
       <defs>
        <path d="M 19.1875 8.296875 
L 53.609375 8.296875 
L 53.609375 0 
L 7.328125 0 
L 7.328125 8.296875 
Q 12.9375 14.109375 22.625 23.890625 
Q 32.328125 33.6875 34.8125 36.53125 
Q 39.546875 41.84375 41.421875 45.53125 
Q 43.3125 49.21875 43.3125 52.78125 
Q 43.3125 58.59375 39.234375 62.25 
Q 35.15625 65.921875 28.609375 65.921875 
Q 23.96875 65.921875 18.8125 64.3125 
Q 13.671875 62.703125 7.8125 59.421875 
L 7.8125 69.390625 
Q 13.765625 71.78125 18.9375 73 
Q 24.125 74.21875 28.421875 74.21875 
Q 39.75 74.21875 46.484375 68.546875 
Q 53.21875 62.890625 53.21875 53.421875 
Q 53.21875 48.921875 51.53125 44.890625 
Q 49.859375 40.875 45.40625 35.40625 
Q 44.1875 33.984375 37.640625 27.21875 
Q 31.109375 20.453125 19.1875 8.296875 
z
" id="DejaVuSans-50"/>
        <path d="M 10.6875 12.40625 
L 21 12.40625 
L 21 0 
L 10.6875 0 
z
" id="DejaVuSans-46"/>
        <path d="M 10.796875 72.90625 
L 49.515625 72.90625 
L 49.515625 64.59375 
L 19.828125 64.59375 
L 19.828125 46.734375 
Q 21.96875 47.46875 24.109375 47.828125 
Q 26.265625 48.1875 28.421875 48.1875 
Q 40.625 48.1875 47.75 41.5 
Q 54.890625 34.8125 54.890625 23.390625 
Q 54.890625 11.625 47.5625 5.09375 
Q 40.234375 -1.421875 26.90625 -1.421875 
Q 22.3125 -1.421875 17.546875 -0.640625 
Q 12.796875 0.140625 7.71875 1.703125 
L 7.71875 11.625 
Q 12.109375 9.234375 16.796875 8.0625 
Q 21.484375 6.890625 26.703125 6.890625 
Q 35.15625 6.890625 40.078125 11.328125 
Q 45.015625 15.765625 45.015625 23.390625 
Q 45.015625 31 40.078125 35.4375 
Q 35.15625 39.890625 26.703125 39.890625 
Q 22.75 39.890625 18.8125 39.015625 
Q 14.890625 38.140625 10.796875 36.28125 
z
" id="DejaVuSans-53"/>
        <path d="M 31.78125 66.40625 
Q 24.171875 66.40625 20.328125 58.90625 
Q 16.5 51.421875 16.5 36.375 
Q 16.5 21.390625 20.328125 13.890625 
Q 24.171875 6.390625 31.78125 6.390625 
Q 39.453125 6.390625 43.28125 13.890625 
Q 47.125 21.390625 47.125 36.375 
Q 47.125 51.421875 43.28125 58.90625 
Q 39.453125 66.40625 31.78125 66.40625 
z
M 31.78125 74.21875 
Q 44.046875 74.21875 50.515625 64.515625 
Q 56.984375 54.828125 56.984375 36.375 
Q 56.984375 17.96875 50.515625 8.265625 
Q 44.046875 -1.421875 31.78125 -1.421875 
Q 19.53125 -1.421875 13.0625 8.265625 
Q 6.59375 17.96875 6.59375 36.375 
Q 6.59375 54.828125 13.0625 64.515625 
Q 19.53125 74.21875 31.78125 74.21875 
z
" id="DejaVuSans-48"/>
       </defs>
       <use xlink:href="#DejaVuSans-50"/>
       <use x="63.623047" xlink:href="#DejaVuSans-46"/>
       <use x="95.410156" xlink:href="#DejaVuSans-53"/>
       <use x="159.033203" xlink:href="#DejaVuSans-48"/>
      </g>
     </g>
    </g>
    <g id="xtick_2">
     <g id="line2d_2">
      <g>
       <use style="stroke:#000000;stroke-width:0.8;" x="89.958159" xlink:href="#m76a6df3198" y="400.6"/>
      </g>
     </g>
     <g id="text_2">
      <!-- 2.75 -->
      <g transform="translate(78.825347 415.198437)scale(0.1 -0.1)">
       <defs>
        <path d="M 8.203125 72.90625 
L 55.078125 72.90625 
L 55.078125 68.703125 
L 28.609375 0 
L 18.3125 0 
L 43.21875 64.59375 
L 8.203125 64.59375 
z
" id="DejaVuSans-55"/>
       </defs>
       <use xlink:href="#DejaVuSans-50"/>
       <use x="63.623047" xlink:href="#DejaVuSans-46"/>
       <use x="95.410156" xlink:href="#DejaVuSans-55"/>
       <use x="159.033203" xlink:href="#DejaVuSans-53"/>
      </g>
     </g>
    </g>
    <g id="xtick_3">
     <g id="line2d_3">
      <g>
       <use style="stroke:#000000;stroke-width:0.8;" x="124.77298" xlink:href="#m76a6df3198" y="400.6"/>
      </g>
     </g>
     <g id="text_3">
      <!-- 3.00 -->
      <g transform="translate(113.640168 415.198437)scale(0.1 -0.1)">
       <defs>
        <path d="M 40.578125 39.3125 
Q 47.65625 37.796875 51.625 33 
Q 55.609375 28.21875 55.609375 21.1875 
Q 55.609375 10.40625 48.1875 4.484375 
Q 40.765625 -1.421875 27.09375 -1.421875 
Q 22.515625 -1.421875 17.65625 -0.515625 
Q 12.796875 0.390625 7.625 2.203125 
L 7.625 11.71875 
Q 11.71875 9.328125 16.59375 8.109375 
Q 21.484375 6.890625 26.8125 6.890625 
Q 36.078125 6.890625 40.9375 10.546875 
Q 45.796875 14.203125 45.796875 21.1875 
Q 45.796875 27.640625 41.28125 31.265625 
Q 36.765625 34.90625 28.71875 34.90625 
L 20.21875 34.90625 
L 20.21875 43.015625 
L 29.109375 43.015625 
Q 36.375 43.015625 40.234375 45.921875 
Q 44.09375 48.828125 44.09375 54.296875 
Q 44.09375 59.90625 40.109375 62.90625 
Q 36.140625 65.921875 28.71875 65.921875 
Q 24.65625 65.921875 20.015625 65.03125 
Q 15.375 64.15625 9.8125 62.3125 
L 9.8125 71.09375 
Q 15.4375 72.65625 20.34375 73.4375 
Q 25.25 74.21875 29.59375 74.21875 
Q 40.828125 74.21875 47.359375 69.109375 
Q 53.90625 64.015625 53.90625 55.328125 
Q 53.90625 49.265625 50.4375 45.09375 
Q 46.96875 40.921875 40.578125 39.3125 
z
" id="DejaVuSans-51"/>
       </defs>
       <use xlink:href="#DejaVuSans-51"/>
       <use x="63.623047" xlink:href="#DejaVuSans-46"/>
       <use x="95.410156" xlink:href="#DejaVuSans-48"/>
       <use x="159.033203" xlink:href="#DejaVuSans-48"/>
      </g>
     </g>
    </g>
    <g id="xtick_4">
     <g id="line2d_4">
      <g>
       <use style="stroke:#000000;stroke-width:0.8;" x="159.587802" xlink:href="#m76a6df3198" y="400.6"/>
      </g>
     </g>
     <g id="text_4">
      <!-- 3.25 -->
      <g transform="translate(148.454989 415.198437)scale(0.1 -0.1)">
       <use xlink:href="#DejaVuSans-51"/>
       <use x="63.623047" xlink:href="#DejaVuSans-46"/>
       <use x="95.410156" xlink:href="#DejaVuSans-50"/>
       <use x="159.033203" xlink:href="#DejaVuSans-53"/>
      </g>
     </g>
    </g>
    <g id="xtick_5">
     <g id="line2d_5">
      <g>
       <use style="stroke:#000000;stroke-width:0.8;" x="194.402623" xlink:href="#m76a6df3198" y="400.6"/>
      </g>
     </g>
     <g id="text_5">
      <!-- 3.50 -->
      <g transform="translate(183.269811 415.198437)scale(0.1 -0.1)">
       <use xlink:href="#DejaVuSans-51"/>
       <use x="63.623047" xlink:href="#DejaVuSans-46"/>
       <use x="95.410156" xlink:href="#DejaVuSans-53"/>
       <use x="159.033203" xlink:href="#DejaVuSans-48"/>
      </g>
     </g>
    </g>
    <g id="xtick_6">
     <g id="line2d_6">
      <g>
       <use style="stroke:#000000;stroke-width:0.8;" x="229.217445" xlink:href="#m76a6df3198" y="400.6"/>
      </g>
     </g>
     <g id="text_6">
      <!-- 3.75 -->
      <g transform="translate(218.084632 415.198437)scale(0.1 -0.1)">
       <use xlink:href="#DejaVuSans-51"/>
       <use x="63.623047" xlink:href="#DejaVuSans-46"/>
       <use x="95.410156" xlink:href="#DejaVuSans-55"/>
       <use x="159.033203" xlink:href="#DejaVuSans-53"/>
      </g>
     </g>
    </g>
    <g id="xtick_7">
     <g id="line2d_7">
      <g>
       <use style="stroke:#000000;stroke-width:0.8;" x="264.032266" xlink:href="#m76a6df3198" y="400.6"/>
      </g>
     </g>
     <g id="text_7">
      <!-- 4.00 -->
      <g transform="translate(252.899453 415.198437)scale(0.1 -0.1)">
       <defs>
        <path d="M 37.796875 64.3125 
L 12.890625 25.390625 
L 37.796875 25.390625 
z
M 35.203125 72.90625 
L 47.609375 72.90625 
L 47.609375 25.390625 
L 58.015625 25.390625 
L 58.015625 17.1875 
L 47.609375 17.1875 
L 47.609375 0 
L 37.796875 0 
L 37.796875 17.1875 
L 4.890625 17.1875 
L 4.890625 26.703125 
z
" id="DejaVuSans-52"/>
       </defs>
       <use xlink:href="#DejaVuSans-52"/>
       <use x="63.623047" xlink:href="#DejaVuSans-46"/>
       <use x="95.410156" xlink:href="#DejaVuSans-48"/>
       <use x="159.033203" xlink:href="#DejaVuSans-48"/>
      </g>
     </g>
    </g>
    <g id="xtick_8">
     <g id="line2d_8">
      <g>
       <use style="stroke:#000000;stroke-width:0.8;" x="298.847087" xlink:href="#m76a6df3198" y="400.6"/>
      </g>
     </g>
     <g id="text_8">
      <!-- 4.25 -->
      <g transform="translate(287.714275 415.198437)scale(0.1 -0.1)">
       <use xlink:href="#DejaVuSans-52"/>
       <use x="63.623047" xlink:href="#DejaVuSans-46"/>
       <use x="95.410156" xlink:href="#DejaVuSans-50"/>
       <use x="159.033203" xlink:href="#DejaVuSans-53"/>
      </g>
     </g>
    </g>
    <g id="xtick_9">
     <g id="line2d_9">
      <g>
       <use style="stroke:#000000;stroke-width:0.8;" x="333.661909" xlink:href="#m76a6df3198" y="400.6"/>
      </g>
     </g>
     <g id="text_9">
      <!-- 4.50 -->
      <g transform="translate(322.529096 415.198437)scale(0.1 -0.1)">
       <use xlink:href="#DejaVuSans-52"/>
       <use x="63.623047" xlink:href="#DejaVuSans-46"/>
       <use x="95.410156" xlink:href="#DejaVuSans-53"/>
       <use x="159.033203" xlink:href="#DejaVuSans-48"/>
      </g>
     </g>
    </g>
    <g id="text_10">
     <!-- Predicted Values -->
     <g transform="translate(156.704777 428.876562)scale(0.1 -0.1)">
      <defs>
       <path d="M 19.671875 64.796875 
L 19.671875 37.40625 
L 32.078125 37.40625 
Q 38.96875 37.40625 42.71875 40.96875 
Q 46.484375 44.53125 46.484375 51.125 
Q 46.484375 57.671875 42.71875 61.234375 
Q 38.96875 64.796875 32.078125 64.796875 
z
M 9.8125 72.90625 
L 32.078125 72.90625 
Q 44.34375 72.90625 50.609375 67.359375 
Q 56.890625 61.8125 56.890625 51.125 
Q 56.890625 40.328125 50.609375 34.8125 
Q 44.34375 29.296875 32.078125 29.296875 
L 19.671875 29.296875 
L 19.671875 0 
L 9.8125 0 
z
" id="DejaVuSans-80"/>
       <path d="M 41.109375 46.296875 
Q 39.59375 47.171875 37.8125 47.578125 
Q 36.03125 48 33.890625 48 
Q 26.265625 48 22.1875 43.046875 
Q 18.109375 38.09375 18.109375 28.8125 
L 18.109375 0 
L 9.078125 0 
L 9.078125 54.6875 
L 18.109375 54.6875 
L 18.109375 46.1875 
Q 20.953125 51.171875 25.484375 53.578125 
Q 30.03125 56 36.53125 56 
Q 37.453125 56 38.578125 55.875 
Q 39.703125 55.765625 41.0625 55.515625 
z
" id="DejaVuSans-114"/>
       <path d="M 56.203125 29.59375 
L 56.203125 25.203125 
L 14.890625 25.203125 
Q 15.484375 15.921875 20.484375 11.0625 
Q 25.484375 6.203125 34.421875 6.203125 
Q 39.59375 6.203125 44.453125 7.46875 
Q 49.3125 8.734375 54.109375 11.28125 
L 54.109375 2.78125 
Q 49.265625 0.734375 44.1875 -0.34375 
Q 39.109375 -1.421875 33.890625 -1.421875 
Q 20.796875 -1.421875 13.15625 6.1875 
Q 5.515625 13.8125 5.515625 26.8125 
Q 5.515625 40.234375 12.765625 48.109375 
Q 20.015625 56 32.328125 56 
Q 43.359375 56 49.78125 48.890625 
Q 56.203125 41.796875 56.203125 29.59375 
z
M 47.21875 32.234375 
Q 47.125 39.59375 43.09375 43.984375 
Q 39.0625 48.390625 32.421875 48.390625 
Q 24.90625 48.390625 20.390625 44.140625 
Q 15.875 39.890625 15.1875 32.171875 
z
" id="DejaVuSans-101"/>
       <path d="M 45.40625 46.390625 
L 45.40625 75.984375 
L 54.390625 75.984375 
L 54.390625 0 
L 45.40625 0 
L 45.40625 8.203125 
Q 42.578125 3.328125 38.25 0.953125 
Q 33.9375 -1.421875 27.875 -1.421875 
Q 17.96875 -1.421875 11.734375 6.484375 
Q 5.515625 14.40625 5.515625 27.296875 
Q 5.515625 40.1875 11.734375 48.09375 
Q 17.96875 56 27.875 56 
Q 33.9375 56 38.25 53.625 
Q 42.578125 51.265625 45.40625 46.390625 
z
M 14.796875 27.296875 
Q 14.796875 17.390625 18.875 11.75 
Q 22.953125 6.109375 30.078125 6.109375 
Q 37.203125 6.109375 41.296875 11.75 
Q 45.40625 17.390625 45.40625 27.296875 
Q 45.40625 37.203125 41.296875 42.84375 
Q 37.203125 48.484375 30.078125 48.484375 
Q 22.953125 48.484375 18.875 42.84375 
Q 14.796875 37.203125 14.796875 27.296875 
z
" id="DejaVuSans-100"/>
       <path d="M 9.421875 54.6875 
L 18.40625 54.6875 
L 18.40625 0 
L 9.421875 0 
z
M 9.421875 75.984375 
L 18.40625 75.984375 
L 18.40625 64.59375 
L 9.421875 64.59375 
z
" id="DejaVuSans-105"/>
       <path d="M 48.78125 52.59375 
L 48.78125 44.1875 
Q 44.96875 46.296875 41.140625 47.34375 
Q 37.3125 48.390625 33.40625 48.390625 
Q 24.65625 48.390625 19.8125 42.84375 
Q 14.984375 37.3125 14.984375 27.296875 
Q 14.984375 17.28125 19.8125 11.734375 
Q 24.65625 6.203125 33.40625 6.203125 
Q 37.3125 6.203125 41.140625 7.25 
Q 44.96875 8.296875 48.78125 10.40625 
L 48.78125 2.09375 
Q 45.015625 0.34375 40.984375 -0.53125 
Q 36.96875 -1.421875 32.421875 -1.421875 
Q 20.0625 -1.421875 12.78125 6.34375 
Q 5.515625 14.109375 5.515625 27.296875 
Q 5.515625 40.671875 12.859375 48.328125 
Q 20.21875 56 33.015625 56 
Q 37.15625 56 41.109375 55.140625 
Q 45.0625 54.296875 48.78125 52.59375 
z
" id="DejaVuSans-99"/>
       <path d="M 18.3125 70.21875 
L 18.3125 54.6875 
L 36.8125 54.6875 
L 36.8125 47.703125 
L 18.3125 47.703125 
L 18.3125 18.015625 
Q 18.3125 11.328125 20.140625 9.421875 
Q 21.96875 7.515625 27.59375 7.515625 
L 36.8125 7.515625 
L 36.8125 0 
L 27.59375 0 
Q 17.1875 0 13.234375 3.875 
Q 9.28125 7.765625 9.28125 18.015625 
L 9.28125 47.703125 
L 2.6875 47.703125 
L 2.6875 54.6875 
L 9.28125 54.6875 
L 9.28125 70.21875 
z
" id="DejaVuSans-116"/>
       <path id="DejaVuSans-32"/>
       <path d="M 28.609375 0 
L 0.78125 72.90625 
L 11.078125 72.90625 
L 34.1875 11.53125 
L 57.328125 72.90625 
L 67.578125 72.90625 
L 39.796875 0 
z
" id="DejaVuSans-86"/>
       <path d="M 34.28125 27.484375 
Q 23.390625 27.484375 19.1875 25 
Q 14.984375 22.515625 14.984375 16.5 
Q 14.984375 11.71875 18.140625 8.90625 
Q 21.296875 6.109375 26.703125 6.109375 
Q 34.1875 6.109375 38.703125 11.40625 
Q 43.21875 16.703125 43.21875 25.484375 
L 43.21875 27.484375 
z
M 52.203125 31.203125 
L 52.203125 0 
L 43.21875 0 
L 43.21875 8.296875 
Q 40.140625 3.328125 35.546875 0.953125 
Q 30.953125 -1.421875 24.3125 -1.421875 
Q 15.921875 -1.421875 10.953125 3.296875 
Q 6 8.015625 6 15.921875 
Q 6 25.140625 12.171875 29.828125 
Q 18.359375 34.515625 30.609375 34.515625 
L 43.21875 34.515625 
L 43.21875 35.40625 
Q 43.21875 41.609375 39.140625 45 
Q 35.0625 48.390625 27.6875 48.390625 
Q 23 48.390625 18.546875 47.265625 
Q 14.109375 46.140625 10.015625 43.890625 
L 10.015625 52.203125 
Q 14.9375 54.109375 19.578125 55.046875 
Q 24.21875 56 28.609375 56 
Q 40.484375 56 46.34375 49.84375 
Q 52.203125 43.703125 52.203125 31.203125 
z
" id="DejaVuSans-97"/>
       <path d="M 9.421875 75.984375 
L 18.40625 75.984375 
L 18.40625 0 
L 9.421875 0 
z
" id="DejaVuSans-108"/>
       <path d="M 8.5 21.578125 
L 8.5 54.6875 
L 17.484375 54.6875 
L 17.484375 21.921875 
Q 17.484375 14.15625 20.5 10.265625 
Q 23.53125 6.390625 29.59375 6.390625 
Q 36.859375 6.390625 41.078125 11.03125 
Q 45.3125 15.671875 45.3125 23.6875 
L 45.3125 54.6875 
L 54.296875 54.6875 
L 54.296875 0 
L 45.3125 0 
L 45.3125 8.40625 
Q 42.046875 3.421875 37.71875 1 
Q 33.40625 -1.421875 27.6875 -1.421875 
Q 18.265625 -1.421875 13.375 4.4375 
Q 8.5 10.296875 8.5 21.578125 
z
M 31.109375 56 
z
" id="DejaVuSans-117"/>
       <path d="M 44.28125 53.078125 
L 44.28125 44.578125 
Q 40.484375 46.53125 36.375 47.5 
Q 32.28125 48.484375 27.875 48.484375 
Q 21.1875 48.484375 17.84375 46.4375 
Q 14.5 44.390625 14.5 40.28125 
Q 14.5 37.15625 16.890625 35.375 
Q 19.28125 33.59375 26.515625 31.984375 
L 29.59375 31.296875 
Q 39.15625 29.25 43.1875 25.515625 
Q 47.21875 21.78125 47.21875 15.09375 
Q 47.21875 7.46875 41.1875 3.015625 
Q 35.15625 -1.421875 24.609375 -1.421875 
Q 20.21875 -1.421875 15.453125 -0.5625 
Q 10.6875 0.296875 5.421875 2 
L 5.421875 11.28125 
Q 10.40625 8.6875 15.234375 7.390625 
Q 20.0625 6.109375 24.8125 6.109375 
Q 31.15625 6.109375 34.5625 8.28125 
Q 37.984375 10.453125 37.984375 14.40625 
Q 37.984375 18.0625 35.515625 20.015625 
Q 33.0625 21.96875 24.703125 23.78125 
L 21.578125 24.515625 
Q 13.234375 26.265625 9.515625 29.90625 
Q 5.8125 33.546875 5.8125 39.890625 
Q 5.8125 47.609375 11.28125 51.796875 
Q 16.75 56 26.8125 56 
Q 31.78125 56 36.171875 55.265625 
Q 40.578125 54.546875 44.28125 53.078125 
z
" id="DejaVuSans-115"/>
      </defs>
      <use xlink:href="#DejaVuSans-80"/>
      <use x="58.552734" xlink:href="#DejaVuSans-114"/>
      <use x="97.416016" xlink:href="#DejaVuSans-101"/>
      <use x="158.939453" xlink:href="#DejaVuSans-100"/>
      <use x="222.416016" xlink:href="#DejaVuSans-105"/>
      <use x="250.199219" xlink:href="#DejaVuSans-99"/>
      <use x="305.179688" xlink:href="#DejaVuSans-116"/>
      <use x="344.388672" xlink:href="#DejaVuSans-101"/>
      <use x="405.912109" xlink:href="#DejaVuSans-100"/>
      <use x="469.388672" xlink:href="#DejaVuSans-32"/>
      <use x="501.175781" xlink:href="#DejaVuSans-86"/>
      <use x="561.833984" xlink:href="#DejaVuSans-97"/>
      <use x="623.113281" xlink:href="#DejaVuSans-108"/>
      <use x="650.896484" xlink:href="#DejaVuSans-117"/>
      <use x="714.275391" xlink:href="#DejaVuSans-101"/>
      <use x="775.798828" xlink:href="#DejaVuSans-115"/>
     </g>
    </g>
   </g>
   <g id="matplotlib.axis_2">
    <g id="ytick_1">
     <g id="line2d_10">
      <defs>
       <path d="M 0 0 
L -3.5 0 
" id="m275bd104a7" style="stroke:#000000;stroke-width:0.8;"/>
      </defs>
      <g>
       <use style="stroke:#000000;stroke-width:0.8;" x="43.78125" xlink:href="#m275bd104a7" y="351.146045"/>
      </g>
     </g>
     <g id="text_11">
      <!-- 2.5 -->
      <g transform="translate(20.878125 354.945264)scale(0.1 -0.1)">
       <use xlink:href="#DejaVuSans-50"/>
       <use x="63.623047" xlink:href="#DejaVuSans-46"/>
       <use x="95.410156" xlink:href="#DejaVuSans-53"/>
      </g>
     </g>
    </g>
    <g id="ytick_2">
     <g id="line2d_11">
      <g>
       <use style="stroke:#000000;stroke-width:0.8;" x="43.78125" xlink:href="#m275bd104a7" y="293.945908"/>
      </g>
     </g>
     <g id="text_12">
      <!-- 3.0 -->
      <g transform="translate(20.878125 297.745127)scale(0.1 -0.1)">
       <use xlink:href="#DejaVuSans-51"/>
       <use x="63.623047" xlink:href="#DejaVuSans-46"/>
       <use x="95.410156" xlink:href="#DejaVuSans-48"/>
      </g>
     </g>
    </g>
    <g id="ytick_3">
     <g id="line2d_12">
      <g>
       <use style="stroke:#000000;stroke-width:0.8;" x="43.78125" xlink:href="#m275bd104a7" y="236.745771"/>
      </g>
     </g>
     <g id="text_13">
      <!-- 3.5 -->
      <g transform="translate(20.878125 240.54499)scale(0.1 -0.1)">
       <use xlink:href="#DejaVuSans-51"/>
       <use x="63.623047" xlink:href="#DejaVuSans-46"/>
       <use x="95.410156" xlink:href="#DejaVuSans-53"/>
      </g>
     </g>
    </g>
    <g id="ytick_4">
     <g id="line2d_13">
      <g>
       <use style="stroke:#000000;stroke-width:0.8;" x="43.78125" xlink:href="#m275bd104a7" y="179.545635"/>
      </g>
     </g>
     <g id="text_14">
      <!-- 4.0 -->
      <g transform="translate(20.878125 183.344853)scale(0.1 -0.1)">
       <use xlink:href="#DejaVuSans-52"/>
       <use x="63.623047" xlink:href="#DejaVuSans-46"/>
       <use x="95.410156" xlink:href="#DejaVuSans-48"/>
      </g>
     </g>
    </g>
    <g id="ytick_5">
     <g id="line2d_14">
      <g>
       <use style="stroke:#000000;stroke-width:0.8;" x="43.78125" xlink:href="#m275bd104a7" y="122.345498"/>
      </g>
     </g>
     <g id="text_15">
      <!-- 4.5 -->
      <g transform="translate(20.878125 126.144716)scale(0.1 -0.1)">
       <use xlink:href="#DejaVuSans-52"/>
       <use x="63.623047" xlink:href="#DejaVuSans-46"/>
       <use x="95.410156" xlink:href="#DejaVuSans-53"/>
      </g>
     </g>
    </g>
    <g id="text_16">
     <!-- Real Values -->
     <g transform="translate(14.798438 266.323906)rotate(-90)scale(0.1 -0.1)">
      <defs>
       <path d="M 44.390625 34.1875 
Q 47.5625 33.109375 50.5625 29.59375 
Q 53.5625 26.078125 56.59375 19.921875 
L 66.609375 0 
L 56 0 
L 46.6875 18.703125 
Q 43.0625 26.03125 39.671875 28.421875 
Q 36.28125 30.8125 30.421875 30.8125 
L 19.671875 30.8125 
L 19.671875 0 
L 9.8125 0 
L 9.8125 72.90625 
L 32.078125 72.90625 
Q 44.578125 72.90625 50.734375 67.671875 
Q 56.890625 62.453125 56.890625 51.90625 
Q 56.890625 45.015625 53.6875 40.46875 
Q 50.484375 35.9375 44.390625 34.1875 
z
M 19.671875 64.796875 
L 19.671875 38.921875 
L 32.078125 38.921875 
Q 39.203125 38.921875 42.84375 42.21875 
Q 46.484375 45.515625 46.484375 51.90625 
Q 46.484375 58.296875 42.84375 61.546875 
Q 39.203125 64.796875 32.078125 64.796875 
z
" id="DejaVuSans-82"/>
      </defs>
      <use xlink:href="#DejaVuSans-82"/>
      <use x="64.982422" xlink:href="#DejaVuSans-101"/>
      <use x="126.505859" xlink:href="#DejaVuSans-97"/>
      <use x="187.785156" xlink:href="#DejaVuSans-108"/>
      <use x="215.568359" xlink:href="#DejaVuSans-32"/>
      <use x="247.355469" xlink:href="#DejaVuSans-86"/>
      <use x="308.013672" xlink:href="#DejaVuSans-97"/>
      <use x="369.292969" xlink:href="#DejaVuSans-108"/>
      <use x="397.076172" xlink:href="#DejaVuSans-117"/>
      <use x="460.455078" xlink:href="#DejaVuSans-101"/>
      <use x="521.978516" xlink:href="#DejaVuSans-115"/>
     </g>
    </g>
   </g>
   <g id="line2d_15">
    <path clip-path="url(#pdfa8f721b7)" d="M 43.78125 360.426197 
L 46.898802 357.858676 
L 50.016355 355.291156 
L 53.133907 352.723636 
L 56.251459 350.156115 
L 59.369012 347.588595 
L 62.486564 345.021075 
L 65.604116 342.453554 
L 68.721668 339.886034 
L 71.839221 337.318514 
L 74.956773 334.750993 
L 78.074325 332.183473 
L 81.191878 329.615953 
L 84.30943 327.048432 
L 87.426982 324.480912 
L 90.544535 321.913392 
L 93.662087 319.345871 
L 96.779639 316.778351 
L 99.897192 314.210831 
L 103.014744 311.64331 
L 106.132296 309.07579 
L 109.249848 306.50827 
L 112.367401 303.940749 
L 115.484953 301.373229 
L 118.602505 298.805709 
L 121.720058 296.238188 
L 124.83761 293.670668 
L 127.955162 291.103148 
L 131.072715 288.535627 
L 134.190267 285.968107 
L 137.307819 283.400587 
L 140.425372 280.833067 
L 143.542924 278.265546 
L 146.660476 275.698026 
L 149.778028 273.130506 
L 152.895581 270.562985 
L 156.013133 267.995465 
L 159.130685 265.427945 
L 162.248238 262.860424 
L 165.36579 260.292904 
L 168.483342 257.725384 
L 171.600895 255.157863 
L 174.718447 252.590343 
L 177.835999 250.022823 
L 180.953552 247.455302 
L 184.071104 244.887782 
L 187.188656 242.320262 
L 190.306209 239.752741 
L 193.423761 237.185221 
L 196.541313 234.617701 
L 199.658865 232.05018 
L 202.776418 229.48266 
L 205.89397 226.91514 
L 209.011522 224.347619 
L 212.129075 221.780099 
L 215.246627 219.212579 
L 218.364179 216.645058 
L 221.481732 214.077538 
L 224.599284 211.510018 
L 227.716836 208.942497 
L 230.834389 206.374977 
L 233.951941 203.807457 
L 237.069493 201.239936 
L 240.187045 198.672416 
L 243.304598 196.104896 
L 246.42215 193.537375 
L 249.539702 190.969855 
L 252.657255 188.402335 
L 255.774807 185.834814 
L 258.892359 183.267294 
L 262.009912 180.699774 
L 265.127464 178.132254 
L 268.245016 175.564733 
L 271.362569 172.997213 
L 274.480121 170.429693 
L 277.597673 167.862172 
L 280.715225 165.294652 
L 283.832778 162.727132 
L 286.95033 160.159611 
L 290.067882 157.592091 
L 293.185435 155.024571 
L 296.302987 152.45705 
L 299.420539 149.88953 
L 302.538092 147.32201 
L 305.655644 144.754489 
L 308.773196 142.186969 
L 311.890749 139.619449 
L 315.008301 137.051928 
L 318.125853 134.484408 
L 321.243405 131.916888 
L 324.360958 129.349367 
L 327.47851 126.781847 
L 330.596062 124.214327 
L 333.713615 121.646806 
L 336.831167 119.079286 
L 339.948719 116.511766 
L 343.066272 113.944245 
L 346.183824 111.376725 
L 349.301376 108.809205 
L 352.418929 106.241684 
" style="fill:none;stroke:#1f77b4;stroke-linecap:square;stroke-width:2.25;"/>
   </g>
   <g id="patch_3">
    <path d="M 43.78125 400.6 
L 43.78125 74.64 
" style="fill:none;stroke:#000000;stroke-linecap:square;stroke-linejoin:miter;stroke-width:0.8;"/>
   </g>
   <g id="patch_4">
    <path d="M 43.78125 400.6 
L 352.418929 400.6 
" style="fill:none;stroke:#000000;stroke-linecap:square;stroke-linejoin:miter;stroke-width:0.8;"/>
   </g>
  </g>
  <g id="axes_2">
   <g id="patch_5">
    <path d="M 43.78125 63.4 
L 352.418929 63.4 
L 352.418929 7.2 
L 43.78125 7.2 
z
" style="fill:#ffffff;"/>
   </g>
   <g id="patch_6">
    <path clip-path="url(#p69d0b66b66)" d="M 43.78125 63.4 
L 74.645018 63.4 
L 74.645018 39.455138 
L 43.78125 39.455138 
z
" style="fill:#1f77b4;fill-opacity:0.5;stroke:#000000;stroke-linejoin:miter;"/>
   </g>
   <g id="patch_7">
    <path clip-path="url(#p69d0b66b66)" d="M 74.645018 63.4 
L 105.508786 63.4 
L 105.508786 29.595489 
L 74.645018 29.595489 
z
" style="fill:#1f77b4;fill-opacity:0.5;stroke:#000000;stroke-linejoin:miter;"/>
   </g>
   <g id="patch_8">
    <path clip-path="url(#p69d0b66b66)" d="M 105.508786 63.4 
L 136.372554 63.4 
L 136.372554 19.73584 
L 105.508786 19.73584 
z
" style="fill:#1f77b4;fill-opacity:0.5;stroke:#000000;stroke-linejoin:miter;"/>
   </g>
   <g id="patch_9">
    <path clip-path="url(#p69d0b66b66)" d="M 136.372554 63.4 
L 167.236321 63.4 
L 167.236321 9.87619 
L 136.372554 9.87619 
z
" style="fill:#1f77b4;fill-opacity:0.5;stroke:#000000;stroke-linejoin:miter;"/>
   </g>
   <g id="patch_10">
    <path clip-path="url(#p69d0b66b66)" d="M 167.236321 63.4 
L 198.100089 63.4 
L 198.100089 25.369925 
L 167.236321 25.369925 
z
" style="fill:#1f77b4;fill-opacity:0.5;stroke:#000000;stroke-linejoin:miter;"/>
   </g>
   <g id="patch_11">
    <path clip-path="url(#p69d0b66b66)" d="M 198.100089 63.4 
L 228.963857 63.4 
L 228.963857 42.27218 
L 198.100089 42.27218 
z
" style="fill:#1f77b4;fill-opacity:0.5;stroke:#000000;stroke-linejoin:miter;"/>
   </g>
   <g id="patch_12">
    <path clip-path="url(#p69d0b66b66)" d="M 228.963857 63.4 
L 259.827625 63.4 
L 259.827625 36.638095 
L 228.963857 36.638095 
z
" style="fill:#1f77b4;fill-opacity:0.5;stroke:#000000;stroke-linejoin:miter;"/>
   </g>
   <g id="patch_13">
    <path clip-path="url(#p69d0b66b66)" d="M 259.827625 63.4 
L 290.691393 63.4 
L 290.691393 50.723308 
L 259.827625 50.723308 
z
" style="fill:#1f77b4;fill-opacity:0.5;stroke:#000000;stroke-linejoin:miter;"/>
   </g>
   <g id="patch_14">
    <path clip-path="url(#p69d0b66b66)" d="M 290.691393 63.4 
L 321.555161 63.4 
L 321.555161 59.174436 
L 290.691393 59.174436 
z
" style="fill:#1f77b4;fill-opacity:0.5;stroke:#000000;stroke-linejoin:miter;"/>
   </g>
   <g id="patch_15">
    <path clip-path="url(#p69d0b66b66)" d="M 321.555161 63.4 
L 352.418929 63.4 
L 352.418929 57.765915 
L 321.555161 57.765915 
z
" style="fill:#1f77b4;fill-opacity:0.5;stroke:#000000;stroke-linejoin:miter;"/>
   </g>
   <g id="matplotlib.axis_3">
    <g id="xtick_10">
     <g id="line2d_16">
      <g>
       <use style="stroke:#000000;stroke-width:0.8;" x="55.143338" xlink:href="#m76a6df3198" y="63.4"/>
      </g>
     </g>
    </g>
    <g id="xtick_11">
     <g id="line2d_17">
      <g>
       <use style="stroke:#000000;stroke-width:0.8;" x="89.958159" xlink:href="#m76a6df3198" y="63.4"/>
      </g>
     </g>
    </g>
    <g id="xtick_12">
     <g id="line2d_18">
      <g>
       <use style="stroke:#000000;stroke-width:0.8;" x="124.77298" xlink:href="#m76a6df3198" y="63.4"/>
      </g>
     </g>
    </g>
    <g id="xtick_13">
     <g id="line2d_19">
      <g>
       <use style="stroke:#000000;stroke-width:0.8;" x="159.587802" xlink:href="#m76a6df3198" y="63.4"/>
      </g>
     </g>
    </g>
    <g id="xtick_14">
     <g id="line2d_20">
      <g>
       <use style="stroke:#000000;stroke-width:0.8;" x="194.402623" xlink:href="#m76a6df3198" y="63.4"/>
      </g>
     </g>
    </g>
    <g id="xtick_15">
     <g id="line2d_21">
      <g>
       <use style="stroke:#000000;stroke-width:0.8;" x="229.217445" xlink:href="#m76a6df3198" y="63.4"/>
      </g>
     </g>
    </g>
    <g id="xtick_16">
     <g id="line2d_22">
      <g>
       <use style="stroke:#000000;stroke-width:0.8;" x="264.032266" xlink:href="#m76a6df3198" y="63.4"/>
      </g>
     </g>
    </g>
    <g id="xtick_17">
     <g id="line2d_23">
      <g>
       <use style="stroke:#000000;stroke-width:0.8;" x="298.847087" xlink:href="#m76a6df3198" y="63.4"/>
      </g>
     </g>
    </g>
    <g id="xtick_18">
     <g id="line2d_24">
      <g>
       <use style="stroke:#000000;stroke-width:0.8;" x="333.661909" xlink:href="#m76a6df3198" y="63.4"/>
      </g>
     </g>
    </g>
   </g>
   <g id="matplotlib.axis_4">
    <g id="ytick_6"/>
    <g id="ytick_7"/>
   </g>
   <g id="line2d_25">
    <path clip-path="url(#p69d0b66b66)" d="M 43.78125 52.675164 
L 49.985022 49.473499 
L 57.739738 45.159671 
L 68.59634 39.123791 
L 74.800112 35.908365 
L 81.003885 32.92226 
L 88.7586 29.468397 
L 98.064259 25.582647 
L 108.920861 21.270265 
L 116.675576 18.429412 
L 121.328405 16.907903 
L 125.981235 15.588709 
L 130.634064 14.528973 
L 133.73595 13.994378 
L 136.837837 13.615492 
L 139.939723 13.406321 
L 143.041609 13.37895 
L 146.143495 13.543066 
L 149.245381 13.905463 
L 152.347268 14.469527 
L 155.449154 15.23473 
L 158.55104 16.196143 
L 161.652926 17.344021 
L 166.305756 19.381557 
L 170.958585 21.732093 
L 177.162357 25.183713 
L 188.018959 31.299961 
L 192.671788 33.634801 
L 197.324618 35.65263 
L 200.426504 36.790187 
L 203.52839 37.750326 
L 206.630276 38.532039 
L 209.732163 39.1417 
L 214.384992 39.763597 
L 219.037821 40.095018 
L 225.241594 40.232541 
L 239.200082 40.329057 
L 243.852911 40.583077 
L 248.50574 41.045118 
L 253.15857 41.744903 
L 257.811399 42.690547 
L 262.464228 43.868313 
L 268.668001 45.73815 
L 276.422716 48.372729 
L 287.279318 52.067727 
L 293.48309 53.920781 
L 298.13592 55.113037 
L 302.788749 56.116964 
L 307.441578 56.933808 
L 313.645351 57.760874 
L 319.849123 58.350799 
L 329.154782 58.974518 
L 347.766099 60.155427 
L 352.418929 60.518844 
L 352.418929 60.518844 
" style="fill:none;stroke:#1f77b4;stroke-linecap:square;stroke-width:1.5;"/>
   </g>
   <g id="patch_16">
    <path d="M 43.78125 63.4 
L 352.418929 63.4 
" style="fill:none;stroke:#000000;stroke-linecap:square;stroke-linejoin:miter;stroke-width:0.8;"/>
   </g>
  </g>
  <g id="axes_3">
   <g id="patch_17">
    <path d="M 363.061607 400.6 
L 416.275 400.6 
L 416.275 74.64 
L 363.061607 74.64 
z
" style="fill:#ffffff;"/>
   </g>
   <g id="patch_18">
    <path clip-path="url(#pa466946618)" d="M 363.061607 385.783636 
L 373.457386 385.783636 
L 373.457386 356.150909 
L 363.061607 356.150909 
z
" style="fill:#1f77b4;fill-opacity:0.5;stroke:#000000;stroke-linejoin:miter;"/>
   </g>
   <g id="patch_19">
    <path clip-path="url(#pa466946618)" d="M 363.061607 356.150909 
L 398.147361 356.150909 
L 398.147361 326.518182 
L 363.061607 326.518182 
z
" style="fill:#1f77b4;fill-opacity:0.5;stroke:#000000;stroke-linejoin:miter;"/>
   </g>
   <g id="patch_20">
    <path clip-path="url(#pa466946618)" d="M 363.061607 326.518182 
L 399.446833 326.518182 
L 399.446833 296.885455 
L 363.061607 296.885455 
z
" style="fill:#1f77b4;fill-opacity:0.5;stroke:#000000;stroke-linejoin:miter;"/>
   </g>
   <g id="patch_21">
    <path clip-path="url(#pa466946618)" d="M 363.061607 296.885455 
L 413.741029 296.885455 
L 413.741029 267.252727 
L 363.061607 267.252727 
z
" style="fill:#1f77b4;fill-opacity:0.5;stroke:#000000;stroke-linejoin:miter;"/>
   </g>
   <g id="patch_22">
    <path clip-path="url(#pa466946618)" d="M 363.061607 267.252727 
L 390.350527 267.252727 
L 390.350527 237.62 
L 363.061607 237.62 
z
" style="fill:#1f77b4;fill-opacity:0.5;stroke:#000000;stroke-linejoin:miter;"/>
   </g>
   <g id="patch_23">
    <path clip-path="url(#pa466946618)" d="M 363.061607 237.62 
L 399.446833 237.62 
L 399.446833 207.987273 
L 363.061607 207.987273 
z
" style="fill:#1f77b4;fill-opacity:0.5;stroke:#000000;stroke-linejoin:miter;"/>
   </g>
   <g id="patch_24">
    <path clip-path="url(#pa466946618)" d="M 363.061607 207.987273 
L 385.152637 207.987273 
L 385.152637 178.354545 
L 363.061607 178.354545 
z
" style="fill:#1f77b4;fill-opacity:0.5;stroke:#000000;stroke-linejoin:miter;"/>
   </g>
   <g id="patch_25">
    <path clip-path="url(#pa466946618)" d="M 363.061607 178.354545 
L 376.056331 178.354545 
L 376.056331 148.721818 
L 363.061607 148.721818 
z
" style="fill:#1f77b4;fill-opacity:0.5;stroke:#000000;stroke-linejoin:miter;"/>
   </g>
   <g id="patch_26">
    <path clip-path="url(#pa466946618)" d="M 363.061607 148.721818 
L 368.259497 148.721818 
L 368.259497 119.089091 
L 363.061607 119.089091 
z
" style="fill:#1f77b4;fill-opacity:0.5;stroke:#000000;stroke-linejoin:miter;"/>
   </g>
   <g id="patch_27">
    <path clip-path="url(#pa466946618)" d="M 363.061607 119.089091 
L 369.558969 119.089091 
L 369.558969 89.456364 
L 363.061607 89.456364 
z
" style="fill:#1f77b4;fill-opacity:0.5;stroke:#000000;stroke-linejoin:miter;"/>
   </g>
   <g id="matplotlib.axis_5">
    <g id="xtick_19"/>
    <g id="xtick_20"/>
   </g>
   <g id="matplotlib.axis_6">
    <g id="ytick_8">
     <g id="line2d_26">
      <g>
       <use style="stroke:#000000;stroke-width:0.8;" x="363.061607" xlink:href="#m275bd104a7" y="351.146045"/>
      </g>
     </g>
    </g>
    <g id="ytick_9">
     <g id="line2d_27">
      <g>
       <use style="stroke:#000000;stroke-width:0.8;" x="363.061607" xlink:href="#m275bd104a7" y="293.945908"/>
      </g>
     </g>
    </g>
    <g id="ytick_10">
     <g id="line2d_28">
      <g>
       <use style="stroke:#000000;stroke-width:0.8;" x="363.061607" xlink:href="#m275bd104a7" y="236.745771"/>
      </g>
     </g>
    </g>
    <g id="ytick_11">
     <g id="line2d_29">
      <g>
       <use style="stroke:#000000;stroke-width:0.8;" x="363.061607" xlink:href="#m275bd104a7" y="179.545635"/>
      </g>
     </g>
    </g>
    <g id="ytick_12">
     <g id="line2d_30">
      <g>
       <use style="stroke:#000000;stroke-width:0.8;" x="363.061607" xlink:href="#m275bd104a7" y="122.345498"/>
      </g>
     </g>
    </g>
   </g>
   <g id="line2d_31">
    <path clip-path="url(#pa466946618)" d="M 370.312449 385.783636 
L 372.16474 379.827309 
L 374.225411 373.870982 
L 376.51416 367.914655 
L 379.067801 361.958328 
L 381.925284 356.002001 
L 385.103124 350.045674 
L 388.568352 344.089347 
L 399.318219 326.220365 
L 401.60029 321.75312 
L 402.923923 318.774957 
L 404.059629 315.796793 
L 404.987622 312.81863 
L 405.694399 309.840466 
L 406.1735 306.862302 
L 406.425896 303.884139 
L 406.459957 300.905975 
L 406.290999 297.927812 
L 405.940432 294.949648 
L 405.132617 290.482403 
L 404.077887 286.015158 
L 401.64909 277.080667 
L 399.724591 269.635258 
L 398.444318 263.678931 
L 397.449032 257.722604 
L 396.72145 251.766277 
L 396.087971 244.320868 
L 394.832077 227.940968 
L 394.088283 221.984641 
L 393.074962 216.028314 
L 391.780452 210.071987 
L 390.238109 204.11566 
L 388.058267 196.670251 
L 384.289229 184.757597 
L 376.239394 159.443207 
L 373.638977 150.508716 
L 371.723612 143.063307 
L 370.42042 137.10698 
L 369.358506 131.150653 
L 368.553293 125.194326 
L 367.995062 119.237999 
L 367.645202 113.281672 
L 367.362449 104.347181 
L 366.937132 90.945445 
L 366.862069 89.456364 
L 366.862069 89.456364 
" style="fill:none;stroke:#1f77b4;stroke-linecap:square;stroke-width:1.5;"/>
   </g>
   <g id="patch_28">
    <path d="M 363.061607 400.6 
L 363.061607 74.64 
" style="fill:none;stroke:#000000;stroke-linecap:square;stroke-linejoin:miter;stroke-width:0.8;"/>
   </g>
  </g>
 </g>
 <defs>
  <clipPath id="pdfa8f721b7">
   <rect height="325.96" width="308.637679" x="43.78125" y="74.64"/>
  </clipPath>
  <clipPath id="p69d0b66b66">
   <rect height="56.2" width="308.637679" x="43.78125" y="7.2"/>
  </clipPath>
  <clipPath id="pa466946618">
   <rect height="325.96" width="53.213393" x="363.061607" y="74.64"/>
  </clipPath>
 </defs>
</svg>
