<?xml version="1.0" encoding="utf-8" standalone="no"?>
<!DOCTYPE svg PUBLIC "-//W3C//DTD SVG 1.1//EN"
  "http://www.w3.org/Graphics/SVG/1.1/DTD/svg11.dtd">
<!-- Created with matplotlib (https://matplotlib.org/) -->
<svg height="438.15625pt" version="1.1" viewBox="0 0 423.475 438.15625" width="423.475pt" xmlns="http://www.w3.org/2000/svg" xmlns:xlink="http://www.w3.org/1999/xlink">
 <metadata>
  <rdf:RDF xmlns:cc="http://creativecommons.org/ns#" xmlns:dc="http://purl.org/dc/elements/1.1/" xmlns:rdf="http://www.w3.org/1999/02/22-rdf-syntax-ns#">
   <cc:Work>
    <dc:type rdf:resource="http://purl.org/dc/dcmitype/StillImage"/>
    <dc:date>2021-01-07T00:09:10.996481</dc:date>
    <dc:format>image/svg+xml</dc:format>
    <dc:creator>
     <cc:Agent>
      <dc:title>Matplotlib v3.3.2, https://matplotlib.org/</dc:title>
     </cc:Agent>
    </dc:creator>
   </cc:Work>
  </rdf:RDF>
 </metadata>
 <defs>
  <style type="text/css">*{stroke-linecap:butt;stroke-linejoin:round;}</style>
 </defs>
 <g id="figure_1">
  <g id="patch_1">
   <path d="M 0 438.15625 
L 423.475 438.15625 
L 423.475 0 
L 0 0 
z
" style="fill:none;"/>
  </g>
  <g id="axes_1">
   <g id="patch_2">
    <path d="M 43.78125 400.6 
L 352.418929 400.6 
L 352.418929 74.64 
L 43.78125 74.64 
z
" style="fill:#ffffff;"/>
   </g>
   <g id="PathCollection_1">
    <defs>
     <path d="M 0 1.5 
C 0.397805 1.5 0.77937 1.341951 1.06066 1.06066 
C 1.341951 0.77937 1.5 0.397805 1.5 0 
C 1.5 -0.397805 1.341951 -0.77937 1.06066 -1.06066 
C 0.77937 -1.341951 0.397805 -1.5 0 -1.5 
C -0.397805 -1.5 -0.77937 -1.341951 -1.06066 -1.06066 
C -1.341951 -0.77937 -1.5 -0.397805 -1.5 0 
C -1.5 0.397805 -1.341951 0.77937 -1.06066 1.06066 
C -0.77937 1.341951 -0.397805 1.5 0 1.5 
z
" id="m9a342462ad" style="stroke:#1f77b4;stroke-opacity:0.8;"/>
    </defs>
    <g clip-path="url(#pf92d774008)">
     <use style="fill:#1f77b4;fill-opacity:0.8;stroke:#1f77b4;stroke-opacity:0.8;" x="144.236791" xlink:href="#m9a342462ad" y="292.550019"/>
     <use style="fill:#1f77b4;fill-opacity:0.8;stroke:#1f77b4;stroke-opacity:0.8;" x="167.557749" xlink:href="#m9a342462ad" y="245.102484"/>
     <use style="fill:#1f77b4;fill-opacity:0.8;stroke:#1f77b4;stroke-opacity:0.8;" x="125.802678" xlink:href="#m9a342462ad" y="313.05662"/>
     <use style="fill:#1f77b4;fill-opacity:0.8;stroke:#1f77b4;stroke-opacity:0.8;" x="206.444447" xlink:href="#m9a342462ad" y="331.688116"/>
     <use style="fill:#1f77b4;fill-opacity:0.8;stroke:#1f77b4;stroke-opacity:0.8;" x="123.637437" xlink:href="#m9a342462ad" y="331.688116"/>
     <use style="fill:#1f77b4;fill-opacity:0.8;stroke:#1f77b4;stroke-opacity:0.8;" x="133.608836" xlink:href="#m9a342462ad" y="231.45687"/>
     <use style="fill:#1f77b4;fill-opacity:0.8;stroke:#1f77b4;stroke-opacity:0.8;" x="100.427801" xlink:href="#m9a342462ad" y="318.897656"/>
     <use style="fill:#1f77b4;fill-opacity:0.8;stroke:#1f77b4;stroke-opacity:0.8;" x="172.90732" xlink:href="#m9a342462ad" y="267.905593"/>
     <use style="fill:#1f77b4;fill-opacity:0.8;stroke:#1f77b4;stroke-opacity:0.8;" x="149.810278" xlink:href="#m9a342462ad" y="346.311636"/>
     <use style="fill:#1f77b4;fill-opacity:0.8;stroke:#1f77b4;stroke-opacity:0.8;" x="224.317992" xlink:href="#m9a342462ad" y="198.913984"/>
     <use style="fill:#1f77b4;fill-opacity:0.8;stroke:#1f77b4;stroke-opacity:0.8;" x="124.687982" xlink:href="#m9a342462ad" y="292.550019"/>
     <use style="fill:#1f77b4;fill-opacity:0.8;stroke:#1f77b4;stroke-opacity:0.8;" x="262.582382" xlink:href="#m9a342462ad" y="174.269558"/>
     <use style="fill:#1f77b4;fill-opacity:0.8;stroke:#1f77b4;stroke-opacity:0.8;" x="151.406937" xlink:href="#m9a342462ad" y="325.092905"/>
     <use style="fill:#1f77b4;fill-opacity:0.8;stroke:#1f77b4;stroke-opacity:0.8;" x="209.07018" xlink:href="#m9a342462ad" y="245.102484"/>
     <use style="fill:#1f77b4;fill-opacity:0.8;stroke:#1f77b4;stroke-opacity:0.8;" x="227.435353" xlink:href="#m9a342462ad" y="190.022264"/>
     <use style="fill:#1f77b4;fill-opacity:0.8;stroke:#1f77b4;stroke-opacity:0.8;" x="57.041917" xlink:href="#m9a342462ad" y="354.491225"/>
     <use style="fill:#1f77b4;fill-opacity:0.8;stroke:#1f77b4;stroke-opacity:0.8;" x="96.862455" xlink:href="#m9a342462ad" y="354.491225"/>
     <use style="fill:#1f77b4;fill-opacity:0.8;stroke:#1f77b4;stroke-opacity:0.8;" x="229.329101" xlink:href="#m9a342462ad" y="231.45687"/>
     <use style="fill:#1f77b4;fill-opacity:0.8;stroke:#1f77b4;stroke-opacity:0.8;" x="109.781655" xlink:href="#m9a342462ad" y="307.531474"/>
     <use style="fill:#1f77b4;fill-opacity:0.8;stroke:#1f77b4;stroke-opacity:0.8;" x="165.674207" xlink:href="#m9a342462ad" y="260.85519"/>
     <use style="fill:#1f77b4;fill-opacity:0.8;stroke:#1f77b4;stroke-opacity:0.8;" x="228.682126" xlink:href="#m9a342462ad" y="219.420585"/>
     <use style="fill:#1f77b4;fill-opacity:0.8;stroke:#1f77b4;stroke-opacity:0.8;" x="213.441325" xlink:href="#m9a342462ad" y="236.698547"/>
     <use style="fill:#1f77b4;fill-opacity:0.8;stroke:#1f77b4;stroke-opacity:0.8;" x="85.592724" xlink:href="#m9a342462ad" y="363.382945"/>
     <use style="fill:#1f77b4;fill-opacity:0.8;stroke:#1f77b4;stroke-opacity:0.8;" x="249.809938" xlink:href="#m9a342462ad" y="190.022264"/>
     <use style="fill:#1f77b4;fill-opacity:0.8;stroke:#1f77b4;stroke-opacity:0.8;" x="121.421863" xlink:href="#m9a342462ad" y="373.122722"/>
     <use style="fill:#1f77b4;fill-opacity:0.8;stroke:#1f77b4;stroke-opacity:0.8;" x="174.805564" xlink:href="#m9a342462ad" y="260.85519"/>
     <use style="fill:#1f77b4;fill-opacity:0.8;stroke:#1f77b4;stroke-opacity:0.8;" x="114.614097" xlink:href="#m9a342462ad" y="318.897656"/>
     <use style="fill:#1f77b4;fill-opacity:0.8;stroke:#1f77b4;stroke-opacity:0.8;" x="104.064324" xlink:href="#m9a342462ad" y="354.491225"/>
     <use style="fill:#1f77b4;fill-opacity:0.8;stroke:#1f77b4;stroke-opacity:0.8;" x="272.851805" xlink:href="#m9a342462ad" y="119.189338"/>
     <use style="fill:#1f77b4;fill-opacity:0.8;stroke:#1f77b4;stroke-opacity:0.8;" x="95.662054" xlink:href="#m9a342462ad" y="236.698547"/>
     <use style="fill:#1f77b4;fill-opacity:0.8;stroke:#1f77b4;stroke-opacity:0.8;" x="66.219149" xlink:href="#m9a342462ad" y="383.889546"/>
     <use style="fill:#1f77b4;fill-opacity:0.8;stroke:#1f77b4;stroke-opacity:0.8;" x="227.6453" xlink:href="#m9a342462ad" y="208.653761"/>
     <use style="fill:#1f77b4;fill-opacity:0.8;stroke:#1f77b4;stroke-opacity:0.8;" x="137.833209" xlink:href="#m9a342462ad" y="267.905593"/>
     <use style="fill:#1f77b4;fill-opacity:0.8;stroke:#1f77b4;stroke-opacity:0.8;" x="68.377198" xlink:href="#m9a342462ad" y="331.688116"/>
     <use style="fill:#1f77b4;fill-opacity:0.8;stroke:#1f77b4;stroke-opacity:0.8;" x="110.250818" xlink:href="#m9a342462ad" y="325.092905"/>
     <use style="fill:#1f77b4;fill-opacity:0.8;stroke:#1f77b4;stroke-opacity:0.8;" x="170.126324" xlink:href="#m9a342462ad" y="260.85519"/>
     <use style="fill:#1f77b4;fill-opacity:0.8;stroke:#1f77b4;stroke-opacity:0.8;" x="103.778939" xlink:href="#m9a342462ad" y="302.289796"/>
     <use style="fill:#1f77b4;fill-opacity:0.8;stroke:#1f77b4;stroke-opacity:0.8;" x="113.052156" xlink:href="#m9a342462ad" y="313.05662"/>
     <use style="fill:#1f77b4;fill-opacity:0.8;stroke:#1f77b4;stroke-opacity:0.8;" x="77.690492" xlink:href="#m9a342462ad" y="346.311636"/>
     <use style="fill:#1f77b4;fill-opacity:0.8;stroke:#1f77b4;stroke-opacity:0.8;" x="106.806801" xlink:href="#m9a342462ad" y="288.007479"/>
     <use style="fill:#1f77b4;fill-opacity:0.8;stroke:#1f77b4;stroke-opacity:0.8;" x="162.350911" xlink:href="#m9a342462ad" y="267.905593"/>
     <use style="fill:#1f77b4;fill-opacity:0.8;stroke:#1f77b4;stroke-opacity:0.8;" x="128.525617" xlink:href="#m9a342462ad" y="302.289796"/>
     <use style="fill:#1f77b4;fill-opacity:0.8;stroke:#1f77b4;stroke-opacity:0.8;" x="206.051048" xlink:href="#m9a342462ad" y="219.420585"/>
     <use style="fill:#1f77b4;fill-opacity:0.8;stroke:#1f77b4;stroke-opacity:0.8;" x="72.835345" xlink:href="#m9a342462ad" y="354.491225"/>
     <use style="fill:#1f77b4;fill-opacity:0.8;stroke:#1f77b4;stroke-opacity:0.8;" x="132.000973" xlink:href="#m9a342462ad" y="292.550019"/>
     <use style="fill:#1f77b4;fill-opacity:0.8;stroke:#1f77b4;stroke-opacity:0.8;" x="121.471126" xlink:href="#m9a342462ad" y="331.688116"/>
     <use style="fill:#1f77b4;fill-opacity:0.8;stroke:#1f77b4;stroke-opacity:0.8;" x="162.171232" xlink:href="#m9a342462ad" y="245.102484"/>
     <use style="fill:#1f77b4;fill-opacity:0.8;stroke:#1f77b4;stroke-opacity:0.8;" x="241.000485" xlink:href="#m9a342462ad" y="160.623944"/>
     <use style="fill:#1f77b4;fill-opacity:0.8;stroke:#1f77b4;stroke-opacity:0.8;" x="191.311528" xlink:href="#m9a342462ad" y="231.45687"/>
     <use style="fill:#1f77b4;fill-opacity:0.8;stroke:#1f77b4;stroke-opacity:0.8;" x="43.78125" xlink:href="#m9a342462ad" y="354.491225"/>
     <use style="fill:#1f77b4;fill-opacity:0.8;stroke:#1f77b4;stroke-opacity:0.8;" x="217.939435" xlink:href="#m9a342462ad" y="208.653761"/>
     <use style="fill:#1f77b4;fill-opacity:0.8;stroke:#1f77b4;stroke-opacity:0.8;" x="136.364452" xlink:href="#m9a342462ad" y="279.486687"/>
     <use style="fill:#1f77b4;fill-opacity:0.8;stroke:#1f77b4;stroke-opacity:0.8;" x="152.459034" xlink:href="#m9a342462ad" y="254.259979"/>
     <use style="fill:#1f77b4;fill-opacity:0.8;stroke:#1f77b4;stroke-opacity:0.8;" x="82.112065" xlink:href="#m9a342462ad" y="368.13684"/>
     <use style="fill:#1f77b4;fill-opacity:0.8;stroke:#1f77b4;stroke-opacity:0.8;" x="82.502116" xlink:href="#m9a342462ad" y="313.05662"/>
     <use style="fill:#1f77b4;fill-opacity:0.8;stroke:#1f77b4;stroke-opacity:0.8;" x="352.418929" xlink:href="#m9a342462ad" y="119.189338"/>
     <use style="fill:#1f77b4;fill-opacity:0.8;stroke:#1f77b4;stroke-opacity:0.8;" x="162.169679" xlink:href="#m9a342462ad" y="279.486687"/>
     <use style="fill:#1f77b4;fill-opacity:0.8;stroke:#1f77b4;stroke-opacity:0.8;" x="118.740848" xlink:href="#m9a342462ad" y="313.05662"/>
     <use style="fill:#1f77b4;fill-opacity:0.8;stroke:#1f77b4;stroke-opacity:0.8;" x="183.899847" xlink:href="#m9a342462ad" y="231.45687"/>
     <use style="fill:#1f77b4;fill-opacity:0.8;stroke:#1f77b4;stroke-opacity:0.8;" x="142.421996" xlink:href="#m9a342462ad" y="279.486687"/>
     <use style="fill:#1f77b4;fill-opacity:0.8;stroke:#1f77b4;stroke-opacity:0.8;" x="265.901721" xlink:href="#m9a342462ad" y="190.022264"/>
     <use style="fill:#1f77b4;fill-opacity:0.8;stroke:#1f77b4;stroke-opacity:0.8;" x="224.105521" xlink:href="#m9a342462ad" y="231.45687"/>
     <use style="fill:#1f77b4;fill-opacity:0.8;stroke:#1f77b4;stroke-opacity:0.8;" x="188.964919" xlink:href="#m9a342462ad" y="302.289796"/>
     <use style="fill:#1f77b4;fill-opacity:0.8;stroke:#1f77b4;stroke-opacity:0.8;" x="116.798912" xlink:href="#m9a342462ad" y="267.905593"/>
     <use style="fill:#1f77b4;fill-opacity:0.8;stroke:#1f77b4;stroke-opacity:0.8;" x="335.445176" xlink:href="#m9a342462ad" y="128.081058"/>
     <use style="fill:#1f77b4;fill-opacity:0.8;stroke:#1f77b4;stroke-opacity:0.8;" x="246.52115" xlink:href="#m9a342462ad" y="231.45687"/>
     <use style="fill:#1f77b4;fill-opacity:0.8;stroke:#1f77b4;stroke-opacity:0.8;" x="155.783192" xlink:href="#m9a342462ad" y="292.550019"/>
     <use style="fill:#1f77b4;fill-opacity:0.8;stroke:#1f77b4;stroke-opacity:0.8;" x="212.206764" xlink:href="#m9a342462ad" y="190.022264"/>
     <use style="fill:#1f77b4;fill-opacity:0.8;stroke:#1f77b4;stroke-opacity:0.8;" x="241.896616" xlink:href="#m9a342462ad" y="212.825373"/>
     <use style="fill:#1f77b4;fill-opacity:0.8;stroke:#1f77b4;stroke-opacity:0.8;" x="267.139698" xlink:href="#m9a342462ad" y="171.390767"/>
     <use style="fill:#1f77b4;fill-opacity:0.8;stroke:#1f77b4;stroke-opacity:0.8;" x="315.592612" xlink:href="#m9a342462ad" y="119.189338"/>
     <use style="fill:#1f77b4;fill-opacity:0.8;stroke:#1f77b4;stroke-opacity:0.8;" x="182.339901" xlink:href="#m9a342462ad" y="245.102484"/>
     <use style="fill:#1f77b4;fill-opacity:0.8;stroke:#1f77b4;stroke-opacity:0.8;" x="219.079113" xlink:href="#m9a342462ad" y="267.905593"/>
     <use style="fill:#1f77b4;fill-opacity:0.8;stroke:#1f77b4;stroke-opacity:0.8;" x="118.558144" xlink:href="#m9a342462ad" y="318.897656"/>
     <use style="fill:#1f77b4;fill-opacity:0.8;stroke:#1f77b4;stroke-opacity:0.8;" x="184.555196" xlink:href="#m9a342462ad" y="260.85519"/>
     <use style="fill:#1f77b4;fill-opacity:0.8;stroke:#1f77b4;stroke-opacity:0.8;" x="235.939065" xlink:href="#m9a342462ad" y="231.45687"/>
     <use style="fill:#1f77b4;fill-opacity:0.8;stroke:#1f77b4;stroke-opacity:0.8;" x="277.419319" xlink:href="#m9a342462ad" y="174.269558"/>
     <use style="fill:#1f77b4;fill-opacity:0.8;stroke:#1f77b4;stroke-opacity:0.8;" x="165.9869" xlink:href="#m9a342462ad" y="208.653761"/>
     <use style="fill:#1f77b4;fill-opacity:0.8;stroke:#1f77b4;stroke-opacity:0.8;" x="121.660905" xlink:href="#m9a342462ad" y="302.289796"/>
     <use style="fill:#1f77b4;fill-opacity:0.8;stroke:#1f77b4;stroke-opacity:0.8;" x="180.507891" xlink:href="#m9a342462ad" y="260.85519"/>
     <use style="fill:#1f77b4;fill-opacity:0.8;stroke:#1f77b4;stroke-opacity:0.8;" x="127.046798" xlink:href="#m9a342462ad" y="331.688116"/>
     <use style="fill:#1f77b4;fill-opacity:0.8;stroke:#1f77b4;stroke-opacity:0.8;" x="143.770817" xlink:href="#m9a342462ad" y="279.486687"/>
    </g>
   </g>
   <g id="PolyCollection_1">
    <path clip-path="url(#pf92d774008)" d="M 43.78125 359.750353 
L 43.78125 385.783636 
L 46.898802 382.819282 
L 50.016355 379.86696 
L 53.133907 376.945414 
L 56.251459 374.077788 
L 59.369012 371.168246 
L 62.486564 368.205371 
L 65.604116 365.310661 
L 68.721668 362.412983 
L 71.839221 359.455658 
L 74.956773 356.528156 
L 78.074325 353.620541 
L 81.191878 350.716923 
L 84.30943 347.879942 
L 87.426982 345.044514 
L 90.544535 342.170984 
L 93.662087 339.202158 
L 96.779639 336.305527 
L 99.897192 333.458273 
L 103.014744 330.49025 
L 106.132296 327.629977 
L 109.249848 324.748556 
L 112.367401 321.823163 
L 115.484953 318.902522 
L 118.602505 316.000038 
L 121.720058 313.283578 
L 124.83761 310.406084 
L 127.955162 307.52194 
L 131.072715 304.744753 
L 134.190267 301.97873 
L 137.307819 299.26555 
L 140.425372 296.511614 
L 143.542924 293.810762 
L 146.660476 290.993143 
L 149.778028 288.166359 
L 152.895581 285.535495 
L 156.013133 282.841854 
L 159.130685 280.16733 
L 162.248238 277.372195 
L 165.36579 274.664876 
L 168.483342 272.030471 
L 171.600895 269.410125 
L 174.718447 266.914919 
L 177.835999 264.31219 
L 180.953552 261.660843 
L 184.071104 259.029185 
L 187.188656 256.669001 
L 190.306209 254.040713 
L 193.423761 251.474883 
L 196.541313 248.935582 
L 199.658865 246.387798 
L 202.776418 243.830497 
L 205.89397 241.353454 
L 209.011522 238.865997 
L 212.129075 236.349872 
L 215.246627 233.925175 
L 218.364179 231.316028 
L 221.481732 228.744356 
L 224.599284 226.106713 
L 227.716836 223.536187 
L 230.834389 221.007636 
L 233.951941 218.479086 
L 237.069493 215.961538 
L 240.187045 213.426322 
L 243.304598 210.984 
L 246.42215 208.654577 
L 249.539702 206.157159 
L 252.657255 203.629621 
L 255.774807 201.12617 
L 258.892359 198.699357 
L 262.009912 196.281443 
L 265.127464 193.860823 
L 268.245016 191.442467 
L 271.362569 188.964329 
L 274.480121 186.454791 
L 277.597673 183.92406 
L 280.715225 181.392387 
L 283.832778 178.960845 
L 286.95033 176.538434 
L 290.067882 174.117132 
L 293.185435 171.69583 
L 296.302987 169.271132 
L 299.420539 166.840894 
L 302.538092 164.410657 
L 305.655644 161.980009 
L 308.773196 159.549165 
L 311.890749 157.104665 
L 315.008301 154.659537 
L 318.125853 152.205829 
L 321.243405 149.730296 
L 324.360958 147.254763 
L 327.47851 144.778389 
L 330.596062 142.301709 
L 333.713615 139.825029 
L 336.831167 137.348348 
L 339.948719 134.871668 
L 343.066272 132.388069 
L 346.183824 129.91903 
L 349.301376 127.443618 
L 352.418929 124.968206 
L 352.418929 89.456364 
L 352.418929 89.456364 
L 349.301376 92.41766 
L 346.183824 95.378956 
L 343.066272 98.340252 
L 339.948719 101.301549 
L 336.831167 104.262845 
L 333.713615 107.224141 
L 330.596062 110.185437 
L 327.47851 113.146734 
L 324.360958 116.109238 
L 321.243405 119.072218 
L 318.125853 122.035197 
L 315.008301 125.06654 
L 311.890749 128.017318 
L 308.773196 130.956369 
L 305.655644 133.895419 
L 302.538092 136.840498 
L 299.420539 139.789757 
L 296.302987 142.720354 
L 293.185435 145.649232 
L 290.067882 148.577984 
L 286.95033 151.455128 
L 283.832778 154.350547 
L 280.715225 157.257208 
L 277.597673 160.165934 
L 274.480121 163.144641 
L 271.362569 166.150814 
L 268.245016 169.140381 
L 265.127464 172.102066 
L 262.009912 175.119565 
L 258.892359 178.006803 
L 255.774807 180.911154 
L 252.657255 183.922213 
L 249.539702 186.882346 
L 246.42215 189.797677 
L 243.304598 192.667547 
L 240.187045 195.557738 
L 237.069493 198.491756 
L 233.951941 201.430377 
L 230.834389 204.363044 
L 227.716836 207.294738 
L 224.599284 210.171923 
L 221.481732 212.89363 
L 218.364179 215.783862 
L 215.246627 218.585803 
L 212.129075 221.321981 
L 209.011522 224.227591 
L 205.89397 226.988143 
L 202.776418 229.879767 
L 199.658865 232.79171 
L 196.541313 235.567506 
L 193.423761 238.423775 
L 190.306209 241.014492 
L 187.188656 243.550629 
L 184.071104 246.088585 
L 180.953552 248.740907 
L 177.835999 251.395119 
L 174.718447 253.992999 
L 171.600895 256.629603 
L 168.483342 259.393031 
L 165.36579 262.016036 
L 162.248238 264.719586 
L 159.130685 267.427918 
L 156.013133 269.887569 
L 152.895581 272.394267 
L 149.778028 275.085412 
L 146.660476 277.579284 
L 143.542924 280.112764 
L 140.425372 282.633885 
L 137.307819 285.176347 
L 134.190267 287.776729 
L 131.072715 290.456424 
L 127.955162 293.067329 
L 124.83761 295.517485 
L 121.720058 297.953149 
L 118.602505 300.387171 
L 115.484953 302.820802 
L 112.367401 305.25323 
L 109.249848 307.635835 
L 106.132296 310.151133 
L 103.014744 312.678379 
L 99.897192 315.09986 
L 96.779639 317.646434 
L 93.662087 320.19579 
L 90.544535 322.741002 
L 87.426982 325.287559 
L 84.30943 327.835574 
L 81.191878 330.38359 
L 78.074325 332.931605 
L 74.956773 335.360324 
L 71.839221 337.823243 
L 68.721668 340.365391 
L 65.604116 342.90754 
L 62.486564 345.396664 
L 59.369012 347.790502 
L 56.251459 350.144055 
L 53.133907 352.461017 
L 50.016355 354.868542 
L 46.898802 357.357024 
L 43.78125 359.750353 
z
" style="fill:#1f77b4;fill-opacity:0.15;"/>
   </g>
   <g id="matplotlib.axis_1">
    <g id="xtick_1">
     <g id="line2d_1">
      <defs>
       <path d="M 0 0 
L 0 3.5 
" id="me0998d9283" style="stroke:#000000;stroke-width:0.8;"/>
      </defs>
      <g>
       <use style="stroke:#000000;stroke-width:0.8;" x="65.788458" xlink:href="#me0998d9283" y="400.6"/>
      </g>
     </g>
     <g id="text_1">
      <!-- 2.5 -->
      <g transform="translate(57.836895 415.198437)scale(0.1 -0.1)">
       <defs>
        <path d="M 19.1875 8.296875 
L 53.609375 8.296875 
L 53.609375 0 
L 7.328125 0 
L 7.328125 8.296875 
Q 12.9375 14.109375 22.625 23.890625 
Q 32.328125 33.6875 34.8125 36.53125 
Q 39.546875 41.84375 41.421875 45.53125 
Q 43.3125 49.21875 43.3125 52.78125 
Q 43.3125 58.59375 39.234375 62.25 
Q 35.15625 65.921875 28.609375 65.921875 
Q 23.96875 65.921875 18.8125 64.3125 
Q 13.671875 62.703125 7.8125 59.421875 
L 7.8125 69.390625 
Q 13.765625 71.78125 18.9375 73 
Q 24.125 74.21875 28.421875 74.21875 
Q 39.75 74.21875 46.484375 68.546875 
Q 53.21875 62.890625 53.21875 53.421875 
Q 53.21875 48.921875 51.53125 44.890625 
Q 49.859375 40.875 45.40625 35.40625 
Q 44.1875 33.984375 37.640625 27.21875 
Q 31.109375 20.453125 19.1875 8.296875 
z
" id="DejaVuSans-50"/>
        <path d="M 10.6875 12.40625 
L 21 12.40625 
L 21 0 
L 10.6875 0 
z
" id="DejaVuSans-46"/>
        <path d="M 10.796875 72.90625 
L 49.515625 72.90625 
L 49.515625 64.59375 
L 19.828125 64.59375 
L 19.828125 46.734375 
Q 21.96875 47.46875 24.109375 47.828125 
Q 26.265625 48.1875 28.421875 48.1875 
Q 40.625 48.1875 47.75 41.5 
Q 54.890625 34.8125 54.890625 23.390625 
Q 54.890625 11.625 47.5625 5.09375 
Q 40.234375 -1.421875 26.90625 -1.421875 
Q 22.3125 -1.421875 17.546875 -0.640625 
Q 12.796875 0.140625 7.71875 1.703125 
L 7.71875 11.625 
Q 12.109375 9.234375 16.796875 8.0625 
Q 21.484375 6.890625 26.703125 6.890625 
Q 35.15625 6.890625 40.078125 11.328125 
Q 45.015625 15.765625 45.015625 23.390625 
Q 45.015625 31 40.078125 35.4375 
Q 35.15625 39.890625 26.703125 39.890625 
Q 22.75 39.890625 18.8125 39.015625 
Q 14.890625 38.140625 10.796875 36.28125 
z
" id="DejaVuSans-53"/>
       </defs>
       <use xlink:href="#DejaVuSans-50"/>
       <use x="63.623047" xlink:href="#DejaVuSans-46"/>
       <use x="95.410156" xlink:href="#DejaVuSans-53"/>
      </g>
     </g>
    </g>
    <g id="xtick_2">
     <g id="line2d_2">
      <g>
       <use style="stroke:#000000;stroke-width:0.8;" x="124.714542" xlink:href="#me0998d9283" y="400.6"/>
      </g>
     </g>
     <g id="text_2">
      <!-- 3.0 -->
      <g transform="translate(116.76298 415.198437)scale(0.1 -0.1)">
       <defs>
        <path d="M 40.578125 39.3125 
Q 47.65625 37.796875 51.625 33 
Q 55.609375 28.21875 55.609375 21.1875 
Q 55.609375 10.40625 48.1875 4.484375 
Q 40.765625 -1.421875 27.09375 -1.421875 
Q 22.515625 -1.421875 17.65625 -0.515625 
Q 12.796875 0.390625 7.625 2.203125 
L 7.625 11.71875 
Q 11.71875 9.328125 16.59375 8.109375 
Q 21.484375 6.890625 26.8125 6.890625 
Q 36.078125 6.890625 40.9375 10.546875 
Q 45.796875 14.203125 45.796875 21.1875 
Q 45.796875 27.640625 41.28125 31.265625 
Q 36.765625 34.90625 28.71875 34.90625 
L 20.21875 34.90625 
L 20.21875 43.015625 
L 29.109375 43.015625 
Q 36.375 43.015625 40.234375 45.921875 
Q 44.09375 48.828125 44.09375 54.296875 
Q 44.09375 59.90625 40.109375 62.90625 
Q 36.140625 65.921875 28.71875 65.921875 
Q 24.65625 65.921875 20.015625 65.03125 
Q 15.375 64.15625 9.8125 62.3125 
L 9.8125 71.09375 
Q 15.4375 72.65625 20.34375 73.4375 
Q 25.25 74.21875 29.59375 74.21875 
Q 40.828125 74.21875 47.359375 69.109375 
Q 53.90625 64.015625 53.90625 55.328125 
Q 53.90625 49.265625 50.4375 45.09375 
Q 46.96875 40.921875 40.578125 39.3125 
z
" id="DejaVuSans-51"/>
        <path d="M 31.78125 66.40625 
Q 24.171875 66.40625 20.328125 58.90625 
Q 16.5 51.421875 16.5 36.375 
Q 16.5 21.390625 20.328125 13.890625 
Q 24.171875 6.390625 31.78125 6.390625 
Q 39.453125 6.390625 43.28125 13.890625 
Q 47.125 21.390625 47.125 36.375 
Q 47.125 51.421875 43.28125 58.90625 
Q 39.453125 66.40625 31.78125 66.40625 
z
M 31.78125 74.21875 
Q 44.046875 74.21875 50.515625 64.515625 
Q 56.984375 54.828125 56.984375 36.375 
Q 56.984375 17.96875 50.515625 8.265625 
Q 44.046875 -1.421875 31.78125 -1.421875 
Q 19.53125 -1.421875 13.0625 8.265625 
Q 6.59375 17.96875 6.59375 36.375 
Q 6.59375 54.828125 13.0625 64.515625 
Q 19.53125 74.21875 31.78125 74.21875 
z
" id="DejaVuSans-48"/>
       </defs>
       <use xlink:href="#DejaVuSans-51"/>
       <use x="63.623047" xlink:href="#DejaVuSans-46"/>
       <use x="95.410156" xlink:href="#DejaVuSans-48"/>
      </g>
     </g>
    </g>
    <g id="xtick_3">
     <g id="line2d_3">
      <g>
       <use style="stroke:#000000;stroke-width:0.8;" x="183.640627" xlink:href="#me0998d9283" y="400.6"/>
      </g>
     </g>
     <g id="text_3">
      <!-- 3.5 -->
      <g transform="translate(175.689065 415.198437)scale(0.1 -0.1)">
       <use xlink:href="#DejaVuSans-51"/>
       <use x="63.623047" xlink:href="#DejaVuSans-46"/>
       <use x="95.410156" xlink:href="#DejaVuSans-53"/>
      </g>
     </g>
    </g>
    <g id="xtick_4">
     <g id="line2d_4">
      <g>
       <use style="stroke:#000000;stroke-width:0.8;" x="242.566712" xlink:href="#me0998d9283" y="400.6"/>
      </g>
     </g>
     <g id="text_4">
      <!-- 4.0 -->
      <g transform="translate(234.615149 415.198437)scale(0.1 -0.1)">
       <defs>
        <path d="M 37.796875 64.3125 
L 12.890625 25.390625 
L 37.796875 25.390625 
z
M 35.203125 72.90625 
L 47.609375 72.90625 
L 47.609375 25.390625 
L 58.015625 25.390625 
L 58.015625 17.1875 
L 47.609375 17.1875 
L 47.609375 0 
L 37.796875 0 
L 37.796875 17.1875 
L 4.890625 17.1875 
L 4.890625 26.703125 
z
" id="DejaVuSans-52"/>
       </defs>
       <use xlink:href="#DejaVuSans-52"/>
       <use x="63.623047" xlink:href="#DejaVuSans-46"/>
       <use x="95.410156" xlink:href="#DejaVuSans-48"/>
      </g>
     </g>
    </g>
    <g id="xtick_5">
     <g id="line2d_5">
      <g>
       <use style="stroke:#000000;stroke-width:0.8;" x="301.492797" xlink:href="#me0998d9283" y="400.6"/>
      </g>
     </g>
     <g id="text_5">
      <!-- 4.5 -->
      <g transform="translate(293.541234 415.198437)scale(0.1 -0.1)">
       <use xlink:href="#DejaVuSans-52"/>
       <use x="63.623047" xlink:href="#DejaVuSans-46"/>
       <use x="95.410156" xlink:href="#DejaVuSans-53"/>
      </g>
     </g>
    </g>
    <g id="text_6">
     <!-- Predicted Values -->
     <g transform="translate(156.704777 428.876562)scale(0.1 -0.1)">
      <defs>
       <path d="M 19.671875 64.796875 
L 19.671875 37.40625 
L 32.078125 37.40625 
Q 38.96875 37.40625 42.71875 40.96875 
Q 46.484375 44.53125 46.484375 51.125 
Q 46.484375 57.671875 42.71875 61.234375 
Q 38.96875 64.796875 32.078125 64.796875 
z
M 9.8125 72.90625 
L 32.078125 72.90625 
Q 44.34375 72.90625 50.609375 67.359375 
Q 56.890625 61.8125 56.890625 51.125 
Q 56.890625 40.328125 50.609375 34.8125 
Q 44.34375 29.296875 32.078125 29.296875 
L 19.671875 29.296875 
L 19.671875 0 
L 9.8125 0 
z
" id="DejaVuSans-80"/>
       <path d="M 41.109375 46.296875 
Q 39.59375 47.171875 37.8125 47.578125 
Q 36.03125 48 33.890625 48 
Q 26.265625 48 22.1875 43.046875 
Q 18.109375 38.09375 18.109375 28.8125 
L 18.109375 0 
L 9.078125 0 
L 9.078125 54.6875 
L 18.109375 54.6875 
L 18.109375 46.1875 
Q 20.953125 51.171875 25.484375 53.578125 
Q 30.03125 56 36.53125 56 
Q 37.453125 56 38.578125 55.875 
Q 39.703125 55.765625 41.0625 55.515625 
z
" id="DejaVuSans-114"/>
       <path d="M 56.203125 29.59375 
L 56.203125 25.203125 
L 14.890625 25.203125 
Q 15.484375 15.921875 20.484375 11.0625 
Q 25.484375 6.203125 34.421875 6.203125 
Q 39.59375 6.203125 44.453125 7.46875 
Q 49.3125 8.734375 54.109375 11.28125 
L 54.109375 2.78125 
Q 49.265625 0.734375 44.1875 -0.34375 
Q 39.109375 -1.421875 33.890625 -1.421875 
Q 20.796875 -1.421875 13.15625 6.1875 
Q 5.515625 13.8125 5.515625 26.8125 
Q 5.515625 40.234375 12.765625 48.109375 
Q 20.015625 56 32.328125 56 
Q 43.359375 56 49.78125 48.890625 
Q 56.203125 41.796875 56.203125 29.59375 
z
M 47.21875 32.234375 
Q 47.125 39.59375 43.09375 43.984375 
Q 39.0625 48.390625 32.421875 48.390625 
Q 24.90625 48.390625 20.390625 44.140625 
Q 15.875 39.890625 15.1875 32.171875 
z
" id="DejaVuSans-101"/>
       <path d="M 45.40625 46.390625 
L 45.40625 75.984375 
L 54.390625 75.984375 
L 54.390625 0 
L 45.40625 0 
L 45.40625 8.203125 
Q 42.578125 3.328125 38.25 0.953125 
Q 33.9375 -1.421875 27.875 -1.421875 
Q 17.96875 -1.421875 11.734375 6.484375 
Q 5.515625 14.40625 5.515625 27.296875 
Q 5.515625 40.1875 11.734375 48.09375 
Q 17.96875 56 27.875 56 
Q 33.9375 56 38.25 53.625 
Q 42.578125 51.265625 45.40625 46.390625 
z
M 14.796875 27.296875 
Q 14.796875 17.390625 18.875 11.75 
Q 22.953125 6.109375 30.078125 6.109375 
Q 37.203125 6.109375 41.296875 11.75 
Q 45.40625 17.390625 45.40625 27.296875 
Q 45.40625 37.203125 41.296875 42.84375 
Q 37.203125 48.484375 30.078125 48.484375 
Q 22.953125 48.484375 18.875 42.84375 
Q 14.796875 37.203125 14.796875 27.296875 
z
" id="DejaVuSans-100"/>
       <path d="M 9.421875 54.6875 
L 18.40625 54.6875 
L 18.40625 0 
L 9.421875 0 
z
M 9.421875 75.984375 
L 18.40625 75.984375 
L 18.40625 64.59375 
L 9.421875 64.59375 
z
" id="DejaVuSans-105"/>
       <path d="M 48.78125 52.59375 
L 48.78125 44.1875 
Q 44.96875 46.296875 41.140625 47.34375 
Q 37.3125 48.390625 33.40625 48.390625 
Q 24.65625 48.390625 19.8125 42.84375 
Q 14.984375 37.3125 14.984375 27.296875 
Q 14.984375 17.28125 19.8125 11.734375 
Q 24.65625 6.203125 33.40625 6.203125 
Q 37.3125 6.203125 41.140625 7.25 
Q 44.96875 8.296875 48.78125 10.40625 
L 48.78125 2.09375 
Q 45.015625 0.34375 40.984375 -0.53125 
Q 36.96875 -1.421875 32.421875 -1.421875 
Q 20.0625 -1.421875 12.78125 6.34375 
Q 5.515625 14.109375 5.515625 27.296875 
Q 5.515625 40.671875 12.859375 48.328125 
Q 20.21875 56 33.015625 56 
Q 37.15625 56 41.109375 55.140625 
Q 45.0625 54.296875 48.78125 52.59375 
z
" id="DejaVuSans-99"/>
       <path d="M 18.3125 70.21875 
L 18.3125 54.6875 
L 36.8125 54.6875 
L 36.8125 47.703125 
L 18.3125 47.703125 
L 18.3125 18.015625 
Q 18.3125 11.328125 20.140625 9.421875 
Q 21.96875 7.515625 27.59375 7.515625 
L 36.8125 7.515625 
L 36.8125 0 
L 27.59375 0 
Q 17.1875 0 13.234375 3.875 
Q 9.28125 7.765625 9.28125 18.015625 
L 9.28125 47.703125 
L 2.6875 47.703125 
L 2.6875 54.6875 
L 9.28125 54.6875 
L 9.28125 70.21875 
z
" id="DejaVuSans-116"/>
       <path id="DejaVuSans-32"/>
       <path d="M 28.609375 0 
L 0.78125 72.90625 
L 11.078125 72.90625 
L 34.1875 11.53125 
L 57.328125 72.90625 
L 67.578125 72.90625 
L 39.796875 0 
z
" id="DejaVuSans-86"/>
       <path d="M 34.28125 27.484375 
Q 23.390625 27.484375 19.1875 25 
Q 14.984375 22.515625 14.984375 16.5 
Q 14.984375 11.71875 18.140625 8.90625 
Q 21.296875 6.109375 26.703125 6.109375 
Q 34.1875 6.109375 38.703125 11.40625 
Q 43.21875 16.703125 43.21875 25.484375 
L 43.21875 27.484375 
z
M 52.203125 31.203125 
L 52.203125 0 
L 43.21875 0 
L 43.21875 8.296875 
Q 40.140625 3.328125 35.546875 0.953125 
Q 30.953125 -1.421875 24.3125 -1.421875 
Q 15.921875 -1.421875 10.953125 3.296875 
Q 6 8.015625 6 15.921875 
Q 6 25.140625 12.171875 29.828125 
Q 18.359375 34.515625 30.609375 34.515625 
L 43.21875 34.515625 
L 43.21875 35.40625 
Q 43.21875 41.609375 39.140625 45 
Q 35.0625 48.390625 27.6875 48.390625 
Q 23 48.390625 18.546875 47.265625 
Q 14.109375 46.140625 10.015625 43.890625 
L 10.015625 52.203125 
Q 14.9375 54.109375 19.578125 55.046875 
Q 24.21875 56 28.609375 56 
Q 40.484375 56 46.34375 49.84375 
Q 52.203125 43.703125 52.203125 31.203125 
z
" id="DejaVuSans-97"/>
       <path d="M 9.421875 75.984375 
L 18.40625 75.984375 
L 18.40625 0 
L 9.421875 0 
z
" id="DejaVuSans-108"/>
       <path d="M 8.5 21.578125 
L 8.5 54.6875 
L 17.484375 54.6875 
L 17.484375 21.921875 
Q 17.484375 14.15625 20.5 10.265625 
Q 23.53125 6.390625 29.59375 6.390625 
Q 36.859375 6.390625 41.078125 11.03125 
Q 45.3125 15.671875 45.3125 23.6875 
L 45.3125 54.6875 
L 54.296875 54.6875 
L 54.296875 0 
L 45.3125 0 
L 45.3125 8.40625 
Q 42.046875 3.421875 37.71875 1 
Q 33.40625 -1.421875 27.6875 -1.421875 
Q 18.265625 -1.421875 13.375 4.4375 
Q 8.5 10.296875 8.5 21.578125 
z
M 31.109375 56 
z
" id="DejaVuSans-117"/>
       <path d="M 44.28125 53.078125 
L 44.28125 44.578125 
Q 40.484375 46.53125 36.375 47.5 
Q 32.28125 48.484375 27.875 48.484375 
Q 21.1875 48.484375 17.84375 46.4375 
Q 14.5 44.390625 14.5 40.28125 
Q 14.5 37.15625 16.890625 35.375 
Q 19.28125 33.59375 26.515625 31.984375 
L 29.59375 31.296875 
Q 39.15625 29.25 43.1875 25.515625 
Q 47.21875 21.78125 47.21875 15.09375 
Q 47.21875 7.46875 41.1875 3.015625 
Q 35.15625 -1.421875 24.609375 -1.421875 
Q 20.21875 -1.421875 15.453125 -0.5625 
Q 10.6875 0.296875 5.421875 2 
L 5.421875 11.28125 
Q 10.40625 8.6875 15.234375 7.390625 
Q 20.0625 6.109375 24.8125 6.109375 
Q 31.15625 6.109375 34.5625 8.28125 
Q 37.984375 10.453125 37.984375 14.40625 
Q 37.984375 18.0625 35.515625 20.015625 
Q 33.0625 21.96875 24.703125 23.78125 
L 21.578125 24.515625 
Q 13.234375 26.265625 9.515625 29.90625 
Q 5.8125 33.546875 5.8125 39.890625 
Q 5.8125 47.609375 11.28125 51.796875 
Q 16.75 56 26.8125 56 
Q 31.78125 56 36.171875 55.265625 
Q 40.578125 54.546875 44.28125 53.078125 
z
" id="DejaVuSans-115"/>
      </defs>
      <use xlink:href="#DejaVuSans-80"/>
      <use x="58.552734" xlink:href="#DejaVuSans-114"/>
      <use x="97.416016" xlink:href="#DejaVuSans-101"/>
      <use x="158.939453" xlink:href="#DejaVuSans-100"/>
      <use x="222.416016" xlink:href="#DejaVuSans-105"/>
      <use x="250.199219" xlink:href="#DejaVuSans-99"/>
      <use x="305.179688" xlink:href="#DejaVuSans-116"/>
      <use x="344.388672" xlink:href="#DejaVuSans-101"/>
      <use x="405.912109" xlink:href="#DejaVuSans-100"/>
      <use x="469.388672" xlink:href="#DejaVuSans-32"/>
      <use x="501.175781" xlink:href="#DejaVuSans-86"/>
      <use x="561.833984" xlink:href="#DejaVuSans-97"/>
      <use x="623.113281" xlink:href="#DejaVuSans-108"/>
      <use x="650.896484" xlink:href="#DejaVuSans-117"/>
      <use x="714.275391" xlink:href="#DejaVuSans-101"/>
      <use x="775.798828" xlink:href="#DejaVuSans-115"/>
     </g>
    </g>
   </g>
   <g id="matplotlib.axis_2">
    <g id="ytick_1">
     <g id="line2d_6">
      <defs>
       <path d="M 0 0 
L -3.5 0 
" id="md2042eda2d" style="stroke:#000000;stroke-width:0.8;"/>
      </defs>
      <g>
       <use style="stroke:#000000;stroke-width:0.8;" x="43.78125" xlink:href="#md2042eda2d" y="352.948831"/>
      </g>
     </g>
     <g id="text_7">
      <!-- 2.5 -->
      <g transform="translate(20.878125 356.74805)scale(0.1 -0.1)">
       <use xlink:href="#DejaVuSans-50"/>
       <use x="63.623047" xlink:href="#DejaVuSans-46"/>
       <use x="95.410156" xlink:href="#DejaVuSans-53"/>
      </g>
     </g>
    </g>
    <g id="ytick_2">
     <g id="line2d_7">
      <g>
       <use style="stroke:#000000;stroke-width:0.8;" x="43.78125" xlink:href="#md2042eda2d" y="301.853676"/>
      </g>
     </g>
     <g id="text_8">
      <!-- 3.0 -->
      <g transform="translate(20.878125 305.652894)scale(0.1 -0.1)">
       <use xlink:href="#DejaVuSans-51"/>
       <use x="63.623047" xlink:href="#DejaVuSans-46"/>
       <use x="95.410156" xlink:href="#DejaVuSans-48"/>
      </g>
     </g>
    </g>
    <g id="ytick_3">
     <g id="line2d_8">
      <g>
       <use style="stroke:#000000;stroke-width:0.8;" x="43.78125" xlink:href="#md2042eda2d" y="250.75852"/>
      </g>
     </g>
     <g id="text_9">
      <!-- 3.5 -->
      <g transform="translate(20.878125 254.557739)scale(0.1 -0.1)">
       <use xlink:href="#DejaVuSans-51"/>
       <use x="63.623047" xlink:href="#DejaVuSans-46"/>
       <use x="95.410156" xlink:href="#DejaVuSans-53"/>
      </g>
     </g>
    </g>
    <g id="ytick_4">
     <g id="line2d_9">
      <g>
       <use style="stroke:#000000;stroke-width:0.8;" x="43.78125" xlink:href="#md2042eda2d" y="199.663364"/>
      </g>
     </g>
     <g id="text_10">
      <!-- 4.0 -->
      <g transform="translate(20.878125 203.462583)scale(0.1 -0.1)">
       <use xlink:href="#DejaVuSans-52"/>
       <use x="63.623047" xlink:href="#DejaVuSans-46"/>
       <use x="95.410156" xlink:href="#DejaVuSans-48"/>
      </g>
     </g>
    </g>
    <g id="ytick_5">
     <g id="line2d_10">
      <g>
       <use style="stroke:#000000;stroke-width:0.8;" x="43.78125" xlink:href="#md2042eda2d" y="148.568209"/>
      </g>
     </g>
     <g id="text_11">
      <!-- 4.5 -->
      <g transform="translate(20.878125 152.367427)scale(0.1 -0.1)">
       <use xlink:href="#DejaVuSans-52"/>
       <use x="63.623047" xlink:href="#DejaVuSans-46"/>
       <use x="95.410156" xlink:href="#DejaVuSans-53"/>
      </g>
     </g>
    </g>
    <g id="ytick_6">
     <g id="line2d_11">
      <g>
       <use style="stroke:#000000;stroke-width:0.8;" x="43.78125" xlink:href="#md2042eda2d" y="97.473053"/>
      </g>
     </g>
     <g id="text_12">
      <!-- 5.0 -->
      <g transform="translate(20.878125 101.272272)scale(0.1 -0.1)">
       <use xlink:href="#DejaVuSans-53"/>
       <use x="63.623047" xlink:href="#DejaVuSans-46"/>
       <use x="95.410156" xlink:href="#DejaVuSans-48"/>
      </g>
     </g>
    </g>
    <g id="text_13">
     <!-- Real Values -->
     <g transform="translate(14.798438 266.323906)rotate(-90)scale(0.1 -0.1)">
      <defs>
       <path d="M 44.390625 34.1875 
Q 47.5625 33.109375 50.5625 29.59375 
Q 53.5625 26.078125 56.59375 19.921875 
L 66.609375 0 
L 56 0 
L 46.6875 18.703125 
Q 43.0625 26.03125 39.671875 28.421875 
Q 36.28125 30.8125 30.421875 30.8125 
L 19.671875 30.8125 
L 19.671875 0 
L 9.8125 0 
L 9.8125 72.90625 
L 32.078125 72.90625 
Q 44.578125 72.90625 50.734375 67.671875 
Q 56.890625 62.453125 56.890625 51.90625 
Q 56.890625 45.015625 53.6875 40.46875 
Q 50.484375 35.9375 44.390625 34.1875 
z
M 19.671875 64.796875 
L 19.671875 38.921875 
L 32.078125 38.921875 
Q 39.203125 38.921875 42.84375 42.21875 
Q 46.484375 45.515625 46.484375 51.90625 
Q 46.484375 58.296875 42.84375 61.546875 
Q 39.203125 64.796875 32.078125 64.796875 
z
" id="DejaVuSans-82"/>
      </defs>
      <use xlink:href="#DejaVuSans-82"/>
      <use x="64.982422" xlink:href="#DejaVuSans-101"/>
      <use x="126.505859" xlink:href="#DejaVuSans-97"/>
      <use x="187.785156" xlink:href="#DejaVuSans-108"/>
      <use x="215.568359" xlink:href="#DejaVuSans-32"/>
      <use x="247.355469" xlink:href="#DejaVuSans-86"/>
      <use x="308.013672" xlink:href="#DejaVuSans-97"/>
      <use x="369.292969" xlink:href="#DejaVuSans-108"/>
      <use x="397.076172" xlink:href="#DejaVuSans-117"/>
      <use x="460.455078" xlink:href="#DejaVuSans-101"/>
      <use x="521.978516" xlink:href="#DejaVuSans-115"/>
     </g>
    </g>
   </g>
   <g id="line2d_12">
    <path clip-path="url(#pf92d774008)" d="M 43.78125 372.865073 
L 46.898802 370.187481 
L 50.016355 367.50989 
L 53.133907 364.832298 
L 56.251459 362.154706 
L 59.369012 359.477115 
L 62.486564 356.799523 
L 65.604116 354.121932 
L 68.721668 351.44434 
L 71.839221 348.766749 
L 74.956773 346.089157 
L 78.074325 343.411565 
L 81.191878 340.733974 
L 84.30943 338.056382 
L 87.426982 335.378791 
L 90.544535 332.701199 
L 93.662087 330.023608 
L 96.779639 327.346016 
L 99.897192 324.668424 
L 103.014744 321.990833 
L 106.132296 319.313241 
L 109.249848 316.63565 
L 112.367401 313.958058 
L 115.484953 311.280467 
L 118.602505 308.602875 
L 121.720058 305.925283 
L 124.83761 303.247692 
L 127.955162 300.5701 
L 131.072715 297.892509 
L 134.190267 295.214917 
L 137.307819 292.537326 
L 140.425372 289.859734 
L 143.542924 287.182142 
L 146.660476 284.504551 
L 149.778028 281.826959 
L 152.895581 279.149368 
L 156.013133 276.471776 
L 159.130685 273.794185 
L 162.248238 271.116593 
L 165.36579 268.439001 
L 168.483342 265.76141 
L 171.600895 263.083818 
L 174.718447 260.406227 
L 177.835999 257.728635 
L 180.953552 255.051044 
L 184.071104 252.373452 
L 187.188656 249.69586 
L 190.306209 247.018269 
L 193.423761 244.340677 
L 196.541313 241.663086 
L 199.658865 238.985494 
L 202.776418 236.307903 
L 205.89397 233.630311 
L 209.011522 230.952719 
L 212.129075 228.275128 
L 215.246627 225.597536 
L 218.364179 222.919945 
L 221.481732 220.242353 
L 224.599284 217.564762 
L 227.716836 214.88717 
L 230.834389 212.209578 
L 233.951941 209.531987 
L 237.069493 206.854395 
L 240.187045 204.176804 
L 243.304598 201.499212 
L 246.42215 198.821621 
L 249.539702 196.144029 
L 252.657255 193.466437 
L 255.774807 190.788846 
L 258.892359 188.111254 
L 262.009912 185.433663 
L 265.127464 182.756071 
L 268.245016 180.078479 
L 271.362569 177.400888 
L 274.480121 174.723296 
L 277.597673 172.045705 
L 280.715225 169.368113 
L 283.832778 166.690522 
L 286.95033 164.01293 
L 290.067882 161.335338 
L 293.185435 158.657747 
L 296.302987 155.980155 
L 299.420539 153.302564 
L 302.538092 150.624972 
L 305.655644 147.947381 
L 308.773196 145.269789 
L 311.890749 142.592197 
L 315.008301 139.914606 
L 318.125853 137.237014 
L 321.243405 134.559423 
L 324.360958 131.881831 
L 327.47851 129.20424 
L 330.596062 126.526648 
L 333.713615 123.849056 
L 336.831167 121.171465 
L 339.948719 118.493873 
L 343.066272 115.816282 
L 346.183824 113.13869 
L 349.301376 110.461099 
L 352.418929 107.783507 
" style="fill:none;stroke:#1f77b4;stroke-linecap:square;stroke-width:2.25;"/>
   </g>
   <g id="patch_3">
    <path d="M 43.78125 400.6 
L 43.78125 74.64 
" style="fill:none;stroke:#000000;stroke-linecap:square;stroke-linejoin:miter;stroke-width:0.8;"/>
   </g>
   <g id="patch_4">
    <path d="M 43.78125 400.6 
L 352.418929 400.6 
" style="fill:none;stroke:#000000;stroke-linecap:square;stroke-linejoin:miter;stroke-width:0.8;"/>
   </g>
  </g>
  <g id="axes_2">
   <g id="patch_5">
    <path d="M 43.78125 63.4 
L 352.418929 63.4 
L 352.418929 7.2 
L 43.78125 7.2 
z
" style="fill:#ffffff;"/>
   </g>
   <g id="patch_6">
    <path clip-path="url(#p64f2b54968)" d="M 43.78125 63.4 
L 56.126757 63.4 
L 56.126757 58.047619 
L 43.78125 58.047619 
z
" style="fill:none;stroke:#1f77b4;stroke-linejoin:miter;stroke-width:1.122319;"/>
   </g>
   <g id="patch_7">
    <path clip-path="url(#p64f2b54968)" d="M 56.126757 63.4 
L 68.472264 63.4 
L 68.472264 47.342857 
L 56.126757 47.342857 
z
" style="fill:none;stroke:#1f77b4;stroke-linejoin:miter;stroke-width:1.122319;"/>
   </g>
   <g id="patch_8">
    <path clip-path="url(#p64f2b54968)" d="M 68.472264 63.4 
L 80.817771 63.4 
L 80.817771 52.695238 
L 68.472264 52.695238 
z
" style="fill:none;stroke:#1f77b4;stroke-linejoin:miter;stroke-width:1.122319;"/>
   </g>
   <g id="patch_9">
    <path clip-path="url(#p64f2b54968)" d="M 80.817771 63.4 
L 93.163279 63.4 
L 93.163279 47.342857 
L 80.817771 47.342857 
z
" style="fill:none;stroke:#1f77b4;stroke-linejoin:miter;stroke-width:1.122319;"/>
   </g>
   <g id="patch_10">
    <path clip-path="url(#p64f2b54968)" d="M 93.163279 63.4 
L 105.508786 63.4 
L 105.508786 36.638095 
L 93.163279 36.638095 
z
" style="fill:none;stroke:#1f77b4;stroke-linejoin:miter;stroke-width:1.122319;"/>
   </g>
   <g id="patch_11">
    <path clip-path="url(#p64f2b54968)" d="M 105.508786 63.4 
L 117.854293 63.4 
L 117.854293 31.285714 
L 105.508786 31.285714 
z
" style="fill:none;stroke:#1f77b4;stroke-linejoin:miter;stroke-width:1.122319;"/>
   </g>
   <g id="patch_12">
    <path clip-path="url(#p64f2b54968)" d="M 117.854293 63.4 
L 130.1998 63.4 
L 130.1998 9.87619 
L 117.854293 9.87619 
z
" style="fill:none;stroke:#1f77b4;stroke-linejoin:miter;stroke-width:1.122319;"/>
   </g>
   <g id="patch_13">
    <path clip-path="url(#p64f2b54968)" d="M 130.1998 63.4 
L 142.545307 63.4 
L 142.545307 36.638095 
L 130.1998 36.638095 
z
" style="fill:none;stroke:#1f77b4;stroke-linejoin:miter;stroke-width:1.122319;"/>
   </g>
   <g id="patch_14">
    <path clip-path="url(#p64f2b54968)" d="M 142.545307 63.4 
L 154.890814 63.4 
L 154.890814 36.638095 
L 142.545307 36.638095 
z
" style="fill:none;stroke:#1f77b4;stroke-linejoin:miter;stroke-width:1.122319;"/>
   </g>
   <g id="patch_15">
    <path clip-path="url(#p64f2b54968)" d="M 154.890814 63.4 
L 167.236321 63.4 
L 167.236321 31.285714 
L 154.890814 31.285714 
z
" style="fill:none;stroke:#1f77b4;stroke-linejoin:miter;stroke-width:1.122319;"/>
   </g>
   <g id="patch_16">
    <path clip-path="url(#p64f2b54968)" d="M 167.236321 63.4 
L 179.581829 63.4 
L 179.581829 41.990476 
L 167.236321 41.990476 
z
" style="fill:none;stroke:#1f77b4;stroke-linejoin:miter;stroke-width:1.122319;"/>
   </g>
   <g id="patch_17">
    <path clip-path="url(#p64f2b54968)" d="M 179.581829 63.4 
L 191.927336 63.4 
L 191.927336 31.285714 
L 179.581829 31.285714 
z
" style="fill:none;stroke:#1f77b4;stroke-linejoin:miter;stroke-width:1.122319;"/>
   </g>
   <g id="patch_18">
    <path clip-path="url(#p64f2b54968)" d="M 191.927336 63.4 
L 204.272843 63.4 
L 204.272843 63.4 
L 191.927336 63.4 
z
" style="fill:none;stroke:#1f77b4;stroke-linejoin:miter;stroke-width:1.122319;"/>
   </g>
   <g id="patch_19">
    <path clip-path="url(#p64f2b54968)" d="M 204.272843 63.4 
L 216.61835 63.4 
L 216.61835 36.638095 
L 204.272843 36.638095 
z
" style="fill:none;stroke:#1f77b4;stroke-linejoin:miter;stroke-width:1.122319;"/>
   </g>
   <g id="patch_20">
    <path clip-path="url(#p64f2b54968)" d="M 216.61835 63.4 
L 228.963857 63.4 
L 228.963857 25.933333 
L 216.61835 25.933333 
z
" style="fill:none;stroke:#1f77b4;stroke-linejoin:miter;stroke-width:1.122319;"/>
   </g>
   <g id="patch_21">
    <path clip-path="url(#p64f2b54968)" d="M 228.963857 63.4 
L 241.309364 63.4 
L 241.309364 47.342857 
L 228.963857 47.342857 
z
" style="fill:none;stroke:#1f77b4;stroke-linejoin:miter;stroke-width:1.122319;"/>
   </g>
   <g id="patch_22">
    <path clip-path="url(#p64f2b54968)" d="M 241.309364 63.4 
L 253.654871 63.4 
L 253.654871 47.342857 
L 241.309364 47.342857 
z
" style="fill:none;stroke:#1f77b4;stroke-linejoin:miter;stroke-width:1.122319;"/>
   </g>
   <g id="patch_23">
    <path clip-path="url(#p64f2b54968)" d="M 253.654871 63.4 
L 266.000379 63.4 
L 266.000379 52.695238 
L 253.654871 52.695238 
z
" style="fill:none;stroke:#1f77b4;stroke-linejoin:miter;stroke-width:1.122319;"/>
   </g>
   <g id="patch_24">
    <path clip-path="url(#p64f2b54968)" d="M 266.000379 63.4 
L 278.345886 63.4 
L 278.345886 47.342857 
L 266.000379 47.342857 
z
" style="fill:none;stroke:#1f77b4;stroke-linejoin:miter;stroke-width:1.122319;"/>
   </g>
   <g id="patch_25">
    <path clip-path="url(#p64f2b54968)" d="M 278.345886 63.4 
L 290.691393 63.4 
L 290.691393 63.4 
L 278.345886 63.4 
z
" style="fill:none;stroke:#1f77b4;stroke-linejoin:miter;stroke-width:1.122319;"/>
   </g>
   <g id="patch_26">
    <path clip-path="url(#p64f2b54968)" d="M 290.691393 63.4 
L 303.0369 63.4 
L 303.0369 63.4 
L 290.691393 63.4 
z
" style="fill:none;stroke:#1f77b4;stroke-linejoin:miter;stroke-width:1.122319;"/>
   </g>
   <g id="patch_27">
    <path clip-path="url(#p64f2b54968)" d="M 303.0369 63.4 
L 315.382407 63.4 
L 315.382407 63.4 
L 303.0369 63.4 
z
" style="fill:none;stroke:#1f77b4;stroke-linejoin:miter;stroke-width:1.122319;"/>
   </g>
   <g id="patch_28">
    <path clip-path="url(#p64f2b54968)" d="M 315.382407 63.4 
L 327.727914 63.4 
L 327.727914 58.047619 
L 315.382407 58.047619 
z
" style="fill:none;stroke:#1f77b4;stroke-linejoin:miter;stroke-width:1.122319;"/>
   </g>
   <g id="patch_29">
    <path clip-path="url(#p64f2b54968)" d="M 327.727914 63.4 
L 340.073421 63.4 
L 340.073421 58.047619 
L 327.727914 58.047619 
z
" style="fill:none;stroke:#1f77b4;stroke-linejoin:miter;stroke-width:1.122319;"/>
   </g>
   <g id="patch_30">
    <path clip-path="url(#p64f2b54968)" d="M 340.073421 63.4 
L 352.418929 63.4 
L 352.418929 58.047619 
L 340.073421 58.047619 
z
" style="fill:none;stroke:#1f77b4;stroke-linejoin:miter;stroke-width:1.122319;"/>
   </g>
   <g id="matplotlib.axis_3">
    <g id="xtick_6">
     <g id="line2d_13">
      <g>
       <use style="stroke:#000000;stroke-width:0.8;" x="65.788458" xlink:href="#me0998d9283" y="63.4"/>
      </g>
     </g>
    </g>
    <g id="xtick_7">
     <g id="line2d_14">
      <g>
       <use style="stroke:#000000;stroke-width:0.8;" x="124.714542" xlink:href="#me0998d9283" y="63.4"/>
      </g>
     </g>
    </g>
    <g id="xtick_8">
     <g id="line2d_15">
      <g>
       <use style="stroke:#000000;stroke-width:0.8;" x="183.640627" xlink:href="#me0998d9283" y="63.4"/>
      </g>
     </g>
    </g>
    <g id="xtick_9">
     <g id="line2d_16">
      <g>
       <use style="stroke:#000000;stroke-width:0.8;" x="242.566712" xlink:href="#me0998d9283" y="63.4"/>
      </g>
     </g>
    </g>
    <g id="xtick_10">
     <g id="line2d_17">
      <g>
       <use style="stroke:#000000;stroke-width:0.8;" x="301.492797" xlink:href="#me0998d9283" y="63.4"/>
      </g>
     </g>
    </g>
   </g>
   <g id="matplotlib.axis_4">
    <g id="ytick_7"/>
    <g id="ytick_8"/>
   </g>
   <g id="line2d_18">
    <path clip-path="url(#p64f2b54968)" d="M 43.78125 57.189301 
L 49.985022 55.609158 
L 56.188795 53.834726 
L 63.94351 51.3641 
L 71.698226 48.647255 
L 81.003885 45.145495 
L 96.513316 39.234441 
L 102.717088 37.107113 
L 107.369917 35.700855 
L 112.022747 34.503827 
L 116.675576 33.549215 
L 121.328405 32.858011 
L 125.981235 32.437028 
L 130.634064 32.278787 
L 135.286893 32.363203 
L 139.939723 32.660668 
L 146.143495 33.32718 
L 152.347268 34.22088 
L 161.652926 35.805145 
L 178.7133 38.759595 
L 186.468016 39.873556 
L 194.222732 40.759824 
L 203.52839 41.554156 
L 222.139707 43.021977 
L 228.34348 43.750926 
L 234.547252 44.685925 
L 240.751025 45.83325 
L 248.50574 47.526978 
L 257.811399 49.81289 
L 276.422716 54.442444 
L 284.177432 56.114217 
L 290.381204 57.25907 
L 296.584977 58.207044 
L 302.788749 58.952283 
L 310.543465 59.619572 
L 318.29818 60.051382 
L 330.705725 60.468077 
L 350.867985 61.131661 
L 352.418929 61.197645 
L 352.418929 61.197645 
" style="fill:none;stroke:#1f77b4;stroke-linecap:square;stroke-width:1.5;"/>
   </g>
   <g id="patch_31">
    <path d="M 43.78125 63.4 
L 352.418929 63.4 
" style="fill:none;stroke:#000000;stroke-linecap:square;stroke-linejoin:miter;stroke-width:0.8;"/>
   </g>
  </g>
  <g id="axes_3">
   <g id="patch_32">
    <path d="M 363.061607 400.6 
L 416.275 400.6 
L 416.275 74.64 
L 363.061607 74.64 
z
" style="fill:#ffffff;"/>
   </g>
   <g id="patch_33">
    <path clip-path="url(#pf23cc3f2a6)" d="M 363.061607 383.889546 
L 370.301525 383.889546 
L 370.301525 373.301538 
L 363.061607 373.301538 
z
" style="fill:none;stroke:#1f77b4;stroke-linejoin:miter;stroke-width:1.185309;"/>
   </g>
   <g id="patch_34">
    <path clip-path="url(#pf23cc3f2a6)" d="M 363.061607 373.301538 
L 384.781359 373.301538 
L 384.781359 362.713529 
L 363.061607 362.713529 
z
" style="fill:none;stroke:#1f77b4;stroke-linejoin:miter;stroke-width:1.185309;"/>
   </g>
   <g id="patch_35">
    <path clip-path="url(#pf23cc3f2a6)" d="M 363.061607 362.713529 
L 399.261194 362.713529 
L 399.261194 352.125521 
L 363.061607 352.125521 
z
" style="fill:none;stroke:#1f77b4;stroke-linejoin:miter;stroke-width:1.185309;"/>
   </g>
   <g id="patch_36">
    <path clip-path="url(#pf23cc3f2a6)" d="M 363.061607 352.125521 
L 377.541442 352.125521 
L 377.541442 341.537513 
L 363.061607 341.537513 
z
" style="fill:none;stroke:#1f77b4;stroke-linejoin:miter;stroke-width:1.185309;"/>
   </g>
   <g id="patch_37">
    <path clip-path="url(#pf23cc3f2a6)" d="M 363.061607 341.537513 
L 399.261194 341.537513 
L 399.261194 330.949504 
L 363.061607 330.949504 
z
" style="fill:none;stroke:#1f77b4;stroke-linejoin:miter;stroke-width:1.185309;"/>
   </g>
   <g id="patch_38">
    <path clip-path="url(#pf23cc3f2a6)" d="M 363.061607 330.949504 
L 377.541442 330.949504 
L 377.541442 320.361496 
L 363.061607 320.361496 
z
" style="fill:none;stroke:#1f77b4;stroke-linejoin:miter;stroke-width:1.185309;"/>
   </g>
   <g id="patch_39">
    <path clip-path="url(#pf23cc3f2a6)" d="M 363.061607 320.361496 
L 413.741029 320.361496 
L 413.741029 309.773488 
L 363.061607 309.773488 
z
" style="fill:none;stroke:#1f77b4;stroke-linejoin:miter;stroke-width:1.185309;"/>
   </g>
   <g id="patch_40">
    <path clip-path="url(#pf23cc3f2a6)" d="M 363.061607 309.773488 
L 399.261194 309.773488 
L 399.261194 299.185479 
L 363.061607 299.185479 
z
" style="fill:none;stroke:#1f77b4;stroke-linejoin:miter;stroke-width:1.185309;"/>
   </g>
   <g id="patch_41">
    <path clip-path="url(#pf23cc3f2a6)" d="M 363.061607 299.185479 
L 392.021277 299.185479 
L 392.021277 288.597471 
L 363.061607 288.597471 
z
" style="fill:none;stroke:#1f77b4;stroke-linejoin:miter;stroke-width:1.185309;"/>
   </g>
   <g id="patch_42">
    <path clip-path="url(#pf23cc3f2a6)" d="M 363.061607 288.597471 
L 399.261194 288.597471 
L 399.261194 278.009463 
L 363.061607 278.009463 
z
" style="fill:none;stroke:#1f77b4;stroke-linejoin:miter;stroke-width:1.185309;"/>
   </g>
   <g id="patch_43">
    <path clip-path="url(#pf23cc3f2a6)" d="M 363.061607 278.009463 
L 399.261194 278.009463 
L 399.261194 267.421454 
L 363.061607 267.421454 
z
" style="fill:none;stroke:#1f77b4;stroke-linejoin:miter;stroke-width:1.185309;"/>
   </g>
   <g id="patch_44">
    <path clip-path="url(#pf23cc3f2a6)" d="M 363.061607 267.421454 
L 399.261194 267.421454 
L 399.261194 256.833446 
L 363.061607 256.833446 
z
" style="fill:none;stroke:#1f77b4;stroke-linejoin:miter;stroke-width:1.185309;"/>
   </g>
   <g id="patch_45">
    <path clip-path="url(#pf23cc3f2a6)" d="M 363.061607 256.833446 
L 370.301525 256.833446 
L 370.301525 246.245438 
L 363.061607 246.245438 
z
" style="fill:none;stroke:#1f77b4;stroke-linejoin:miter;stroke-width:1.185309;"/>
   </g>
   <g id="patch_46">
    <path clip-path="url(#pf23cc3f2a6)" d="M 363.061607 246.245438 
L 406.501112 246.245438 
L 406.501112 235.657429 
L 363.061607 235.657429 
z
" style="fill:none;stroke:#1f77b4;stroke-linejoin:miter;stroke-width:1.185309;"/>
   </g>
   <g id="patch_47">
    <path clip-path="url(#pf23cc3f2a6)" d="M 363.061607 235.657429 
L 413.741029 235.657429 
L 413.741029 225.069421 
L 363.061607 225.069421 
z
" style="fill:none;stroke:#1f77b4;stroke-linejoin:miter;stroke-width:1.185309;"/>
   </g>
   <g id="patch_48">
    <path clip-path="url(#pf23cc3f2a6)" d="M 363.061607 225.069421 
L 377.541442 225.069421 
L 377.541442 214.481413 
L 363.061607 214.481413 
z
" style="fill:none;stroke:#1f77b4;stroke-linejoin:miter;stroke-width:1.185309;"/>
   </g>
   <g id="patch_49">
    <path clip-path="url(#pf23cc3f2a6)" d="M 363.061607 214.481413 
L 392.021277 214.481413 
L 392.021277 203.893404 
L 363.061607 203.893404 
z
" style="fill:none;stroke:#1f77b4;stroke-linejoin:miter;stroke-width:1.185309;"/>
   </g>
   <g id="patch_50">
    <path clip-path="url(#pf23cc3f2a6)" d="M 363.061607 203.893404 
L 370.301525 203.893404 
L 370.301525 193.305396 
L 363.061607 193.305396 
z
" style="fill:none;stroke:#1f77b4;stroke-linejoin:miter;stroke-width:1.185309;"/>
   </g>
   <g id="patch_51">
    <path clip-path="url(#pf23cc3f2a6)" d="M 363.061607 193.305396 
L 392.021277 193.305396 
L 392.021277 182.717388 
L 363.061607 182.717388 
z
" style="fill:none;stroke:#1f77b4;stroke-linejoin:miter;stroke-width:1.185309;"/>
   </g>
   <g id="patch_52">
    <path clip-path="url(#pf23cc3f2a6)" d="M 363.061607 182.717388 
L 377.541442 182.717388 
L 377.541442 172.12938 
L 363.061607 172.12938 
z
" style="fill:none;stroke:#1f77b4;stroke-linejoin:miter;stroke-width:1.185309;"/>
   </g>
   <g id="patch_53">
    <path clip-path="url(#pf23cc3f2a6)" d="M 363.061607 172.12938 
L 370.301525 172.12938 
L 370.301525 161.541371 
L 363.061607 161.541371 
z
" style="fill:none;stroke:#1f77b4;stroke-linejoin:miter;stroke-width:1.185309;"/>
   </g>
   <g id="patch_54">
    <path clip-path="url(#pf23cc3f2a6)" d="M 363.061607 161.541371 
L 370.301525 161.541371 
L 370.301525 150.953363 
L 363.061607 150.953363 
z
" style="fill:none;stroke:#1f77b4;stroke-linejoin:miter;stroke-width:1.185309;"/>
   </g>
   <g id="patch_55">
    <path clip-path="url(#pf23cc3f2a6)" d="M 363.061607 150.953363 
L 363.061607 150.953363 
L 363.061607 140.365355 
L 363.061607 140.365355 
z
" style="fill:none;stroke:#1f77b4;stroke-linejoin:miter;stroke-width:1.185309;"/>
   </g>
   <g id="patch_56">
    <path clip-path="url(#pf23cc3f2a6)" d="M 363.061607 140.365355 
L 363.061607 140.365355 
L 363.061607 129.777346 
L 363.061607 129.777346 
z
" style="fill:none;stroke:#1f77b4;stroke-linejoin:miter;stroke-width:1.185309;"/>
   </g>
   <g id="patch_57">
    <path clip-path="url(#pf23cc3f2a6)" d="M 363.061607 129.777346 
L 392.021277 129.777346 
L 392.021277 119.189338 
L 363.061607 119.189338 
z
" style="fill:none;stroke:#1f77b4;stroke-linejoin:miter;stroke-width:1.185309;"/>
   </g>
   <g id="matplotlib.axis_5">
    <g id="xtick_11"/>
    <g id="xtick_12"/>
   </g>
   <g id="matplotlib.axis_6">
    <g id="ytick_9">
     <g id="line2d_19">
      <g>
       <use style="stroke:#000000;stroke-width:0.8;" x="363.061607" xlink:href="#md2042eda2d" y="352.948831"/>
      </g>
     </g>
    </g>
    <g id="ytick_10">
     <g id="line2d_20">
      <g>
       <use style="stroke:#000000;stroke-width:0.8;" x="363.061607" xlink:href="#md2042eda2d" y="301.853676"/>
      </g>
     </g>
    </g>
    <g id="ytick_11">
     <g id="line2d_21">
      <g>
       <use style="stroke:#000000;stroke-width:0.8;" x="363.061607" xlink:href="#md2042eda2d" y="250.75852"/>
      </g>
     </g>
    </g>
    <g id="ytick_12">
     <g id="line2d_22">
      <g>
       <use style="stroke:#000000;stroke-width:0.8;" x="363.061607" xlink:href="#md2042eda2d" y="199.663364"/>
      </g>
     </g>
    </g>
    <g id="ytick_13">
     <g id="line2d_23">
      <g>
       <use style="stroke:#000000;stroke-width:0.8;" x="363.061607" xlink:href="#md2042eda2d" y="148.568209"/>
      </g>
     </g>
    </g>
    <g id="ytick_14">
     <g id="line2d_24">
      <g>
       <use style="stroke:#000000;stroke-width:0.8;" x="363.061607" xlink:href="#md2042eda2d" y="97.473053"/>
      </g>
     </g>
    </g>
   </g>
   <g id="line2d_25">
    <path clip-path="url(#pf23cc3f2a6)" d="M 372.463713 383.889546 
L 374.935646 377.238787 
L 379.191529 366.597573 
L 384.493583 353.296055 
L 387.403956 345.315144 
L 389.572902 338.664385 
L 391.103883 333.343778 
L 392.431996 328.02317 
L 393.545046 322.702563 
L 394.440586 317.381956 
L 395.127992 312.061349 
L 395.72842 305.41059 
L 396.101049 298.759831 
L 396.376634 289.448768 
L 396.527074 276.14725 
L 396.462294 265.506036 
L 396.193171 257.525125 
L 395.737528 250.874366 
L 395.18119 245.553759 
L 394.43404 240.233152 
L 393.490277 234.912544 
L 392.04738 228.261785 
L 390.353676 221.611026 
L 388.081874 213.630116 
L 383.612705 198.998446 
L 378.797391 183.036624 
L 376.198042 173.725562 
L 374.209315 165.744651 
L 372.792204 159.093892 
L 371.634848 152.443133 
L 370.740628 145.792374 
L 370.069156 139.141615 
L 369.254886 128.500401 
L 368.545926 119.189338 
L 368.545926 119.189338 
" style="fill:none;stroke:#1f77b4;stroke-linecap:square;stroke-width:1.5;"/>
   </g>
   <g id="patch_58">
    <path d="M 363.061607 400.6 
L 363.061607 74.64 
" style="fill:none;stroke:#000000;stroke-linecap:square;stroke-linejoin:miter;stroke-width:0.8;"/>
   </g>
  </g>
 </g>
 <defs>
  <clipPath id="pf92d774008">
   <rect height="325.96" width="308.637679" x="43.78125" y="74.64"/>
  </clipPath>
  <clipPath id="p64f2b54968">
   <rect height="56.2" width="308.637679" x="43.78125" y="7.2"/>
  </clipPath>
  <clipPath id="pf23cc3f2a6">
   <rect height="325.96" width="53.213393" x="363.061607" y="74.64"/>
  </clipPath>
 </defs>
</svg>
