<?xml version="1.0" encoding="utf-8" standalone="no"?>
<!DOCTYPE svg PUBLIC "-//W3C//DTD SVG 1.1//EN"
  "http://www.w3.org/Graphics/SVG/1.1/DTD/svg11.dtd">
<!-- Created with matplotlib (https://matplotlib.org/) -->
<svg height="438.15625pt" version="1.1" viewBox="0 0 423.475 438.15625" width="423.475pt" xmlns="http://www.w3.org/2000/svg" xmlns:xlink="http://www.w3.org/1999/xlink">
 <metadata>
  <rdf:RDF xmlns:cc="http://creativecommons.org/ns#" xmlns:dc="http://purl.org/dc/elements/1.1/" xmlns:rdf="http://www.w3.org/1999/02/22-rdf-syntax-ns#">
   <cc:Work>
    <dc:type rdf:resource="http://purl.org/dc/dcmitype/StillImage"/>
    <dc:date>2021-01-09T15:40:07.683921</dc:date>
    <dc:format>image/svg+xml</dc:format>
    <dc:creator>
     <cc:Agent>
      <dc:title>Matplotlib v3.3.2, https://matplotlib.org/</dc:title>
     </cc:Agent>
    </dc:creator>
   </cc:Work>
  </rdf:RDF>
 </metadata>
 <defs>
  <style type="text/css">*{stroke-linecap:butt;stroke-linejoin:round;}</style>
 </defs>
 <g id="figure_1">
  <g id="patch_1">
   <path d="M 0 438.15625 
L 423.475 438.15625 
L 423.475 0 
L 0 0 
z
" style="fill:none;"/>
  </g>
  <g id="axes_1">
   <g id="patch_2">
    <path d="M 43.78125 400.6 
L 352.418929 400.6 
L 352.418929 74.64 
L 43.78125 74.64 
z
" style="fill:#ffffff;"/>
   </g>
   <g id="PathCollection_1">
    <defs>
     <path d="M 0 3 
C 0.795609 3 1.55874 2.683901 2.12132 2.12132 
C 2.683901 1.55874 3 0.795609 3 0 
C 3 -0.795609 2.683901 -1.55874 2.12132 -2.12132 
C 1.55874 -2.683901 0.795609 -3 0 -3 
C -0.795609 -3 -1.55874 -2.683901 -2.12132 -2.12132 
C -2.683901 -1.55874 -3 -0.795609 -3 0 
C -3 0.795609 -2.683901 1.55874 -2.12132 2.12132 
C -1.55874 2.683901 -0.795609 3 0 3 
z
" id="mc8a403a98d" style="stroke:#800080;stroke-opacity:0.8;"/>
    </defs>
    <g clip-path="url(#p9f7f24b3f5)">
     <use style="fill:#800080;fill-opacity:0.8;stroke:#800080;stroke-opacity:0.8;" x="145.201184" xlink:href="#mc8a403a98d" y="285.748303"/>
     <use style="fill:#800080;fill-opacity:0.8;stroke:#800080;stroke-opacity:0.8;" x="199.692174" xlink:href="#mc8a403a98d" y="236.345196"/>
     <use style="fill:#800080;fill-opacity:0.8;stroke:#800080;stroke-opacity:0.8;" x="140.803593" xlink:href="#mc8a403a98d" y="307.100092"/>
     <use style="fill:#800080;fill-opacity:0.8;stroke:#800080;stroke-opacity:0.8;" x="218.024078" xlink:href="#mc8a403a98d" y="326.499494"/>
     <use style="fill:#800080;fill-opacity:0.8;stroke:#800080;stroke-opacity:0.8;" x="102.55931" xlink:href="#mc8a403a98d" y="326.499494"/>
     <use style="fill:#800080;fill-opacity:0.8;stroke:#800080;stroke-opacity:0.8;" x="160.312694" xlink:href="#mc8a403a98d" y="222.137171"/>
     <use style="fill:#800080;fill-opacity:0.8;stroke:#800080;stroke-opacity:0.8;" x="118.741144" xlink:href="#mc8a403a98d" y="313.181869"/>
     <use style="fill:#800080;fill-opacity:0.8;stroke:#800080;stroke-opacity:0.8;" x="185.491668" xlink:href="#mc8a403a98d" y="260.088146"/>
     <use style="fill:#800080;fill-opacity:0.8;stroke:#800080;stroke-opacity:0.8;" x="136.153511" xlink:href="#mc8a403a98d" y="341.725729"/>
     <use style="fill:#800080;fill-opacity:0.8;stroke:#800080;stroke-opacity:0.8;" x="289.029551" xlink:href="#mc8a403a98d" y="188.253016"/>
     <use style="fill:#800080;fill-opacity:0.8;stroke:#800080;stroke-opacity:0.8;" x="142.724297" xlink:href="#mc8a403a98d" y="285.748303"/>
     <use style="fill:#800080;fill-opacity:0.8;stroke:#800080;stroke-opacity:0.8;" x="249.305992" xlink:href="#mc8a403a98d" y="162.592859"/>
     <use style="fill:#800080;fill-opacity:0.8;stroke:#800080;stroke-opacity:0.8;" x="157.141627" xlink:href="#mc8a403a98d" y="319.632458"/>
     <use style="fill:#800080;fill-opacity:0.8;stroke:#800080;stroke-opacity:0.8;" x="224.758227" xlink:href="#mc8a403a98d" y="236.345196"/>
     <use style="fill:#800080;fill-opacity:0.8;stroke:#800080;stroke-opacity:0.8;" x="230.674183" xlink:href="#mc8a403a98d" y="178.99482"/>
     <use style="fill:#800080;fill-opacity:0.8;stroke:#800080;stroke-opacity:0.8;" x="82.905765" xlink:href="#mc8a403a98d" y="350.242444"/>
     <use style="fill:#800080;fill-opacity:0.8;stroke:#800080;stroke-opacity:0.8;" x="97.695969" xlink:href="#mc8a403a98d" y="350.242444"/>
     <use style="fill:#800080;fill-opacity:0.8;stroke:#800080;stroke-opacity:0.8;" x="227.329697" xlink:href="#mc8a403a98d" y="222.137171"/>
     <use style="fill:#800080;fill-opacity:0.8;stroke:#800080;stroke-opacity:0.8;" x="119.467158" xlink:href="#mc8a403a98d" y="301.347225"/>
     <use style="fill:#800080;fill-opacity:0.8;stroke:#800080;stroke-opacity:0.8;" x="156.27942" xlink:href="#mc8a403a98d" y="252.747157"/>
     <use style="fill:#800080;fill-opacity:0.8;stroke:#800080;stroke-opacity:0.8;" x="231.060064" xlink:href="#mc8a403a98d" y="209.604805"/>
     <use style="fill:#800080;fill-opacity:0.8;stroke:#800080;stroke-opacity:0.8;" x="217.52548" xlink:href="#mc8a403a98d" y="227.594887"/>
     <use style="fill:#800080;fill-opacity:0.8;stroke:#800080;stroke-opacity:0.8;" x="107.279355" xlink:href="#mc8a403a98d" y="359.50064"/>
     <use style="fill:#800080;fill-opacity:0.8;stroke:#800080;stroke-opacity:0.8;" x="267.418454" xlink:href="#mc8a403a98d" y="178.99482"/>
     <use style="fill:#800080;fill-opacity:0.8;stroke:#800080;stroke-opacity:0.8;" x="119.144317" xlink:href="#mc8a403a98d" y="369.641846"/>
     <use style="fill:#800080;fill-opacity:0.8;stroke:#800080;stroke-opacity:0.8;" x="201.997362" xlink:href="#mc8a403a98d" y="252.747157"/>
     <use style="fill:#800080;fill-opacity:0.8;stroke:#800080;stroke-opacity:0.8;" x="146.479324" xlink:href="#mc8a403a98d" y="313.181869"/>
     <use style="fill:#800080;fill-opacity:0.8;stroke:#800080;stroke-opacity:0.8;" x="102.765883" xlink:href="#mc8a403a98d" y="350.242444"/>
     <use style="fill:#800080;fill-opacity:0.8;stroke:#800080;stroke-opacity:0.8;" x="267.753286" xlink:href="#mc8a403a98d" y="105.242482"/>
     <use style="fill:#800080;fill-opacity:0.8;stroke:#800080;stroke-opacity:0.8;" x="57.85747" xlink:href="#mc8a403a98d" y="227.594887"/>
     <use style="fill:#800080;fill-opacity:0.8;stroke:#800080;stroke-opacity:0.8;" x="43.78125" xlink:href="#mc8a403a98d" y="380.85243"/>
     <use style="fill:#800080;fill-opacity:0.8;stroke:#800080;stroke-opacity:0.8;" x="238.044128" xlink:href="#mc8a403a98d" y="198.394222"/>
     <use style="fill:#800080;fill-opacity:0.8;stroke:#800080;stroke-opacity:0.8;" x="148.135371" xlink:href="#mc8a403a98d" y="260.088146"/>
     <use style="fill:#800080;fill-opacity:0.8;stroke:#800080;stroke-opacity:0.8;" x="71.854652" xlink:href="#mc8a403a98d" y="326.499494"/>
     <use style="fill:#800080;fill-opacity:0.8;stroke:#800080;stroke-opacity:0.8;" x="131.291737" xlink:href="#mc8a403a98d" y="319.632458"/>
     <use style="fill:#800080;fill-opacity:0.8;stroke:#800080;stroke-opacity:0.8;" x="187.145875" xlink:href="#mc8a403a98d" y="252.747157"/>
     <use style="fill:#800080;fill-opacity:0.8;stroke:#800080;stroke-opacity:0.8;" x="113.309875" xlink:href="#mc8a403a98d" y="295.889509"/>
     <use style="fill:#800080;fill-opacity:0.8;stroke:#800080;stroke-opacity:0.8;" x="129.82952" xlink:href="#mc8a403a98d" y="307.100092"/>
     <use style="fill:#800080;fill-opacity:0.8;stroke:#800080;stroke-opacity:0.8;" x="88.518887" xlink:href="#mc8a403a98d" y="341.725729"/>
     <use style="fill:#800080;fill-opacity:0.8;stroke:#800080;stroke-opacity:0.8;" x="109.035444" xlink:href="#mc8a403a98d" y="281.01854"/>
     <use style="fill:#800080;fill-opacity:0.8;stroke:#800080;stroke-opacity:0.8;" x="174.692136" xlink:href="#mc8a403a98d" y="260.088146"/>
     <use style="fill:#800080;fill-opacity:0.8;stroke:#800080;stroke-opacity:0.8;" x="122.481557" xlink:href="#mc8a403a98d" y="295.889509"/>
     <use style="fill:#800080;fill-opacity:0.8;stroke:#800080;stroke-opacity:0.8;" x="218.205584" xlink:href="#mc8a403a98d" y="209.604805"/>
     <use style="fill:#800080;fill-opacity:0.8;stroke:#800080;stroke-opacity:0.8;" x="83.737586" xlink:href="#mc8a403a98d" y="350.242444"/>
     <use style="fill:#800080;fill-opacity:0.8;stroke:#800080;stroke-opacity:0.8;" x="139.224351" xlink:href="#mc8a403a98d" y="285.748303"/>
     <use style="fill:#800080;fill-opacity:0.8;stroke:#800080;stroke-opacity:0.8;" x="134.871726" xlink:href="#mc8a403a98d" y="326.499494"/>
     <use style="fill:#800080;fill-opacity:0.8;stroke:#800080;stroke-opacity:0.8;" x="184.684838" xlink:href="#mc8a403a98d" y="236.345196"/>
     <use style="fill:#800080;fill-opacity:0.8;stroke:#800080;stroke-opacity:0.8;" x="283.708738" xlink:href="#mc8a403a98d" y="148.384834"/>
     <use style="fill:#800080;fill-opacity:0.8;stroke:#800080;stroke-opacity:0.8;" x="181.998406" xlink:href="#mc8a403a98d" y="222.137171"/>
     <use style="fill:#800080;fill-opacity:0.8;stroke:#800080;stroke-opacity:0.8;" x="61.414322" xlink:href="#mc8a403a98d" y="350.242444"/>
     <use style="fill:#800080;fill-opacity:0.8;stroke:#800080;stroke-opacity:0.8;" x="228.65471" xlink:href="#mc8a403a98d" y="198.394222"/>
     <use style="fill:#800080;fill-opacity:0.8;stroke:#800080;stroke-opacity:0.8;" x="123.279139" xlink:href="#mc8a403a98d" y="272.146559"/>
     <use style="fill:#800080;fill-opacity:0.8;stroke:#800080;stroke-opacity:0.8;" x="138.330602" xlink:href="#mc8a403a98d" y="245.880121"/>
     <use style="fill:#800080;fill-opacity:0.8;stroke:#800080;stroke-opacity:0.8;" x="77.033965" xlink:href="#mc8a403a98d" y="364.450469"/>
     <use style="fill:#800080;fill-opacity:0.8;stroke:#800080;stroke-opacity:0.8;" x="117.74059" xlink:href="#mc8a403a98d" y="307.100092"/>
     <use style="fill:#800080;fill-opacity:0.8;stroke:#800080;stroke-opacity:0.8;" x="352.418929" xlink:href="#mc8a403a98d" y="105.242482"/>
     <use style="fill:#800080;fill-opacity:0.8;stroke:#800080;stroke-opacity:0.8;" x="158.998381" xlink:href="#mc8a403a98d" y="272.146559"/>
     <use style="fill:#800080;fill-opacity:0.8;stroke:#800080;stroke-opacity:0.8;" x="123.873251" xlink:href="#mc8a403a98d" y="307.100092"/>
     <use style="fill:#800080;fill-opacity:0.8;stroke:#800080;stroke-opacity:0.8;" x="209.645626" xlink:href="#mc8a403a98d" y="222.137171"/>
     <use style="fill:#800080;fill-opacity:0.8;stroke:#800080;stroke-opacity:0.8;" x="145.066885" xlink:href="#mc8a403a98d" y="272.146559"/>
     <use style="fill:#800080;fill-opacity:0.8;stroke:#800080;stroke-opacity:0.8;" x="286.678143" xlink:href="#mc8a403a98d" y="178.99482"/>
     <use style="fill:#800080;fill-opacity:0.8;stroke:#800080;stroke-opacity:0.8;" x="211.606484" xlink:href="#mc8a403a98d" y="222.137171"/>
     <use style="fill:#800080;fill-opacity:0.8;stroke:#800080;stroke-opacity:0.8;" x="145.240153" xlink:href="#mc8a403a98d" y="295.889509"/>
     <use style="fill:#800080;fill-opacity:0.8;stroke:#800080;stroke-opacity:0.8;" x="106.755431" xlink:href="#mc8a403a98d" y="260.088146"/>
     <use style="fill:#800080;fill-opacity:0.8;stroke:#800080;stroke-opacity:0.8;" x="331.12905" xlink:href="#mc8a403a98d" y="114.500678"/>
     <use style="fill:#800080;fill-opacity:0.8;stroke:#800080;stroke-opacity:0.8;" x="283.763759" xlink:href="#mc8a403a98d" y="222.137171"/>
     <use style="fill:#800080;fill-opacity:0.8;stroke:#800080;stroke-opacity:0.8;" x="140.466158" xlink:href="#mc8a403a98d" y="285.748303"/>
     <use style="fill:#800080;fill-opacity:0.8;stroke:#800080;stroke-opacity:0.8;" x="255.656964" xlink:href="#mc8a403a98d" y="178.99482"/>
     <use style="fill:#800080;fill-opacity:0.8;stroke:#800080;stroke-opacity:0.8;" x="259.8704" xlink:href="#mc8a403a98d" y="202.737769"/>
     <use style="fill:#800080;fill-opacity:0.8;stroke:#800080;stroke-opacity:0.8;" x="296.082367" xlink:href="#mc8a403a98d" y="159.595418"/>
     <use style="fill:#800080;fill-opacity:0.8;stroke:#800080;stroke-opacity:0.8;" x="324.798301" xlink:href="#mc8a403a98d" y="105.242482"/>
     <use style="fill:#800080;fill-opacity:0.8;stroke:#800080;stroke-opacity:0.8;" x="194.536779" xlink:href="#mc8a403a98d" y="236.345196"/>
     <use style="fill:#800080;fill-opacity:0.8;stroke:#800080;stroke-opacity:0.8;" x="188.11171" xlink:href="#mc8a403a98d" y="260.088146"/>
     <use style="fill:#800080;fill-opacity:0.8;stroke:#800080;stroke-opacity:0.8;" x="122.641492" xlink:href="#mc8a403a98d" y="313.181869"/>
     <use style="fill:#800080;fill-opacity:0.8;stroke:#800080;stroke-opacity:0.8;" x="191.778911" xlink:href="#mc8a403a98d" y="252.747157"/>
     <use style="fill:#800080;fill-opacity:0.8;stroke:#800080;stroke-opacity:0.8;" x="254.569395" xlink:href="#mc8a403a98d" y="222.137171"/>
     <use style="fill:#800080;fill-opacity:0.8;stroke:#800080;stroke-opacity:0.8;" x="267.052369" xlink:href="#mc8a403a98d" y="162.592859"/>
     <use style="fill:#800080;fill-opacity:0.8;stroke:#800080;stroke-opacity:0.8;" x="162.016204" xlink:href="#mc8a403a98d" y="198.394222"/>
     <use style="fill:#800080;fill-opacity:0.8;stroke:#800080;stroke-opacity:0.8;" x="132.165271" xlink:href="#mc8a403a98d" y="295.889509"/>
     <use style="fill:#800080;fill-opacity:0.8;stroke:#800080;stroke-opacity:0.8;" x="188.408691" xlink:href="#mc8a403a98d" y="252.747157"/>
     <use style="fill:#800080;fill-opacity:0.8;stroke:#800080;stroke-opacity:0.8;" x="114.464094" xlink:href="#mc8a403a98d" y="326.499494"/>
     <use style="fill:#800080;fill-opacity:0.8;stroke:#800080;stroke-opacity:0.8;" x="144.251144" xlink:href="#mc8a403a98d" y="272.146559"/>
    </g>
   </g>
   <g id="PolyCollection_1">
    <path clip-path="url(#p9f7f24b3f5)" d="M 43.78125 349.695166 
L 43.78125 385.783636 
L 46.898802 382.793674 
L 50.016355 379.824819 
L 53.133907 376.86413 
L 56.251459 373.891777 
L 59.369012 370.917713 
L 62.486564 367.943649 
L 65.604116 365.051235 
L 68.721668 362.197306 
L 71.839221 359.204385 
L 74.956773 356.210022 
L 78.074325 353.215658 
L 81.191878 350.306334 
L 84.30943 347.3725 
L 87.426982 344.34798 
L 90.544535 341.378683 
L 93.662087 338.494742 
L 96.779639 335.571646 
L 99.897192 332.64604 
L 103.014744 329.756356 
L 106.132296 326.900953 
L 109.249848 324.026704 
L 112.367401 321.16579 
L 115.484953 318.375505 
L 118.602505 315.369104 
L 121.720058 312.451376 
L 124.83761 309.56178 
L 127.955162 306.695438 
L 131.072715 303.927452 
L 134.190267 301.054767 
L 137.307819 298.162073 
L 140.425372 295.267766 
L 143.542924 292.521944 
L 146.660476 289.649119 
L 149.778028 286.885607 
L 152.895581 284.023989 
L 156.013133 281.281454 
L 159.130685 278.621741 
L 162.248238 275.868927 
L 165.36579 273.212576 
L 168.483342 270.556827 
L 171.600895 267.764004 
L 174.718447 265.04352 
L 177.835999 262.21817 
L 180.953552 259.594449 
L 184.071104 256.96076 
L 187.188656 254.211692 
L 190.306209 251.697975 
L 193.423761 249.338003 
L 196.541313 246.855908 
L 199.658865 244.258747 
L 202.776418 241.674949 
L 205.89397 239.195672 
L 209.011522 236.643474 
L 212.129075 234.034463 
L 215.246627 231.677588 
L 218.364179 229.180856 
L 221.481732 226.746851 
L 224.599284 224.231555 
L 227.716836 221.715168 
L 230.834389 219.197376 
L 233.951941 216.890672 
L 237.069493 214.565666 
L 240.187045 212.284041 
L 243.304598 210.0077 
L 246.42215 207.746811 
L 249.539702 205.413372 
L 252.657255 202.847113 
L 255.774807 200.53794 
L 258.892359 198.157694 
L 262.009912 195.803394 
L 265.127464 193.579519 
L 268.245016 191.339599 
L 271.362569 189.035582 
L 274.480121 186.608771 
L 277.597673 184.249423 
L 280.715225 181.918442 
L 283.832778 179.516012 
L 286.95033 177.109017 
L 290.067882 174.666309 
L 293.185435 172.252973 
L 296.302987 169.984562 
L 299.420539 167.649662 
L 302.538092 165.191147 
L 305.655644 162.92281 
L 308.773196 160.700217 
L 311.890749 158.47584 
L 315.008301 156.249573 
L 318.125853 154.023306 
L 321.243405 151.797039 
L 324.360958 149.570002 
L 327.47851 147.290401 
L 330.596062 144.982311 
L 333.713615 142.673613 
L 336.831167 140.364915 
L 339.948719 138.056217 
L 343.066272 135.74752 
L 346.183824 133.438822 
L 349.301376 131.128903 
L 352.418929 128.81794 
L 352.418929 89.456364 
L 352.418929 89.456364 
L 349.301376 92.432817 
L 346.183824 95.309868 
L 343.066272 98.159493 
L 339.948719 101.009118 
L 336.831167 103.858742 
L 333.713615 106.833006 
L 330.596062 109.830742 
L 327.47851 112.828477 
L 324.360958 115.826212 
L 321.243405 118.823948 
L 318.125853 121.821683 
L 315.008301 124.819418 
L 311.890749 127.820545 
L 308.773196 130.751724 
L 305.655644 133.672689 
L 302.538092 136.593655 
L 299.420539 139.51462 
L 296.302987 142.435586 
L 293.185435 145.356551 
L 290.067882 148.277517 
L 286.95033 151.197194 
L 283.832778 154.113244 
L 280.715225 157.029294 
L 277.597673 159.945344 
L 274.480121 162.861395 
L 271.362569 165.777445 
L 268.245016 168.695666 
L 265.127464 171.618949 
L 262.009912 174.500054 
L 258.892359 177.450242 
L 255.774807 180.364913 
L 252.657255 183.2454 
L 249.539702 186.09558 
L 246.42215 188.943806 
L 243.304598 191.898903 
L 240.187045 194.824353 
L 237.069493 197.63373 
L 233.951941 200.43572 
L 230.834389 203.301218 
L 227.716836 206.164061 
L 224.599284 209.060935 
L 221.481732 212.033851 
L 218.364179 214.735717 
L 215.246627 217.379509 
L 212.129075 220.030782 
L 209.011522 222.781558 
L 205.89397 225.423512 
L 202.776418 228.110117 
L 199.658865 230.839319 
L 196.541313 233.508915 
L 193.423761 236.319112 
L 190.306209 239.094056 
L 187.188656 241.765477 
L 184.071104 244.430263 
L 180.953552 246.921387 
L 177.835999 249.374536 
L 174.718447 251.906399 
L 171.600895 254.480924 
L 168.483342 256.903379 
L 165.36579 259.426077 
L 162.248238 261.787643 
L 159.130685 264.076079 
L 156.013133 266.499516 
L 152.895581 268.905003 
L 149.778028 271.39602 
L 146.660476 273.898193 
L 143.542924 276.433656 
L 140.425372 278.876634 
L 137.307819 281.375587 
L 134.190267 283.670563 
L 131.072715 286.138504 
L 127.955162 288.488612 
L 124.83761 290.792412 
L 121.720058 293.052945 
L 118.602505 295.389876 
L 115.484953 297.692329 
L 112.367401 299.952903 
L 109.249848 302.162439 
L 106.132296 304.356797 
L 103.014744 306.556014 
L 99.897192 308.893382 
L 96.779639 311.114346 
L 93.662087 313.359543 
L 90.544535 315.61557 
L 87.426982 318.037763 
L 84.30943 320.298097 
L 81.191878 322.558431 
L 78.074325 324.819109 
L 74.956773 327.061043 
L 71.839221 329.252264 
L 68.721668 331.443486 
L 65.604116 333.634707 
L 62.486564 335.879455 
L 59.369012 338.148417 
L 56.251459 340.420314 
L 53.133907 342.725843 
L 50.016355 345.07453 
L 46.898802 347.4239 
L 43.78125 349.695166 
z
" style="fill:#800080;fill-opacity:0.15;"/>
   </g>
   <g id="matplotlib.axis_1">
    <g id="xtick_1">
     <g id="line2d_1">
      <defs>
       <path d="M 0 0 
L 0 3.5 
" id="m65b1460f71" style="stroke:#000000;stroke-width:0.8;"/>
      </defs>
      <g>
       <use style="stroke:#000000;stroke-width:0.8;" x="71.708419" xlink:href="#m65b1460f71" y="400.6"/>
      </g>
     </g>
     <g id="text_1">
      <!-- 2.5 -->
      <g transform="translate(63.756857 415.198437)scale(0.1 -0.1)">
       <defs>
        <path d="M 19.1875 8.296875 
L 53.609375 8.296875 
L 53.609375 0 
L 7.328125 0 
L 7.328125 8.296875 
Q 12.9375 14.109375 22.625 23.890625 
Q 32.328125 33.6875 34.8125 36.53125 
Q 39.546875 41.84375 41.421875 45.53125 
Q 43.3125 49.21875 43.3125 52.78125 
Q 43.3125 58.59375 39.234375 62.25 
Q 35.15625 65.921875 28.609375 65.921875 
Q 23.96875 65.921875 18.8125 64.3125 
Q 13.671875 62.703125 7.8125 59.421875 
L 7.8125 69.390625 
Q 13.765625 71.78125 18.9375 73 
Q 24.125 74.21875 28.421875 74.21875 
Q 39.75 74.21875 46.484375 68.546875 
Q 53.21875 62.890625 53.21875 53.421875 
Q 53.21875 48.921875 51.53125 44.890625 
Q 49.859375 40.875 45.40625 35.40625 
Q 44.1875 33.984375 37.640625 27.21875 
Q 31.109375 20.453125 19.1875 8.296875 
z
" id="DejaVuSans-50"/>
        <path d="M 10.6875 12.40625 
L 21 12.40625 
L 21 0 
L 10.6875 0 
z
" id="DejaVuSans-46"/>
        <path d="M 10.796875 72.90625 
L 49.515625 72.90625 
L 49.515625 64.59375 
L 19.828125 64.59375 
L 19.828125 46.734375 
Q 21.96875 47.46875 24.109375 47.828125 
Q 26.265625 48.1875 28.421875 48.1875 
Q 40.625 48.1875 47.75 41.5 
Q 54.890625 34.8125 54.890625 23.390625 
Q 54.890625 11.625 47.5625 5.09375 
Q 40.234375 -1.421875 26.90625 -1.421875 
Q 22.3125 -1.421875 17.546875 -0.640625 
Q 12.796875 0.140625 7.71875 1.703125 
L 7.71875 11.625 
Q 12.109375 9.234375 16.796875 8.0625 
Q 21.484375 6.890625 26.703125 6.890625 
Q 35.15625 6.890625 40.078125 11.328125 
Q 45.015625 15.765625 45.015625 23.390625 
Q 45.015625 31 40.078125 35.4375 
Q 35.15625 39.890625 26.703125 39.890625 
Q 22.75 39.890625 18.8125 39.015625 
Q 14.890625 38.140625 10.796875 36.28125 
z
" id="DejaVuSans-53"/>
       </defs>
       <use xlink:href="#DejaVuSans-50"/>
       <use x="63.623047" xlink:href="#DejaVuSans-46"/>
       <use x="95.410156" xlink:href="#DejaVuSans-53"/>
      </g>
     </g>
    </g>
    <g id="xtick_2">
     <g id="line2d_2">
      <g>
       <use style="stroke:#000000;stroke-width:0.8;" x="131.361821" xlink:href="#m65b1460f71" y="400.6"/>
      </g>
     </g>
     <g id="text_2">
      <!-- 3.0 -->
      <g transform="translate(123.410258 415.198437)scale(0.1 -0.1)">
       <defs>
        <path d="M 40.578125 39.3125 
Q 47.65625 37.796875 51.625 33 
Q 55.609375 28.21875 55.609375 21.1875 
Q 55.609375 10.40625 48.1875 4.484375 
Q 40.765625 -1.421875 27.09375 -1.421875 
Q 22.515625 -1.421875 17.65625 -0.515625 
Q 12.796875 0.390625 7.625 2.203125 
L 7.625 11.71875 
Q 11.71875 9.328125 16.59375 8.109375 
Q 21.484375 6.890625 26.8125 6.890625 
Q 36.078125 6.890625 40.9375 10.546875 
Q 45.796875 14.203125 45.796875 21.1875 
Q 45.796875 27.640625 41.28125 31.265625 
Q 36.765625 34.90625 28.71875 34.90625 
L 20.21875 34.90625 
L 20.21875 43.015625 
L 29.109375 43.015625 
Q 36.375 43.015625 40.234375 45.921875 
Q 44.09375 48.828125 44.09375 54.296875 
Q 44.09375 59.90625 40.109375 62.90625 
Q 36.140625 65.921875 28.71875 65.921875 
Q 24.65625 65.921875 20.015625 65.03125 
Q 15.375 64.15625 9.8125 62.3125 
L 9.8125 71.09375 
Q 15.4375 72.65625 20.34375 73.4375 
Q 25.25 74.21875 29.59375 74.21875 
Q 40.828125 74.21875 47.359375 69.109375 
Q 53.90625 64.015625 53.90625 55.328125 
Q 53.90625 49.265625 50.4375 45.09375 
Q 46.96875 40.921875 40.578125 39.3125 
z
" id="DejaVuSans-51"/>
        <path d="M 31.78125 66.40625 
Q 24.171875 66.40625 20.328125 58.90625 
Q 16.5 51.421875 16.5 36.375 
Q 16.5 21.390625 20.328125 13.890625 
Q 24.171875 6.390625 31.78125 6.390625 
Q 39.453125 6.390625 43.28125 13.890625 
Q 47.125 21.390625 47.125 36.375 
Q 47.125 51.421875 43.28125 58.90625 
Q 39.453125 66.40625 31.78125 66.40625 
z
M 31.78125 74.21875 
Q 44.046875 74.21875 50.515625 64.515625 
Q 56.984375 54.828125 56.984375 36.375 
Q 56.984375 17.96875 50.515625 8.265625 
Q 44.046875 -1.421875 31.78125 -1.421875 
Q 19.53125 -1.421875 13.0625 8.265625 
Q 6.59375 17.96875 6.59375 36.375 
Q 6.59375 54.828125 13.0625 64.515625 
Q 19.53125 74.21875 31.78125 74.21875 
z
" id="DejaVuSans-48"/>
       </defs>
       <use xlink:href="#DejaVuSans-51"/>
       <use x="63.623047" xlink:href="#DejaVuSans-46"/>
       <use x="95.410156" xlink:href="#DejaVuSans-48"/>
      </g>
     </g>
    </g>
    <g id="xtick_3">
     <g id="line2d_3">
      <g>
       <use style="stroke:#000000;stroke-width:0.8;" x="191.015222" xlink:href="#m65b1460f71" y="400.6"/>
      </g>
     </g>
     <g id="text_3">
      <!-- 3.5 -->
      <g transform="translate(183.06366 415.198437)scale(0.1 -0.1)">
       <use xlink:href="#DejaVuSans-51"/>
       <use x="63.623047" xlink:href="#DejaVuSans-46"/>
       <use x="95.410156" xlink:href="#DejaVuSans-53"/>
      </g>
     </g>
    </g>
    <g id="xtick_4">
     <g id="line2d_4">
      <g>
       <use style="stroke:#000000;stroke-width:0.8;" x="250.668624" xlink:href="#m65b1460f71" y="400.6"/>
      </g>
     </g>
     <g id="text_4">
      <!-- 4.0 -->
      <g transform="translate(242.717061 415.198437)scale(0.1 -0.1)">
       <defs>
        <path d="M 37.796875 64.3125 
L 12.890625 25.390625 
L 37.796875 25.390625 
z
M 35.203125 72.90625 
L 47.609375 72.90625 
L 47.609375 25.390625 
L 58.015625 25.390625 
L 58.015625 17.1875 
L 47.609375 17.1875 
L 47.609375 0 
L 37.796875 0 
L 37.796875 17.1875 
L 4.890625 17.1875 
L 4.890625 26.703125 
z
" id="DejaVuSans-52"/>
       </defs>
       <use xlink:href="#DejaVuSans-52"/>
       <use x="63.623047" xlink:href="#DejaVuSans-46"/>
       <use x="95.410156" xlink:href="#DejaVuSans-48"/>
      </g>
     </g>
    </g>
    <g id="xtick_5">
     <g id="line2d_5">
      <g>
       <use style="stroke:#000000;stroke-width:0.8;" x="310.322025" xlink:href="#m65b1460f71" y="400.6"/>
      </g>
     </g>
     <g id="text_5">
      <!-- 4.5 -->
      <g transform="translate(302.370463 415.198437)scale(0.1 -0.1)">
       <use xlink:href="#DejaVuSans-52"/>
       <use x="63.623047" xlink:href="#DejaVuSans-46"/>
       <use x="95.410156" xlink:href="#DejaVuSans-53"/>
      </g>
     </g>
    </g>
    <g id="text_6">
     <!-- Predicted Values -->
     <g transform="translate(156.704777 428.876562)scale(0.1 -0.1)">
      <defs>
       <path d="M 19.671875 64.796875 
L 19.671875 37.40625 
L 32.078125 37.40625 
Q 38.96875 37.40625 42.71875 40.96875 
Q 46.484375 44.53125 46.484375 51.125 
Q 46.484375 57.671875 42.71875 61.234375 
Q 38.96875 64.796875 32.078125 64.796875 
z
M 9.8125 72.90625 
L 32.078125 72.90625 
Q 44.34375 72.90625 50.609375 67.359375 
Q 56.890625 61.8125 56.890625 51.125 
Q 56.890625 40.328125 50.609375 34.8125 
Q 44.34375 29.296875 32.078125 29.296875 
L 19.671875 29.296875 
L 19.671875 0 
L 9.8125 0 
z
" id="DejaVuSans-80"/>
       <path d="M 41.109375 46.296875 
Q 39.59375 47.171875 37.8125 47.578125 
Q 36.03125 48 33.890625 48 
Q 26.265625 48 22.1875 43.046875 
Q 18.109375 38.09375 18.109375 28.8125 
L 18.109375 0 
L 9.078125 0 
L 9.078125 54.6875 
L 18.109375 54.6875 
L 18.109375 46.1875 
Q 20.953125 51.171875 25.484375 53.578125 
Q 30.03125 56 36.53125 56 
Q 37.453125 56 38.578125 55.875 
Q 39.703125 55.765625 41.0625 55.515625 
z
" id="DejaVuSans-114"/>
       <path d="M 56.203125 29.59375 
L 56.203125 25.203125 
L 14.890625 25.203125 
Q 15.484375 15.921875 20.484375 11.0625 
Q 25.484375 6.203125 34.421875 6.203125 
Q 39.59375 6.203125 44.453125 7.46875 
Q 49.3125 8.734375 54.109375 11.28125 
L 54.109375 2.78125 
Q 49.265625 0.734375 44.1875 -0.34375 
Q 39.109375 -1.421875 33.890625 -1.421875 
Q 20.796875 -1.421875 13.15625 6.1875 
Q 5.515625 13.8125 5.515625 26.8125 
Q 5.515625 40.234375 12.765625 48.109375 
Q 20.015625 56 32.328125 56 
Q 43.359375 56 49.78125 48.890625 
Q 56.203125 41.796875 56.203125 29.59375 
z
M 47.21875 32.234375 
Q 47.125 39.59375 43.09375 43.984375 
Q 39.0625 48.390625 32.421875 48.390625 
Q 24.90625 48.390625 20.390625 44.140625 
Q 15.875 39.890625 15.1875 32.171875 
z
" id="DejaVuSans-101"/>
       <path d="M 45.40625 46.390625 
L 45.40625 75.984375 
L 54.390625 75.984375 
L 54.390625 0 
L 45.40625 0 
L 45.40625 8.203125 
Q 42.578125 3.328125 38.25 0.953125 
Q 33.9375 -1.421875 27.875 -1.421875 
Q 17.96875 -1.421875 11.734375 6.484375 
Q 5.515625 14.40625 5.515625 27.296875 
Q 5.515625 40.1875 11.734375 48.09375 
Q 17.96875 56 27.875 56 
Q 33.9375 56 38.25 53.625 
Q 42.578125 51.265625 45.40625 46.390625 
z
M 14.796875 27.296875 
Q 14.796875 17.390625 18.875 11.75 
Q 22.953125 6.109375 30.078125 6.109375 
Q 37.203125 6.109375 41.296875 11.75 
Q 45.40625 17.390625 45.40625 27.296875 
Q 45.40625 37.203125 41.296875 42.84375 
Q 37.203125 48.484375 30.078125 48.484375 
Q 22.953125 48.484375 18.875 42.84375 
Q 14.796875 37.203125 14.796875 27.296875 
z
" id="DejaVuSans-100"/>
       <path d="M 9.421875 54.6875 
L 18.40625 54.6875 
L 18.40625 0 
L 9.421875 0 
z
M 9.421875 75.984375 
L 18.40625 75.984375 
L 18.40625 64.59375 
L 9.421875 64.59375 
z
" id="DejaVuSans-105"/>
       <path d="M 48.78125 52.59375 
L 48.78125 44.1875 
Q 44.96875 46.296875 41.140625 47.34375 
Q 37.3125 48.390625 33.40625 48.390625 
Q 24.65625 48.390625 19.8125 42.84375 
Q 14.984375 37.3125 14.984375 27.296875 
Q 14.984375 17.28125 19.8125 11.734375 
Q 24.65625 6.203125 33.40625 6.203125 
Q 37.3125 6.203125 41.140625 7.25 
Q 44.96875 8.296875 48.78125 10.40625 
L 48.78125 2.09375 
Q 45.015625 0.34375 40.984375 -0.53125 
Q 36.96875 -1.421875 32.421875 -1.421875 
Q 20.0625 -1.421875 12.78125 6.34375 
Q 5.515625 14.109375 5.515625 27.296875 
Q 5.515625 40.671875 12.859375 48.328125 
Q 20.21875 56 33.015625 56 
Q 37.15625 56 41.109375 55.140625 
Q 45.0625 54.296875 48.78125 52.59375 
z
" id="DejaVuSans-99"/>
       <path d="M 18.3125 70.21875 
L 18.3125 54.6875 
L 36.8125 54.6875 
L 36.8125 47.703125 
L 18.3125 47.703125 
L 18.3125 18.015625 
Q 18.3125 11.328125 20.140625 9.421875 
Q 21.96875 7.515625 27.59375 7.515625 
L 36.8125 7.515625 
L 36.8125 0 
L 27.59375 0 
Q 17.1875 0 13.234375 3.875 
Q 9.28125 7.765625 9.28125 18.015625 
L 9.28125 47.703125 
L 2.6875 47.703125 
L 2.6875 54.6875 
L 9.28125 54.6875 
L 9.28125 70.21875 
z
" id="DejaVuSans-116"/>
       <path id="DejaVuSans-32"/>
       <path d="M 28.609375 0 
L 0.78125 72.90625 
L 11.078125 72.90625 
L 34.1875 11.53125 
L 57.328125 72.90625 
L 67.578125 72.90625 
L 39.796875 0 
z
" id="DejaVuSans-86"/>
       <path d="M 34.28125 27.484375 
Q 23.390625 27.484375 19.1875 25 
Q 14.984375 22.515625 14.984375 16.5 
Q 14.984375 11.71875 18.140625 8.90625 
Q 21.296875 6.109375 26.703125 6.109375 
Q 34.1875 6.109375 38.703125 11.40625 
Q 43.21875 16.703125 43.21875 25.484375 
L 43.21875 27.484375 
z
M 52.203125 31.203125 
L 52.203125 0 
L 43.21875 0 
L 43.21875 8.296875 
Q 40.140625 3.328125 35.546875 0.953125 
Q 30.953125 -1.421875 24.3125 -1.421875 
Q 15.921875 -1.421875 10.953125 3.296875 
Q 6 8.015625 6 15.921875 
Q 6 25.140625 12.171875 29.828125 
Q 18.359375 34.515625 30.609375 34.515625 
L 43.21875 34.515625 
L 43.21875 35.40625 
Q 43.21875 41.609375 39.140625 45 
Q 35.0625 48.390625 27.6875 48.390625 
Q 23 48.390625 18.546875 47.265625 
Q 14.109375 46.140625 10.015625 43.890625 
L 10.015625 52.203125 
Q 14.9375 54.109375 19.578125 55.046875 
Q 24.21875 56 28.609375 56 
Q 40.484375 56 46.34375 49.84375 
Q 52.203125 43.703125 52.203125 31.203125 
z
" id="DejaVuSans-97"/>
       <path d="M 9.421875 75.984375 
L 18.40625 75.984375 
L 18.40625 0 
L 9.421875 0 
z
" id="DejaVuSans-108"/>
       <path d="M 8.5 21.578125 
L 8.5 54.6875 
L 17.484375 54.6875 
L 17.484375 21.921875 
Q 17.484375 14.15625 20.5 10.265625 
Q 23.53125 6.390625 29.59375 6.390625 
Q 36.859375 6.390625 41.078125 11.03125 
Q 45.3125 15.671875 45.3125 23.6875 
L 45.3125 54.6875 
L 54.296875 54.6875 
L 54.296875 0 
L 45.3125 0 
L 45.3125 8.40625 
Q 42.046875 3.421875 37.71875 1 
Q 33.40625 -1.421875 27.6875 -1.421875 
Q 18.265625 -1.421875 13.375 4.4375 
Q 8.5 10.296875 8.5 21.578125 
z
M 31.109375 56 
z
" id="DejaVuSans-117"/>
       <path d="M 44.28125 53.078125 
L 44.28125 44.578125 
Q 40.484375 46.53125 36.375 47.5 
Q 32.28125 48.484375 27.875 48.484375 
Q 21.1875 48.484375 17.84375 46.4375 
Q 14.5 44.390625 14.5 40.28125 
Q 14.5 37.15625 16.890625 35.375 
Q 19.28125 33.59375 26.515625 31.984375 
L 29.59375 31.296875 
Q 39.15625 29.25 43.1875 25.515625 
Q 47.21875 21.78125 47.21875 15.09375 
Q 47.21875 7.46875 41.1875 3.015625 
Q 35.15625 -1.421875 24.609375 -1.421875 
Q 20.21875 -1.421875 15.453125 -0.5625 
Q 10.6875 0.296875 5.421875 2 
L 5.421875 11.28125 
Q 10.40625 8.6875 15.234375 7.390625 
Q 20.0625 6.109375 24.8125 6.109375 
Q 31.15625 6.109375 34.5625 8.28125 
Q 37.984375 10.453125 37.984375 14.40625 
Q 37.984375 18.0625 35.515625 20.015625 
Q 33.0625 21.96875 24.703125 23.78125 
L 21.578125 24.515625 
Q 13.234375 26.265625 9.515625 29.90625 
Q 5.8125 33.546875 5.8125 39.890625 
Q 5.8125 47.609375 11.28125 51.796875 
Q 16.75 56 26.8125 56 
Q 31.78125 56 36.171875 55.265625 
Q 40.578125 54.546875 44.28125 53.078125 
z
" id="DejaVuSans-115"/>
      </defs>
      <use xlink:href="#DejaVuSans-80"/>
      <use x="58.552734" xlink:href="#DejaVuSans-114"/>
      <use x="97.416016" xlink:href="#DejaVuSans-101"/>
      <use x="158.939453" xlink:href="#DejaVuSans-100"/>
      <use x="222.416016" xlink:href="#DejaVuSans-105"/>
      <use x="250.199219" xlink:href="#DejaVuSans-99"/>
      <use x="305.179688" xlink:href="#DejaVuSans-116"/>
      <use x="344.388672" xlink:href="#DejaVuSans-101"/>
      <use x="405.912109" xlink:href="#DejaVuSans-100"/>
      <use x="469.388672" xlink:href="#DejaVuSans-32"/>
      <use x="501.175781" xlink:href="#DejaVuSans-86"/>
      <use x="561.833984" xlink:href="#DejaVuSans-97"/>
      <use x="623.113281" xlink:href="#DejaVuSans-108"/>
      <use x="650.896484" xlink:href="#DejaVuSans-117"/>
      <use x="714.275391" xlink:href="#DejaVuSans-101"/>
      <use x="775.798828" xlink:href="#DejaVuSans-115"/>
     </g>
    </g>
   </g>
   <g id="matplotlib.axis_2">
    <g id="ytick_1">
     <g id="line2d_6">
      <defs>
       <path d="M 0 0 
L -3.5 0 
" id="mfd131d5570" style="stroke:#000000;stroke-width:0.8;"/>
      </defs>
      <g>
       <use style="stroke:#000000;stroke-width:0.8;" x="43.78125" xlink:href="#mfd131d5570" y="348.636479"/>
      </g>
     </g>
     <g id="text_7">
      <!-- 2.5 -->
      <g transform="translate(20.878125 352.435698)scale(0.1 -0.1)">
       <use xlink:href="#DejaVuSans-50"/>
       <use x="63.623047" xlink:href="#DejaVuSans-46"/>
       <use x="95.410156" xlink:href="#DejaVuSans-53"/>
      </g>
     </g>
    </g>
    <g id="ytick_2">
     <g id="line2d_7">
      <g>
       <use style="stroke:#000000;stroke-width:0.8;" x="43.78125" xlink:href="#mfd131d5570" y="295.435414"/>
      </g>
     </g>
     <g id="text_8">
      <!-- 3.0 -->
      <g transform="translate(20.878125 299.234632)scale(0.1 -0.1)">
       <use xlink:href="#DejaVuSans-51"/>
       <use x="63.623047" xlink:href="#DejaVuSans-46"/>
       <use x="95.410156" xlink:href="#DejaVuSans-48"/>
      </g>
     </g>
    </g>
    <g id="ytick_3">
     <g id="line2d_8">
      <g>
       <use style="stroke:#000000;stroke-width:0.8;" x="43.78125" xlink:href="#mfd131d5570" y="242.234348"/>
      </g>
     </g>
     <g id="text_9">
      <!-- 3.5 -->
      <g transform="translate(20.878125 246.033567)scale(0.1 -0.1)">
       <use xlink:href="#DejaVuSans-51"/>
       <use x="63.623047" xlink:href="#DejaVuSans-46"/>
       <use x="95.410156" xlink:href="#DejaVuSans-53"/>
      </g>
     </g>
    </g>
    <g id="ytick_4">
     <g id="line2d_9">
      <g>
       <use style="stroke:#000000;stroke-width:0.8;" x="43.78125" xlink:href="#mfd131d5570" y="189.033282"/>
      </g>
     </g>
     <g id="text_10">
      <!-- 4.0 -->
      <g transform="translate(20.878125 192.832501)scale(0.1 -0.1)">
       <use xlink:href="#DejaVuSans-52"/>
       <use x="63.623047" xlink:href="#DejaVuSans-46"/>
       <use x="95.410156" xlink:href="#DejaVuSans-48"/>
      </g>
     </g>
    </g>
    <g id="ytick_5">
     <g id="line2d_10">
      <g>
       <use style="stroke:#000000;stroke-width:0.8;" x="43.78125" xlink:href="#mfd131d5570" y="135.832217"/>
      </g>
     </g>
     <g id="text_11">
      <!-- 4.5 -->
      <g transform="translate(20.878125 139.631435)scale(0.1 -0.1)">
       <use xlink:href="#DejaVuSans-52"/>
       <use x="63.623047" xlink:href="#DejaVuSans-46"/>
       <use x="95.410156" xlink:href="#DejaVuSans-53"/>
      </g>
     </g>
    </g>
    <g id="ytick_6">
     <g id="line2d_11">
      <g>
       <use style="stroke:#000000;stroke-width:0.8;" x="43.78125" xlink:href="#mfd131d5570" y="82.631151"/>
      </g>
     </g>
     <g id="text_12">
      <!-- 5.0 -->
      <g transform="translate(20.878125 86.43037)scale(0.1 -0.1)">
       <use xlink:href="#DejaVuSans-53"/>
       <use x="63.623047" xlink:href="#DejaVuSans-46"/>
       <use x="95.410156" xlink:href="#DejaVuSans-48"/>
      </g>
     </g>
    </g>
    <g id="text_13">
     <!-- Real Values -->
     <g transform="translate(14.798438 266.323906)rotate(-90)scale(0.1 -0.1)">
      <defs>
       <path d="M 44.390625 34.1875 
Q 47.5625 33.109375 50.5625 29.59375 
Q 53.5625 26.078125 56.59375 19.921875 
L 66.609375 0 
L 56 0 
L 46.6875 18.703125 
Q 43.0625 26.03125 39.671875 28.421875 
Q 36.28125 30.8125 30.421875 30.8125 
L 19.671875 30.8125 
L 19.671875 0 
L 9.8125 0 
L 9.8125 72.90625 
L 32.078125 72.90625 
Q 44.578125 72.90625 50.734375 67.671875 
Q 56.890625 62.453125 56.890625 51.90625 
Q 56.890625 45.015625 53.6875 40.46875 
Q 50.484375 35.9375 44.390625 34.1875 
z
M 19.671875 64.796875 
L 19.671875 38.921875 
L 32.078125 38.921875 
Q 39.203125 38.921875 42.84375 42.21875 
Q 46.484375 45.515625 46.484375 51.90625 
Q 46.484375 58.296875 42.84375 61.546875 
Q 39.203125 64.796875 32.078125 64.796875 
z
" id="DejaVuSans-82"/>
      </defs>
      <use xlink:href="#DejaVuSans-82"/>
      <use x="64.982422" xlink:href="#DejaVuSans-101"/>
      <use x="126.505859" xlink:href="#DejaVuSans-97"/>
      <use x="187.785156" xlink:href="#DejaVuSans-108"/>
      <use x="215.568359" xlink:href="#DejaVuSans-32"/>
      <use x="247.355469" xlink:href="#DejaVuSans-86"/>
      <use x="308.013672" xlink:href="#DejaVuSans-97"/>
      <use x="369.292969" xlink:href="#DejaVuSans-108"/>
      <use x="397.076172" xlink:href="#DejaVuSans-117"/>
      <use x="460.455078" xlink:href="#DejaVuSans-101"/>
      <use x="521.978516" xlink:href="#DejaVuSans-115"/>
     </g>
    </g>
   </g>
   <g id="line2d_12">
    <path clip-path="url(#p9f7f24b3f5)" d="M 43.78125 369.262792 
L 46.898802 366.629928 
L 50.016355 363.997065 
L 53.133907 361.364202 
L 56.251459 358.731338 
L 59.369012 356.098475 
L 62.486564 353.465612 
L 65.604116 350.832748 
L 68.721668 348.199885 
L 71.839221 345.567021 
L 74.956773 342.934158 
L 78.074325 340.301295 
L 81.191878 337.668431 
L 84.30943 335.035568 
L 87.426982 332.402705 
L 90.544535 329.769841 
L 93.662087 327.136978 
L 96.779639 324.504114 
L 99.897192 321.871251 
L 103.014744 319.238388 
L 106.132296 316.605524 
L 109.249848 313.972661 
L 112.367401 311.339798 
L 115.484953 308.706934 
L 118.602505 306.074071 
L 121.720058 303.441207 
L 124.83761 300.808344 
L 127.955162 298.175481 
L 131.072715 295.542617 
L 134.190267 292.909754 
L 137.307819 290.276891 
L 140.425372 287.644027 
L 143.542924 285.011164 
L 146.660476 282.3783 
L 149.778028 279.745437 
L 152.895581 277.112574 
L 156.013133 274.47971 
L 159.130685 271.846847 
L 162.248238 269.213984 
L 165.36579 266.58112 
L 168.483342 263.948257 
L 171.600895 261.315393 
L 174.718447 258.68253 
L 177.835999 256.049667 
L 180.953552 253.416803 
L 184.071104 250.78394 
L 187.188656 248.151077 
L 190.306209 245.518213 
L 193.423761 242.88535 
L 196.541313 240.252486 
L 199.658865 237.619623 
L 202.776418 234.98676 
L 205.89397 232.353896 
L 209.011522 229.721033 
L 212.129075 227.08817 
L 215.246627 224.455306 
L 218.364179 221.822443 
L 221.481732 219.189579 
L 224.599284 216.556716 
L 227.716836 213.923853 
L 230.834389 211.290989 
L 233.951941 208.658126 
L 237.069493 206.025263 
L 240.187045 203.392399 
L 243.304598 200.759536 
L 246.42215 198.126672 
L 249.539702 195.493809 
L 252.657255 192.860946 
L 255.774807 190.228082 
L 258.892359 187.595219 
L 262.009912 184.962356 
L 265.127464 182.329492 
L 268.245016 179.696629 
L 271.362569 177.063765 
L 274.480121 174.430902 
L 277.597673 171.798039 
L 280.715225 169.165175 
L 283.832778 166.532312 
L 286.95033 163.899449 
L 290.067882 161.266585 
L 293.185435 158.633722 
L 296.302987 156.000858 
L 299.420539 153.367995 
L 302.538092 150.735132 
L 305.655644 148.102268 
L 308.773196 145.469405 
L 311.890749 142.836542 
L 315.008301 140.203678 
L 318.125853 137.570815 
L 321.243405 134.937951 
L 324.360958 132.305088 
L 327.47851 129.672225 
L 330.596062 127.039361 
L 333.713615 124.406498 
L 336.831167 121.773635 
L 339.948719 119.140771 
L 343.066272 116.507908 
L 346.183824 113.875044 
L 349.301376 111.242181 
L 352.418929 108.609318 
" style="fill:none;stroke:#800080;stroke-linecap:square;stroke-width:2.25;"/>
   </g>
   <g id="patch_3">
    <path d="M 43.78125 400.6 
L 43.78125 74.64 
" style="fill:none;stroke:#000000;stroke-linecap:square;stroke-linejoin:miter;stroke-width:0.8;"/>
   </g>
   <g id="patch_4">
    <path d="M 43.78125 400.6 
L 352.418929 400.6 
" style="fill:none;stroke:#000000;stroke-linecap:square;stroke-linejoin:miter;stroke-width:0.8;"/>
   </g>
  </g>
  <g id="axes_2">
   <g id="patch_5">
    <path d="M 43.78125 63.4 
L 352.418929 63.4 
L 352.418929 7.2 
L 43.78125 7.2 
z
" style="fill:#ffffff;"/>
   </g>
   <g id="patch_6">
    <path clip-path="url(#p0c998d4677)" d="M 43.78125 63.4 
L 82.36096 63.4 
L 82.36096 51.764389 
L 43.78125 51.764389 
z
" style="fill:#800080;fill-opacity:0.5;stroke:#000000;stroke-linejoin:miter;"/>
   </g>
   <g id="patch_7">
    <path clip-path="url(#p0c998d4677)" d="M 82.36096 63.4 
L 120.94067 63.4 
L 120.94067 28.493168 
L 82.36096 28.493168 
z
" style="fill:#800080;fill-opacity:0.5;stroke:#000000;stroke-linejoin:miter;"/>
   </g>
   <g id="patch_8">
    <path clip-path="url(#p0c998d4677)" d="M 120.94067 63.4 
L 159.520379 63.4 
L 159.520379 9.87619 
L 120.94067 9.87619 
z
" style="fill:#800080;fill-opacity:0.5;stroke:#000000;stroke-linejoin:miter;"/>
   </g>
   <g id="patch_9">
    <path clip-path="url(#p0c998d4677)" d="M 159.520379 63.4 
L 198.100089 63.4 
L 198.100089 37.801656 
L 159.520379 37.801656 
z
" style="fill:#800080;fill-opacity:0.5;stroke:#000000;stroke-linejoin:miter;"/>
   </g>
   <g id="patch_10">
    <path clip-path="url(#p0c998d4677)" d="M 198.100089 63.4 
L 236.679799 63.4 
L 236.679799 35.474534 
L 198.100089 35.474534 
z
" style="fill:#800080;fill-opacity:0.5;stroke:#000000;stroke-linejoin:miter;"/>
   </g>
   <g id="patch_11">
    <path clip-path="url(#p0c998d4677)" d="M 236.679799 63.4 
L 275.259509 63.4 
L 275.259509 44.783023 
L 236.679799 44.783023 
z
" style="fill:#800080;fill-opacity:0.5;stroke:#000000;stroke-linejoin:miter;"/>
   </g>
   <g id="patch_12">
    <path clip-path="url(#p0c998d4677)" d="M 275.259509 63.4 
L 313.839219 63.4 
L 313.839219 51.764389 
L 275.259509 51.764389 
z
" style="fill:#800080;fill-opacity:0.5;stroke:#000000;stroke-linejoin:miter;"/>
   </g>
   <g id="patch_13">
    <path clip-path="url(#p0c998d4677)" d="M 313.839219 63.4 
L 352.418929 63.4 
L 352.418929 56.418634 
L 313.839219 56.418634 
z
" style="fill:#800080;fill-opacity:0.5;stroke:#000000;stroke-linejoin:miter;"/>
   </g>
   <g id="matplotlib.axis_3">
    <g id="xtick_6">
     <g id="line2d_13">
      <g>
       <use style="stroke:#000000;stroke-width:0.8;" x="71.708419" xlink:href="#m65b1460f71" y="63.4"/>
      </g>
     </g>
    </g>
    <g id="xtick_7">
     <g id="line2d_14">
      <g>
       <use style="stroke:#000000;stroke-width:0.8;" x="131.361821" xlink:href="#m65b1460f71" y="63.4"/>
      </g>
     </g>
    </g>
    <g id="xtick_8">
     <g id="line2d_15">
      <g>
       <use style="stroke:#000000;stroke-width:0.8;" x="191.015222" xlink:href="#m65b1460f71" y="63.4"/>
      </g>
     </g>
    </g>
    <g id="xtick_9">
     <g id="line2d_16">
      <g>
       <use style="stroke:#000000;stroke-width:0.8;" x="250.668624" xlink:href="#m65b1460f71" y="63.4"/>
      </g>
     </g>
    </g>
    <g id="xtick_10">
     <g id="line2d_17">
      <g>
       <use style="stroke:#000000;stroke-width:0.8;" x="310.322025" xlink:href="#m65b1460f71" y="63.4"/>
      </g>
     </g>
    </g>
   </g>
   <g id="matplotlib.axis_4">
    <g id="ytick_7"/>
    <g id="ytick_8"/>
   </g>
   <g id="line2d_18">
    <path clip-path="url(#p0c998d4677)" d="M 43.78125 55.915787 
L 49.985022 54.149818 
L 56.188795 52.150073 
L 62.392567 49.904631 
L 68.59634 47.402562 
L 74.800112 44.640831 
L 81.003885 41.634259 
L 88.7586 37.601829 
L 104.268031 29.378625 
L 108.920861 27.149151 
L 113.57369 25.164562 
L 118.226519 23.49829 
L 121.328405 22.595637 
L 124.430292 21.876742 
L 127.532178 21.351694 
L 130.634064 21.025825 
L 133.73595 20.899363 
L 136.837837 20.967317 
L 139.939723 21.219606 
L 143.041609 21.64144 
L 147.694438 22.549825 
L 152.347268 23.719732 
L 158.55104 25.5379 
L 172.509528 29.772204 
L 178.7133 31.394527 
L 184.917073 32.766701 
L 191.120845 33.899574 
L 198.875561 35.057424 
L 212.834049 36.822551 
L 226.792537 38.667637 
L 240.751025 40.746619 
L 257.811399 43.509698 
L 270.218944 45.736529 
L 281.075546 47.918192 
L 313.645351 54.751186 
L 322.95101 56.301104 
L 332.256668 57.597942 
L 343.11327 58.869952 
L 352.418929 59.826366 
L 352.418929 59.826366 
" style="fill:none;stroke:#800080;stroke-linecap:square;stroke-width:1.5;"/>
   </g>
   <g id="patch_14">
    <path d="M 43.78125 63.4 
L 352.418929 63.4 
" style="fill:none;stroke:#000000;stroke-linecap:square;stroke-linejoin:miter;stroke-width:0.8;"/>
   </g>
  </g>
  <g id="axes_3">
   <g id="patch_15">
    <path d="M 363.061607 400.6 
L 416.275 400.6 
L 416.275 74.64 
L 363.061607 74.64 
z
" style="fill:#ffffff;"/>
   </g>
   <g id="patch_16">
    <path clip-path="url(#pd1eb16ebc0)" d="M 363.061607 380.85243 
L 393.46926 380.85243 
L 393.46926 346.401186 
L 363.061607 346.401186 
z
" style="fill:#800080;fill-opacity:0.5;stroke:#000000;stroke-linejoin:miter;"/>
   </g>
   <g id="patch_17">
    <path clip-path="url(#pd1eb16ebc0)" d="M 363.061607 346.401186 
L 403.605145 346.401186 
L 403.605145 311.949943 
L 363.061607 311.949943 
z
" style="fill:#800080;fill-opacity:0.5;stroke:#000000;stroke-linejoin:miter;"/>
   </g>
   <g id="patch_18">
    <path clip-path="url(#pd1eb16ebc0)" d="M 363.061607 311.949943 
L 410.362401 311.949943 
L 410.362401 277.498699 
L 363.061607 277.498699 
z
" style="fill:#800080;fill-opacity:0.5;stroke:#000000;stroke-linejoin:miter;"/>
   </g>
   <g id="patch_19">
    <path clip-path="url(#pd1eb16ebc0)" d="M 363.061607 277.498699 
L 413.741029 277.498699 
L 413.741029 243.047456 
L 363.061607 243.047456 
z
" style="fill:#800080;fill-opacity:0.5;stroke:#000000;stroke-linejoin:miter;"/>
   </g>
   <g id="patch_20">
    <path clip-path="url(#pd1eb16ebc0)" d="M 363.061607 243.047456 
L 413.741029 243.047456 
L 413.741029 208.596213 
L 363.061607 208.596213 
z
" style="fill:#800080;fill-opacity:0.5;stroke:#000000;stroke-linejoin:miter;"/>
   </g>
   <g id="patch_21">
    <path clip-path="url(#pd1eb16ebc0)" d="M 363.061607 208.596213 
L 393.46926 208.596213 
L 393.46926 174.144969 
L 363.061607 174.144969 
z
" style="fill:#800080;fill-opacity:0.5;stroke:#000000;stroke-linejoin:miter;"/>
   </g>
   <g id="patch_22">
    <path clip-path="url(#pd1eb16ebc0)" d="M 363.061607 174.144969 
L 376.57612 174.144969 
L 376.57612 139.693726 
L 363.061607 139.693726 
z
" style="fill:#800080;fill-opacity:0.5;stroke:#000000;stroke-linejoin:miter;"/>
   </g>
   <g id="patch_23">
    <path clip-path="url(#pd1eb16ebc0)" d="M 363.061607 139.693726 
L 376.57612 139.693726 
L 376.57612 105.242482 
L 363.061607 105.242482 
z
" style="fill:#800080;fill-opacity:0.5;stroke:#000000;stroke-linejoin:miter;"/>
   </g>
   <g id="matplotlib.axis_5">
    <g id="xtick_11"/>
    <g id="xtick_12"/>
   </g>
   <g id="matplotlib.axis_6">
    <g id="ytick_9">
     <g id="line2d_19">
      <g>
       <use style="stroke:#000000;stroke-width:0.8;" x="363.061607" xlink:href="#mfd131d5570" y="348.636479"/>
      </g>
     </g>
    </g>
    <g id="ytick_10">
     <g id="line2d_20">
      <g>
       <use style="stroke:#000000;stroke-width:0.8;" x="363.061607" xlink:href="#mfd131d5570" y="295.435414"/>
      </g>
     </g>
    </g>
    <g id="ytick_11">
     <g id="line2d_21">
      <g>
       <use style="stroke:#000000;stroke-width:0.8;" x="363.061607" xlink:href="#mfd131d5570" y="242.234348"/>
      </g>
     </g>
    </g>
    <g id="ytick_12">
     <g id="line2d_22">
      <g>
       <use style="stroke:#000000;stroke-width:0.8;" x="363.061607" xlink:href="#mfd131d5570" y="189.033282"/>
      </g>
     </g>
    </g>
    <g id="ytick_13">
     <g id="line2d_23">
      <g>
       <use style="stroke:#000000;stroke-width:0.8;" x="363.061607" xlink:href="#mfd131d5570" y="135.832217"/>
      </g>
     </g>
    </g>
    <g id="ytick_14">
     <g id="line2d_24">
      <g>
       <use style="stroke:#000000;stroke-width:0.8;" x="363.061607" xlink:href="#mfd131d5570" y="82.631151"/>
      </g>
     </g>
    </g>
   </g>
   <g id="line2d_25">
    <path clip-path="url(#pd1eb16ebc0)" d="M 376.773011 380.85243 
L 379.633265 375.312531 
L 384.222636 367.002684 
L 394.316571 348.998014 
L 397.884193 342.073141 
L 400.505144 336.533242 
L 402.875672 330.993344 
L 404.963389 325.453445 
L 406.329038 321.298521 
L 407.516622 317.143598 
L 408.525421 312.988674 
L 409.601493 307.448775 
L 410.396055 301.908877 
L 410.952044 296.368978 
L 411.392313 289.444105 
L 411.682036 281.134258 
L 411.865413 268.669486 
L 411.803849 258.974664 
L 411.551502 252.049791 
L 411.155215 246.509893 
L 410.536075 240.969994 
L 409.657018 235.430096 
L 408.495767 229.890197 
L 407.048781 224.350299 
L 405.332526 218.8104 
L 403.381562 213.270502 
L 400.686062 206.345629 
L 396.619143 196.650807 
L 386.009625 171.721264 
L 382.738039 163.411416 
L 380.240137 156.486543 
L 378.449264 150.946644 
L 376.883171 145.406746 
L 375.56425 139.866848 
L 374.492199 134.326949 
L 373.64 128.787051 
L 372.803285 121.862178 
L 371.059572 105.242482 
L 371.059572 105.242482 
" style="fill:none;stroke:#800080;stroke-linecap:square;stroke-width:1.5;"/>
   </g>
   <g id="patch_24">
    <path d="M 363.061607 400.6 
L 363.061607 74.64 
" style="fill:none;stroke:#000000;stroke-linecap:square;stroke-linejoin:miter;stroke-width:0.8;"/>
   </g>
  </g>
 </g>
 <defs>
  <clipPath id="p9f7f24b3f5">
   <rect height="325.96" width="308.637679" x="43.78125" y="74.64"/>
  </clipPath>
  <clipPath id="p0c998d4677">
   <rect height="56.2" width="308.637679" x="43.78125" y="7.2"/>
  </clipPath>
  <clipPath id="pd1eb16ebc0">
   <rect height="325.96" width="53.213393" x="363.061607" y="74.64"/>
  </clipPath>
 </defs>
</svg>
