<?xml version="1.0" encoding="utf-8" standalone="no"?>
<!DOCTYPE svg PUBLIC "-//W3C//DTD SVG 1.1//EN"
  "http://www.w3.org/Graphics/SVG/1.1/DTD/svg11.dtd">
<!-- Created with matplotlib (https://matplotlib.org/) -->
<svg height="438.15625pt" version="1.1" viewBox="0 0 423.475 438.15625" width="423.475pt" xmlns="http://www.w3.org/2000/svg" xmlns:xlink="http://www.w3.org/1999/xlink">
 <metadata>
  <rdf:RDF xmlns:cc="http://creativecommons.org/ns#" xmlns:dc="http://purl.org/dc/elements/1.1/" xmlns:rdf="http://www.w3.org/1999/02/22-rdf-syntax-ns#">
   <cc:Work>
    <dc:type rdf:resource="http://purl.org/dc/dcmitype/StillImage"/>
    <dc:date>2021-01-09T15:37:04.915375</dc:date>
    <dc:format>image/svg+xml</dc:format>
    <dc:creator>
     <cc:Agent>
      <dc:title>Matplotlib v3.3.2, https://matplotlib.org/</dc:title>
     </cc:Agent>
    </dc:creator>
   </cc:Work>
  </rdf:RDF>
 </metadata>
 <defs>
  <style type="text/css">*{stroke-linecap:butt;stroke-linejoin:round;}</style>
 </defs>
 <g id="figure_1">
  <g id="patch_1">
   <path d="M 0 438.15625 
L 423.475 438.15625 
L 423.475 0 
L 0 0 
z
" style="fill:none;"/>
  </g>
  <g id="axes_1">
   <g id="patch_2">
    <path d="M 43.78125 400.6 
L 352.418929 400.6 
L 352.418929 74.64 
L 43.78125 74.64 
z
" style="fill:#ffffff;"/>
   </g>
   <g id="PathCollection_1">
    <defs>
     <path d="M 0 3 
C 0.795609 3 1.55874 2.683901 2.12132 2.12132 
C 2.683901 1.55874 3 0.795609 3 0 
C 3 -0.795609 2.683901 -1.55874 2.12132 -2.12132 
C 1.55874 -2.683901 0.795609 -3 0 -3 
C -0.795609 -3 -1.55874 -2.683901 -2.12132 -2.12132 
C -2.683901 -1.55874 -3 -0.795609 -3 0 
C -3 0.795609 -2.683901 1.55874 -2.12132 2.12132 
C -1.55874 2.683901 -0.795609 3 0 3 
z
" id="m2529cd60b9" style="stroke:#1f77b4;stroke-opacity:0.8;"/>
    </defs>
    <g clip-path="url(#p359f76ea49)">
     <use style="fill:#1f77b4;fill-opacity:0.8;stroke:#1f77b4;stroke-opacity:0.8;" x="122.219188" xlink:href="#m2529cd60b9" y="298.235402"/>
     <use style="fill:#1f77b4;fill-opacity:0.8;stroke:#1f77b4;stroke-opacity:0.8;" x="205.484043" xlink:href="#m2529cd60b9" y="222.238876"/>
     <use style="fill:#1f77b4;fill-opacity:0.8;stroke:#1f77b4;stroke-opacity:0.8;" x="76.667438" xlink:href="#m2529cd60b9" y="374.231929"/>
     <use style="fill:#1f77b4;fill-opacity:0.8;stroke:#1f77b4;stroke-opacity:0.8;" x="227.408057" xlink:href="#m2529cd60b9" y="246.704293"/>
     <use style="fill:#1f77b4;fill-opacity:0.8;stroke:#1f77b4;stroke-opacity:0.8;" x="154.073161" xlink:href="#m2529cd60b9" y="309.78711"/>
     <use style="fill:#1f77b4;fill-opacity:0.8;stroke:#1f77b4;stroke-opacity:0.8;" x="123.405837" xlink:href="#m2529cd60b9" y="309.78711"/>
     <use style="fill:#1f77b4;fill-opacity:0.8;stroke:#1f77b4;stroke-opacity:0.8;" x="168.147372" xlink:href="#m2529cd60b9" y="322.70082"/>
     <use style="fill:#1f77b4;fill-opacity:0.8;stroke:#1f77b4;stroke-opacity:0.8;" x="105.264629" xlink:href="#m2529cd60b9" y="374.231929"/>
     <use style="fill:#1f77b4;fill-opacity:0.8;stroke:#1f77b4;stroke-opacity:0.8;" x="94.40095" xlink:href="#m2529cd60b9" y="329.776811"/>
     <use style="fill:#1f77b4;fill-opacity:0.8;stroke:#1f77b4;stroke-opacity:0.8;" x="96.422379" xlink:href="#m2529cd60b9" y="275.985006"/>
     <use style="fill:#1f77b4;fill-opacity:0.8;stroke:#1f77b4;stroke-opacity:0.8;" x="279.444208" xlink:href="#m2529cd60b9" y="133.328639"/>
     <use style="fill:#1f77b4;fill-opacity:0.8;stroke:#1f77b4;stroke-opacity:0.8;" x="104.760071" xlink:href="#m2529cd60b9" y="309.78711"/>
     <use style="fill:#1f77b4;fill-opacity:0.8;stroke:#1f77b4;stroke-opacity:0.8;" x="101.250525" xlink:href="#m2529cd60b9" y="329.776811"/>
     <use style="fill:#1f77b4;fill-opacity:0.8;stroke:#1f77b4;stroke-opacity:0.8;" x="156.224468" xlink:href="#m2529cd60b9" y="236.879233"/>
     <use style="fill:#1f77b4;fill-opacity:0.8;stroke:#1f77b4;stroke-opacity:0.8;" x="132.372413" xlink:href="#m2529cd60b9" y="309.78711"/>
     <use style="fill:#1f77b4;fill-opacity:0.8;stroke:#1f77b4;stroke-opacity:0.8;" x="206.467103" xlink:href="#m2529cd60b9" y="243.330494"/>
     <use style="fill:#1f77b4;fill-opacity:0.8;stroke:#1f77b4;stroke-opacity:0.8;" x="133.293352" xlink:href="#m2529cd60b9" y="322.70082"/>
     <use style="fill:#1f77b4;fill-opacity:0.8;stroke:#1f77b4;stroke-opacity:0.8;" x="214.564441" xlink:href="#m2529cd60b9" y="246.704293"/>
     <use style="fill:#1f77b4;fill-opacity:0.8;stroke:#1f77b4;stroke-opacity:0.8;" x="222.841744" xlink:href="#m2529cd60b9" y="187.323668"/>
     <use style="fill:#1f77b4;fill-opacity:0.8;stroke:#1f77b4;stroke-opacity:0.8;" x="227.315274" xlink:href="#m2529cd60b9" y="227.862663"/>
     <use style="fill:#1f77b4;fill-opacity:0.8;stroke:#1f77b4;stroke-opacity:0.8;" x="152.344366" xlink:href="#m2529cd60b9" y="222.238876"/>
     <use style="fill:#1f77b4;fill-opacity:0.8;stroke:#1f77b4;stroke-opacity:0.8;" x="119.693821" xlink:href="#m2529cd60b9" y="298.235402"/>
     <use style="fill:#1f77b4;fill-opacity:0.8;stroke:#1f77b4;stroke-opacity:0.8;" x="138.137076" xlink:href="#m2529cd60b9" y="309.78711"/>
     <use style="fill:#1f77b4;fill-opacity:0.8;stroke:#1f77b4;stroke-opacity:0.8;" x="114.729436" xlink:href="#m2529cd60b9" y="309.78711"/>
     <use style="fill:#1f77b4;fill-opacity:0.8;stroke:#1f77b4;stroke-opacity:0.8;" x="243.512293" xlink:href="#m2529cd60b9" y="177.783757"/>
     <use style="fill:#1f77b4;fill-opacity:0.8;stroke:#1f77b4;stroke-opacity:0.8;" x="92.355305" xlink:href="#m2529cd60b9" y="298.235402"/>
     <use style="fill:#1f77b4;fill-opacity:0.8;stroke:#1f77b4;stroke-opacity:0.8;" x="145.331737" xlink:href="#m2529cd60b9" y="298.235402"/>
     <use style="fill:#1f77b4;fill-opacity:0.8;stroke:#1f77b4;stroke-opacity:0.8;" x="129.436911" xlink:href="#m2529cd60b9" y="261.34465"/>
     <use style="fill:#1f77b4;fill-opacity:0.8;stroke:#1f77b4;stroke-opacity:0.8;" x="206.343391" xlink:href="#m2529cd60b9" y="222.238876"/>
     <use style="fill:#1f77b4;fill-opacity:0.8;stroke:#1f77b4;stroke-opacity:0.8;" x="174.721669" xlink:href="#m2529cd60b9" y="273.769985"/>
     <use style="fill:#1f77b4;fill-opacity:0.8;stroke:#1f77b4;stroke-opacity:0.8;" x="106.837507" xlink:href="#m2529cd60b9" y="329.776811"/>
     <use style="fill:#1f77b4;fill-opacity:0.8;stroke:#1f77b4;stroke-opacity:0.8;" x="257.664471" xlink:href="#m2529cd60b9" y="222.238876"/>
     <use style="fill:#1f77b4;fill-opacity:0.8;stroke:#1f77b4;stroke-opacity:0.8;" x="205.123559" xlink:href="#m2529cd60b9" y="236.879233"/>
     <use style="fill:#1f77b4;fill-opacity:0.8;stroke:#1f77b4;stroke-opacity:0.8;" x="118.066003" xlink:href="#m2529cd60b9" y="329.776811"/>
     <use style="fill:#1f77b4;fill-opacity:0.8;stroke:#1f77b4;stroke-opacity:0.8;" x="114.235766" xlink:href="#m2529cd60b9" y="329.776811"/>
     <use style="fill:#1f77b4;fill-opacity:0.8;stroke:#1f77b4;stroke-opacity:0.8;" x="197.20371" xlink:href="#m2529cd60b9" y="261.34465"/>
     <use style="fill:#1f77b4;fill-opacity:0.8;stroke:#1f77b4;stroke-opacity:0.8;" x="131.920824" xlink:href="#m2529cd60b9" y="298.235402"/>
     <use style="fill:#1f77b4;fill-opacity:0.8;stroke:#1f77b4;stroke-opacity:0.8;" x="138.641143" xlink:href="#m2529cd60b9" y="298.235402"/>
     <use style="fill:#1f77b4;fill-opacity:0.8;stroke:#1f77b4;stroke-opacity:0.8;" x="190.059809" xlink:href="#m2529cd60b9" y="222.238876"/>
     <use style="fill:#1f77b4;fill-opacity:0.8;stroke:#1f77b4;stroke-opacity:0.8;" x="233.689936" xlink:href="#m2529cd60b9" y="187.323668"/>
     <use style="fill:#1f77b4;fill-opacity:0.8;stroke:#1f77b4;stroke-opacity:0.8;" x="126.849201" xlink:href="#m2529cd60b9" y="236.879233"/>
     <use style="fill:#1f77b4;fill-opacity:0.8;stroke:#1f77b4;stroke-opacity:0.8;" x="152.640506" xlink:href="#m2529cd60b9" y="273.769985"/>
     <use style="fill:#1f77b4;fill-opacity:0.8;stroke:#1f77b4;stroke-opacity:0.8;" x="158.3071" xlink:href="#m2529cd60b9" y="273.769985"/>
     <use style="fill:#1f77b4;fill-opacity:0.8;stroke:#1f77b4;stroke-opacity:0.8;" x="60.91249" xlink:href="#m2529cd60b9" y="337.341176"/>
     <use style="fill:#1f77b4;fill-opacity:0.8;stroke:#1f77b4;stroke-opacity:0.8;" x="260.222294" xlink:href="#m2529cd60b9" y="261.34465"/>
     <use style="fill:#1f77b4;fill-opacity:0.8;stroke:#1f77b4;stroke-opacity:0.8;" x="181.309301" xlink:href="#m2529cd60b9" y="253.780284"/>
     <use style="fill:#1f77b4;fill-opacity:0.8;stroke:#1f77b4;stroke-opacity:0.8;" x="255.002107" xlink:href="#m2529cd60b9" y="197.773459"/>
     <use style="fill:#1f77b4;fill-opacity:0.8;stroke:#1f77b4;stroke-opacity:0.8;" x="101.68364" xlink:href="#m2529cd60b9" y="329.776811"/>
     <use style="fill:#1f77b4;fill-opacity:0.8;stroke:#1f77b4;stroke-opacity:0.8;" x="161.599822" xlink:href="#m2529cd60b9" y="287.785612"/>
     <use style="fill:#1f77b4;fill-opacity:0.8;stroke:#1f77b4;stroke-opacity:0.8;" x="232.430945" xlink:href="#m2529cd60b9" y="144.880346"/>
     <use style="fill:#1f77b4;fill-opacity:0.8;stroke:#1f77b4;stroke-opacity:0.8;" x="135.106773" xlink:href="#m2529cd60b9" y="309.78711"/>
     <use style="fill:#1f77b4;fill-opacity:0.8;stroke:#1f77b4;stroke-opacity:0.8;" x="352.418929" xlink:href="#m2529cd60b9" y="101.787231"/>
     <use style="fill:#1f77b4;fill-opacity:0.8;stroke:#1f77b4;stroke-opacity:0.8;" x="101.633939" xlink:href="#m2529cd60b9" y="337.341176"/>
     <use style="fill:#1f77b4;fill-opacity:0.8;stroke:#1f77b4;stroke-opacity:0.8;" x="165.992897" xlink:href="#m2529cd60b9" y="253.780284"/>
     <use style="fill:#1f77b4;fill-opacity:0.8;stroke:#1f77b4;stroke-opacity:0.8;" x="225.966097" xlink:href="#m2529cd60b9" y="246.704293"/>
     <use style="fill:#1f77b4;fill-opacity:0.8;stroke:#1f77b4;stroke-opacity:0.8;" x="180.842728" xlink:href="#m2529cd60b9" y="230.786564"/>
     <use style="fill:#1f77b4;fill-opacity:0.8;stroke:#1f77b4;stroke-opacity:0.8;" x="168.193556" xlink:href="#m2529cd60b9" y="261.34465"/>
     <use style="fill:#1f77b4;fill-opacity:0.8;stroke:#1f77b4;stroke-opacity:0.8;" x="89.148313" xlink:href="#m2529cd60b9" y="298.235402"/>
     <use style="fill:#1f77b4;fill-opacity:0.8;stroke:#1f77b4;stroke-opacity:0.8;" x="142.432525" xlink:href="#m2529cd60b9" y="329.776811"/>
     <use style="fill:#1f77b4;fill-opacity:0.8;stroke:#1f77b4;stroke-opacity:0.8;" x="175.040404" xlink:href="#m2529cd60b9" y="236.879233"/>
     <use style="fill:#1f77b4;fill-opacity:0.8;stroke:#1f77b4;stroke-opacity:0.8;" x="187.573045" xlink:href="#m2529cd60b9" y="298.235402"/>
     <use style="fill:#1f77b4;fill-opacity:0.8;stroke:#1f77b4;stroke-opacity:0.8;" x="155.095698" xlink:href="#m2529cd60b9" y="322.70082"/>
     <use style="fill:#1f77b4;fill-opacity:0.8;stroke:#1f77b4;stroke-opacity:0.8;" x="164.149573" xlink:href="#m2529cd60b9" y="197.773459"/>
     <use style="fill:#1f77b4;fill-opacity:0.8;stroke:#1f77b4;stroke-opacity:0.8;" x="161.210846" xlink:href="#m2529cd60b9" y="282.911929"/>
     <use style="fill:#1f77b4;fill-opacity:0.8;stroke:#1f77b4;stroke-opacity:0.8;" x="136.95461" xlink:href="#m2529cd60b9" y="329.776811"/>
     <use style="fill:#1f77b4;fill-opacity:0.8;stroke:#1f77b4;stroke-opacity:0.8;" x="249.405073" xlink:href="#m2529cd60b9" y="209.325166"/>
     <use style="fill:#1f77b4;fill-opacity:0.8;stroke:#1f77b4;stroke-opacity:0.8;" x="118.272255" xlink:href="#m2529cd60b9" y="298.235402"/>
     <use style="fill:#1f77b4;fill-opacity:0.8;stroke:#1f77b4;stroke-opacity:0.8;" x="82.316841" xlink:href="#m2529cd60b9" y="354.242228"/>
     <use style="fill:#1f77b4;fill-opacity:0.8;stroke:#1f77b4;stroke-opacity:0.8;" x="117.173538" xlink:href="#m2529cd60b9" y="316.053947"/>
     <use style="fill:#1f77b4;fill-opacity:0.8;stroke:#1f77b4;stroke-opacity:0.8;" x="195.683572" xlink:href="#m2529cd60b9" y="222.238876"/>
     <use style="fill:#1f77b4;fill-opacity:0.8;stroke:#1f77b4;stroke-opacity:0.8;" x="110.864258" xlink:href="#m2529cd60b9" y="285.321693"/>
     <use style="fill:#1f77b4;fill-opacity:0.8;stroke:#1f77b4;stroke-opacity:0.8;" x="145.439003" xlink:href="#m2529cd60b9" y="374.231929"/>
     <use style="fill:#1f77b4;fill-opacity:0.8;stroke:#1f77b4;stroke-opacity:0.8;" x="43.78125" xlink:href="#m2529cd60b9" y="385.783636"/>
     <use style="fill:#1f77b4;fill-opacity:0.8;stroke:#1f77b4;stroke-opacity:0.8;" x="196.827729" xlink:href="#m2529cd60b9" y="177.783757"/>
     <use style="fill:#1f77b4;fill-opacity:0.8;stroke:#1f77b4;stroke-opacity:0.8;" x="112.277074" xlink:href="#m2529cd60b9" y="273.769985"/>
     <use style="fill:#1f77b4;fill-opacity:0.8;stroke:#1f77b4;stroke-opacity:0.8;" x="235.306263" xlink:href="#m2529cd60b9" y="222.238876"/>
     <use style="fill:#1f77b4;fill-opacity:0.8;stroke:#1f77b4;stroke-opacity:0.8;" x="113.629628" xlink:href="#m2529cd60b9" y="322.70082"/>
     <use style="fill:#1f77b4;fill-opacity:0.8;stroke:#1f77b4;stroke-opacity:0.8;" x="155.197526" xlink:href="#m2529cd60b9" y="273.769985"/>
     <use style="fill:#1f77b4;fill-opacity:0.8;stroke:#1f77b4;stroke-opacity:0.8;" x="235.971794" xlink:href="#m2529cd60b9" y="169.00789"/>
     <use style="fill:#1f77b4;fill-opacity:0.8;stroke:#1f77b4;stroke-opacity:0.8;" x="111.547773" xlink:href="#m2529cd60b9" y="273.769985"/>
     <use style="fill:#1f77b4;fill-opacity:0.8;stroke:#1f77b4;stroke-opacity:0.8;" x="166.560235" xlink:href="#m2529cd60b9" y="282.911929"/>
     <use style="fill:#1f77b4;fill-opacity:0.8;stroke:#1f77b4;stroke-opacity:0.8;" x="132.09895" xlink:href="#m2529cd60b9" y="309.78711"/>
     <use style="fill:#1f77b4;fill-opacity:0.8;stroke:#1f77b4;stroke-opacity:0.8;" x="268.196586" xlink:href="#m2529cd60b9" y="170.707766"/>
     <use style="fill:#1f77b4;fill-opacity:0.8;stroke:#1f77b4;stroke-opacity:0.8;" x="150.242152" xlink:href="#m2529cd60b9" y="292.886058"/>
     <use style="fill:#1f77b4;fill-opacity:0.8;stroke:#1f77b4;stroke-opacity:0.8;" x="238.944029" xlink:href="#m2529cd60b9" y="197.773459"/>
     <use style="fill:#1f77b4;fill-opacity:0.8;stroke:#1f77b4;stroke-opacity:0.8;" x="150.174408" xlink:href="#m2529cd60b9" y="246.704293"/>
     <use style="fill:#1f77b4;fill-opacity:0.8;stroke:#1f77b4;stroke-opacity:0.8;" x="172.155704" xlink:href="#m2529cd60b9" y="298.235402"/>
     <use style="fill:#1f77b4;fill-opacity:0.8;stroke:#1f77b4;stroke-opacity:0.8;" x="178.984283" xlink:href="#m2529cd60b9" y="309.78711"/>
     <use style="fill:#1f77b4;fill-opacity:0.8;stroke:#1f77b4;stroke-opacity:0.8;" x="161.552631" xlink:href="#m2529cd60b9" y="309.78711"/>
     <use style="fill:#1f77b4;fill-opacity:0.8;stroke:#1f77b4;stroke-opacity:0.8;" x="143.813029" xlink:href="#m2529cd60b9" y="298.235402"/>
     <use style="fill:#1f77b4;fill-opacity:0.8;stroke:#1f77b4;stroke-opacity:0.8;" x="129.364331" xlink:href="#m2529cd60b9" y="298.235402"/>
     <use style="fill:#1f77b4;fill-opacity:0.8;stroke:#1f77b4;stroke-opacity:0.8;" x="68.09859" xlink:href="#m2529cd60b9" y="329.776811"/>
     <use style="fill:#1f77b4;fill-opacity:0.8;stroke:#1f77b4;stroke-opacity:0.8;" x="98.417628" xlink:href="#m2529cd60b9" y="312.875759"/>
     <use style="fill:#1f77b4;fill-opacity:0.8;stroke:#1f77b4;stroke-opacity:0.8;" x="178.172837" xlink:href="#m2529cd60b9" y="197.773459"/>
     <use style="fill:#1f77b4;fill-opacity:0.8;stroke:#1f77b4;stroke-opacity:0.8;" x="100.455336" xlink:href="#m2529cd60b9" y="354.242228"/>
     <use style="fill:#1f77b4;fill-opacity:0.8;stroke:#1f77b4;stroke-opacity:0.8;" x="81.437975" xlink:href="#m2529cd60b9" y="309.78711"/>
     <use style="fill:#1f77b4;fill-opacity:0.8;stroke:#1f77b4;stroke-opacity:0.8;" x="128.907337" xlink:href="#m2529cd60b9" y="273.769985"/>
     <use style="fill:#1f77b4;fill-opacity:0.8;stroke:#1f77b4;stroke-opacity:0.8;" x="245.630135" xlink:href="#m2529cd60b9" y="209.325166"/>
     <use style="fill:#1f77b4;fill-opacity:0.8;stroke:#1f77b4;stroke-opacity:0.8;" x="226.459247" xlink:href="#m2529cd60b9" y="197.773459"/>
     <use style="fill:#1f77b4;fill-opacity:0.8;stroke:#1f77b4;stroke-opacity:0.8;" x="94.234047" xlink:href="#m2529cd60b9" y="298.235402"/>
     <use style="fill:#1f77b4;fill-opacity:0.8;stroke:#1f77b4;stroke-opacity:0.8;" x="146.119595" xlink:href="#m2529cd60b9" y="316.053947"/>
     <use style="fill:#1f77b4;fill-opacity:0.8;stroke:#1f77b4;stroke-opacity:0.8;" x="163.518107" xlink:href="#m2529cd60b9" y="329.776811"/>
     <use style="fill:#1f77b4;fill-opacity:0.8;stroke:#1f77b4;stroke-opacity:0.8;" x="232.560349" xlink:href="#m2529cd60b9" y="197.773459"/>
     <use style="fill:#1f77b4;fill-opacity:0.8;stroke:#1f77b4;stroke-opacity:0.8;" x="112.524209" xlink:href="#m2529cd60b9" y="345.46636"/>
     <use style="fill:#1f77b4;fill-opacity:0.8;stroke:#1f77b4;stroke-opacity:0.8;" x="150.536473" xlink:href="#m2529cd60b9" y="222.238876"/>
    </g>
   </g>
   <g id="PolyCollection_1">
    <path clip-path="url(#p359f76ea49)" d="M 43.78125 359.964728 
L 43.78125 384.136791 
L 46.898802 381.212075 
L 50.016355 378.288214 
L 53.133907 375.364352 
L 56.251459 372.440491 
L 59.369012 369.51663 
L 62.486564 366.650668 
L 65.604116 363.919157 
L 68.721668 361.128691 
L 71.839221 358.112622 
L 74.956773 355.287759 
L 78.074325 352.373835 
L 81.191878 349.518428 
L 84.30943 346.606623 
L 87.426982 343.706763 
L 90.544535 340.924364 
L 93.662087 338.039291 
L 96.779639 335.222727 
L 99.897192 332.309374 
L 103.014744 329.546915 
L 106.132296 326.764819 
L 109.249848 324.066073 
L 112.367401 321.074924 
L 115.484953 318.178295 
L 118.602505 315.290383 
L 121.720058 312.371629 
L 124.83761 309.643518 
L 127.955162 306.970446 
L 131.072715 304.242529 
L 134.190267 301.536476 
L 137.307819 298.700344 
L 140.425372 295.963699 
L 143.542924 293.294601 
L 146.660476 290.641748 
L 149.778028 288.088706 
L 152.895581 285.334363 
L 156.013133 282.548828 
L 159.130685 279.902036 
L 162.248238 277.488874 
L 165.36579 274.876918 
L 168.483342 272.173387 
L 171.600895 269.522473 
L 174.718447 266.946444 
L 177.835999 264.372528 
L 180.953552 261.835673 
L 184.071104 259.261878 
L 187.188656 256.76953 
L 190.306209 254.350415 
L 193.423761 251.9044 
L 196.541313 249.439674 
L 199.658865 247.016139 
L 202.776418 244.66265 
L 205.89397 242.308135 
L 209.011522 239.904032 
L 212.129075 237.541198 
L 215.246627 235.14214 
L 218.364179 232.846127 
L 221.481732 230.463235 
L 224.599284 228.044093 
L 227.716836 225.776354 
L 230.834389 223.475838 
L 233.951941 221.10714 
L 237.069493 218.718088 
L 240.187045 216.329037 
L 243.304598 213.958884 
L 246.42215 211.548789 
L 249.539702 209.158442 
L 252.657255 206.768096 
L 255.774807 204.377749 
L 258.892359 202.00063 
L 262.009912 199.602455 
L 265.127464 197.210829 
L 268.245016 194.819169 
L 271.362569 192.427508 
L 274.480121 190.016827 
L 277.597673 187.64807 
L 280.715225 185.259378 
L 283.832778 182.870687 
L 286.95033 180.545403 
L 290.067882 178.239216 
L 293.185435 175.933029 
L 296.302987 173.626842 
L 299.420539 171.32163 
L 302.538092 169.016989 
L 305.655644 166.69506 
L 308.773196 164.289079 
L 311.890749 161.949446 
L 315.008301 159.611067 
L 318.125853 157.272688 
L 321.243405 154.93431 
L 324.360958 152.595639 
L 327.47851 150.255458 
L 330.596062 147.914355 
L 333.713615 145.573253 
L 336.831167 143.23215 
L 339.948719 140.833606 
L 343.066272 138.513363 
L 346.183824 136.214556 
L 349.301376 133.875231 
L 352.418929 131.455673 
L 352.418929 89.456364 
L 352.418929 89.456364 
L 349.301376 92.363608 
L 346.183824 95.270853 
L 343.066272 98.178098 
L 339.948719 101.085343 
L 336.831167 103.992587 
L 333.713615 106.899832 
L 330.596062 109.846067 
L 327.47851 112.821857 
L 324.360958 115.799006 
L 321.243405 118.776156 
L 318.125853 121.753305 
L 315.008301 124.723713 
L 311.890749 127.622943 
L 308.773196 130.464202 
L 305.655644 133.355561 
L 302.538092 136.205278 
L 299.420539 139.031668 
L 296.302987 141.861145 
L 293.185435 144.821374 
L 290.067882 147.720536 
L 286.95033 150.70497 
L 283.832778 153.608732 
L 280.715225 156.533805 
L 277.597673 159.527137 
L 274.480121 162.521337 
L 271.362569 165.515537 
L 268.245016 168.509737 
L 265.127464 171.481706 
L 262.009912 174.351748 
L 258.892359 177.217047 
L 255.774807 180.140971 
L 252.657255 183.166186 
L 249.539702 186.085128 
L 246.42215 188.979751 
L 243.304598 191.872797 
L 240.187045 194.765857 
L 237.069493 197.657553 
L 233.951941 200.557597 
L 230.834389 203.385343 
L 227.716836 206.247061 
L 224.599284 208.979822 
L 221.481732 211.853591 
L 218.364179 214.811686 
L 215.246627 217.701342 
L 212.129075 220.561472 
L 209.011522 223.337999 
L 205.89397 226.268709 
L 202.776418 229.055894 
L 199.658865 231.87809 
L 196.541313 234.772887 
L 193.423761 237.610572 
L 190.306209 240.549244 
L 187.188656 243.374702 
L 184.071104 246.191487 
L 180.953552 249.012958 
L 177.835999 251.780899 
L 174.718447 254.586514 
L 171.600895 257.278273 
L 168.483342 259.999499 
L 165.36579 262.597846 
L 162.248238 265.267898 
L 159.130685 267.893216 
L 156.013133 270.527253 
L 152.895581 273.26164 
L 149.778028 275.855534 
L 146.660476 278.512006 
L 143.542924 281.095496 
L 140.425372 283.669934 
L 137.307819 286.242019 
L 134.190267 288.843354 
L 131.072715 291.396804 
L 127.955162 294.005786 
L 124.83761 296.537567 
L 121.720058 298.989875 
L 118.602505 301.513887 
L 115.484953 304.097895 
L 112.367401 306.584421 
L 109.249848 309.092223 
L 106.132296 311.592353 
L 103.014744 314.071456 
L 99.897192 316.490942 
L 96.779639 318.943366 
L 93.662087 321.39291 
L 90.544535 323.845899 
L 87.426982 326.202927 
L 84.30943 328.517309 
L 81.191878 330.957937 
L 78.074325 333.509236 
L 74.956773 335.799827 
L 71.839221 338.277951 
L 68.721668 340.761934 
L 65.604116 343.247078 
L 62.486564 345.686716 
L 59.369012 348.115153 
L 56.251459 350.482474 
L 53.133907 352.851461 
L 50.016355 355.223458 
L 46.898802 357.616313 
L 43.78125 359.964728 
z
" style="fill:#1f77b4;fill-opacity:0.15;"/>
   </g>
   <g id="matplotlib.axis_1">
    <g id="xtick_1">
     <g id="line2d_1">
      <defs>
       <path d="M 0 0 
L 0 3.5 
" id="m80b0c78158" style="stroke:#000000;stroke-width:0.8;"/>
      </defs>
      <g>
       <use style="stroke:#000000;stroke-width:0.8;" x="64.594609" xlink:href="#m80b0c78158" y="400.6"/>
      </g>
     </g>
     <g id="text_1">
      <!-- 2.5 -->
      <g transform="translate(56.643047 415.198437)scale(0.1 -0.1)">
       <defs>
        <path d="M 19.1875 8.296875 
L 53.609375 8.296875 
L 53.609375 0 
L 7.328125 0 
L 7.328125 8.296875 
Q 12.9375 14.109375 22.625 23.890625 
Q 32.328125 33.6875 34.8125 36.53125 
Q 39.546875 41.84375 41.421875 45.53125 
Q 43.3125 49.21875 43.3125 52.78125 
Q 43.3125 58.59375 39.234375 62.25 
Q 35.15625 65.921875 28.609375 65.921875 
Q 23.96875 65.921875 18.8125 64.3125 
Q 13.671875 62.703125 7.8125 59.421875 
L 7.8125 69.390625 
Q 13.765625 71.78125 18.9375 73 
Q 24.125 74.21875 28.421875 74.21875 
Q 39.75 74.21875 46.484375 68.546875 
Q 53.21875 62.890625 53.21875 53.421875 
Q 53.21875 48.921875 51.53125 44.890625 
Q 49.859375 40.875 45.40625 35.40625 
Q 44.1875 33.984375 37.640625 27.21875 
Q 31.109375 20.453125 19.1875 8.296875 
z
" id="DejaVuSans-50"/>
        <path d="M 10.6875 12.40625 
L 21 12.40625 
L 21 0 
L 10.6875 0 
z
" id="DejaVuSans-46"/>
        <path d="M 10.796875 72.90625 
L 49.515625 72.90625 
L 49.515625 64.59375 
L 19.828125 64.59375 
L 19.828125 46.734375 
Q 21.96875 47.46875 24.109375 47.828125 
Q 26.265625 48.1875 28.421875 48.1875 
Q 40.625 48.1875 47.75 41.5 
Q 54.890625 34.8125 54.890625 23.390625 
Q 54.890625 11.625 47.5625 5.09375 
Q 40.234375 -1.421875 26.90625 -1.421875 
Q 22.3125 -1.421875 17.546875 -0.640625 
Q 12.796875 0.140625 7.71875 1.703125 
L 7.71875 11.625 
Q 12.109375 9.234375 16.796875 8.0625 
Q 21.484375 6.890625 26.703125 6.890625 
Q 35.15625 6.890625 40.078125 11.328125 
Q 45.015625 15.765625 45.015625 23.390625 
Q 45.015625 31 40.078125 35.4375 
Q 35.15625 39.890625 26.703125 39.890625 
Q 22.75 39.890625 18.8125 39.015625 
Q 14.890625 38.140625 10.796875 36.28125 
z
" id="DejaVuSans-53"/>
       </defs>
       <use xlink:href="#DejaVuSans-50"/>
       <use x="63.623047" xlink:href="#DejaVuSans-46"/>
       <use x="95.410156" xlink:href="#DejaVuSans-53"/>
      </g>
     </g>
    </g>
    <g id="xtick_2">
     <g id="line2d_2">
      <g>
       <use style="stroke:#000000;stroke-width:0.8;" x="127.17923" xlink:href="#m80b0c78158" y="400.6"/>
      </g>
     </g>
     <g id="text_2">
      <!-- 3.0 -->
      <g transform="translate(119.227668 415.198437)scale(0.1 -0.1)">
       <defs>
        <path d="M 40.578125 39.3125 
Q 47.65625 37.796875 51.625 33 
Q 55.609375 28.21875 55.609375 21.1875 
Q 55.609375 10.40625 48.1875 4.484375 
Q 40.765625 -1.421875 27.09375 -1.421875 
Q 22.515625 -1.421875 17.65625 -0.515625 
Q 12.796875 0.390625 7.625 2.203125 
L 7.625 11.71875 
Q 11.71875 9.328125 16.59375 8.109375 
Q 21.484375 6.890625 26.8125 6.890625 
Q 36.078125 6.890625 40.9375 10.546875 
Q 45.796875 14.203125 45.796875 21.1875 
Q 45.796875 27.640625 41.28125 31.265625 
Q 36.765625 34.90625 28.71875 34.90625 
L 20.21875 34.90625 
L 20.21875 43.015625 
L 29.109375 43.015625 
Q 36.375 43.015625 40.234375 45.921875 
Q 44.09375 48.828125 44.09375 54.296875 
Q 44.09375 59.90625 40.109375 62.90625 
Q 36.140625 65.921875 28.71875 65.921875 
Q 24.65625 65.921875 20.015625 65.03125 
Q 15.375 64.15625 9.8125 62.3125 
L 9.8125 71.09375 
Q 15.4375 72.65625 20.34375 73.4375 
Q 25.25 74.21875 29.59375 74.21875 
Q 40.828125 74.21875 47.359375 69.109375 
Q 53.90625 64.015625 53.90625 55.328125 
Q 53.90625 49.265625 50.4375 45.09375 
Q 46.96875 40.921875 40.578125 39.3125 
z
" id="DejaVuSans-51"/>
        <path d="M 31.78125 66.40625 
Q 24.171875 66.40625 20.328125 58.90625 
Q 16.5 51.421875 16.5 36.375 
Q 16.5 21.390625 20.328125 13.890625 
Q 24.171875 6.390625 31.78125 6.390625 
Q 39.453125 6.390625 43.28125 13.890625 
Q 47.125 21.390625 47.125 36.375 
Q 47.125 51.421875 43.28125 58.90625 
Q 39.453125 66.40625 31.78125 66.40625 
z
M 31.78125 74.21875 
Q 44.046875 74.21875 50.515625 64.515625 
Q 56.984375 54.828125 56.984375 36.375 
Q 56.984375 17.96875 50.515625 8.265625 
Q 44.046875 -1.421875 31.78125 -1.421875 
Q 19.53125 -1.421875 13.0625 8.265625 
Q 6.59375 17.96875 6.59375 36.375 
Q 6.59375 54.828125 13.0625 64.515625 
Q 19.53125 74.21875 31.78125 74.21875 
z
" id="DejaVuSans-48"/>
       </defs>
       <use xlink:href="#DejaVuSans-51"/>
       <use x="63.623047" xlink:href="#DejaVuSans-46"/>
       <use x="95.410156" xlink:href="#DejaVuSans-48"/>
      </g>
     </g>
    </g>
    <g id="xtick_3">
     <g id="line2d_3">
      <g>
       <use style="stroke:#000000;stroke-width:0.8;" x="189.763851" xlink:href="#m80b0c78158" y="400.6"/>
      </g>
     </g>
     <g id="text_3">
      <!-- 3.5 -->
      <g transform="translate(181.812289 415.198437)scale(0.1 -0.1)">
       <use xlink:href="#DejaVuSans-51"/>
       <use x="63.623047" xlink:href="#DejaVuSans-46"/>
       <use x="95.410156" xlink:href="#DejaVuSans-53"/>
      </g>
     </g>
    </g>
    <g id="xtick_4">
     <g id="line2d_4">
      <g>
       <use style="stroke:#000000;stroke-width:0.8;" x="252.348473" xlink:href="#m80b0c78158" y="400.6"/>
      </g>
     </g>
     <g id="text_4">
      <!-- 4.0 -->
      <g transform="translate(244.39691 415.198437)scale(0.1 -0.1)">
       <defs>
        <path d="M 37.796875 64.3125 
L 12.890625 25.390625 
L 37.796875 25.390625 
z
M 35.203125 72.90625 
L 47.609375 72.90625 
L 47.609375 25.390625 
L 58.015625 25.390625 
L 58.015625 17.1875 
L 47.609375 17.1875 
L 47.609375 0 
L 37.796875 0 
L 37.796875 17.1875 
L 4.890625 17.1875 
L 4.890625 26.703125 
z
" id="DejaVuSans-52"/>
       </defs>
       <use xlink:href="#DejaVuSans-52"/>
       <use x="63.623047" xlink:href="#DejaVuSans-46"/>
       <use x="95.410156" xlink:href="#DejaVuSans-48"/>
      </g>
     </g>
    </g>
    <g id="xtick_5">
     <g id="line2d_5">
      <g>
       <use style="stroke:#000000;stroke-width:0.8;" x="314.933094" xlink:href="#m80b0c78158" y="400.6"/>
      </g>
     </g>
     <g id="text_5">
      <!-- 4.5 -->
      <g transform="translate(306.981531 415.198437)scale(0.1 -0.1)">
       <use xlink:href="#DejaVuSans-52"/>
       <use x="63.623047" xlink:href="#DejaVuSans-46"/>
       <use x="95.410156" xlink:href="#DejaVuSans-53"/>
      </g>
     </g>
    </g>
    <g id="text_6">
     <!-- Predicted Values -->
     <g transform="translate(156.704777 428.876562)scale(0.1 -0.1)">
      <defs>
       <path d="M 19.671875 64.796875 
L 19.671875 37.40625 
L 32.078125 37.40625 
Q 38.96875 37.40625 42.71875 40.96875 
Q 46.484375 44.53125 46.484375 51.125 
Q 46.484375 57.671875 42.71875 61.234375 
Q 38.96875 64.796875 32.078125 64.796875 
z
M 9.8125 72.90625 
L 32.078125 72.90625 
Q 44.34375 72.90625 50.609375 67.359375 
Q 56.890625 61.8125 56.890625 51.125 
Q 56.890625 40.328125 50.609375 34.8125 
Q 44.34375 29.296875 32.078125 29.296875 
L 19.671875 29.296875 
L 19.671875 0 
L 9.8125 0 
z
" id="DejaVuSans-80"/>
       <path d="M 41.109375 46.296875 
Q 39.59375 47.171875 37.8125 47.578125 
Q 36.03125 48 33.890625 48 
Q 26.265625 48 22.1875 43.046875 
Q 18.109375 38.09375 18.109375 28.8125 
L 18.109375 0 
L 9.078125 0 
L 9.078125 54.6875 
L 18.109375 54.6875 
L 18.109375 46.1875 
Q 20.953125 51.171875 25.484375 53.578125 
Q 30.03125 56 36.53125 56 
Q 37.453125 56 38.578125 55.875 
Q 39.703125 55.765625 41.0625 55.515625 
z
" id="DejaVuSans-114"/>
       <path d="M 56.203125 29.59375 
L 56.203125 25.203125 
L 14.890625 25.203125 
Q 15.484375 15.921875 20.484375 11.0625 
Q 25.484375 6.203125 34.421875 6.203125 
Q 39.59375 6.203125 44.453125 7.46875 
Q 49.3125 8.734375 54.109375 11.28125 
L 54.109375 2.78125 
Q 49.265625 0.734375 44.1875 -0.34375 
Q 39.109375 -1.421875 33.890625 -1.421875 
Q 20.796875 -1.421875 13.15625 6.1875 
Q 5.515625 13.8125 5.515625 26.8125 
Q 5.515625 40.234375 12.765625 48.109375 
Q 20.015625 56 32.328125 56 
Q 43.359375 56 49.78125 48.890625 
Q 56.203125 41.796875 56.203125 29.59375 
z
M 47.21875 32.234375 
Q 47.125 39.59375 43.09375 43.984375 
Q 39.0625 48.390625 32.421875 48.390625 
Q 24.90625 48.390625 20.390625 44.140625 
Q 15.875 39.890625 15.1875 32.171875 
z
" id="DejaVuSans-101"/>
       <path d="M 45.40625 46.390625 
L 45.40625 75.984375 
L 54.390625 75.984375 
L 54.390625 0 
L 45.40625 0 
L 45.40625 8.203125 
Q 42.578125 3.328125 38.25 0.953125 
Q 33.9375 -1.421875 27.875 -1.421875 
Q 17.96875 -1.421875 11.734375 6.484375 
Q 5.515625 14.40625 5.515625 27.296875 
Q 5.515625 40.1875 11.734375 48.09375 
Q 17.96875 56 27.875 56 
Q 33.9375 56 38.25 53.625 
Q 42.578125 51.265625 45.40625 46.390625 
z
M 14.796875 27.296875 
Q 14.796875 17.390625 18.875 11.75 
Q 22.953125 6.109375 30.078125 6.109375 
Q 37.203125 6.109375 41.296875 11.75 
Q 45.40625 17.390625 45.40625 27.296875 
Q 45.40625 37.203125 41.296875 42.84375 
Q 37.203125 48.484375 30.078125 48.484375 
Q 22.953125 48.484375 18.875 42.84375 
Q 14.796875 37.203125 14.796875 27.296875 
z
" id="DejaVuSans-100"/>
       <path d="M 9.421875 54.6875 
L 18.40625 54.6875 
L 18.40625 0 
L 9.421875 0 
z
M 9.421875 75.984375 
L 18.40625 75.984375 
L 18.40625 64.59375 
L 9.421875 64.59375 
z
" id="DejaVuSans-105"/>
       <path d="M 48.78125 52.59375 
L 48.78125 44.1875 
Q 44.96875 46.296875 41.140625 47.34375 
Q 37.3125 48.390625 33.40625 48.390625 
Q 24.65625 48.390625 19.8125 42.84375 
Q 14.984375 37.3125 14.984375 27.296875 
Q 14.984375 17.28125 19.8125 11.734375 
Q 24.65625 6.203125 33.40625 6.203125 
Q 37.3125 6.203125 41.140625 7.25 
Q 44.96875 8.296875 48.78125 10.40625 
L 48.78125 2.09375 
Q 45.015625 0.34375 40.984375 -0.53125 
Q 36.96875 -1.421875 32.421875 -1.421875 
Q 20.0625 -1.421875 12.78125 6.34375 
Q 5.515625 14.109375 5.515625 27.296875 
Q 5.515625 40.671875 12.859375 48.328125 
Q 20.21875 56 33.015625 56 
Q 37.15625 56 41.109375 55.140625 
Q 45.0625 54.296875 48.78125 52.59375 
z
" id="DejaVuSans-99"/>
       <path d="M 18.3125 70.21875 
L 18.3125 54.6875 
L 36.8125 54.6875 
L 36.8125 47.703125 
L 18.3125 47.703125 
L 18.3125 18.015625 
Q 18.3125 11.328125 20.140625 9.421875 
Q 21.96875 7.515625 27.59375 7.515625 
L 36.8125 7.515625 
L 36.8125 0 
L 27.59375 0 
Q 17.1875 0 13.234375 3.875 
Q 9.28125 7.765625 9.28125 18.015625 
L 9.28125 47.703125 
L 2.6875 47.703125 
L 2.6875 54.6875 
L 9.28125 54.6875 
L 9.28125 70.21875 
z
" id="DejaVuSans-116"/>
       <path id="DejaVuSans-32"/>
       <path d="M 28.609375 0 
L 0.78125 72.90625 
L 11.078125 72.90625 
L 34.1875 11.53125 
L 57.328125 72.90625 
L 67.578125 72.90625 
L 39.796875 0 
z
" id="DejaVuSans-86"/>
       <path d="M 34.28125 27.484375 
Q 23.390625 27.484375 19.1875 25 
Q 14.984375 22.515625 14.984375 16.5 
Q 14.984375 11.71875 18.140625 8.90625 
Q 21.296875 6.109375 26.703125 6.109375 
Q 34.1875 6.109375 38.703125 11.40625 
Q 43.21875 16.703125 43.21875 25.484375 
L 43.21875 27.484375 
z
M 52.203125 31.203125 
L 52.203125 0 
L 43.21875 0 
L 43.21875 8.296875 
Q 40.140625 3.328125 35.546875 0.953125 
Q 30.953125 -1.421875 24.3125 -1.421875 
Q 15.921875 -1.421875 10.953125 3.296875 
Q 6 8.015625 6 15.921875 
Q 6 25.140625 12.171875 29.828125 
Q 18.359375 34.515625 30.609375 34.515625 
L 43.21875 34.515625 
L 43.21875 35.40625 
Q 43.21875 41.609375 39.140625 45 
Q 35.0625 48.390625 27.6875 48.390625 
Q 23 48.390625 18.546875 47.265625 
Q 14.109375 46.140625 10.015625 43.890625 
L 10.015625 52.203125 
Q 14.9375 54.109375 19.578125 55.046875 
Q 24.21875 56 28.609375 56 
Q 40.484375 56 46.34375 49.84375 
Q 52.203125 43.703125 52.203125 31.203125 
z
" id="DejaVuSans-97"/>
       <path d="M 9.421875 75.984375 
L 18.40625 75.984375 
L 18.40625 0 
L 9.421875 0 
z
" id="DejaVuSans-108"/>
       <path d="M 8.5 21.578125 
L 8.5 54.6875 
L 17.484375 54.6875 
L 17.484375 21.921875 
Q 17.484375 14.15625 20.5 10.265625 
Q 23.53125 6.390625 29.59375 6.390625 
Q 36.859375 6.390625 41.078125 11.03125 
Q 45.3125 15.671875 45.3125 23.6875 
L 45.3125 54.6875 
L 54.296875 54.6875 
L 54.296875 0 
L 45.3125 0 
L 45.3125 8.40625 
Q 42.046875 3.421875 37.71875 1 
Q 33.40625 -1.421875 27.6875 -1.421875 
Q 18.265625 -1.421875 13.375 4.4375 
Q 8.5 10.296875 8.5 21.578125 
z
M 31.109375 56 
z
" id="DejaVuSans-117"/>
       <path d="M 44.28125 53.078125 
L 44.28125 44.578125 
Q 40.484375 46.53125 36.375 47.5 
Q 32.28125 48.484375 27.875 48.484375 
Q 21.1875 48.484375 17.84375 46.4375 
Q 14.5 44.390625 14.5 40.28125 
Q 14.5 37.15625 16.890625 35.375 
Q 19.28125 33.59375 26.515625 31.984375 
L 29.59375 31.296875 
Q 39.15625 29.25 43.1875 25.515625 
Q 47.21875 21.78125 47.21875 15.09375 
Q 47.21875 7.46875 41.1875 3.015625 
Q 35.15625 -1.421875 24.609375 -1.421875 
Q 20.21875 -1.421875 15.453125 -0.5625 
Q 10.6875 0.296875 5.421875 2 
L 5.421875 11.28125 
Q 10.40625 8.6875 15.234375 7.390625 
Q 20.0625 6.109375 24.8125 6.109375 
Q 31.15625 6.109375 34.5625 8.28125 
Q 37.984375 10.453125 37.984375 14.40625 
Q 37.984375 18.0625 35.515625 20.015625 
Q 33.0625 21.96875 24.703125 23.78125 
L 21.578125 24.515625 
Q 13.234375 26.265625 9.515625 29.90625 
Q 5.8125 33.546875 5.8125 39.890625 
Q 5.8125 47.609375 11.28125 51.796875 
Q 16.75 56 26.8125 56 
Q 31.78125 56 36.171875 55.265625 
Q 40.578125 54.546875 44.28125 53.078125 
z
" id="DejaVuSans-115"/>
      </defs>
      <use xlink:href="#DejaVuSans-80"/>
      <use x="58.552734" xlink:href="#DejaVuSans-114"/>
      <use x="97.416016" xlink:href="#DejaVuSans-101"/>
      <use x="158.939453" xlink:href="#DejaVuSans-100"/>
      <use x="222.416016" xlink:href="#DejaVuSans-105"/>
      <use x="250.199219" xlink:href="#DejaVuSans-99"/>
      <use x="305.179688" xlink:href="#DejaVuSans-116"/>
      <use x="344.388672" xlink:href="#DejaVuSans-101"/>
      <use x="405.912109" xlink:href="#DejaVuSans-100"/>
      <use x="469.388672" xlink:href="#DejaVuSans-32"/>
      <use x="501.175781" xlink:href="#DejaVuSans-86"/>
      <use x="561.833984" xlink:href="#DejaVuSans-97"/>
      <use x="623.113281" xlink:href="#DejaVuSans-108"/>
      <use x="650.896484" xlink:href="#DejaVuSans-117"/>
      <use x="714.275391" xlink:href="#DejaVuSans-101"/>
      <use x="775.798828" xlink:href="#DejaVuSans-115"/>
     </g>
    </g>
   </g>
   <g id="matplotlib.axis_2">
    <g id="ytick_1">
     <g id="line2d_6">
      <defs>
       <path d="M 0 0 
L -3.5 0 
" id="m15997629a0" style="stroke:#000000;stroke-width:0.8;"/>
      </defs>
      <g>
       <use style="stroke:#000000;stroke-width:0.8;" x="43.78125" xlink:href="#m15997629a0" y="352.587396"/>
      </g>
     </g>
     <g id="text_7">
      <!-- 2.5 -->
      <g transform="translate(20.878125 356.386615)scale(0.1 -0.1)">
       <use xlink:href="#DejaVuSans-50"/>
       <use x="63.623047" xlink:href="#DejaVuSans-46"/>
       <use x="95.410156" xlink:href="#DejaVuSans-53"/>
      </g>
     </g>
    </g>
    <g id="ytick_2">
     <g id="line2d_7">
      <g>
       <use style="stroke:#000000;stroke-width:0.8;" x="43.78125" xlink:href="#m15997629a0" y="297.76749"/>
      </g>
     </g>
     <g id="text_8">
      <!-- 3.0 -->
      <g transform="translate(20.878125 301.566708)scale(0.1 -0.1)">
       <use xlink:href="#DejaVuSans-51"/>
       <use x="63.623047" xlink:href="#DejaVuSans-46"/>
       <use x="95.410156" xlink:href="#DejaVuSans-48"/>
      </g>
     </g>
    </g>
    <g id="ytick_3">
     <g id="line2d_8">
      <g>
       <use style="stroke:#000000;stroke-width:0.8;" x="43.78125" xlink:href="#m15997629a0" y="242.947584"/>
      </g>
     </g>
     <g id="text_9">
      <!-- 3.5 -->
      <g transform="translate(20.878125 246.746802)scale(0.1 -0.1)">
       <use xlink:href="#DejaVuSans-51"/>
       <use x="63.623047" xlink:href="#DejaVuSans-46"/>
       <use x="95.410156" xlink:href="#DejaVuSans-53"/>
      </g>
     </g>
    </g>
    <g id="ytick_4">
     <g id="line2d_9">
      <g>
       <use style="stroke:#000000;stroke-width:0.8;" x="43.78125" xlink:href="#m15997629a0" y="188.127677"/>
      </g>
     </g>
     <g id="text_10">
      <!-- 4.0 -->
      <g transform="translate(20.878125 191.926896)scale(0.1 -0.1)">
       <use xlink:href="#DejaVuSans-52"/>
       <use x="63.623047" xlink:href="#DejaVuSans-46"/>
       <use x="95.410156" xlink:href="#DejaVuSans-48"/>
      </g>
     </g>
    </g>
    <g id="ytick_5">
     <g id="line2d_10">
      <g>
       <use style="stroke:#000000;stroke-width:0.8;" x="43.78125" xlink:href="#m15997629a0" y="133.307771"/>
      </g>
     </g>
     <g id="text_11">
      <!-- 4.5 -->
      <g transform="translate(20.878125 137.10699)scale(0.1 -0.1)">
       <use xlink:href="#DejaVuSans-52"/>
       <use x="63.623047" xlink:href="#DejaVuSans-46"/>
       <use x="95.410156" xlink:href="#DejaVuSans-53"/>
      </g>
     </g>
    </g>
    <g id="ytick_6">
     <g id="line2d_11">
      <g>
       <use style="stroke:#000000;stroke-width:0.8;" x="43.78125" xlink:href="#m15997629a0" y="78.487865"/>
      </g>
     </g>
     <g id="text_12">
      <!-- 5.0 -->
      <g transform="translate(20.878125 82.287084)scale(0.1 -0.1)">
       <use xlink:href="#DejaVuSans-53"/>
       <use x="63.623047" xlink:href="#DejaVuSans-46"/>
       <use x="95.410156" xlink:href="#DejaVuSans-48"/>
      </g>
     </g>
    </g>
    <g id="text_13">
     <!-- Real Values -->
     <g transform="translate(14.798438 266.323906)rotate(-90)scale(0.1 -0.1)">
      <defs>
       <path d="M 44.390625 34.1875 
Q 47.5625 33.109375 50.5625 29.59375 
Q 53.5625 26.078125 56.59375 19.921875 
L 66.609375 0 
L 56 0 
L 46.6875 18.703125 
Q 43.0625 26.03125 39.671875 28.421875 
Q 36.28125 30.8125 30.421875 30.8125 
L 19.671875 30.8125 
L 19.671875 0 
L 9.8125 0 
L 9.8125 72.90625 
L 32.078125 72.90625 
Q 44.578125 72.90625 50.734375 67.671875 
Q 56.890625 62.453125 56.890625 51.90625 
Q 56.890625 45.015625 53.6875 40.46875 
Q 50.484375 35.9375 44.390625 34.1875 
z
M 19.671875 64.796875 
L 19.671875 38.921875 
L 32.078125 38.921875 
Q 39.203125 38.921875 42.84375 42.21875 
Q 46.484375 45.515625 46.484375 51.90625 
Q 46.484375 58.296875 42.84375 61.546875 
Q 39.203125 64.796875 32.078125 64.796875 
z
" id="DejaVuSans-82"/>
      </defs>
      <use xlink:href="#DejaVuSans-82"/>
      <use x="64.982422" xlink:href="#DejaVuSans-101"/>
      <use x="126.505859" xlink:href="#DejaVuSans-97"/>
      <use x="187.785156" xlink:href="#DejaVuSans-108"/>
      <use x="215.568359" xlink:href="#DejaVuSans-32"/>
      <use x="247.355469" xlink:href="#DejaVuSans-86"/>
      <use x="308.013672" xlink:href="#DejaVuSans-97"/>
      <use x="369.292969" xlink:href="#DejaVuSans-108"/>
      <use x="397.076172" xlink:href="#DejaVuSans-117"/>
      <use x="460.455078" xlink:href="#DejaVuSans-101"/>
      <use x="521.978516" xlink:href="#DejaVuSans-115"/>
     </g>
    </g>
   </g>
   <g id="line2d_12">
    <path clip-path="url(#p359f76ea49)" d="M 43.78125 371.497334 
L 46.898802 368.851076 
L 50.016355 366.204819 
L 53.133907 363.558561 
L 56.251459 360.912304 
L 59.369012 358.266047 
L 62.486564 355.619789 
L 65.604116 352.973532 
L 68.721668 350.327275 
L 71.839221 347.681017 
L 74.956773 345.03476 
L 78.074325 342.388503 
L 81.191878 339.742245 
L 84.30943 337.095988 
L 87.426982 334.449731 
L 90.544535 331.803473 
L 93.662087 329.157216 
L 96.779639 326.510958 
L 99.897192 323.864701 
L 103.014744 321.218444 
L 106.132296 318.572186 
L 109.249848 315.925929 
L 112.367401 313.279672 
L 115.484953 310.633414 
L 118.602505 307.987157 
L 121.720058 305.3409 
L 124.83761 302.694642 
L 127.955162 300.048385 
L 131.072715 297.402127 
L 134.190267 294.75587 
L 137.307819 292.109613 
L 140.425372 289.463355 
L 143.542924 286.817098 
L 146.660476 284.170841 
L 149.778028 281.524583 
L 152.895581 278.878326 
L 156.013133 276.232069 
L 159.130685 273.585811 
L 162.248238 270.939554 
L 165.36579 268.293296 
L 168.483342 265.647039 
L 171.600895 263.000782 
L 174.718447 260.354524 
L 177.835999 257.708267 
L 180.953552 255.06201 
L 184.071104 252.415752 
L 187.188656 249.769495 
L 190.306209 247.123238 
L 193.423761 244.47698 
L 196.541313 241.830723 
L 199.658865 239.184466 
L 202.776418 236.538208 
L 205.89397 233.891951 
L 209.011522 231.245693 
L 212.129075 228.599436 
L 215.246627 225.953179 
L 218.364179 223.306921 
L 221.481732 220.660664 
L 224.599284 218.014407 
L 227.716836 215.368149 
L 230.834389 212.721892 
L 233.951941 210.075635 
L 237.069493 207.429377 
L 240.187045 204.78312 
L 243.304598 202.136862 
L 246.42215 199.490605 
L 249.539702 196.844348 
L 252.657255 194.19809 
L 255.774807 191.551833 
L 258.892359 188.905576 
L 262.009912 186.259318 
L 265.127464 183.613061 
L 268.245016 180.966804 
L 271.362569 178.320546 
L 274.480121 175.674289 
L 277.597673 173.028032 
L 280.715225 170.381774 
L 283.832778 167.735517 
L 286.95033 165.089259 
L 290.067882 162.443002 
L 293.185435 159.796745 
L 296.302987 157.150487 
L 299.420539 154.50423 
L 302.538092 151.857973 
L 305.655644 149.211715 
L 308.773196 146.565458 
L 311.890749 143.919201 
L 315.008301 141.272943 
L 318.125853 138.626686 
L 321.243405 135.980428 
L 324.360958 133.334171 
L 327.47851 130.687914 
L 330.596062 128.041656 
L 333.713615 125.395399 
L 336.831167 122.749142 
L 339.948719 120.102884 
L 343.066272 117.456627 
L 346.183824 114.81037 
L 349.301376 112.164112 
L 352.418929 109.517855 
" style="fill:none;stroke:#1f77b4;stroke-linecap:square;stroke-width:2.25;"/>
   </g>
   <g id="patch_3">
    <path d="M 43.78125 400.6 
L 43.78125 74.64 
" style="fill:none;stroke:#000000;stroke-linecap:square;stroke-linejoin:miter;stroke-width:0.8;"/>
   </g>
   <g id="patch_4">
    <path d="M 43.78125 400.6 
L 352.418929 400.6 
" style="fill:none;stroke:#000000;stroke-linecap:square;stroke-linejoin:miter;stroke-width:0.8;"/>
   </g>
  </g>
  <g id="axes_2">
   <g id="patch_5">
    <path d="M 43.78125 63.4 
L 352.418929 63.4 
L 352.418929 7.2 
L 43.78125 7.2 
z
" style="fill:#ffffff;"/>
   </g>
   <g id="patch_6">
    <path clip-path="url(#p0afc644d9c)" d="M 43.78125 63.4 
L 74.645018 63.4 
L 74.645018 56.977143 
L 43.78125 56.977143 
z
" style="fill:#1f77b4;fill-opacity:0.5;stroke:#000000;stroke-linejoin:miter;"/>
   </g>
   <g id="patch_7">
    <path clip-path="url(#p0afc644d9c)" d="M 74.645018 63.4 
L 105.508786 63.4 
L 105.508786 31.285714 
L 74.645018 31.285714 
z
" style="fill:#1f77b4;fill-opacity:0.5;stroke:#000000;stroke-linejoin:miter;"/>
   </g>
   <g id="patch_8">
    <path clip-path="url(#p0afc644d9c)" d="M 105.508786 63.4 
L 136.372554 63.4 
L 136.372554 14.158095 
L 105.508786 14.158095 
z
" style="fill:#1f77b4;fill-opacity:0.5;stroke:#000000;stroke-linejoin:miter;"/>
   </g>
   <g id="patch_9">
    <path clip-path="url(#p0afc644d9c)" d="M 136.372554 63.4 
L 167.236321 63.4 
L 167.236321 9.87619 
L 136.372554 9.87619 
z
" style="fill:#1f77b4;fill-opacity:0.5;stroke:#000000;stroke-linejoin:miter;"/>
   </g>
   <g id="patch_10">
    <path clip-path="url(#p0afc644d9c)" d="M 167.236321 63.4 
L 198.100089 63.4 
L 198.100089 33.426667 
L 167.236321 33.426667 
z
" style="fill:#1f77b4;fill-opacity:0.5;stroke:#000000;stroke-linejoin:miter;"/>
   </g>
   <g id="patch_11">
    <path clip-path="url(#p0afc644d9c)" d="M 198.100089 63.4 
L 228.963857 63.4 
L 228.963857 41.990476 
L 198.100089 41.990476 
z
" style="fill:#1f77b4;fill-opacity:0.5;stroke:#000000;stroke-linejoin:miter;"/>
   </g>
   <g id="patch_12">
    <path clip-path="url(#p0afc644d9c)" d="M 228.963857 63.4 
L 259.827625 63.4 
L 259.827625 39.849524 
L 228.963857 39.849524 
z
" style="fill:#1f77b4;fill-opacity:0.5;stroke:#000000;stroke-linejoin:miter;"/>
   </g>
   <g id="patch_13">
    <path clip-path="url(#p0afc644d9c)" d="M 259.827625 63.4 
L 290.691393 63.4 
L 290.691393 56.977143 
L 259.827625 56.977143 
z
" style="fill:#1f77b4;fill-opacity:0.5;stroke:#000000;stroke-linejoin:miter;"/>
   </g>
   <g id="patch_14">
    <path clip-path="url(#p0afc644d9c)" d="M 290.691393 63.4 
L 321.555161 63.4 
L 321.555161 63.4 
L 290.691393 63.4 
z
" style="fill:#1f77b4;fill-opacity:0.5;stroke:#000000;stroke-linejoin:miter;"/>
   </g>
   <g id="patch_15">
    <path clip-path="url(#p0afc644d9c)" d="M 321.555161 63.4 
L 352.418929 63.4 
L 352.418929 61.259048 
L 321.555161 61.259048 
z
" style="fill:#1f77b4;fill-opacity:0.5;stroke:#000000;stroke-linejoin:miter;"/>
   </g>
   <g id="matplotlib.axis_3">
    <g id="xtick_6">
     <g id="line2d_13">
      <g>
       <use style="stroke:#000000;stroke-width:0.8;" x="64.594609" xlink:href="#m80b0c78158" y="63.4"/>
      </g>
     </g>
    </g>
    <g id="xtick_7">
     <g id="line2d_14">
      <g>
       <use style="stroke:#000000;stroke-width:0.8;" x="127.17923" xlink:href="#m80b0c78158" y="63.4"/>
      </g>
     </g>
    </g>
    <g id="xtick_8">
     <g id="line2d_15">
      <g>
       <use style="stroke:#000000;stroke-width:0.8;" x="189.763851" xlink:href="#m80b0c78158" y="63.4"/>
      </g>
     </g>
    </g>
    <g id="xtick_9">
     <g id="line2d_16">
      <g>
       <use style="stroke:#000000;stroke-width:0.8;" x="252.348473" xlink:href="#m80b0c78158" y="63.4"/>
      </g>
     </g>
    </g>
    <g id="xtick_10">
     <g id="line2d_17">
      <g>
       <use style="stroke:#000000;stroke-width:0.8;" x="314.933094" xlink:href="#m80b0c78158" y="63.4"/>
      </g>
     </g>
    </g>
   </g>
   <g id="matplotlib.axis_4">
    <g id="ytick_7"/>
    <g id="ytick_8"/>
   </g>
   <g id="line2d_18">
    <path clip-path="url(#p0afc644d9c)" d="M 43.78125 58.878226 
L 48.434079 57.704932 
L 53.086909 56.287178 
L 57.739738 54.584544 
L 62.392567 52.56063 
L 67.045397 50.190688 
L 71.698226 47.470042 
L 76.351055 44.421604 
L 81.003885 41.100455 
L 88.7586 35.207932 
L 96.513316 29.351776 
L 101.166145 26.099783 
L 105.818974 23.175597 
L 108.920861 21.445572 
L 112.022747 19.906835 
L 115.124633 18.564993 
L 118.226519 17.419585 
L 121.328405 16.465531 
L 124.430292 15.694915 
L 127.532178 15.098884 
L 130.634064 14.669416 
L 133.73595 14.400723 
L 136.837837 14.290124 
L 139.939723 14.338266 
L 143.041609 14.548664 
L 146.143495 14.926641 
L 149.245381 15.477782 
L 152.347268 16.206136 
L 155.449154 17.112369 
L 158.55104 18.192146 
L 163.203869 20.112292 
L 167.856699 22.333298 
L 174.060471 25.59222 
L 183.36613 30.521575 
L 188.018959 32.734573 
L 192.671788 34.646027 
L 195.773675 35.722004 
L 198.875561 36.629385 
L 201.977447 37.369118 
L 206.630276 38.18676 
L 211.283106 38.712969 
L 217.486878 39.128127 
L 226.792537 39.700564 
L 231.445366 40.207083 
L 236.098195 40.970296 
L 240.751025 42.027993 
L 245.403854 43.378286 
L 250.056683 44.983902 
L 256.260456 47.41016 
L 273.32083 54.352329 
L 279.524602 56.525198 
L 284.177432 57.941016 
L 288.830261 59.157036 
L 293.48309 60.170033 
L 298.13592 60.985116 
L 302.788749 61.613696 
L 308.992522 62.189774 
L 315.196294 62.509322 
L 322.95101 62.629022 
L 332.256668 62.513426 
L 350.867985 62.198068 
L 352.418929 62.196774 
L 352.418929 62.196774 
" style="fill:none;stroke:#1f77b4;stroke-linecap:square;stroke-width:1.5;"/>
   </g>
   <g id="patch_16">
    <path d="M 43.78125 63.4 
L 352.418929 63.4 
" style="fill:none;stroke:#000000;stroke-linecap:square;stroke-linejoin:miter;stroke-width:0.8;"/>
   </g>
  </g>
  <g id="axes_3">
   <g id="patch_17">
    <path d="M 363.061607 400.6 
L 416.275 400.6 
L 416.275 74.64 
L 363.061607 74.64 
z
" style="fill:#ffffff;"/>
   </g>
   <g id="patch_18">
    <path clip-path="url(#p53fa11042c)" d="M 363.061607 385.783636 
L 373.921483 385.783636 
L 373.921483 354.22848 
L 363.061607 354.22848 
z
" style="fill:#1f77b4;fill-opacity:0.5;stroke:#000000;stroke-linejoin:miter;"/>
   </g>
   <g id="patch_19">
    <path clip-path="url(#p53fa11042c)" d="M 363.061607 354.22848 
L 393.831256 354.22848 
L 393.831256 322.673324 
L 363.061607 322.673324 
z
" style="fill:#1f77b4;fill-opacity:0.5;stroke:#000000;stroke-linejoin:miter;"/>
   </g>
   <g id="patch_20">
    <path clip-path="url(#p53fa11042c)" d="M 363.061607 322.673324 
L 413.741029 322.673324 
L 413.741029 291.118168 
L 363.061607 291.118168 
z
" style="fill:#1f77b4;fill-opacity:0.5;stroke:#000000;stroke-linejoin:miter;"/>
   </g>
   <g id="patch_21">
    <path clip-path="url(#p53fa11042c)" d="M 363.061607 291.118168 
L 392.021277 291.118168 
L 392.021277 259.563012 
L 363.061607 259.563012 
z
" style="fill:#1f77b4;fill-opacity:0.5;stroke:#000000;stroke-linejoin:miter;"/>
   </g>
   <g id="patch_22">
    <path clip-path="url(#p53fa11042c)" d="M 363.061607 259.563012 
L 384.781359 259.563012 
L 384.781359 228.007855 
L 363.061607 228.007855 
z
" style="fill:#1f77b4;fill-opacity:0.5;stroke:#000000;stroke-linejoin:miter;"/>
   </g>
   <g id="patch_23">
    <path clip-path="url(#p53fa11042c)" d="M 363.061607 228.007855 
L 393.831256 228.007855 
L 393.831256 196.452699 
L 363.061607 196.452699 
z
" style="fill:#1f77b4;fill-opacity:0.5;stroke:#000000;stroke-linejoin:miter;"/>
   </g>
   <g id="patch_24">
    <path clip-path="url(#p53fa11042c)" d="M 363.061607 196.452699 
L 373.921483 196.452699 
L 373.921483 164.897543 
L 363.061607 164.897543 
z
" style="fill:#1f77b4;fill-opacity:0.5;stroke:#000000;stroke-linejoin:miter;"/>
   </g>
   <g id="patch_25">
    <path clip-path="url(#p53fa11042c)" d="M 363.061607 164.897543 
L 364.871586 164.897543 
L 364.871586 133.342387 
L 363.061607 133.342387 
z
" style="fill:#1f77b4;fill-opacity:0.5;stroke:#000000;stroke-linejoin:miter;"/>
   </g>
   <g id="patch_26">
    <path clip-path="url(#p53fa11042c)" d="M 363.061607 133.342387 
L 366.681566 133.342387 
L 366.681566 101.787231 
L 363.061607 101.787231 
z
" style="fill:#1f77b4;fill-opacity:0.5;stroke:#000000;stroke-linejoin:miter;"/>
   </g>
   <g id="matplotlib.axis_5">
    <g id="xtick_11"/>
    <g id="xtick_12"/>
   </g>
   <g id="matplotlib.axis_6">
    <g id="ytick_9">
     <g id="line2d_19">
      <g>
       <use style="stroke:#000000;stroke-width:0.8;" x="363.061607" xlink:href="#m15997629a0" y="352.587396"/>
      </g>
     </g>
    </g>
    <g id="ytick_10">
     <g id="line2d_20">
      <g>
       <use style="stroke:#000000;stroke-width:0.8;" x="363.061607" xlink:href="#m15997629a0" y="297.76749"/>
      </g>
     </g>
    </g>
    <g id="ytick_11">
     <g id="line2d_21">
      <g>
       <use style="stroke:#000000;stroke-width:0.8;" x="363.061607" xlink:href="#m15997629a0" y="242.947584"/>
      </g>
     </g>
    </g>
    <g id="ytick_12">
     <g id="line2d_22">
      <g>
       <use style="stroke:#000000;stroke-width:0.8;" x="363.061607" xlink:href="#m15997629a0" y="188.127677"/>
      </g>
     </g>
    </g>
    <g id="ytick_13">
     <g id="line2d_23">
      <g>
       <use style="stroke:#000000;stroke-width:0.8;" x="363.061607" xlink:href="#m15997629a0" y="133.307771"/>
      </g>
     </g>
    </g>
    <g id="ytick_14">
     <g id="line2d_24">
      <g>
       <use style="stroke:#000000;stroke-width:0.8;" x="363.061607" xlink:href="#m15997629a0" y="78.487865"/>
      </g>
     </g>
    </g>
   </g>
   <g id="line2d_25">
    <path clip-path="url(#p53fa11042c)" d="M 368.497259 385.783636 
L 369.805585 380.075166 
L 371.340188 374.366695 
L 372.696052 370.085343 
L 374.279993 365.80399 
L 376.137292 361.522637 
L 378.301378 357.241284 
L 380.784203 352.959931 
L 383.568446 348.678578 
L 386.603151 344.397225 
L 393.057367 335.83452 
L 397.246072 330.126049 
L 400.092899 325.844696 
L 401.775753 322.990461 
L 403.245928 320.136226 
L 404.474843 317.281991 
L 405.440824 314.427756 
L 406.12999 311.57352 
L 406.536802 308.719285 
L 406.664237 305.86505 
L 406.523577 303.010815 
L 406.133802 300.156579 
L 405.520643 297.302344 
L 404.715314 294.448109 
L 403.224725 290.166756 
L 400.908611 284.458286 
L 396.752778 274.468462 
L 395.179468 270.187109 
L 393.817107 265.905757 
L 392.688471 261.624404 
L 391.790559 257.343051 
L 391.098421 253.061698 
L 390.421676 247.353228 
L 389.424623 235.936287 
L 388.684385 228.800698 
L 387.889485 223.092228 
L 386.878603 217.383758 
L 385.656145 211.675287 
L 383.869726 204.539699 
L 381.855004 197.404111 
L 378.769717 187.414288 
L 372.939042 168.861759 
L 370.994985 161.726171 
L 369.663433 156.0177 
L 368.551587 150.30923 
L 367.652552 144.600759 
L 366.787869 137.465171 
L 366.146308 130.329583 
L 365.496711 120.33976 
L 364.824468 106.068583 
L 364.644968 101.787231 
L 364.644968 101.787231 
" style="fill:none;stroke:#1f77b4;stroke-linecap:square;stroke-width:1.5;"/>
   </g>
   <g id="patch_27">
    <path d="M 363.061607 400.6 
L 363.061607 74.64 
" style="fill:none;stroke:#000000;stroke-linecap:square;stroke-linejoin:miter;stroke-width:0.8;"/>
   </g>
  </g>
 </g>
 <defs>
  <clipPath id="p359f76ea49">
   <rect height="325.96" width="308.637679" x="43.78125" y="74.64"/>
  </clipPath>
  <clipPath id="p0afc644d9c">
   <rect height="56.2" width="308.637679" x="43.78125" y="7.2"/>
  </clipPath>
  <clipPath id="p53fa11042c">
   <rect height="325.96" width="53.213393" x="363.061607" y="74.64"/>
  </clipPath>
 </defs>
</svg>
