<?xml version="1.0" encoding="utf-8" standalone="no"?>
<!DOCTYPE svg PUBLIC "-//W3C//DTD SVG 1.1//EN"
  "http://www.w3.org/Graphics/SVG/1.1/DTD/svg11.dtd">
<!-- Created with matplotlib (https://matplotlib.org/) -->
<svg height="438.15625pt" version="1.1" viewBox="0 0 423.475 438.15625" width="423.475pt" xmlns="http://www.w3.org/2000/svg" xmlns:xlink="http://www.w3.org/1999/xlink">
 <metadata>
  <rdf:RDF xmlns:cc="http://creativecommons.org/ns#" xmlns:dc="http://purl.org/dc/elements/1.1/" xmlns:rdf="http://www.w3.org/1999/02/22-rdf-syntax-ns#">
   <cc:Work>
    <dc:type rdf:resource="http://purl.org/dc/dcmitype/StillImage"/>
    <dc:date>2021-01-06T16:38:57.268858</dc:date>
    <dc:format>image/svg+xml</dc:format>
    <dc:creator>
     <cc:Agent>
      <dc:title>Matplotlib v3.3.2, https://matplotlib.org/</dc:title>
     </cc:Agent>
    </dc:creator>
   </cc:Work>
  </rdf:RDF>
 </metadata>
 <defs>
  <style type="text/css">*{stroke-linecap:butt;stroke-linejoin:round;}</style>
 </defs>
 <g id="figure_1">
  <g id="patch_1">
   <path d="M 0 438.15625 
L 423.475 438.15625 
L 423.475 0 
L 0 0 
z
" style="fill:none;"/>
  </g>
  <g id="axes_1">
   <g id="patch_2">
    <path d="M 43.78125 400.6 
L 352.418929 400.6 
L 352.418929 74.64 
L 43.78125 74.64 
z
" style="fill:#ffffff;"/>
   </g>
   <g id="PathCollection_1">
    <defs>
     <path d="M 0 3 
C 0.795609 3 1.55874 2.683901 2.12132 2.12132 
C 2.683901 1.55874 3 0.795609 3 0 
C 3 -0.795609 2.683901 -1.55874 2.12132 -2.12132 
C 1.55874 -2.683901 0.795609 -3 0 -3 
C -0.795609 -3 -1.55874 -2.683901 -2.12132 -2.12132 
C -2.683901 -1.55874 -3 -0.795609 -3 0 
C -3 0.795609 -2.683901 1.55874 -2.12132 2.12132 
C -1.55874 2.683901 -0.795609 3 0 3 
z
" id="m00695b7675" style="stroke:#1f77b4;stroke-opacity:0.8;"/>
    </defs>
    <g clip-path="url(#pe4c030170c)">
     <use style="fill:#1f77b4;fill-opacity:0.8;stroke:#1f77b4;stroke-opacity:0.8;" x="134.405428" xlink:href="#m00695b7675" y="287.595019"/>
     <use style="fill:#1f77b4;fill-opacity:0.8;stroke:#1f77b4;stroke-opacity:0.8;" x="172.000953" xlink:href="#m00695b7675" y="236.589633"/>
     <use style="fill:#1f77b4;fill-opacity:0.8;stroke:#1f77b4;stroke-opacity:0.8;" x="134.359737" xlink:href="#m00695b7675" y="309.639306"/>
     <use style="fill:#1f77b4;fill-opacity:0.8;stroke:#1f77b4;stroke-opacity:0.8;" x="128.33051" xlink:href="#m00695b7675" y="329.667885"/>
     <use style="fill:#1f77b4;fill-opacity:0.8;stroke:#1f77b4;stroke-opacity:0.8;" x="71.198061" xlink:href="#m00695b7675" y="329.667885"/>
     <use style="fill:#1f77b4;fill-opacity:0.8;stroke:#1f77b4;stroke-opacity:0.8;" x="144.901261" xlink:href="#m00695b7675" y="221.920803"/>
     <use style="fill:#1f77b4;fill-opacity:0.8;stroke:#1f77b4;stroke-opacity:0.8;" x="110.057521" xlink:href="#m00695b7675" y="315.918332"/>
     <use style="fill:#1f77b4;fill-opacity:0.8;stroke:#1f77b4;stroke-opacity:0.8;" x="179.911312" xlink:href="#m00695b7675" y="261.102632"/>
     <use style="fill:#1f77b4;fill-opacity:0.8;stroke:#1f77b4;stroke-opacity:0.8;" x="92.126508" xlink:href="#m00695b7675" y="345.387949"/>
     <use style="fill:#1f77b4;fill-opacity:0.8;stroke:#1f77b4;stroke-opacity:0.8;" x="312.790232" xlink:href="#m00695b7675" y="186.93769"/>
     <use style="fill:#1f77b4;fill-opacity:0.8;stroke:#1f77b4;stroke-opacity:0.8;" x="134.696158" xlink:href="#m00695b7675" y="287.595019"/>
     <use style="fill:#1f77b4;fill-opacity:0.8;stroke:#1f77b4;stroke-opacity:0.8;" x="272.390826" xlink:href="#m00695b7675" y="160.445303"/>
     <use style="fill:#1f77b4;fill-opacity:0.8;stroke:#1f77b4;stroke-opacity:0.8;" x="163.86534" xlink:href="#m00695b7675" y="322.578132"/>
     <use style="fill:#1f77b4;fill-opacity:0.8;stroke:#1f77b4;stroke-opacity:0.8;" x="195.43617" xlink:href="#m00695b7675" y="236.589633"/>
     <use style="fill:#1f77b4;fill-opacity:0.8;stroke:#1f77b4;stroke-opacity:0.8;" x="256.898815" xlink:href="#m00695b7675" y="177.379225"/>
     <use style="fill:#1f77b4;fill-opacity:0.8;stroke:#1f77b4;stroke-opacity:0.8;" x="77.955296" xlink:href="#m00695b7675" y="354.180884"/>
     <use style="fill:#1f77b4;fill-opacity:0.8;stroke:#1f77b4;stroke-opacity:0.8;" x="87.611278" xlink:href="#m00695b7675" y="354.180884"/>
     <use style="fill:#1f77b4;fill-opacity:0.8;stroke:#1f77b4;stroke-opacity:0.8;" x="223.00971" xlink:href="#m00695b7675" y="221.920803"/>
     <use style="fill:#1f77b4;fill-opacity:0.8;stroke:#1f77b4;stroke-opacity:0.8;" x="120.830964" xlink:href="#m00695b7675" y="303.699857"/>
     <use style="fill:#1f77b4;fill-opacity:0.8;stroke:#1f77b4;stroke-opacity:0.8;" x="169.938239" xlink:href="#m00695b7675" y="253.523555"/>
     <use style="fill:#1f77b4;fill-opacity:0.8;stroke:#1f77b4;stroke-opacity:0.8;" x="236.785183" xlink:href="#m00695b7675" y="208.981977"/>
     <use style="fill:#1f77b4;fill-opacity:0.8;stroke:#1f77b4;stroke-opacity:0.8;" x="195.386126" xlink:href="#m00695b7675" y="227.555527"/>
     <use style="fill:#1f77b4;fill-opacity:0.8;stroke:#1f77b4;stroke-opacity:0.8;" x="64.538198" xlink:href="#m00695b7675" y="363.739349"/>
     <use style="fill:#1f77b4;fill-opacity:0.8;stroke:#1f77b4;stroke-opacity:0.8;" x="305.074895" xlink:href="#m00695b7675" y="177.379225"/>
     <use style="fill:#1f77b4;fill-opacity:0.8;stroke:#1f77b4;stroke-opacity:0.8;" x="102.1675" xlink:href="#m00695b7675" y="374.209463"/>
     <use style="fill:#1f77b4;fill-opacity:0.8;stroke:#1f77b4;stroke-opacity:0.8;" x="185.796537" xlink:href="#m00695b7675" y="253.523555"/>
     <use style="fill:#1f77b4;fill-opacity:0.8;stroke:#1f77b4;stroke-opacity:0.8;" x="136.904707" xlink:href="#m00695b7675" y="315.918332"/>
     <use style="fill:#1f77b4;fill-opacity:0.8;stroke:#1f77b4;stroke-opacity:0.8;" x="101.788308" xlink:href="#m00695b7675" y="354.180884"/>
     <use style="fill:#1f77b4;fill-opacity:0.8;stroke:#1f77b4;stroke-opacity:0.8;" x="262.291994" xlink:href="#m00695b7675" y="101.234895"/>
     <use style="fill:#1f77b4;fill-opacity:0.8;stroke:#1f77b4;stroke-opacity:0.8;" x="70.017642" xlink:href="#m00695b7675" y="227.555527"/>
     <use style="fill:#1f77b4;fill-opacity:0.8;stroke:#1f77b4;stroke-opacity:0.8;" x="43.78125" xlink:href="#m00695b7675" y="385.783636"/>
     <use style="fill:#1f77b4;fill-opacity:0.8;stroke:#1f77b4;stroke-opacity:0.8;" x="238.044962" xlink:href="#m00695b7675" y="197.407804"/>
     <use style="fill:#1f77b4;fill-opacity:0.8;stroke:#1f77b4;stroke-opacity:0.8;" x="155.540134" xlink:href="#m00695b7675" y="261.102632"/>
     <use style="fill:#1f77b4;fill-opacity:0.8;stroke:#1f77b4;stroke-opacity:0.8;" x="65.870582" xlink:href="#m00695b7675" y="329.667885"/>
     <use style="fill:#1f77b4;fill-opacity:0.8;stroke:#1f77b4;stroke-opacity:0.8;" x="108.502781" xlink:href="#m00695b7675" y="322.578132"/>
     <use style="fill:#1f77b4;fill-opacity:0.8;stroke:#1f77b4;stroke-opacity:0.8;" x="182.792947" xlink:href="#m00695b7675" y="253.523555"/>
     <use style="fill:#1f77b4;fill-opacity:0.8;stroke:#1f77b4;stroke-opacity:0.8;" x="95.702141" xlink:href="#m00695b7675" y="298.065133"/>
     <use style="fill:#1f77b4;fill-opacity:0.8;stroke:#1f77b4;stroke-opacity:0.8;" x="119.670853" xlink:href="#m00695b7675" y="309.639306"/>
     <use style="fill:#1f77b4;fill-opacity:0.8;stroke:#1f77b4;stroke-opacity:0.8;" x="74.790077" xlink:href="#m00695b7675" y="345.387949"/>
     <use style="fill:#1f77b4;fill-opacity:0.8;stroke:#1f77b4;stroke-opacity:0.8;" x="113.766695" xlink:href="#m00695b7675" y="282.711857"/>
     <use style="fill:#1f77b4;fill-opacity:0.8;stroke:#1f77b4;stroke-opacity:0.8;" x="150.669799" xlink:href="#m00695b7675" y="261.102632"/>
     <use style="fill:#1f77b4;fill-opacity:0.8;stroke:#1f77b4;stroke-opacity:0.8;" x="103.852256" xlink:href="#m00695b7675" y="298.065133"/>
     <use style="fill:#1f77b4;fill-opacity:0.8;stroke:#1f77b4;stroke-opacity:0.8;" x="210.21506" xlink:href="#m00695b7675" y="208.981977"/>
     <use style="fill:#1f77b4;fill-opacity:0.8;stroke:#1f77b4;stroke-opacity:0.8;" x="82.586935" xlink:href="#m00695b7675" y="354.180884"/>
     <use style="fill:#1f77b4;fill-opacity:0.8;stroke:#1f77b4;stroke-opacity:0.8;" x="143.852441" xlink:href="#m00695b7675" y="287.595019"/>
     <use style="fill:#1f77b4;fill-opacity:0.8;stroke:#1f77b4;stroke-opacity:0.8;" x="104.413004" xlink:href="#m00695b7675" y="329.667885"/>
     <use style="fill:#1f77b4;fill-opacity:0.8;stroke:#1f77b4;stroke-opacity:0.8;" x="192.808195" xlink:href="#m00695b7675" y="236.589633"/>
     <use style="fill:#1f77b4;fill-opacity:0.8;stroke:#1f77b4;stroke-opacity:0.8;" x="311.43943" xlink:href="#m00695b7675" y="145.776473"/>
     <use style="fill:#1f77b4;fill-opacity:0.8;stroke:#1f77b4;stroke-opacity:0.8;" x="187.958726" xlink:href="#m00695b7675" y="221.920803"/>
     <use style="fill:#1f77b4;fill-opacity:0.8;stroke:#1f77b4;stroke-opacity:0.8;" x="55.541047" xlink:href="#m00695b7675" y="354.180884"/>
     <use style="fill:#1f77b4;fill-opacity:0.8;stroke:#1f77b4;stroke-opacity:0.8;" x="205.777504" xlink:href="#m00695b7675" y="197.407804"/>
     <use style="fill:#1f77b4;fill-opacity:0.8;stroke:#1f77b4;stroke-opacity:0.8;" x="113.44006" xlink:href="#m00695b7675" y="273.552134"/>
     <use style="fill:#1f77b4;fill-opacity:0.8;stroke:#1f77b4;stroke-opacity:0.8;" x="150.399598" xlink:href="#m00695b7675" y="246.433802"/>
     <use style="fill:#1f77b4;fill-opacity:0.8;stroke:#1f77b4;stroke-opacity:0.8;" x="77.557191" xlink:href="#m00695b7675" y="368.849714"/>
     <use style="fill:#1f77b4;fill-opacity:0.8;stroke:#1f77b4;stroke-opacity:0.8;" x="103.49437" xlink:href="#m00695b7675" y="309.639306"/>
     <use style="fill:#1f77b4;fill-opacity:0.8;stroke:#1f77b4;stroke-opacity:0.8;" x="352.418929" xlink:href="#m00695b7675" y="101.234895"/>
     <use style="fill:#1f77b4;fill-opacity:0.8;stroke:#1f77b4;stroke-opacity:0.8;" x="136.172831" xlink:href="#m00695b7675" y="273.552134"/>
     <use style="fill:#1f77b4;fill-opacity:0.8;stroke:#1f77b4;stroke-opacity:0.8;" x="120.714618" xlink:href="#m00695b7675" y="309.639306"/>
     <use style="fill:#1f77b4;fill-opacity:0.8;stroke:#1f77b4;stroke-opacity:0.8;" x="219.0223" xlink:href="#m00695b7675" y="221.920803"/>
     <use style="fill:#1f77b4;fill-opacity:0.8;stroke:#1f77b4;stroke-opacity:0.8;" x="144.885649" xlink:href="#m00695b7675" y="273.552134"/>
     <use style="fill:#1f77b4;fill-opacity:0.8;stroke:#1f77b4;stroke-opacity:0.8;" x="274.762371" xlink:href="#m00695b7675" y="177.379225"/>
     <use style="fill:#1f77b4;fill-opacity:0.8;stroke:#1f77b4;stroke-opacity:0.8;" x="214.733001" xlink:href="#m00695b7675" y="221.920803"/>
     <use style="fill:#1f77b4;fill-opacity:0.8;stroke:#1f77b4;stroke-opacity:0.8;" x="130.4531" xlink:href="#m00695b7675" y="298.065133"/>
     <use style="fill:#1f77b4;fill-opacity:0.8;stroke:#1f77b4;stroke-opacity:0.8;" x="120.009579" xlink:href="#m00695b7675" y="261.102632"/>
     <use style="fill:#1f77b4;fill-opacity:0.8;stroke:#1f77b4;stroke-opacity:0.8;" x="333.305907" xlink:href="#m00695b7675" y="110.79336"/>
     <use style="fill:#1f77b4;fill-opacity:0.8;stroke:#1f77b4;stroke-opacity:0.8;" x="245.353577" xlink:href="#m00695b7675" y="221.920803"/>
     <use style="fill:#1f77b4;fill-opacity:0.8;stroke:#1f77b4;stroke-opacity:0.8;" x="133.339439" xlink:href="#m00695b7675" y="287.595019"/>
     <use style="fill:#1f77b4;fill-opacity:0.8;stroke:#1f77b4;stroke-opacity:0.8;" x="258.654607" xlink:href="#m00695b7675" y="177.379225"/>
     <use style="fill:#1f77b4;fill-opacity:0.8;stroke:#1f77b4;stroke-opacity:0.8;" x="245.121744" xlink:href="#m00695b7675" y="201.892224"/>
     <use style="fill:#1f77b4;fill-opacity:0.8;stroke:#1f77b4;stroke-opacity:0.8;" x="293.813665" xlink:href="#m00695b7675" y="157.350646"/>
     <use style="fill:#1f77b4;fill-opacity:0.8;stroke:#1f77b4;stroke-opacity:0.8;" x="330.549978" xlink:href="#m00695b7675" y="101.234895"/>
     <use style="fill:#1f77b4;fill-opacity:0.8;stroke:#1f77b4;stroke-opacity:0.8;" x="190.007215" xlink:href="#m00695b7675" y="236.589633"/>
     <use style="fill:#1f77b4;fill-opacity:0.8;stroke:#1f77b4;stroke-opacity:0.8;" x="212.895095" xlink:href="#m00695b7675" y="261.102632"/>
     <use style="fill:#1f77b4;fill-opacity:0.8;stroke:#1f77b4;stroke-opacity:0.8;" x="101.509924" xlink:href="#m00695b7675" y="315.918332"/>
     <use style="fill:#1f77b4;fill-opacity:0.8;stroke:#1f77b4;stroke-opacity:0.8;" x="185.682301" xlink:href="#m00695b7675" y="253.523555"/>
     <use style="fill:#1f77b4;fill-opacity:0.8;stroke:#1f77b4;stroke-opacity:0.8;" x="282.697907" xlink:href="#m00695b7675" y="221.920803"/>
     <use style="fill:#1f77b4;fill-opacity:0.8;stroke:#1f77b4;stroke-opacity:0.8;" x="289.38307" xlink:href="#m00695b7675" y="160.445303"/>
     <use style="fill:#1f77b4;fill-opacity:0.8;stroke:#1f77b4;stroke-opacity:0.8;" x="166.004111" xlink:href="#m00695b7675" y="197.407804"/>
     <use style="fill:#1f77b4;fill-opacity:0.8;stroke:#1f77b4;stroke-opacity:0.8;" x="116.110909" xlink:href="#m00695b7675" y="298.065133"/>
     <use style="fill:#1f77b4;fill-opacity:0.8;stroke:#1f77b4;stroke-opacity:0.8;" x="163.608673" xlink:href="#m00695b7675" y="253.523555"/>
     <use style="fill:#1f77b4;fill-opacity:0.8;stroke:#1f77b4;stroke-opacity:0.8;" x="129.745874" xlink:href="#m00695b7675" y="329.667885"/>
     <use style="fill:#1f77b4;fill-opacity:0.8;stroke:#1f77b4;stroke-opacity:0.8;" x="126.600731" xlink:href="#m00695b7675" y="273.552134"/>
    </g>
   </g>
   <g id="PolyCollection_1">
    <path clip-path="url(#pe4c030170c)" d="M 43.78125 350.050231 
L 43.78125 376.707423 
L 46.898802 373.847072 
L 50.016355 371.029053 
L 53.133907 368.292314 
L 56.251459 365.544545 
L 59.369012 362.73294 
L 62.486564 359.920451 
L 65.604116 357.107415 
L 68.721668 354.29438 
L 71.839221 351.481345 
L 74.956773 348.667455 
L 78.074325 345.851479 
L 81.191878 343.029769 
L 84.30943 340.224648 
L 87.426982 337.386305 
L 90.544535 334.450298 
L 93.662087 331.58667 
L 96.779639 328.83341 
L 99.897192 326.034703 
L 103.014744 323.289024 
L 106.132296 320.47652 
L 109.249848 317.713506 
L 112.367401 315.035315 
L 115.484953 312.241271 
L 118.602505 309.301591 
L 121.720058 306.462911 
L 124.83761 303.649829 
L 127.955162 300.978599 
L 131.072715 298.151713 
L 134.190267 295.514697 
L 137.307819 292.693615 
L 140.425372 289.901446 
L 143.542924 287.245865 
L 146.660476 284.612914 
L 149.778028 282.061622 
L 152.895581 279.456107 
L 156.013133 276.742499 
L 159.130685 274.168038 
L 162.248238 271.523019 
L 165.36579 268.938781 
L 168.483342 266.248121 
L 171.600895 263.886947 
L 174.718447 261.317176 
L 177.835999 258.743459 
L 180.953552 256.141474 
L 184.071104 253.421498 
L 187.188656 250.809523 
L 190.306209 248.173342 
L 193.423761 245.889693 
L 196.541313 243.317555 
L 199.658865 240.863872 
L 202.776418 238.214615 
L 205.89397 235.615182 
L 209.011522 233.232743 
L 212.129075 230.997906 
L 215.246627 228.587182 
L 218.364179 226.103531 
L 221.481732 223.696038 
L 224.599284 221.194569 
L 227.716836 218.712038 
L 230.834389 216.342412 
L 233.951941 213.948287 
L 237.069493 211.545075 
L 240.187045 209.258558 
L 243.304598 206.890051 
L 246.42215 204.553321 
L 249.539702 201.996678 
L 252.657255 199.400342 
L 255.774807 196.990121 
L 258.892359 194.579901 
L 262.009912 192.169425 
L 265.127464 189.875605 
L 268.245016 187.397227 
L 271.362569 184.937391 
L 274.480121 182.538041 
L 277.597673 180.117687 
L 280.715225 177.773913 
L 283.832778 175.350473 
L 286.95033 172.909146 
L 290.067882 170.630386 
L 293.185435 168.19948 
L 296.302987 165.92395 
L 299.420539 163.619094 
L 302.538092 161.253559 
L 305.655644 158.794127 
L 308.773196 156.329626 
L 311.890749 154.015195 
L 315.008301 151.710959 
L 318.125853 149.338239 
L 321.243405 146.869923 
L 324.360958 144.618871 
L 327.47851 142.335111 
L 330.596062 139.973133 
L 333.713615 137.609717 
L 336.831167 135.244916 
L 339.948719 132.880116 
L 343.066272 130.515315 
L 346.183824 128.150515 
L 349.301376 125.785714 
L 352.418929 123.420914 
L 352.418929 89.456364 
L 352.418929 89.456364 
L 349.301376 92.338024 
L 346.183824 95.219685 
L 343.066272 98.101346 
L 339.948719 100.983007 
L 336.831167 103.864668 
L 333.713615 106.746328 
L 330.596062 109.627989 
L 327.47851 112.422055 
L 324.360958 115.312041 
L 321.243405 118.212166 
L 318.125853 121.075739 
L 315.008301 123.895442 
L 311.890749 126.799043 
L 308.773196 129.729852 
L 305.655644 132.589747 
L 302.538092 135.430287 
L 299.420539 138.270826 
L 296.302987 141.111366 
L 293.185435 143.95359 
L 290.067882 146.707571 
L 286.95033 149.595374 
L 283.832778 152.421476 
L 280.715225 155.236554 
L 277.597673 158.096091 
L 274.480121 161.002303 
L 271.362569 163.788033 
L 268.245016 166.556502 
L 265.127464 169.33766 
L 262.009912 172.037001 
L 258.892359 174.825814 
L 255.774807 177.564447 
L 252.657255 180.25525 
L 249.539702 183.045538 
L 246.42215 185.786089 
L 243.304598 188.526641 
L 240.187045 191.319084 
L 237.069493 194.216786 
L 233.951941 196.975027 
L 230.834389 199.732113 
L 227.716836 202.4892 
L 224.599284 205.246286 
L 221.481732 208.004025 
L 218.364179 210.814475 
L 215.246627 213.645119 
L 212.129075 216.497113 
L 209.011522 219.227615 
L 205.89397 221.878853 
L 202.776418 224.643669 
L 199.658865 227.333429 
L 196.541313 230.067272 
L 193.423761 232.837764 
L 190.306209 235.579086 
L 187.188656 238.094497 
L 184.071104 240.633672 
L 180.953552 243.224935 
L 177.835999 245.840691 
L 174.718447 248.767544 
L 171.600895 251.124921 
L 168.483342 253.877182 
L 165.36579 256.426401 
L 162.248238 258.975009 
L 159.130685 261.527778 
L 156.013133 264.079873 
L 152.895581 266.632198 
L 149.778028 269.106444 
L 146.660476 271.724794 
L 143.542924 274.315271 
L 140.425372 276.838871 
L 137.307819 279.389753 
L 134.190267 281.745337 
L 131.072715 284.074081 
L 127.955162 286.370875 
L 124.83761 288.734814 
L 121.720058 291.105473 
L 118.602505 293.438668 
L 115.484953 295.875202 
L 112.367401 298.27679 
L 109.249848 300.60406 
L 106.132296 303.01783 
L 103.014744 305.490188 
L 99.897192 307.871953 
L 96.779639 310.288512 
L 93.662087 312.71254 
L 90.544535 315.129307 
L 87.426982 317.485798 
L 84.30943 319.846416 
L 81.191878 322.202661 
L 78.074325 324.500866 
L 74.956773 326.901121 
L 71.839221 329.125891 
L 68.721668 331.30889 
L 65.604116 333.533841 
L 62.486564 335.79076 
L 59.369012 338.047776 
L 56.251459 340.361699 
L 53.133907 342.797181 
L 50.016355 345.232773 
L 46.898802 347.668365 
L 43.78125 350.050231 
z
" style="fill:#1f77b4;fill-opacity:0.15;"/>
   </g>
   <g id="matplotlib.axis_1">
    <g id="xtick_1">
     <g id="line2d_1">
      <defs>
       <path d="M 0 0 
L 0 3.5 
" id="m5e2c35a16e" style="stroke:#000000;stroke-width:0.8;"/>
      </defs>
      <g>
       <use style="stroke:#000000;stroke-width:0.8;" x="62.872575" xlink:href="#m5e2c35a16e" y="400.6"/>
      </g>
     </g>
     <g id="text_1">
      <!-- 2.5 -->
      <g transform="translate(54.921012 415.198437)scale(0.1 -0.1)">
       <defs>
        <path d="M 19.1875 8.296875 
L 53.609375 8.296875 
L 53.609375 0 
L 7.328125 0 
L 7.328125 8.296875 
Q 12.9375 14.109375 22.625 23.890625 
Q 32.328125 33.6875 34.8125 36.53125 
Q 39.546875 41.84375 41.421875 45.53125 
Q 43.3125 49.21875 43.3125 52.78125 
Q 43.3125 58.59375 39.234375 62.25 
Q 35.15625 65.921875 28.609375 65.921875 
Q 23.96875 65.921875 18.8125 64.3125 
Q 13.671875 62.703125 7.8125 59.421875 
L 7.8125 69.390625 
Q 13.765625 71.78125 18.9375 73 
Q 24.125 74.21875 28.421875 74.21875 
Q 39.75 74.21875 46.484375 68.546875 
Q 53.21875 62.890625 53.21875 53.421875 
Q 53.21875 48.921875 51.53125 44.890625 
Q 49.859375 40.875 45.40625 35.40625 
Q 44.1875 33.984375 37.640625 27.21875 
Q 31.109375 20.453125 19.1875 8.296875 
z
" id="DejaVuSans-50"/>
        <path d="M 10.6875 12.40625 
L 21 12.40625 
L 21 0 
L 10.6875 0 
z
" id="DejaVuSans-46"/>
        <path d="M 10.796875 72.90625 
L 49.515625 72.90625 
L 49.515625 64.59375 
L 19.828125 64.59375 
L 19.828125 46.734375 
Q 21.96875 47.46875 24.109375 47.828125 
Q 26.265625 48.1875 28.421875 48.1875 
Q 40.625 48.1875 47.75 41.5 
Q 54.890625 34.8125 54.890625 23.390625 
Q 54.890625 11.625 47.5625 5.09375 
Q 40.234375 -1.421875 26.90625 -1.421875 
Q 22.3125 -1.421875 17.546875 -0.640625 
Q 12.796875 0.140625 7.71875 1.703125 
L 7.71875 11.625 
Q 12.109375 9.234375 16.796875 8.0625 
Q 21.484375 6.890625 26.703125 6.890625 
Q 35.15625 6.890625 40.078125 11.328125 
Q 45.015625 15.765625 45.015625 23.390625 
Q 45.015625 31 40.078125 35.4375 
Q 35.15625 39.890625 26.703125 39.890625 
Q 22.75 39.890625 18.8125 39.015625 
Q 14.890625 38.140625 10.796875 36.28125 
z
" id="DejaVuSans-53"/>
       </defs>
       <use xlink:href="#DejaVuSans-50"/>
       <use x="63.623047" xlink:href="#DejaVuSans-46"/>
       <use x="95.410156" xlink:href="#DejaVuSans-53"/>
      </g>
     </g>
    </g>
    <g id="xtick_2">
     <g id="line2d_2">
      <g>
       <use style="stroke:#000000;stroke-width:0.8;" x="125.10828" xlink:href="#m5e2c35a16e" y="400.6"/>
      </g>
     </g>
     <g id="text_2">
      <!-- 3.0 -->
      <g transform="translate(117.156718 415.198437)scale(0.1 -0.1)">
       <defs>
        <path d="M 40.578125 39.3125 
Q 47.65625 37.796875 51.625 33 
Q 55.609375 28.21875 55.609375 21.1875 
Q 55.609375 10.40625 48.1875 4.484375 
Q 40.765625 -1.421875 27.09375 -1.421875 
Q 22.515625 -1.421875 17.65625 -0.515625 
Q 12.796875 0.390625 7.625 2.203125 
L 7.625 11.71875 
Q 11.71875 9.328125 16.59375 8.109375 
Q 21.484375 6.890625 26.8125 6.890625 
Q 36.078125 6.890625 40.9375 10.546875 
Q 45.796875 14.203125 45.796875 21.1875 
Q 45.796875 27.640625 41.28125 31.265625 
Q 36.765625 34.90625 28.71875 34.90625 
L 20.21875 34.90625 
L 20.21875 43.015625 
L 29.109375 43.015625 
Q 36.375 43.015625 40.234375 45.921875 
Q 44.09375 48.828125 44.09375 54.296875 
Q 44.09375 59.90625 40.109375 62.90625 
Q 36.140625 65.921875 28.71875 65.921875 
Q 24.65625 65.921875 20.015625 65.03125 
Q 15.375 64.15625 9.8125 62.3125 
L 9.8125 71.09375 
Q 15.4375 72.65625 20.34375 73.4375 
Q 25.25 74.21875 29.59375 74.21875 
Q 40.828125 74.21875 47.359375 69.109375 
Q 53.90625 64.015625 53.90625 55.328125 
Q 53.90625 49.265625 50.4375 45.09375 
Q 46.96875 40.921875 40.578125 39.3125 
z
" id="DejaVuSans-51"/>
        <path d="M 31.78125 66.40625 
Q 24.171875 66.40625 20.328125 58.90625 
Q 16.5 51.421875 16.5 36.375 
Q 16.5 21.390625 20.328125 13.890625 
Q 24.171875 6.390625 31.78125 6.390625 
Q 39.453125 6.390625 43.28125 13.890625 
Q 47.125 21.390625 47.125 36.375 
Q 47.125 51.421875 43.28125 58.90625 
Q 39.453125 66.40625 31.78125 66.40625 
z
M 31.78125 74.21875 
Q 44.046875 74.21875 50.515625 64.515625 
Q 56.984375 54.828125 56.984375 36.375 
Q 56.984375 17.96875 50.515625 8.265625 
Q 44.046875 -1.421875 31.78125 -1.421875 
Q 19.53125 -1.421875 13.0625 8.265625 
Q 6.59375 17.96875 6.59375 36.375 
Q 6.59375 54.828125 13.0625 64.515625 
Q 19.53125 74.21875 31.78125 74.21875 
z
" id="DejaVuSans-48"/>
       </defs>
       <use xlink:href="#DejaVuSans-51"/>
       <use x="63.623047" xlink:href="#DejaVuSans-46"/>
       <use x="95.410156" xlink:href="#DejaVuSans-48"/>
      </g>
     </g>
    </g>
    <g id="xtick_3">
     <g id="line2d_3">
      <g>
       <use style="stroke:#000000;stroke-width:0.8;" x="187.343985" xlink:href="#m5e2c35a16e" y="400.6"/>
      </g>
     </g>
     <g id="text_3">
      <!-- 3.5 -->
      <g transform="translate(179.392423 415.198437)scale(0.1 -0.1)">
       <use xlink:href="#DejaVuSans-51"/>
       <use x="63.623047" xlink:href="#DejaVuSans-46"/>
       <use x="95.410156" xlink:href="#DejaVuSans-53"/>
      </g>
     </g>
    </g>
    <g id="xtick_4">
     <g id="line2d_4">
      <g>
       <use style="stroke:#000000;stroke-width:0.8;" x="249.579691" xlink:href="#m5e2c35a16e" y="400.6"/>
      </g>
     </g>
     <g id="text_4">
      <!-- 4.0 -->
      <g transform="translate(241.628128 415.198437)scale(0.1 -0.1)">
       <defs>
        <path d="M 37.796875 64.3125 
L 12.890625 25.390625 
L 37.796875 25.390625 
z
M 35.203125 72.90625 
L 47.609375 72.90625 
L 47.609375 25.390625 
L 58.015625 25.390625 
L 58.015625 17.1875 
L 47.609375 17.1875 
L 47.609375 0 
L 37.796875 0 
L 37.796875 17.1875 
L 4.890625 17.1875 
L 4.890625 26.703125 
z
" id="DejaVuSans-52"/>
       </defs>
       <use xlink:href="#DejaVuSans-52"/>
       <use x="63.623047" xlink:href="#DejaVuSans-46"/>
       <use x="95.410156" xlink:href="#DejaVuSans-48"/>
      </g>
     </g>
    </g>
    <g id="xtick_5">
     <g id="line2d_5">
      <g>
       <use style="stroke:#000000;stroke-width:0.8;" x="311.815396" xlink:href="#m5e2c35a16e" y="400.6"/>
      </g>
     </g>
     <g id="text_5">
      <!-- 4.5 -->
      <g transform="translate(303.863834 415.198437)scale(0.1 -0.1)">
       <use xlink:href="#DejaVuSans-52"/>
       <use x="63.623047" xlink:href="#DejaVuSans-46"/>
       <use x="95.410156" xlink:href="#DejaVuSans-53"/>
      </g>
     </g>
    </g>
    <g id="text_6">
     <!-- Predicted Values -->
     <g transform="translate(156.704777 428.876562)scale(0.1 -0.1)">
      <defs>
       <path d="M 19.671875 64.796875 
L 19.671875 37.40625 
L 32.078125 37.40625 
Q 38.96875 37.40625 42.71875 40.96875 
Q 46.484375 44.53125 46.484375 51.125 
Q 46.484375 57.671875 42.71875 61.234375 
Q 38.96875 64.796875 32.078125 64.796875 
z
M 9.8125 72.90625 
L 32.078125 72.90625 
Q 44.34375 72.90625 50.609375 67.359375 
Q 56.890625 61.8125 56.890625 51.125 
Q 56.890625 40.328125 50.609375 34.8125 
Q 44.34375 29.296875 32.078125 29.296875 
L 19.671875 29.296875 
L 19.671875 0 
L 9.8125 0 
z
" id="DejaVuSans-80"/>
       <path d="M 41.109375 46.296875 
Q 39.59375 47.171875 37.8125 47.578125 
Q 36.03125 48 33.890625 48 
Q 26.265625 48 22.1875 43.046875 
Q 18.109375 38.09375 18.109375 28.8125 
L 18.109375 0 
L 9.078125 0 
L 9.078125 54.6875 
L 18.109375 54.6875 
L 18.109375 46.1875 
Q 20.953125 51.171875 25.484375 53.578125 
Q 30.03125 56 36.53125 56 
Q 37.453125 56 38.578125 55.875 
Q 39.703125 55.765625 41.0625 55.515625 
z
" id="DejaVuSans-114"/>
       <path d="M 56.203125 29.59375 
L 56.203125 25.203125 
L 14.890625 25.203125 
Q 15.484375 15.921875 20.484375 11.0625 
Q 25.484375 6.203125 34.421875 6.203125 
Q 39.59375 6.203125 44.453125 7.46875 
Q 49.3125 8.734375 54.109375 11.28125 
L 54.109375 2.78125 
Q 49.265625 0.734375 44.1875 -0.34375 
Q 39.109375 -1.421875 33.890625 -1.421875 
Q 20.796875 -1.421875 13.15625 6.1875 
Q 5.515625 13.8125 5.515625 26.8125 
Q 5.515625 40.234375 12.765625 48.109375 
Q 20.015625 56 32.328125 56 
Q 43.359375 56 49.78125 48.890625 
Q 56.203125 41.796875 56.203125 29.59375 
z
M 47.21875 32.234375 
Q 47.125 39.59375 43.09375 43.984375 
Q 39.0625 48.390625 32.421875 48.390625 
Q 24.90625 48.390625 20.390625 44.140625 
Q 15.875 39.890625 15.1875 32.171875 
z
" id="DejaVuSans-101"/>
       <path d="M 45.40625 46.390625 
L 45.40625 75.984375 
L 54.390625 75.984375 
L 54.390625 0 
L 45.40625 0 
L 45.40625 8.203125 
Q 42.578125 3.328125 38.25 0.953125 
Q 33.9375 -1.421875 27.875 -1.421875 
Q 17.96875 -1.421875 11.734375 6.484375 
Q 5.515625 14.40625 5.515625 27.296875 
Q 5.515625 40.1875 11.734375 48.09375 
Q 17.96875 56 27.875 56 
Q 33.9375 56 38.25 53.625 
Q 42.578125 51.265625 45.40625 46.390625 
z
M 14.796875 27.296875 
Q 14.796875 17.390625 18.875 11.75 
Q 22.953125 6.109375 30.078125 6.109375 
Q 37.203125 6.109375 41.296875 11.75 
Q 45.40625 17.390625 45.40625 27.296875 
Q 45.40625 37.203125 41.296875 42.84375 
Q 37.203125 48.484375 30.078125 48.484375 
Q 22.953125 48.484375 18.875 42.84375 
Q 14.796875 37.203125 14.796875 27.296875 
z
" id="DejaVuSans-100"/>
       <path d="M 9.421875 54.6875 
L 18.40625 54.6875 
L 18.40625 0 
L 9.421875 0 
z
M 9.421875 75.984375 
L 18.40625 75.984375 
L 18.40625 64.59375 
L 9.421875 64.59375 
z
" id="DejaVuSans-105"/>
       <path d="M 48.78125 52.59375 
L 48.78125 44.1875 
Q 44.96875 46.296875 41.140625 47.34375 
Q 37.3125 48.390625 33.40625 48.390625 
Q 24.65625 48.390625 19.8125 42.84375 
Q 14.984375 37.3125 14.984375 27.296875 
Q 14.984375 17.28125 19.8125 11.734375 
Q 24.65625 6.203125 33.40625 6.203125 
Q 37.3125 6.203125 41.140625 7.25 
Q 44.96875 8.296875 48.78125 10.40625 
L 48.78125 2.09375 
Q 45.015625 0.34375 40.984375 -0.53125 
Q 36.96875 -1.421875 32.421875 -1.421875 
Q 20.0625 -1.421875 12.78125 6.34375 
Q 5.515625 14.109375 5.515625 27.296875 
Q 5.515625 40.671875 12.859375 48.328125 
Q 20.21875 56 33.015625 56 
Q 37.15625 56 41.109375 55.140625 
Q 45.0625 54.296875 48.78125 52.59375 
z
" id="DejaVuSans-99"/>
       <path d="M 18.3125 70.21875 
L 18.3125 54.6875 
L 36.8125 54.6875 
L 36.8125 47.703125 
L 18.3125 47.703125 
L 18.3125 18.015625 
Q 18.3125 11.328125 20.140625 9.421875 
Q 21.96875 7.515625 27.59375 7.515625 
L 36.8125 7.515625 
L 36.8125 0 
L 27.59375 0 
Q 17.1875 0 13.234375 3.875 
Q 9.28125 7.765625 9.28125 18.015625 
L 9.28125 47.703125 
L 2.6875 47.703125 
L 2.6875 54.6875 
L 9.28125 54.6875 
L 9.28125 70.21875 
z
" id="DejaVuSans-116"/>
       <path id="DejaVuSans-32"/>
       <path d="M 28.609375 0 
L 0.78125 72.90625 
L 11.078125 72.90625 
L 34.1875 11.53125 
L 57.328125 72.90625 
L 67.578125 72.90625 
L 39.796875 0 
z
" id="DejaVuSans-86"/>
       <path d="M 34.28125 27.484375 
Q 23.390625 27.484375 19.1875 25 
Q 14.984375 22.515625 14.984375 16.5 
Q 14.984375 11.71875 18.140625 8.90625 
Q 21.296875 6.109375 26.703125 6.109375 
Q 34.1875 6.109375 38.703125 11.40625 
Q 43.21875 16.703125 43.21875 25.484375 
L 43.21875 27.484375 
z
M 52.203125 31.203125 
L 52.203125 0 
L 43.21875 0 
L 43.21875 8.296875 
Q 40.140625 3.328125 35.546875 0.953125 
Q 30.953125 -1.421875 24.3125 -1.421875 
Q 15.921875 -1.421875 10.953125 3.296875 
Q 6 8.015625 6 15.921875 
Q 6 25.140625 12.171875 29.828125 
Q 18.359375 34.515625 30.609375 34.515625 
L 43.21875 34.515625 
L 43.21875 35.40625 
Q 43.21875 41.609375 39.140625 45 
Q 35.0625 48.390625 27.6875 48.390625 
Q 23 48.390625 18.546875 47.265625 
Q 14.109375 46.140625 10.015625 43.890625 
L 10.015625 52.203125 
Q 14.9375 54.109375 19.578125 55.046875 
Q 24.21875 56 28.609375 56 
Q 40.484375 56 46.34375 49.84375 
Q 52.203125 43.703125 52.203125 31.203125 
z
" id="DejaVuSans-97"/>
       <path d="M 9.421875 75.984375 
L 18.40625 75.984375 
L 18.40625 0 
L 9.421875 0 
z
" id="DejaVuSans-108"/>
       <path d="M 8.5 21.578125 
L 8.5 54.6875 
L 17.484375 54.6875 
L 17.484375 21.921875 
Q 17.484375 14.15625 20.5 10.265625 
Q 23.53125 6.390625 29.59375 6.390625 
Q 36.859375 6.390625 41.078125 11.03125 
Q 45.3125 15.671875 45.3125 23.6875 
L 45.3125 54.6875 
L 54.296875 54.6875 
L 54.296875 0 
L 45.3125 0 
L 45.3125 8.40625 
Q 42.046875 3.421875 37.71875 1 
Q 33.40625 -1.421875 27.6875 -1.421875 
Q 18.265625 -1.421875 13.375 4.4375 
Q 8.5 10.296875 8.5 21.578125 
z
M 31.109375 56 
z
" id="DejaVuSans-117"/>
       <path d="M 44.28125 53.078125 
L 44.28125 44.578125 
Q 40.484375 46.53125 36.375 47.5 
Q 32.28125 48.484375 27.875 48.484375 
Q 21.1875 48.484375 17.84375 46.4375 
Q 14.5 44.390625 14.5 40.28125 
Q 14.5 37.15625 16.890625 35.375 
Q 19.28125 33.59375 26.515625 31.984375 
L 29.59375 31.296875 
Q 39.15625 29.25 43.1875 25.515625 
Q 47.21875 21.78125 47.21875 15.09375 
Q 47.21875 7.46875 41.1875 3.015625 
Q 35.15625 -1.421875 24.609375 -1.421875 
Q 20.21875 -1.421875 15.453125 -0.5625 
Q 10.6875 0.296875 5.421875 2 
L 5.421875 11.28125 
Q 10.40625 8.6875 15.234375 7.390625 
Q 20.0625 6.109375 24.8125 6.109375 
Q 31.15625 6.109375 34.5625 8.28125 
Q 37.984375 10.453125 37.984375 14.40625 
Q 37.984375 18.0625 35.515625 20.015625 
Q 33.0625 21.96875 24.703125 23.78125 
L 21.578125 24.515625 
Q 13.234375 26.265625 9.515625 29.90625 
Q 5.8125 33.546875 5.8125 39.890625 
Q 5.8125 47.609375 11.28125 51.796875 
Q 16.75 56 26.8125 56 
Q 31.78125 56 36.171875 55.265625 
Q 40.578125 54.546875 44.28125 53.078125 
z
" id="DejaVuSans-115"/>
      </defs>
      <use xlink:href="#DejaVuSans-80"/>
      <use x="58.552734" xlink:href="#DejaVuSans-114"/>
      <use x="97.416016" xlink:href="#DejaVuSans-101"/>
      <use x="158.939453" xlink:href="#DejaVuSans-100"/>
      <use x="222.416016" xlink:href="#DejaVuSans-105"/>
      <use x="250.199219" xlink:href="#DejaVuSans-99"/>
      <use x="305.179688" xlink:href="#DejaVuSans-116"/>
      <use x="344.388672" xlink:href="#DejaVuSans-101"/>
      <use x="405.912109" xlink:href="#DejaVuSans-100"/>
      <use x="469.388672" xlink:href="#DejaVuSans-32"/>
      <use x="501.175781" xlink:href="#DejaVuSans-86"/>
      <use x="561.833984" xlink:href="#DejaVuSans-97"/>
      <use x="623.113281" xlink:href="#DejaVuSans-108"/>
      <use x="650.896484" xlink:href="#DejaVuSans-117"/>
      <use x="714.275391" xlink:href="#DejaVuSans-101"/>
      <use x="775.798828" xlink:href="#DejaVuSans-115"/>
     </g>
    </g>
   </g>
   <g id="matplotlib.axis_2">
    <g id="ytick_1">
     <g id="line2d_6">
      <defs>
       <path d="M 0 0 
L -3.5 0 
" id="me66ed1f384" style="stroke:#000000;stroke-width:0.8;"/>
      </defs>
      <g>
       <use style="stroke:#000000;stroke-width:0.8;" x="43.78125" xlink:href="#me66ed1f384" y="352.522834"/>
      </g>
     </g>
     <g id="text_7">
      <!-- 2.5 -->
      <g transform="translate(20.878125 356.322052)scale(0.1 -0.1)">
       <use xlink:href="#DejaVuSans-50"/>
       <use x="63.623047" xlink:href="#DejaVuSans-46"/>
       <use x="95.410156" xlink:href="#DejaVuSans-53"/>
      </g>
     </g>
    </g>
    <g id="ytick_2">
     <g id="line2d_7">
      <g>
       <use style="stroke:#000000;stroke-width:0.8;" x="43.78125" xlink:href="#me66ed1f384" y="297.59631"/>
      </g>
     </g>
     <g id="text_8">
      <!-- 3.0 -->
      <g transform="translate(20.878125 301.395529)scale(0.1 -0.1)">
       <use xlink:href="#DejaVuSans-51"/>
       <use x="63.623047" xlink:href="#DejaVuSans-46"/>
       <use x="95.410156" xlink:href="#DejaVuSans-48"/>
      </g>
     </g>
    </g>
    <g id="ytick_3">
     <g id="line2d_8">
      <g>
       <use style="stroke:#000000;stroke-width:0.8;" x="43.78125" xlink:href="#me66ed1f384" y="242.669786"/>
      </g>
     </g>
     <g id="text_9">
      <!-- 3.5 -->
      <g transform="translate(20.878125 246.469005)scale(0.1 -0.1)">
       <use xlink:href="#DejaVuSans-51"/>
       <use x="63.623047" xlink:href="#DejaVuSans-46"/>
       <use x="95.410156" xlink:href="#DejaVuSans-53"/>
      </g>
     </g>
    </g>
    <g id="ytick_4">
     <g id="line2d_9">
      <g>
       <use style="stroke:#000000;stroke-width:0.8;" x="43.78125" xlink:href="#me66ed1f384" y="187.743263"/>
      </g>
     </g>
     <g id="text_10">
      <!-- 4.0 -->
      <g transform="translate(20.878125 191.542481)scale(0.1 -0.1)">
       <use xlink:href="#DejaVuSans-52"/>
       <use x="63.623047" xlink:href="#DejaVuSans-46"/>
       <use x="95.410156" xlink:href="#DejaVuSans-48"/>
      </g>
     </g>
    </g>
    <g id="ytick_5">
     <g id="line2d_10">
      <g>
       <use style="stroke:#000000;stroke-width:0.8;" x="43.78125" xlink:href="#me66ed1f384" y="132.816739"/>
      </g>
     </g>
     <g id="text_11">
      <!-- 4.5 -->
      <g transform="translate(20.878125 136.615958)scale(0.1 -0.1)">
       <use xlink:href="#DejaVuSans-52"/>
       <use x="63.623047" xlink:href="#DejaVuSans-46"/>
       <use x="95.410156" xlink:href="#DejaVuSans-53"/>
      </g>
     </g>
    </g>
    <g id="ytick_6">
     <g id="line2d_11">
      <g>
       <use style="stroke:#000000;stroke-width:0.8;" x="43.78125" xlink:href="#me66ed1f384" y="77.890215"/>
      </g>
     </g>
     <g id="text_12">
      <!-- 5.0 -->
      <g transform="translate(20.878125 81.689434)scale(0.1 -0.1)">
       <use xlink:href="#DejaVuSans-53"/>
       <use x="63.623047" xlink:href="#DejaVuSans-46"/>
       <use x="95.410156" xlink:href="#DejaVuSans-48"/>
      </g>
     </g>
    </g>
    <g id="text_13">
     <!-- Real Values -->
     <g transform="translate(14.798438 266.323906)rotate(-90)scale(0.1 -0.1)">
      <defs>
       <path d="M 44.390625 34.1875 
Q 47.5625 33.109375 50.5625 29.59375 
Q 53.5625 26.078125 56.59375 19.921875 
L 66.609375 0 
L 56 0 
L 46.6875 18.703125 
Q 43.0625 26.03125 39.671875 28.421875 
Q 36.28125 30.8125 30.421875 30.8125 
L 19.671875 30.8125 
L 19.671875 0 
L 9.8125 0 
L 9.8125 72.90625 
L 32.078125 72.90625 
Q 44.578125 72.90625 50.734375 67.671875 
Q 56.890625 62.453125 56.890625 51.90625 
Q 56.890625 45.015625 53.6875 40.46875 
Q 50.484375 35.9375 44.390625 34.1875 
z
M 19.671875 64.796875 
L 19.671875 38.921875 
L 32.078125 38.921875 
Q 39.203125 38.921875 42.84375 42.21875 
Q 46.484375 45.515625 46.484375 51.90625 
Q 46.484375 58.296875 42.84375 61.546875 
Q 39.203125 64.796875 32.078125 64.796875 
z
" id="DejaVuSans-82"/>
      </defs>
      <use xlink:href="#DejaVuSans-82"/>
      <use x="64.982422" xlink:href="#DejaVuSans-101"/>
      <use x="126.505859" xlink:href="#DejaVuSans-97"/>
      <use x="187.785156" xlink:href="#DejaVuSans-108"/>
      <use x="215.568359" xlink:href="#DejaVuSans-32"/>
      <use x="247.355469" xlink:href="#DejaVuSans-86"/>
      <use x="308.013672" xlink:href="#DejaVuSans-97"/>
      <use x="369.292969" xlink:href="#DejaVuSans-108"/>
      <use x="397.076172" xlink:href="#DejaVuSans-117"/>
      <use x="460.455078" xlink:href="#DejaVuSans-101"/>
      <use x="521.978516" xlink:href="#DejaVuSans-115"/>
     </g>
    </g>
   </g>
   <g id="line2d_12">
    <path clip-path="url(#pe4c030170c)" d="M 43.78125 363.979778 
L 46.898802 361.382444 
L 50.016355 358.78511 
L 53.133907 356.187777 
L 56.251459 353.590443 
L 59.369012 350.993109 
L 62.486564 348.395776 
L 65.604116 345.798442 
L 68.721668 343.201108 
L 71.839221 340.603775 
L 74.956773 338.006441 
L 78.074325 335.409107 
L 81.191878 332.811774 
L 84.30943 330.21444 
L 87.426982 327.617106 
L 90.544535 325.019773 
L 93.662087 322.422439 
L 96.779639 319.825105 
L 99.897192 317.227772 
L 103.014744 314.630438 
L 106.132296 312.033104 
L 109.249848 309.435771 
L 112.367401 306.838437 
L 115.484953 304.241103 
L 118.602505 301.64377 
L 121.720058 299.046436 
L 124.83761 296.449102 
L 127.955162 293.851769 
L 131.072715 291.254435 
L 134.190267 288.657102 
L 137.307819 286.059768 
L 140.425372 283.462434 
L 143.542924 280.865101 
L 146.660476 278.267767 
L 149.778028 275.670433 
L 152.895581 273.0731 
L 156.013133 270.475766 
L 159.130685 267.878432 
L 162.248238 265.281099 
L 165.36579 262.683765 
L 168.483342 260.086431 
L 171.600895 257.489098 
L 174.718447 254.891764 
L 177.835999 252.29443 
L 180.953552 249.697097 
L 184.071104 247.099763 
L 187.188656 244.502429 
L 190.306209 241.905096 
L 193.423761 239.307762 
L 196.541313 236.710428 
L 199.658865 234.113095 
L 202.776418 231.515761 
L 205.89397 228.918427 
L 209.011522 226.321094 
L 212.129075 223.72376 
L 215.246627 221.126426 
L 218.364179 218.529093 
L 221.481732 215.931759 
L 224.599284 213.334425 
L 227.716836 210.737092 
L 230.834389 208.139758 
L 233.951941 205.542424 
L 237.069493 202.945091 
L 240.187045 200.347757 
L 243.304598 197.750423 
L 246.42215 195.15309 
L 249.539702 192.555756 
L 252.657255 189.958422 
L 255.774807 187.361089 
L 258.892359 184.763755 
L 262.009912 182.166421 
L 265.127464 179.569088 
L 268.245016 176.971754 
L 271.362569 174.37442 
L 274.480121 171.777087 
L 277.597673 169.179753 
L 280.715225 166.58242 
L 283.832778 163.985086 
L 286.95033 161.387752 
L 290.067882 158.790419 
L 293.185435 156.193085 
L 296.302987 153.595751 
L 299.420539 150.998418 
L 302.538092 148.401084 
L 305.655644 145.80375 
L 308.773196 143.206417 
L 311.890749 140.609083 
L 315.008301 138.011749 
L 318.125853 135.414416 
L 321.243405 132.817082 
L 324.360958 130.219748 
L 327.47851 127.622415 
L 330.596062 125.025081 
L 333.713615 122.427747 
L 336.831167 119.830414 
L 339.948719 117.23308 
L 343.066272 114.635746 
L 346.183824 112.038413 
L 349.301376 109.441079 
L 352.418929 106.843745 
" style="fill:none;stroke:#1f77b4;stroke-linecap:square;stroke-width:2.25;"/>
   </g>
   <g id="patch_3">
    <path d="M 43.78125 400.6 
L 43.78125 74.64 
" style="fill:none;stroke:#000000;stroke-linecap:square;stroke-linejoin:miter;stroke-width:0.8;"/>
   </g>
   <g id="patch_4">
    <path d="M 43.78125 400.6 
L 352.418929 400.6 
" style="fill:none;stroke:#000000;stroke-linecap:square;stroke-linejoin:miter;stroke-width:0.8;"/>
   </g>
  </g>
  <g id="axes_2">
   <g id="patch_5">
    <path d="M 43.78125 63.4 
L 352.418929 63.4 
L 352.418929 7.2 
L 43.78125 7.2 
z
" style="fill:#ffffff;"/>
   </g>
   <g id="patch_6">
    <path clip-path="url(#pd131a17116)" d="M 43.78125 63.4 
L 82.36096 63.4 
L 82.36096 38.046617 
L 43.78125 38.046617 
z
" style="fill:#1f77b4;fill-opacity:0.5;stroke:#000000;stroke-linejoin:miter;"/>
   </g>
   <g id="patch_7">
    <path clip-path="url(#pd131a17116)" d="M 82.36096 63.4 
L 120.94067 63.4 
L 120.94067 9.87619 
L 82.36096 9.87619 
z
" style="fill:#1f77b4;fill-opacity:0.5;stroke:#000000;stroke-linejoin:miter;"/>
   </g>
   <g id="patch_8">
    <path clip-path="url(#pd131a17116)" d="M 120.94067 63.4 
L 159.520379 63.4 
L 159.520379 18.327318 
L 120.94067 18.327318 
z
" style="fill:#1f77b4;fill-opacity:0.5;stroke:#000000;stroke-linejoin:miter;"/>
   </g>
   <g id="patch_9">
    <path clip-path="url(#pd131a17116)" d="M 159.520379 63.4 
L 198.100089 63.4 
L 198.100089 23.961404 
L 159.520379 23.961404 
z
" style="fill:#1f77b4;fill-opacity:0.5;stroke:#000000;stroke-linejoin:miter;"/>
   </g>
   <g id="patch_10">
    <path clip-path="url(#pd131a17116)" d="M 198.100089 63.4 
L 236.679799 63.4 
L 236.679799 46.497744 
L 198.100089 46.497744 
z
" style="fill:#1f77b4;fill-opacity:0.5;stroke:#000000;stroke-linejoin:miter;"/>
   </g>
   <g id="patch_11">
    <path clip-path="url(#pd131a17116)" d="M 236.679799 63.4 
L 275.259509 63.4 
L 275.259509 38.046617 
L 236.679799 38.046617 
z
" style="fill:#1f77b4;fill-opacity:0.5;stroke:#000000;stroke-linejoin:miter;"/>
   </g>
   <g id="patch_12">
    <path clip-path="url(#pd131a17116)" d="M 275.259509 63.4 
L 313.839219 63.4 
L 313.839219 46.497744 
L 275.259509 46.497744 
z
" style="fill:#1f77b4;fill-opacity:0.5;stroke:#000000;stroke-linejoin:miter;"/>
   </g>
   <g id="patch_13">
    <path clip-path="url(#pd131a17116)" d="M 313.839219 63.4 
L 352.418929 63.4 
L 352.418929 54.948872 
L 313.839219 54.948872 
z
" style="fill:#1f77b4;fill-opacity:0.5;stroke:#000000;stroke-linejoin:miter;"/>
   </g>
   <g id="matplotlib.axis_3">
    <g id="xtick_6">
     <g id="line2d_13">
      <g>
       <use style="stroke:#000000;stroke-width:0.8;" x="62.872575" xlink:href="#m5e2c35a16e" y="63.4"/>
      </g>
     </g>
    </g>
    <g id="xtick_7">
     <g id="line2d_14">
      <g>
       <use style="stroke:#000000;stroke-width:0.8;" x="125.10828" xlink:href="#m5e2c35a16e" y="63.4"/>
      </g>
     </g>
    </g>
    <g id="xtick_8">
     <g id="line2d_15">
      <g>
       <use style="stroke:#000000;stroke-width:0.8;" x="187.343985" xlink:href="#m5e2c35a16e" y="63.4"/>
      </g>
     </g>
    </g>
    <g id="xtick_9">
     <g id="line2d_16">
      <g>
       <use style="stroke:#000000;stroke-width:0.8;" x="249.579691" xlink:href="#m5e2c35a16e" y="63.4"/>
      </g>
     </g>
    </g>
    <g id="xtick_10">
     <g id="line2d_17">
      <g>
       <use style="stroke:#000000;stroke-width:0.8;" x="311.815396" xlink:href="#m5e2c35a16e" y="63.4"/>
      </g>
     </g>
    </g>
   </g>
   <g id="matplotlib.axis_4">
    <g id="ytick_7"/>
    <g id="ytick_8"/>
   </g>
   <g id="line2d_18">
    <path clip-path="url(#pd131a17116)" d="M 43.78125 49.695989 
L 49.985022 46.686954 
L 56.188795 43.429268 
L 63.94351 39.10798 
L 84.105771 27.691575 
L 90.309543 24.502285 
L 94.962373 22.325268 
L 99.615202 20.381846 
L 104.268031 18.713198 
L 108.920861 17.354875 
L 112.022747 16.635614 
L 115.124633 16.072128 
L 118.226519 15.667519 
L 121.328405 15.422273 
L 124.430292 15.334155 
L 129.083121 15.485007 
L 133.73595 15.950007 
L 138.38878 16.69026 
L 143.041609 17.658569 
L 149.245381 19.214905 
L 157.000097 21.416862 
L 178.7133 27.722458 
L 191.120845 31.007752 
L 205.079333 34.459501 
L 215.935935 36.954698 
L 225.241594 38.890681 
L 234.547252 40.580963 
L 243.852911 42.011458 
L 253.15857 43.220271 
L 267.117058 44.788053 
L 288.830261 47.225205 
L 301.237806 48.846257 
L 313.645351 50.70034 
L 327.603839 53.041447 
L 352.418929 57.414684 
L 352.418929 57.414684 
" style="fill:none;stroke:#1f77b4;stroke-linecap:square;stroke-width:1.5;"/>
   </g>
   <g id="patch_14">
    <path d="M 43.78125 63.4 
L 352.418929 63.4 
" style="fill:none;stroke:#000000;stroke-linecap:square;stroke-linejoin:miter;stroke-width:0.8;"/>
   </g>
  </g>
  <g id="axes_3">
   <g id="patch_15">
    <path d="M 363.061607 400.6 
L 416.275 400.6 
L 416.275 74.64 
L 363.061607 74.64 
z
" style="fill:#ffffff;"/>
   </g>
   <g id="patch_16">
    <path clip-path="url(#p53e6ec75a8)" d="M 363.061607 385.783636 
L 393.46926 385.783636 
L 393.46926 350.215044 
L 363.061607 350.215044 
z
" style="fill:#1f77b4;fill-opacity:0.5;stroke:#000000;stroke-linejoin:miter;"/>
   </g>
   <g id="patch_17">
    <path clip-path="url(#p53e6ec75a8)" d="M 363.061607 350.215044 
L 403.605145 350.215044 
L 403.605145 314.646451 
L 363.061607 314.646451 
z
" style="fill:#1f77b4;fill-opacity:0.5;stroke:#000000;stroke-linejoin:miter;"/>
   </g>
   <g id="patch_18">
    <path clip-path="url(#p53e6ec75a8)" d="M 363.061607 314.646451 
L 410.362401 314.646451 
L 410.362401 279.077858 
L 363.061607 279.077858 
z
" style="fill:#1f77b4;fill-opacity:0.5;stroke:#000000;stroke-linejoin:miter;"/>
   </g>
   <g id="patch_19">
    <path clip-path="url(#p53e6ec75a8)" d="M 363.061607 279.077858 
L 413.741029 279.077858 
L 413.741029 243.509266 
L 363.061607 243.509266 
z
" style="fill:#1f77b4;fill-opacity:0.5;stroke:#000000;stroke-linejoin:miter;"/>
   </g>
   <g id="patch_20">
    <path clip-path="url(#p53e6ec75a8)" d="M 363.061607 243.509266 
L 413.741029 243.509266 
L 413.741029 207.940673 
L 363.061607 207.940673 
z
" style="fill:#1f77b4;fill-opacity:0.5;stroke:#000000;stroke-linejoin:miter;"/>
   </g>
   <g id="patch_21">
    <path clip-path="url(#p53e6ec75a8)" d="M 363.061607 207.940673 
L 393.46926 207.940673 
L 393.46926 172.37208 
L 363.061607 172.37208 
z
" style="fill:#1f77b4;fill-opacity:0.5;stroke:#000000;stroke-linejoin:miter;"/>
   </g>
   <g id="patch_22">
    <path clip-path="url(#p53e6ec75a8)" d="M 363.061607 172.37208 
L 376.57612 172.37208 
L 376.57612 136.803488 
L 363.061607 136.803488 
z
" style="fill:#1f77b4;fill-opacity:0.5;stroke:#000000;stroke-linejoin:miter;"/>
   </g>
   <g id="patch_23">
    <path clip-path="url(#p53e6ec75a8)" d="M 363.061607 136.803488 
L 376.57612 136.803488 
L 376.57612 101.234895 
L 363.061607 101.234895 
z
" style="fill:#1f77b4;fill-opacity:0.5;stroke:#000000;stroke-linejoin:miter;"/>
   </g>
   <g id="matplotlib.axis_5">
    <g id="xtick_11"/>
    <g id="xtick_12"/>
   </g>
   <g id="matplotlib.axis_6">
    <g id="ytick_9">
     <g id="line2d_19">
      <g>
       <use style="stroke:#000000;stroke-width:0.8;" x="363.061607" xlink:href="#me66ed1f384" y="352.522834"/>
      </g>
     </g>
    </g>
    <g id="ytick_10">
     <g id="line2d_20">
      <g>
       <use style="stroke:#000000;stroke-width:0.8;" x="363.061607" xlink:href="#me66ed1f384" y="297.59631"/>
      </g>
     </g>
    </g>
    <g id="ytick_11">
     <g id="line2d_21">
      <g>
       <use style="stroke:#000000;stroke-width:0.8;" x="363.061607" xlink:href="#me66ed1f384" y="242.669786"/>
      </g>
     </g>
    </g>
    <g id="ytick_12">
     <g id="line2d_22">
      <g>
       <use style="stroke:#000000;stroke-width:0.8;" x="363.061607" xlink:href="#me66ed1f384" y="187.743263"/>
      </g>
     </g>
    </g>
    <g id="ytick_13">
     <g id="line2d_23">
      <g>
       <use style="stroke:#000000;stroke-width:0.8;" x="363.061607" xlink:href="#me66ed1f384" y="132.816739"/>
      </g>
     </g>
    </g>
    <g id="ytick_14">
     <g id="line2d_24">
      <g>
       <use style="stroke:#000000;stroke-width:0.8;" x="363.061607" xlink:href="#me66ed1f384" y="77.890215"/>
      </g>
     </g>
    </g>
   </g>
   <g id="line2d_25">
    <path clip-path="url(#p53e6ec75a8)" d="M 376.773011 385.783636 
L 379.633265 380.064064 
L 384.222636 371.484705 
L 394.316571 352.896093 
L 397.884193 345.746628 
L 400.505144 340.027055 
L 402.875672 334.307482 
L 404.963389 328.587909 
L 406.329038 324.29823 
L 407.516622 320.00855 
L 408.525421 315.718871 
L 409.601493 309.999298 
L 410.396055 304.279726 
L 410.952044 298.560153 
L 411.392313 291.410687 
L 411.682036 282.831328 
L 411.865413 269.962289 
L 411.803849 259.953037 
L 411.551502 252.803571 
L 411.155215 247.083999 
L 410.536075 241.364426 
L 409.657018 235.644853 
L 408.495767 229.925281 
L 407.048781 224.205708 
L 405.332526 218.486135 
L 403.381562 212.766562 
L 400.686062 205.617097 
L 396.619143 195.607844 
L 386.009625 169.869767 
L 382.738039 161.290408 
L 380.240137 154.140942 
L 378.449264 148.42137 
L 376.883171 142.701797 
L 375.56425 136.982224 
L 374.492199 131.262652 
L 373.64 125.543079 
L 372.803285 118.393613 
L 371.059572 101.234895 
L 371.059572 101.234895 
" style="fill:none;stroke:#1f77b4;stroke-linecap:square;stroke-width:1.5;"/>
   </g>
   <g id="patch_24">
    <path d="M 363.061607 400.6 
L 363.061607 74.64 
" style="fill:none;stroke:#000000;stroke-linecap:square;stroke-linejoin:miter;stroke-width:0.8;"/>
   </g>
  </g>
 </g>
 <defs>
  <clipPath id="pe4c030170c">
   <rect height="325.96" width="308.637679" x="43.78125" y="74.64"/>
  </clipPath>
  <clipPath id="pd131a17116">
   <rect height="56.2" width="308.637679" x="43.78125" y="7.2"/>
  </clipPath>
  <clipPath id="p53e6ec75a8">
   <rect height="325.96" width="53.213393" x="363.061607" y="74.64"/>
  </clipPath>
 </defs>
</svg>
