<?xml version="1.0" encoding="utf-8" standalone="no"?>
<!DOCTYPE svg PUBLIC "-//W3C//DTD SVG 1.1//EN"
  "http://www.w3.org/Graphics/SVG/1.1/DTD/svg11.dtd">
<!-- Created with matplotlib (https://matplotlib.org/) -->
<svg height="438.15625pt" version="1.1" viewBox="0 0 423.475 438.15625" width="423.475pt" xmlns="http://www.w3.org/2000/svg" xmlns:xlink="http://www.w3.org/1999/xlink">
 <metadata>
  <rdf:RDF xmlns:cc="http://creativecommons.org/ns#" xmlns:dc="http://purl.org/dc/elements/1.1/" xmlns:rdf="http://www.w3.org/1999/02/22-rdf-syntax-ns#">
   <cc:Work>
    <dc:type rdf:resource="http://purl.org/dc/dcmitype/StillImage"/>
    <dc:date>2021-01-06T16:38:48.895845</dc:date>
    <dc:format>image/svg+xml</dc:format>
    <dc:creator>
     <cc:Agent>
      <dc:title>Matplotlib v3.3.2, https://matplotlib.org/</dc:title>
     </cc:Agent>
    </dc:creator>
   </cc:Work>
  </rdf:RDF>
 </metadata>
 <defs>
  <style type="text/css">*{stroke-linecap:butt;stroke-linejoin:round;}</style>
 </defs>
 <g id="figure_1">
  <g id="patch_1">
   <path d="M 0 438.15625 
L 423.475 438.15625 
L 423.475 0 
L 0 0 
z
" style="fill:none;"/>
  </g>
  <g id="axes_1">
   <g id="patch_2">
    <path d="M 43.78125 400.6 
L 352.418929 400.6 
L 352.418929 74.64 
L 43.78125 74.64 
z
" style="fill:#ffffff;"/>
   </g>
   <g id="PathCollection_1">
    <defs>
     <path d="M 0 3 
C 0.795609 3 1.55874 2.683901 2.12132 2.12132 
C 2.683901 1.55874 3 0.795609 3 0 
C 3 -0.795609 2.683901 -1.55874 2.12132 -2.12132 
C 1.55874 -2.683901 0.795609 -3 0 -3 
C -0.795609 -3 -1.55874 -2.683901 -2.12132 -2.12132 
C -2.683901 -1.55874 -3 -0.795609 -3 0 
C -3 0.795609 -2.683901 1.55874 -2.12132 2.12132 
C -1.55874 2.683901 -0.795609 3 0 3 
z
" id="mb584734ec4" style="stroke:#1f77b4;stroke-opacity:0.8;"/>
    </defs>
    <g clip-path="url(#p2ce321e26f)">
     <use style="fill:#1f77b4;fill-opacity:0.8;stroke:#1f77b4;stroke-opacity:0.8;" x="134.405428" xlink:href="#mb584734ec4" y="287.410578"/>
     <use style="fill:#1f77b4;fill-opacity:0.8;stroke:#1f77b4;stroke-opacity:0.8;" x="172.000953" xlink:href="#mb584734ec4" y="236.309381"/>
     <use style="fill:#1f77b4;fill-opacity:0.8;stroke:#1f77b4;stroke-opacity:0.8;" x="134.359737" xlink:href="#mb584734ec4" y="309.496274"/>
     <use style="fill:#1f77b4;fill-opacity:0.8;stroke:#1f77b4;stroke-opacity:0.8;" x="128.33051" xlink:href="#mb584734ec4" y="329.562475"/>
     <use style="fill:#1f77b4;fill-opacity:0.8;stroke:#1f77b4;stroke-opacity:0.8;" x="71.198061" xlink:href="#mb584734ec4" y="329.562475"/>
     <use style="fill:#1f77b4;fill-opacity:0.8;stroke:#1f77b4;stroke-opacity:0.8;" x="144.901261" xlink:href="#mb584734ec4" y="221.612996"/>
     <use style="fill:#1f77b4;fill-opacity:0.8;stroke:#1f77b4;stroke-opacity:0.8;" x="110.057521" xlink:href="#mb584734ec4" y="315.787095"/>
     <use style="fill:#1f77b4;fill-opacity:0.8;stroke:#1f77b4;stroke-opacity:0.8;" x="179.911312" xlink:href="#mb584734ec4" y="260.868427"/>
     <use style="fill:#1f77b4;fill-opacity:0.8;stroke:#1f77b4;stroke-opacity:0.8;" x="92.126508" xlink:href="#mb584734ec4" y="345.312068"/>
     <use style="fill:#1f77b4;fill-opacity:0.8;stroke:#1f77b4;stroke-opacity:0.8;" x="312.790232" xlink:href="#mb584734ec4" y="186.56417"/>
     <use style="fill:#1f77b4;fill-opacity:0.8;stroke:#1f77b4;stroke-opacity:0.8;" x="134.696158" xlink:href="#mb584734ec4" y="287.410578"/>
     <use style="fill:#1f77b4;fill-opacity:0.8;stroke:#1f77b4;stroke-opacity:0.8;" x="272.390826" xlink:href="#mb584734ec4" y="160.022019"/>
     <use style="fill:#1f77b4;fill-opacity:0.8;stroke:#1f77b4;stroke-opacity:0.8;" x="163.86534" xlink:href="#mb584734ec4" y="322.459404"/>
     <use style="fill:#1f77b4;fill-opacity:0.8;stroke:#1f77b4;stroke-opacity:0.8;" x="195.43617" xlink:href="#mb584734ec4" y="236.309381"/>
     <use style="fill:#1f77b4;fill-opacity:0.8;stroke:#1f77b4;stroke-opacity:0.8;" x="256.898815" xlink:href="#mb584734ec4" y="176.98775"/>
     <use style="fill:#1f77b4;fill-opacity:0.8;stroke:#1f77b4;stroke-opacity:0.8;" x="77.955296" xlink:href="#mb584734ec4" y="354.12152"/>
     <use style="fill:#1f77b4;fill-opacity:0.8;stroke:#1f77b4;stroke-opacity:0.8;" x="87.611278" xlink:href="#mb584734ec4" y="354.12152"/>
     <use style="fill:#1f77b4;fill-opacity:0.8;stroke:#1f77b4;stroke-opacity:0.8;" x="223.00971" xlink:href="#mb584734ec4" y="221.612996"/>
     <use style="fill:#1f77b4;fill-opacity:0.8;stroke:#1f77b4;stroke-opacity:0.8;" x="120.830964" xlink:href="#mb584734ec4" y="303.545668"/>
     <use style="fill:#1f77b4;fill-opacity:0.8;stroke:#1f77b4;stroke-opacity:0.8;" x="169.938239" xlink:href="#mb584734ec4" y="253.275113"/>
     <use style="fill:#1f77b4;fill-opacity:0.8;stroke:#1f77b4;stroke-opacity:0.8;" x="236.785183" xlink:href="#mb584734ec4" y="208.649866"/>
     <use style="fill:#1f77b4;fill-opacity:0.8;stroke:#1f77b4;stroke-opacity:0.8;" x="195.386126" xlink:href="#mb584734ec4" y="227.258306"/>
     <use style="fill:#1f77b4;fill-opacity:0.8;stroke:#1f77b4;stroke-opacity:0.8;" x="64.538198" xlink:href="#mb584734ec4" y="363.69794"/>
     <use style="fill:#1f77b4;fill-opacity:0.8;stroke:#1f77b4;stroke-opacity:0.8;" x="305.074895" xlink:href="#mb584734ec4" y="176.98775"/>
     <use style="fill:#1f77b4;fill-opacity:0.8;stroke:#1f77b4;stroke-opacity:0.8;" x="102.1675" xlink:href="#mb584734ec4" y="374.187721"/>
     <use style="fill:#1f77b4;fill-opacity:0.8;stroke:#1f77b4;stroke-opacity:0.8;" x="185.796537" xlink:href="#mb584734ec4" y="253.275113"/>
     <use style="fill:#1f77b4;fill-opacity:0.8;stroke:#1f77b4;stroke-opacity:0.8;" x="136.904707" xlink:href="#mb584734ec4" y="315.787095"/>
     <use style="fill:#1f77b4;fill-opacity:0.8;stroke:#1f77b4;stroke-opacity:0.8;" x="101.788308" xlink:href="#mb584734ec4" y="354.12152"/>
     <use style="fill:#1f77b4;fill-opacity:0.8;stroke:#1f77b4;stroke-opacity:0.8;" x="262.291994" xlink:href="#mb584734ec4" y="100.700388"/>
     <use style="fill:#1f77b4;fill-opacity:0.8;stroke:#1f77b4;stroke-opacity:0.8;" x="70.017642" xlink:href="#mb584734ec4" y="227.258306"/>
     <use style="fill:#1f77b4;fill-opacity:0.8;stroke:#1f77b4;stroke-opacity:0.8;" x="43.78125" xlink:href="#mb584734ec4" y="385.783636"/>
     <use style="fill:#1f77b4;fill-opacity:0.8;stroke:#1f77b4;stroke-opacity:0.8;" x="238.044962" xlink:href="#mb584734ec4" y="197.053951"/>
     <use style="fill:#1f77b4;fill-opacity:0.8;stroke:#1f77b4;stroke-opacity:0.8;" x="155.540134" xlink:href="#mb584734ec4" y="260.868427"/>
     <use style="fill:#1f77b4;fill-opacity:0.8;stroke:#1f77b4;stroke-opacity:0.8;" x="65.870582" xlink:href="#mb584734ec4" y="329.562475"/>
     <use style="fill:#1f77b4;fill-opacity:0.8;stroke:#1f77b4;stroke-opacity:0.8;" x="108.502781" xlink:href="#mb584734ec4" y="322.459404"/>
     <use style="fill:#1f77b4;fill-opacity:0.8;stroke:#1f77b4;stroke-opacity:0.8;" x="182.792947" xlink:href="#mb584734ec4" y="253.275113"/>
     <use style="fill:#1f77b4;fill-opacity:0.8;stroke:#1f77b4;stroke-opacity:0.8;" x="95.702141" xlink:href="#mb584734ec4" y="297.900359"/>
     <use style="fill:#1f77b4;fill-opacity:0.8;stroke:#1f77b4;stroke-opacity:0.8;" x="119.670853" xlink:href="#mb584734ec4" y="309.496274"/>
     <use style="fill:#1f77b4;fill-opacity:0.8;stroke:#1f77b4;stroke-opacity:0.8;" x="74.790077" xlink:href="#mb584734ec4" y="345.312068"/>
     <use style="fill:#1f77b4;fill-opacity:0.8;stroke:#1f77b4;stroke-opacity:0.8;" x="113.766695" xlink:href="#mb584734ec4" y="282.518243"/>
     <use style="fill:#1f77b4;fill-opacity:0.8;stroke:#1f77b4;stroke-opacity:0.8;" x="150.669799" xlink:href="#mb584734ec4" y="260.868427"/>
     <use style="fill:#1f77b4;fill-opacity:0.8;stroke:#1f77b4;stroke-opacity:0.8;" x="103.852256" xlink:href="#mb584734ec4" y="297.900359"/>
     <use style="fill:#1f77b4;fill-opacity:0.8;stroke:#1f77b4;stroke-opacity:0.8;" x="210.21506" xlink:href="#mb584734ec4" y="208.649866"/>
     <use style="fill:#1f77b4;fill-opacity:0.8;stroke:#1f77b4;stroke-opacity:0.8;" x="82.586935" xlink:href="#mb584734ec4" y="354.12152"/>
     <use style="fill:#1f77b4;fill-opacity:0.8;stroke:#1f77b4;stroke-opacity:0.8;" x="143.852441" xlink:href="#mb584734ec4" y="287.410578"/>
     <use style="fill:#1f77b4;fill-opacity:0.8;stroke:#1f77b4;stroke-opacity:0.8;" x="104.413004" xlink:href="#mb584734ec4" y="329.562475"/>
     <use style="fill:#1f77b4;fill-opacity:0.8;stroke:#1f77b4;stroke-opacity:0.8;" x="192.808195" xlink:href="#mb584734ec4" y="236.309381"/>
     <use style="fill:#1f77b4;fill-opacity:0.8;stroke:#1f77b4;stroke-opacity:0.8;" x="311.43943" xlink:href="#mb584734ec4" y="145.325634"/>
     <use style="fill:#1f77b4;fill-opacity:0.8;stroke:#1f77b4;stroke-opacity:0.8;" x="187.958726" xlink:href="#mb584734ec4" y="221.612996"/>
     <use style="fill:#1f77b4;fill-opacity:0.8;stroke:#1f77b4;stroke-opacity:0.8;" x="55.541047" xlink:href="#mb584734ec4" y="354.12152"/>
     <use style="fill:#1f77b4;fill-opacity:0.8;stroke:#1f77b4;stroke-opacity:0.8;" x="205.777504" xlink:href="#mb584734ec4" y="197.053951"/>
     <use style="fill:#1f77b4;fill-opacity:0.8;stroke:#1f77b4;stroke-opacity:0.8;" x="113.44006" xlink:href="#mb584734ec4" y="273.341314"/>
     <use style="fill:#1f77b4;fill-opacity:0.8;stroke:#1f77b4;stroke-opacity:0.8;" x="150.399598" xlink:href="#mb584734ec4" y="246.172042"/>
     <use style="fill:#1f77b4;fill-opacity:0.8;stroke:#1f77b4;stroke-opacity:0.8;" x="77.557191" xlink:href="#mb584734ec4" y="368.817905"/>
     <use style="fill:#1f77b4;fill-opacity:0.8;stroke:#1f77b4;stroke-opacity:0.8;" x="103.49437" xlink:href="#mb584734ec4" y="309.496274"/>
     <use style="fill:#1f77b4;fill-opacity:0.8;stroke:#1f77b4;stroke-opacity:0.8;" x="352.418929" xlink:href="#mb584734ec4" y="100.700388"/>
     <use style="fill:#1f77b4;fill-opacity:0.8;stroke:#1f77b4;stroke-opacity:0.8;" x="136.172831" xlink:href="#mb584734ec4" y="273.341314"/>
     <use style="fill:#1f77b4;fill-opacity:0.8;stroke:#1f77b4;stroke-opacity:0.8;" x="120.714618" xlink:href="#mb584734ec4" y="309.496274"/>
     <use style="fill:#1f77b4;fill-opacity:0.8;stroke:#1f77b4;stroke-opacity:0.8;" x="219.0223" xlink:href="#mb584734ec4" y="221.612996"/>
     <use style="fill:#1f77b4;fill-opacity:0.8;stroke:#1f77b4;stroke-opacity:0.8;" x="144.885649" xlink:href="#mb584734ec4" y="273.341314"/>
     <use style="fill:#1f77b4;fill-opacity:0.8;stroke:#1f77b4;stroke-opacity:0.8;" x="274.762371" xlink:href="#mb584734ec4" y="176.98775"/>
     <use style="fill:#1f77b4;fill-opacity:0.8;stroke:#1f77b4;stroke-opacity:0.8;" x="214.733001" xlink:href="#mb584734ec4" y="221.612996"/>
     <use style="fill:#1f77b4;fill-opacity:0.8;stroke:#1f77b4;stroke-opacity:0.8;" x="130.4531" xlink:href="#mb584734ec4" y="297.900359"/>
     <use style="fill:#1f77b4;fill-opacity:0.8;stroke:#1f77b4;stroke-opacity:0.8;" x="120.009579" xlink:href="#mb584734ec4" y="260.868427"/>
     <use style="fill:#1f77b4;fill-opacity:0.8;stroke:#1f77b4;stroke-opacity:0.8;" x="333.305907" xlink:href="#mb584734ec4" y="110.276808"/>
     <use style="fill:#1f77b4;fill-opacity:0.8;stroke:#1f77b4;stroke-opacity:0.8;" x="245.353577" xlink:href="#mb584734ec4" y="221.612996"/>
     <use style="fill:#1f77b4;fill-opacity:0.8;stroke:#1f77b4;stroke-opacity:0.8;" x="133.339439" xlink:href="#mb584734ec4" y="287.410578"/>
     <use style="fill:#1f77b4;fill-opacity:0.8;stroke:#1f77b4;stroke-opacity:0.8;" x="258.654607" xlink:href="#mb584734ec4" y="176.98775"/>
     <use style="fill:#1f77b4;fill-opacity:0.8;stroke:#1f77b4;stroke-opacity:0.8;" x="245.121744" xlink:href="#mb584734ec4" y="201.546795"/>
     <use style="fill:#1f77b4;fill-opacity:0.8;stroke:#1f77b4;stroke-opacity:0.8;" x="293.813665" xlink:href="#mb584734ec4" y="156.921549"/>
     <use style="fill:#1f77b4;fill-opacity:0.8;stroke:#1f77b4;stroke-opacity:0.8;" x="330.549978" xlink:href="#mb584734ec4" y="100.700388"/>
     <use style="fill:#1f77b4;fill-opacity:0.8;stroke:#1f77b4;stroke-opacity:0.8;" x="190.007215" xlink:href="#mb584734ec4" y="236.309381"/>
     <use style="fill:#1f77b4;fill-opacity:0.8;stroke:#1f77b4;stroke-opacity:0.8;" x="212.895095" xlink:href="#mb584734ec4" y="260.868427"/>
     <use style="fill:#1f77b4;fill-opacity:0.8;stroke:#1f77b4;stroke-opacity:0.8;" x="101.509924" xlink:href="#mb584734ec4" y="315.787095"/>
     <use style="fill:#1f77b4;fill-opacity:0.8;stroke:#1f77b4;stroke-opacity:0.8;" x="185.682301" xlink:href="#mb584734ec4" y="253.275113"/>
     <use style="fill:#1f77b4;fill-opacity:0.8;stroke:#1f77b4;stroke-opacity:0.8;" x="282.697907" xlink:href="#mb584734ec4" y="221.612996"/>
     <use style="fill:#1f77b4;fill-opacity:0.8;stroke:#1f77b4;stroke-opacity:0.8;" x="289.38307" xlink:href="#mb584734ec4" y="160.022019"/>
     <use style="fill:#1f77b4;fill-opacity:0.8;stroke:#1f77b4;stroke-opacity:0.8;" x="166.004111" xlink:href="#mb584734ec4" y="197.053951"/>
     <use style="fill:#1f77b4;fill-opacity:0.8;stroke:#1f77b4;stroke-opacity:0.8;" x="116.110909" xlink:href="#mb584734ec4" y="297.900359"/>
     <use style="fill:#1f77b4;fill-opacity:0.8;stroke:#1f77b4;stroke-opacity:0.8;" x="163.608673" xlink:href="#mb584734ec4" y="253.275113"/>
     <use style="fill:#1f77b4;fill-opacity:0.8;stroke:#1f77b4;stroke-opacity:0.8;" x="129.745874" xlink:href="#mb584734ec4" y="329.562475"/>
     <use style="fill:#1f77b4;fill-opacity:0.8;stroke:#1f77b4;stroke-opacity:0.8;" x="126.600731" xlink:href="#mb584734ec4" y="273.341314"/>
    </g>
   </g>
   <g id="PolyCollection_1">
    <path clip-path="url(#p2ce321e26f)" d="M 43.78125 349.587996 
L 43.78125 375.992773 
L 46.898802 373.025787 
L 50.016355 370.104993 
L 53.133907 367.260759 
L 56.251459 364.456488 
L 59.369012 361.755204 
L 62.486564 358.922391 
L 65.604116 356.144493 
L 68.721668 353.381523 
L 71.839221 350.645772 
L 74.956773 347.889546 
L 78.074325 345.045069 
L 81.191878 342.202669 
L 84.30943 339.34101 
L 87.426982 336.528001 
L 90.544535 333.830304 
L 93.662087 331.058709 
L 96.779639 328.174269 
L 99.897192 325.350139 
L 103.014744 322.644046 
L 106.132296 319.921735 
L 109.249848 317.214807 
L 112.367401 314.507151 
L 115.484953 311.609817 
L 118.602505 308.960764 
L 121.720058 306.273774 
L 124.83761 303.610329 
L 127.955162 300.899694 
L 131.072715 298.083157 
L 134.190267 295.261345 
L 137.307819 292.513179 
L 140.425372 289.759975 
L 143.542924 287.007819 
L 146.660476 284.250651 
L 149.778028 281.51171 
L 152.895581 278.834912 
L 156.013133 276.267036 
L 159.130685 273.676631 
L 162.248238 270.98744 
L 165.36579 268.374661 
L 168.483342 265.76945 
L 171.600895 263.151175 
L 174.718447 260.538684 
L 177.835999 257.924307 
L 180.953552 255.372149 
L 184.071104 252.758551 
L 187.188656 250.200256 
L 190.306209 247.637905 
L 193.423761 245.022386 
L 196.541313 242.510426 
L 199.658865 239.958704 
L 202.776418 237.503607 
L 205.89397 235.065878 
L 209.011522 232.63105 
L 212.129075 230.004637 
L 215.246627 227.500127 
L 218.364179 225.001819 
L 221.481732 222.584985 
L 224.599284 220.176736 
L 227.716836 217.676487 
L 230.834389 215.245258 
L 233.951941 212.865382 
L 237.069493 210.389579 
L 240.187045 207.883959 
L 243.304598 205.461962 
L 246.42215 203.039461 
L 249.539702 200.617493 
L 252.657255 198.236964 
L 255.774807 195.900815 
L 258.892359 193.636961 
L 262.009912 191.318019 
L 265.127464 188.966672 
L 268.245016 186.431295 
L 271.362569 183.877843 
L 274.480121 181.397273 
L 277.597673 178.916703 
L 280.715225 176.523977 
L 283.832778 174.238047 
L 286.95033 171.917324 
L 290.067882 169.596602 
L 293.185435 167.273066 
L 296.302987 164.946998 
L 299.420539 162.624204 
L 302.538092 160.302145 
L 305.655644 157.980085 
L 308.773196 155.658025 
L 311.890749 153.334578 
L 315.008301 151.010205 
L 318.125853 148.648298 
L 321.243405 146.364912 
L 324.360958 144.043745 
L 327.47851 141.722577 
L 330.596062 139.40141 
L 333.713615 137.078003 
L 336.831167 134.752707 
L 339.948719 132.420477 
L 343.066272 129.998506 
L 346.183824 127.633765 
L 349.301376 125.319493 
L 352.418929 122.945617 
L 352.418929 89.456364 
L 352.418929 89.456364 
L 349.301376 92.250206 
L 346.183824 95.065144 
L 343.066272 97.911872 
L 339.948719 100.783575 
L 336.831167 103.655278 
L 333.713615 106.526981 
L 330.596062 109.398684 
L 327.47851 112.270387 
L 324.360958 115.124176 
L 321.243405 117.966635 
L 318.125853 120.810412 
L 315.008301 123.624693 
L 311.890749 126.436989 
L 308.773196 129.302463 
L 305.655644 132.08899 
L 302.538092 134.901141 
L 299.420539 137.745068 
L 296.302987 140.589416 
L 293.185435 143.436248 
L 290.067882 146.296142 
L 286.95033 149.228235 
L 283.832778 152.078345 
L 280.715225 154.92061 
L 277.597673 157.761542 
L 274.480121 160.5097 
L 271.362569 163.307278 
L 268.245016 166.076719 
L 265.127464 168.904691 
L 262.009912 171.673235 
L 258.892359 174.516122 
L 255.774807 177.436357 
L 252.657255 180.322152 
L 249.539702 183.208165 
L 246.42215 186.00031 
L 243.304598 188.736009 
L 240.187045 191.575527 
L 237.069493 194.42208 
L 233.951941 197.120938 
L 230.834389 199.819286 
L 227.716836 202.517634 
L 224.599284 205.346854 
L 221.481732 208.239537 
L 218.364179 211.132221 
L 215.246627 214.023747 
L 212.129075 216.753831 
L 209.011522 219.316613 
L 205.89397 221.898668 
L 202.776418 224.532256 
L 199.658865 227.333096 
L 196.541313 230.075889 
L 193.423761 232.929451 
L 190.306209 235.644575 
L 187.188656 238.341882 
L 184.071104 241.040191 
L 180.953552 243.736265 
L 177.835999 246.385422 
L 174.718447 248.909592 
L 171.600895 251.456876 
L 168.483342 254.183676 
L 165.36579 256.737563 
L 162.248238 259.189718 
L 159.130685 261.751641 
L 156.013133 264.183106 
L 152.895581 266.652427 
L 149.778028 269.116984 
L 146.660476 271.560752 
L 143.542924 274.064252 
L 140.425372 276.537948 
L 137.307819 278.880622 
L 134.190267 281.288514 
L 131.072715 283.751533 
L 127.955162 286.170685 
L 124.83761 288.55832 
L 121.720058 290.926799 
L 118.602505 293.3557 
L 115.484953 295.756697 
L 112.367401 298.215456 
L 109.249848 300.618665 
L 106.132296 302.994199 
L 103.014744 305.350898 
L 99.897192 307.747889 
L 96.779639 310.008801 
L 93.662087 312.453318 
L 90.544535 314.78029 
L 87.426982 317.092048 
L 84.30943 319.403806 
L 81.191878 321.714658 
L 78.074325 324.022065 
L 74.956773 326.3316 
L 71.839221 328.642056 
L 68.721668 330.950969 
L 65.604116 333.258719 
L 62.486564 335.56647 
L 59.369012 337.874841 
L 56.251459 340.186097 
L 53.133907 342.497373 
L 50.016355 344.825236 
L 46.898802 347.210017 
L 43.78125 349.587996 
z
" style="fill:#1f77b4;fill-opacity:0.15;"/>
   </g>
   <g id="matplotlib.axis_1">
    <g id="xtick_1">
     <g id="line2d_1">
      <defs>
       <path d="M 0 0 
L 0 3.5 
" id="m61193342f7" style="stroke:#000000;stroke-width:0.8;"/>
      </defs>
      <g>
       <use style="stroke:#000000;stroke-width:0.8;" x="62.872575" xlink:href="#m61193342f7" y="400.6"/>
      </g>
     </g>
     <g id="text_1">
      <!-- 2.5 -->
      <g transform="translate(54.921012 415.198437)scale(0.1 -0.1)">
       <defs>
        <path d="M 19.1875 8.296875 
L 53.609375 8.296875 
L 53.609375 0 
L 7.328125 0 
L 7.328125 8.296875 
Q 12.9375 14.109375 22.625 23.890625 
Q 32.328125 33.6875 34.8125 36.53125 
Q 39.546875 41.84375 41.421875 45.53125 
Q 43.3125 49.21875 43.3125 52.78125 
Q 43.3125 58.59375 39.234375 62.25 
Q 35.15625 65.921875 28.609375 65.921875 
Q 23.96875 65.921875 18.8125 64.3125 
Q 13.671875 62.703125 7.8125 59.421875 
L 7.8125 69.390625 
Q 13.765625 71.78125 18.9375 73 
Q 24.125 74.21875 28.421875 74.21875 
Q 39.75 74.21875 46.484375 68.546875 
Q 53.21875 62.890625 53.21875 53.421875 
Q 53.21875 48.921875 51.53125 44.890625 
Q 49.859375 40.875 45.40625 35.40625 
Q 44.1875 33.984375 37.640625 27.21875 
Q 31.109375 20.453125 19.1875 8.296875 
z
" id="DejaVuSans-50"/>
        <path d="M 10.6875 12.40625 
L 21 12.40625 
L 21 0 
L 10.6875 0 
z
" id="DejaVuSans-46"/>
        <path d="M 10.796875 72.90625 
L 49.515625 72.90625 
L 49.515625 64.59375 
L 19.828125 64.59375 
L 19.828125 46.734375 
Q 21.96875 47.46875 24.109375 47.828125 
Q 26.265625 48.1875 28.421875 48.1875 
Q 40.625 48.1875 47.75 41.5 
Q 54.890625 34.8125 54.890625 23.390625 
Q 54.890625 11.625 47.5625 5.09375 
Q 40.234375 -1.421875 26.90625 -1.421875 
Q 22.3125 -1.421875 17.546875 -0.640625 
Q 12.796875 0.140625 7.71875 1.703125 
L 7.71875 11.625 
Q 12.109375 9.234375 16.796875 8.0625 
Q 21.484375 6.890625 26.703125 6.890625 
Q 35.15625 6.890625 40.078125 11.328125 
Q 45.015625 15.765625 45.015625 23.390625 
Q 45.015625 31 40.078125 35.4375 
Q 35.15625 39.890625 26.703125 39.890625 
Q 22.75 39.890625 18.8125 39.015625 
Q 14.890625 38.140625 10.796875 36.28125 
z
" id="DejaVuSans-53"/>
       </defs>
       <use xlink:href="#DejaVuSans-50"/>
       <use x="63.623047" xlink:href="#DejaVuSans-46"/>
       <use x="95.410156" xlink:href="#DejaVuSans-53"/>
      </g>
     </g>
    </g>
    <g id="xtick_2">
     <g id="line2d_2">
      <g>
       <use style="stroke:#000000;stroke-width:0.8;" x="125.10828" xlink:href="#m61193342f7" y="400.6"/>
      </g>
     </g>
     <g id="text_2">
      <!-- 3.0 -->
      <g transform="translate(117.156718 415.198437)scale(0.1 -0.1)">
       <defs>
        <path d="M 40.578125 39.3125 
Q 47.65625 37.796875 51.625 33 
Q 55.609375 28.21875 55.609375 21.1875 
Q 55.609375 10.40625 48.1875 4.484375 
Q 40.765625 -1.421875 27.09375 -1.421875 
Q 22.515625 -1.421875 17.65625 -0.515625 
Q 12.796875 0.390625 7.625 2.203125 
L 7.625 11.71875 
Q 11.71875 9.328125 16.59375 8.109375 
Q 21.484375 6.890625 26.8125 6.890625 
Q 36.078125 6.890625 40.9375 10.546875 
Q 45.796875 14.203125 45.796875 21.1875 
Q 45.796875 27.640625 41.28125 31.265625 
Q 36.765625 34.90625 28.71875 34.90625 
L 20.21875 34.90625 
L 20.21875 43.015625 
L 29.109375 43.015625 
Q 36.375 43.015625 40.234375 45.921875 
Q 44.09375 48.828125 44.09375 54.296875 
Q 44.09375 59.90625 40.109375 62.90625 
Q 36.140625 65.921875 28.71875 65.921875 
Q 24.65625 65.921875 20.015625 65.03125 
Q 15.375 64.15625 9.8125 62.3125 
L 9.8125 71.09375 
Q 15.4375 72.65625 20.34375 73.4375 
Q 25.25 74.21875 29.59375 74.21875 
Q 40.828125 74.21875 47.359375 69.109375 
Q 53.90625 64.015625 53.90625 55.328125 
Q 53.90625 49.265625 50.4375 45.09375 
Q 46.96875 40.921875 40.578125 39.3125 
z
" id="DejaVuSans-51"/>
        <path d="M 31.78125 66.40625 
Q 24.171875 66.40625 20.328125 58.90625 
Q 16.5 51.421875 16.5 36.375 
Q 16.5 21.390625 20.328125 13.890625 
Q 24.171875 6.390625 31.78125 6.390625 
Q 39.453125 6.390625 43.28125 13.890625 
Q 47.125 21.390625 47.125 36.375 
Q 47.125 51.421875 43.28125 58.90625 
Q 39.453125 66.40625 31.78125 66.40625 
z
M 31.78125 74.21875 
Q 44.046875 74.21875 50.515625 64.515625 
Q 56.984375 54.828125 56.984375 36.375 
Q 56.984375 17.96875 50.515625 8.265625 
Q 44.046875 -1.421875 31.78125 -1.421875 
Q 19.53125 -1.421875 13.0625 8.265625 
Q 6.59375 17.96875 6.59375 36.375 
Q 6.59375 54.828125 13.0625 64.515625 
Q 19.53125 74.21875 31.78125 74.21875 
z
" id="DejaVuSans-48"/>
       </defs>
       <use xlink:href="#DejaVuSans-51"/>
       <use x="63.623047" xlink:href="#DejaVuSans-46"/>
       <use x="95.410156" xlink:href="#DejaVuSans-48"/>
      </g>
     </g>
    </g>
    <g id="xtick_3">
     <g id="line2d_3">
      <g>
       <use style="stroke:#000000;stroke-width:0.8;" x="187.343985" xlink:href="#m61193342f7" y="400.6"/>
      </g>
     </g>
     <g id="text_3">
      <!-- 3.5 -->
      <g transform="translate(179.392423 415.198437)scale(0.1 -0.1)">
       <use xlink:href="#DejaVuSans-51"/>
       <use x="63.623047" xlink:href="#DejaVuSans-46"/>
       <use x="95.410156" xlink:href="#DejaVuSans-53"/>
      </g>
     </g>
    </g>
    <g id="xtick_4">
     <g id="line2d_4">
      <g>
       <use style="stroke:#000000;stroke-width:0.8;" x="249.579691" xlink:href="#m61193342f7" y="400.6"/>
      </g>
     </g>
     <g id="text_4">
      <!-- 4.0 -->
      <g transform="translate(241.628128 415.198437)scale(0.1 -0.1)">
       <defs>
        <path d="M 37.796875 64.3125 
L 12.890625 25.390625 
L 37.796875 25.390625 
z
M 35.203125 72.90625 
L 47.609375 72.90625 
L 47.609375 25.390625 
L 58.015625 25.390625 
L 58.015625 17.1875 
L 47.609375 17.1875 
L 47.609375 0 
L 37.796875 0 
L 37.796875 17.1875 
L 4.890625 17.1875 
L 4.890625 26.703125 
z
" id="DejaVuSans-52"/>
       </defs>
       <use xlink:href="#DejaVuSans-52"/>
       <use x="63.623047" xlink:href="#DejaVuSans-46"/>
       <use x="95.410156" xlink:href="#DejaVuSans-48"/>
      </g>
     </g>
    </g>
    <g id="xtick_5">
     <g id="line2d_5">
      <g>
       <use style="stroke:#000000;stroke-width:0.8;" x="311.815396" xlink:href="#m61193342f7" y="400.6"/>
      </g>
     </g>
     <g id="text_5">
      <!-- 4.5 -->
      <g transform="translate(303.863834 415.198437)scale(0.1 -0.1)">
       <use xlink:href="#DejaVuSans-52"/>
       <use x="63.623047" xlink:href="#DejaVuSans-46"/>
       <use x="95.410156" xlink:href="#DejaVuSans-53"/>
      </g>
     </g>
    </g>
    <g id="text_6">
     <!-- Predicted Values -->
     <g transform="translate(156.704777 428.876562)scale(0.1 -0.1)">
      <defs>
       <path d="M 19.671875 64.796875 
L 19.671875 37.40625 
L 32.078125 37.40625 
Q 38.96875 37.40625 42.71875 40.96875 
Q 46.484375 44.53125 46.484375 51.125 
Q 46.484375 57.671875 42.71875 61.234375 
Q 38.96875 64.796875 32.078125 64.796875 
z
M 9.8125 72.90625 
L 32.078125 72.90625 
Q 44.34375 72.90625 50.609375 67.359375 
Q 56.890625 61.8125 56.890625 51.125 
Q 56.890625 40.328125 50.609375 34.8125 
Q 44.34375 29.296875 32.078125 29.296875 
L 19.671875 29.296875 
L 19.671875 0 
L 9.8125 0 
z
" id="DejaVuSans-80"/>
       <path d="M 41.109375 46.296875 
Q 39.59375 47.171875 37.8125 47.578125 
Q 36.03125 48 33.890625 48 
Q 26.265625 48 22.1875 43.046875 
Q 18.109375 38.09375 18.109375 28.8125 
L 18.109375 0 
L 9.078125 0 
L 9.078125 54.6875 
L 18.109375 54.6875 
L 18.109375 46.1875 
Q 20.953125 51.171875 25.484375 53.578125 
Q 30.03125 56 36.53125 56 
Q 37.453125 56 38.578125 55.875 
Q 39.703125 55.765625 41.0625 55.515625 
z
" id="DejaVuSans-114"/>
       <path d="M 56.203125 29.59375 
L 56.203125 25.203125 
L 14.890625 25.203125 
Q 15.484375 15.921875 20.484375 11.0625 
Q 25.484375 6.203125 34.421875 6.203125 
Q 39.59375 6.203125 44.453125 7.46875 
Q 49.3125 8.734375 54.109375 11.28125 
L 54.109375 2.78125 
Q 49.265625 0.734375 44.1875 -0.34375 
Q 39.109375 -1.421875 33.890625 -1.421875 
Q 20.796875 -1.421875 13.15625 6.1875 
Q 5.515625 13.8125 5.515625 26.8125 
Q 5.515625 40.234375 12.765625 48.109375 
Q 20.015625 56 32.328125 56 
Q 43.359375 56 49.78125 48.890625 
Q 56.203125 41.796875 56.203125 29.59375 
z
M 47.21875 32.234375 
Q 47.125 39.59375 43.09375 43.984375 
Q 39.0625 48.390625 32.421875 48.390625 
Q 24.90625 48.390625 20.390625 44.140625 
Q 15.875 39.890625 15.1875 32.171875 
z
" id="DejaVuSans-101"/>
       <path d="M 45.40625 46.390625 
L 45.40625 75.984375 
L 54.390625 75.984375 
L 54.390625 0 
L 45.40625 0 
L 45.40625 8.203125 
Q 42.578125 3.328125 38.25 0.953125 
Q 33.9375 -1.421875 27.875 -1.421875 
Q 17.96875 -1.421875 11.734375 6.484375 
Q 5.515625 14.40625 5.515625 27.296875 
Q 5.515625 40.1875 11.734375 48.09375 
Q 17.96875 56 27.875 56 
Q 33.9375 56 38.25 53.625 
Q 42.578125 51.265625 45.40625 46.390625 
z
M 14.796875 27.296875 
Q 14.796875 17.390625 18.875 11.75 
Q 22.953125 6.109375 30.078125 6.109375 
Q 37.203125 6.109375 41.296875 11.75 
Q 45.40625 17.390625 45.40625 27.296875 
Q 45.40625 37.203125 41.296875 42.84375 
Q 37.203125 48.484375 30.078125 48.484375 
Q 22.953125 48.484375 18.875 42.84375 
Q 14.796875 37.203125 14.796875 27.296875 
z
" id="DejaVuSans-100"/>
       <path d="M 9.421875 54.6875 
L 18.40625 54.6875 
L 18.40625 0 
L 9.421875 0 
z
M 9.421875 75.984375 
L 18.40625 75.984375 
L 18.40625 64.59375 
L 9.421875 64.59375 
z
" id="DejaVuSans-105"/>
       <path d="M 48.78125 52.59375 
L 48.78125 44.1875 
Q 44.96875 46.296875 41.140625 47.34375 
Q 37.3125 48.390625 33.40625 48.390625 
Q 24.65625 48.390625 19.8125 42.84375 
Q 14.984375 37.3125 14.984375 27.296875 
Q 14.984375 17.28125 19.8125 11.734375 
Q 24.65625 6.203125 33.40625 6.203125 
Q 37.3125 6.203125 41.140625 7.25 
Q 44.96875 8.296875 48.78125 10.40625 
L 48.78125 2.09375 
Q 45.015625 0.34375 40.984375 -0.53125 
Q 36.96875 -1.421875 32.421875 -1.421875 
Q 20.0625 -1.421875 12.78125 6.34375 
Q 5.515625 14.109375 5.515625 27.296875 
Q 5.515625 40.671875 12.859375 48.328125 
Q 20.21875 56 33.015625 56 
Q 37.15625 56 41.109375 55.140625 
Q 45.0625 54.296875 48.78125 52.59375 
z
" id="DejaVuSans-99"/>
       <path d="M 18.3125 70.21875 
L 18.3125 54.6875 
L 36.8125 54.6875 
L 36.8125 47.703125 
L 18.3125 47.703125 
L 18.3125 18.015625 
Q 18.3125 11.328125 20.140625 9.421875 
Q 21.96875 7.515625 27.59375 7.515625 
L 36.8125 7.515625 
L 36.8125 0 
L 27.59375 0 
Q 17.1875 0 13.234375 3.875 
Q 9.28125 7.765625 9.28125 18.015625 
L 9.28125 47.703125 
L 2.6875 47.703125 
L 2.6875 54.6875 
L 9.28125 54.6875 
L 9.28125 70.21875 
z
" id="DejaVuSans-116"/>
       <path id="DejaVuSans-32"/>
       <path d="M 28.609375 0 
L 0.78125 72.90625 
L 11.078125 72.90625 
L 34.1875 11.53125 
L 57.328125 72.90625 
L 67.578125 72.90625 
L 39.796875 0 
z
" id="DejaVuSans-86"/>
       <path d="M 34.28125 27.484375 
Q 23.390625 27.484375 19.1875 25 
Q 14.984375 22.515625 14.984375 16.5 
Q 14.984375 11.71875 18.140625 8.90625 
Q 21.296875 6.109375 26.703125 6.109375 
Q 34.1875 6.109375 38.703125 11.40625 
Q 43.21875 16.703125 43.21875 25.484375 
L 43.21875 27.484375 
z
M 52.203125 31.203125 
L 52.203125 0 
L 43.21875 0 
L 43.21875 8.296875 
Q 40.140625 3.328125 35.546875 0.953125 
Q 30.953125 -1.421875 24.3125 -1.421875 
Q 15.921875 -1.421875 10.953125 3.296875 
Q 6 8.015625 6 15.921875 
Q 6 25.140625 12.171875 29.828125 
Q 18.359375 34.515625 30.609375 34.515625 
L 43.21875 34.515625 
L 43.21875 35.40625 
Q 43.21875 41.609375 39.140625 45 
Q 35.0625 48.390625 27.6875 48.390625 
Q 23 48.390625 18.546875 47.265625 
Q 14.109375 46.140625 10.015625 43.890625 
L 10.015625 52.203125 
Q 14.9375 54.109375 19.578125 55.046875 
Q 24.21875 56 28.609375 56 
Q 40.484375 56 46.34375 49.84375 
Q 52.203125 43.703125 52.203125 31.203125 
z
" id="DejaVuSans-97"/>
       <path d="M 9.421875 75.984375 
L 18.40625 75.984375 
L 18.40625 0 
L 9.421875 0 
z
" id="DejaVuSans-108"/>
       <path d="M 8.5 21.578125 
L 8.5 54.6875 
L 17.484375 54.6875 
L 17.484375 21.921875 
Q 17.484375 14.15625 20.5 10.265625 
Q 23.53125 6.390625 29.59375 6.390625 
Q 36.859375 6.390625 41.078125 11.03125 
Q 45.3125 15.671875 45.3125 23.6875 
L 45.3125 54.6875 
L 54.296875 54.6875 
L 54.296875 0 
L 45.3125 0 
L 45.3125 8.40625 
Q 42.046875 3.421875 37.71875 1 
Q 33.40625 -1.421875 27.6875 -1.421875 
Q 18.265625 -1.421875 13.375 4.4375 
Q 8.5 10.296875 8.5 21.578125 
z
M 31.109375 56 
z
" id="DejaVuSans-117"/>
       <path d="M 44.28125 53.078125 
L 44.28125 44.578125 
Q 40.484375 46.53125 36.375 47.5 
Q 32.28125 48.484375 27.875 48.484375 
Q 21.1875 48.484375 17.84375 46.4375 
Q 14.5 44.390625 14.5 40.28125 
Q 14.5 37.15625 16.890625 35.375 
Q 19.28125 33.59375 26.515625 31.984375 
L 29.59375 31.296875 
Q 39.15625 29.25 43.1875 25.515625 
Q 47.21875 21.78125 47.21875 15.09375 
Q 47.21875 7.46875 41.1875 3.015625 
Q 35.15625 -1.421875 24.609375 -1.421875 
Q 20.21875 -1.421875 15.453125 -0.5625 
Q 10.6875 0.296875 5.421875 2 
L 5.421875 11.28125 
Q 10.40625 8.6875 15.234375 7.390625 
Q 20.0625 6.109375 24.8125 6.109375 
Q 31.15625 6.109375 34.5625 8.28125 
Q 37.984375 10.453125 37.984375 14.40625 
Q 37.984375 18.0625 35.515625 20.015625 
Q 33.0625 21.96875 24.703125 23.78125 
L 21.578125 24.515625 
Q 13.234375 26.265625 9.515625 29.90625 
Q 5.8125 33.546875 5.8125 39.890625 
Q 5.8125 47.609375 11.28125 51.796875 
Q 16.75 56 26.8125 56 
Q 31.78125 56 36.171875 55.265625 
Q 40.578125 54.546875 44.28125 53.078125 
z
" id="DejaVuSans-115"/>
      </defs>
      <use xlink:href="#DejaVuSans-80"/>
      <use x="58.552734" xlink:href="#DejaVuSans-114"/>
      <use x="97.416016" xlink:href="#DejaVuSans-101"/>
      <use x="158.939453" xlink:href="#DejaVuSans-100"/>
      <use x="222.416016" xlink:href="#DejaVuSans-105"/>
      <use x="250.199219" xlink:href="#DejaVuSans-99"/>
      <use x="305.179688" xlink:href="#DejaVuSans-116"/>
      <use x="344.388672" xlink:href="#DejaVuSans-101"/>
      <use x="405.912109" xlink:href="#DejaVuSans-100"/>
      <use x="469.388672" xlink:href="#DejaVuSans-32"/>
      <use x="501.175781" xlink:href="#DejaVuSans-86"/>
      <use x="561.833984" xlink:href="#DejaVuSans-97"/>
      <use x="623.113281" xlink:href="#DejaVuSans-108"/>
      <use x="650.896484" xlink:href="#DejaVuSans-117"/>
      <use x="714.275391" xlink:href="#DejaVuSans-101"/>
      <use x="775.798828" xlink:href="#DejaVuSans-115"/>
     </g>
    </g>
   </g>
   <g id="matplotlib.axis_2">
    <g id="ytick_1">
     <g id="line2d_6">
      <defs>
       <path d="M 0 0 
L -3.5 0 
" id="mb83955f542" style="stroke:#000000;stroke-width:0.8;"/>
      </defs>
      <g>
       <use style="stroke:#000000;stroke-width:0.8;" x="43.78125" xlink:href="#mb83955f542" y="352.460355"/>
      </g>
     </g>
     <g id="text_7">
      <!-- 2.5 -->
      <g transform="translate(20.878125 356.259574)scale(0.1 -0.1)">
       <use xlink:href="#DejaVuSans-50"/>
       <use x="63.623047" xlink:href="#DejaVuSans-46"/>
       <use x="95.410156" xlink:href="#DejaVuSans-53"/>
      </g>
     </g>
    </g>
    <g id="ytick_2">
     <g id="line2d_7">
      <g>
       <use style="stroke:#000000;stroke-width:0.8;" x="43.78125" xlink:href="#mb83955f542" y="297.430655"/>
      </g>
     </g>
     <g id="text_8">
      <!-- 3.0 -->
      <g transform="translate(20.878125 301.229874)scale(0.1 -0.1)">
       <use xlink:href="#DejaVuSans-51"/>
       <use x="63.623047" xlink:href="#DejaVuSans-46"/>
       <use x="95.410156" xlink:href="#DejaVuSans-48"/>
      </g>
     </g>
    </g>
    <g id="ytick_3">
     <g id="line2d_8">
      <g>
       <use style="stroke:#000000;stroke-width:0.8;" x="43.78125" xlink:href="#mb83955f542" y="242.400956"/>
      </g>
     </g>
     <g id="text_9">
      <!-- 3.5 -->
      <g transform="translate(20.878125 246.200174)scale(0.1 -0.1)">
       <use xlink:href="#DejaVuSans-51"/>
       <use x="63.623047" xlink:href="#DejaVuSans-46"/>
       <use x="95.410156" xlink:href="#DejaVuSans-53"/>
      </g>
     </g>
    </g>
    <g id="ytick_4">
     <g id="line2d_9">
      <g>
       <use style="stroke:#000000;stroke-width:0.8;" x="43.78125" xlink:href="#mb83955f542" y="187.371256"/>
      </g>
     </g>
     <g id="text_10">
      <!-- 4.0 -->
      <g transform="translate(20.878125 191.170475)scale(0.1 -0.1)">
       <use xlink:href="#DejaVuSans-52"/>
       <use x="63.623047" xlink:href="#DejaVuSans-46"/>
       <use x="95.410156" xlink:href="#DejaVuSans-48"/>
      </g>
     </g>
    </g>
    <g id="ytick_5">
     <g id="line2d_10">
      <g>
       <use style="stroke:#000000;stroke-width:0.8;" x="43.78125" xlink:href="#mb83955f542" y="132.341556"/>
      </g>
     </g>
     <g id="text_11">
      <!-- 4.5 -->
      <g transform="translate(20.878125 136.140775)scale(0.1 -0.1)">
       <use xlink:href="#DejaVuSans-52"/>
       <use x="63.623047" xlink:href="#DejaVuSans-46"/>
       <use x="95.410156" xlink:href="#DejaVuSans-53"/>
      </g>
     </g>
    </g>
    <g id="ytick_6">
     <g id="line2d_11">
      <g>
       <use style="stroke:#000000;stroke-width:0.8;" x="43.78125" xlink:href="#mb83955f542" y="77.311857"/>
      </g>
     </g>
     <g id="text_12">
      <!-- 5.0 -->
      <g transform="translate(20.878125 81.111075)scale(0.1 -0.1)">
       <use xlink:href="#DejaVuSans-53"/>
       <use x="63.623047" xlink:href="#DejaVuSans-46"/>
       <use x="95.410156" xlink:href="#DejaVuSans-48"/>
      </g>
     </g>
    </g>
    <g id="text_13">
     <!-- Real Values -->
     <g transform="translate(14.798438 266.323906)rotate(-90)scale(0.1 -0.1)">
      <defs>
       <path d="M 44.390625 34.1875 
Q 47.5625 33.109375 50.5625 29.59375 
Q 53.5625 26.078125 56.59375 19.921875 
L 66.609375 0 
L 56 0 
L 46.6875 18.703125 
Q 43.0625 26.03125 39.671875 28.421875 
Q 36.28125 30.8125 30.421875 30.8125 
L 19.671875 30.8125 
L 19.671875 0 
L 9.8125 0 
L 9.8125 72.90625 
L 32.078125 72.90625 
Q 44.578125 72.90625 50.734375 67.671875 
Q 56.890625 62.453125 56.890625 51.90625 
Q 56.890625 45.015625 53.6875 40.46875 
Q 50.484375 35.9375 44.390625 34.1875 
z
M 19.671875 64.796875 
L 19.671875 38.921875 
L 32.078125 38.921875 
Q 39.203125 38.921875 42.84375 42.21875 
Q 46.484375 45.515625 46.484375 51.90625 
Q 46.484375 58.296875 42.84375 61.546875 
Q 39.203125 64.796875 32.078125 64.796875 
z
" id="DejaVuSans-82"/>
      </defs>
      <use xlink:href="#DejaVuSans-82"/>
      <use x="64.982422" xlink:href="#DejaVuSans-101"/>
      <use x="126.505859" xlink:href="#DejaVuSans-97"/>
      <use x="187.785156" xlink:href="#DejaVuSans-108"/>
      <use x="215.568359" xlink:href="#DejaVuSans-32"/>
      <use x="247.355469" xlink:href="#DejaVuSans-86"/>
      <use x="308.013672" xlink:href="#DejaVuSans-97"/>
      <use x="369.292969" xlink:href="#DejaVuSans-108"/>
      <use x="397.076172" xlink:href="#DejaVuSans-117"/>
      <use x="460.455078" xlink:href="#DejaVuSans-101"/>
      <use x="521.978516" xlink:href="#DejaVuSans-115"/>
     </g>
    </g>
   </g>
   <g id="line2d_12">
    <path clip-path="url(#p2ce321e26f)" d="M 43.78125 363.93882 
L 46.898802 361.336608 
L 50.016355 358.734395 
L 53.133907 356.132183 
L 56.251459 353.52997 
L 59.369012 350.927757 
L 62.486564 348.325545 
L 65.604116 345.723332 
L 68.721668 343.12112 
L 71.839221 340.518907 
L 74.956773 337.916694 
L 78.074325 335.314482 
L 81.191878 332.712269 
L 84.30943 330.110057 
L 87.426982 327.507844 
L 90.544535 324.905632 
L 93.662087 322.303419 
L 96.779639 319.701206 
L 99.897192 317.098994 
L 103.014744 314.496781 
L 106.132296 311.894569 
L 109.249848 309.292356 
L 112.367401 306.690143 
L 115.484953 304.087931 
L 118.602505 301.485718 
L 121.720058 298.883506 
L 124.83761 296.281293 
L 127.955162 293.67908 
L 131.072715 291.076868 
L 134.190267 288.474655 
L 137.307819 285.872443 
L 140.425372 283.27023 
L 143.542924 280.668017 
L 146.660476 278.065805 
L 149.778028 275.463592 
L 152.895581 272.86138 
L 156.013133 270.259167 
L 159.130685 267.656955 
L 162.248238 265.054742 
L 165.36579 262.452529 
L 168.483342 259.850317 
L 171.600895 257.248104 
L 174.718447 254.645892 
L 177.835999 252.043679 
L 180.953552 249.441466 
L 184.071104 246.839254 
L 187.188656 244.237041 
L 190.306209 241.634829 
L 193.423761 239.032616 
L 196.541313 236.430403 
L 199.658865 233.828191 
L 202.776418 231.225978 
L 205.89397 228.623766 
L 209.011522 226.021553 
L 212.129075 223.41934 
L 215.246627 220.817128 
L 218.364179 218.214915 
L 221.481732 215.612703 
L 224.599284 213.01049 
L 227.716836 210.408278 
L 230.834389 207.806065 
L 233.951941 205.203852 
L 237.069493 202.60164 
L 240.187045 199.999427 
L 243.304598 197.397215 
L 246.42215 194.795002 
L 249.539702 192.192789 
L 252.657255 189.590577 
L 255.774807 186.988364 
L 258.892359 184.386152 
L 262.009912 181.783939 
L 265.127464 179.181726 
L 268.245016 176.579514 
L 271.362569 173.977301 
L 274.480121 171.375089 
L 277.597673 168.772876 
L 280.715225 166.170663 
L 283.832778 163.568451 
L 286.95033 160.966238 
L 290.067882 158.364026 
L 293.185435 155.761813 
L 296.302987 153.159601 
L 299.420539 150.557388 
L 302.538092 147.955175 
L 305.655644 145.352963 
L 308.773196 142.75075 
L 311.890749 140.148538 
L 315.008301 137.546325 
L 318.125853 134.944112 
L 321.243405 132.3419 
L 324.360958 129.739687 
L 327.47851 127.137475 
L 330.596062 124.535262 
L 333.713615 121.933049 
L 336.831167 119.330837 
L 339.948719 116.728624 
L 343.066272 114.126412 
L 346.183824 111.524199 
L 349.301376 108.921986 
L 352.418929 106.319774 
" style="fill:none;stroke:#1f77b4;stroke-linecap:square;stroke-width:2.25;"/>
   </g>
   <g id="patch_3">
    <path d="M 43.78125 400.6 
L 43.78125 74.64 
" style="fill:none;stroke:#000000;stroke-linecap:square;stroke-linejoin:miter;stroke-width:0.8;"/>
   </g>
   <g id="patch_4">
    <path d="M 43.78125 400.6 
L 352.418929 400.6 
" style="fill:none;stroke:#000000;stroke-linecap:square;stroke-linejoin:miter;stroke-width:0.8;"/>
   </g>
  </g>
  <g id="axes_2">
   <g id="patch_5">
    <path d="M 43.78125 63.4 
L 352.418929 63.4 
L 352.418929 7.2 
L 43.78125 7.2 
z
" style="fill:#ffffff;"/>
   </g>
   <g id="patch_6">
    <path clip-path="url(#p9b5288ce31)" d="M 43.78125 63.4 
L 82.36096 63.4 
L 82.36096 38.046617 
L 43.78125 38.046617 
z
" style="fill:#1f77b4;fill-opacity:0.5;stroke:#000000;stroke-linejoin:miter;"/>
   </g>
   <g id="patch_7">
    <path clip-path="url(#p9b5288ce31)" d="M 82.36096 63.4 
L 120.94067 63.4 
L 120.94067 9.87619 
L 82.36096 9.87619 
z
" style="fill:#1f77b4;fill-opacity:0.5;stroke:#000000;stroke-linejoin:miter;"/>
   </g>
   <g id="patch_8">
    <path clip-path="url(#p9b5288ce31)" d="M 120.94067 63.4 
L 159.520379 63.4 
L 159.520379 18.327318 
L 120.94067 18.327318 
z
" style="fill:#1f77b4;fill-opacity:0.5;stroke:#000000;stroke-linejoin:miter;"/>
   </g>
   <g id="patch_9">
    <path clip-path="url(#p9b5288ce31)" d="M 159.520379 63.4 
L 198.100089 63.4 
L 198.100089 23.961404 
L 159.520379 23.961404 
z
" style="fill:#1f77b4;fill-opacity:0.5;stroke:#000000;stroke-linejoin:miter;"/>
   </g>
   <g id="patch_10">
    <path clip-path="url(#p9b5288ce31)" d="M 198.100089 63.4 
L 236.679799 63.4 
L 236.679799 46.497744 
L 198.100089 46.497744 
z
" style="fill:#1f77b4;fill-opacity:0.5;stroke:#000000;stroke-linejoin:miter;"/>
   </g>
   <g id="patch_11">
    <path clip-path="url(#p9b5288ce31)" d="M 236.679799 63.4 
L 275.259509 63.4 
L 275.259509 38.046617 
L 236.679799 38.046617 
z
" style="fill:#1f77b4;fill-opacity:0.5;stroke:#000000;stroke-linejoin:miter;"/>
   </g>
   <g id="patch_12">
    <path clip-path="url(#p9b5288ce31)" d="M 275.259509 63.4 
L 313.839219 63.4 
L 313.839219 46.497744 
L 275.259509 46.497744 
z
" style="fill:#1f77b4;fill-opacity:0.5;stroke:#000000;stroke-linejoin:miter;"/>
   </g>
   <g id="patch_13">
    <path clip-path="url(#p9b5288ce31)" d="M 313.839219 63.4 
L 352.418929 63.4 
L 352.418929 54.948872 
L 313.839219 54.948872 
z
" style="fill:#1f77b4;fill-opacity:0.5;stroke:#000000;stroke-linejoin:miter;"/>
   </g>
   <g id="matplotlib.axis_3">
    <g id="xtick_6">
     <g id="line2d_13">
      <g>
       <use style="stroke:#000000;stroke-width:0.8;" x="62.872575" xlink:href="#m61193342f7" y="63.4"/>
      </g>
     </g>
    </g>
    <g id="xtick_7">
     <g id="line2d_14">
      <g>
       <use style="stroke:#000000;stroke-width:0.8;" x="125.10828" xlink:href="#m61193342f7" y="63.4"/>
      </g>
     </g>
    </g>
    <g id="xtick_8">
     <g id="line2d_15">
      <g>
       <use style="stroke:#000000;stroke-width:0.8;" x="187.343985" xlink:href="#m61193342f7" y="63.4"/>
      </g>
     </g>
    </g>
    <g id="xtick_9">
     <g id="line2d_16">
      <g>
       <use style="stroke:#000000;stroke-width:0.8;" x="249.579691" xlink:href="#m61193342f7" y="63.4"/>
      </g>
     </g>
    </g>
    <g id="xtick_10">
     <g id="line2d_17">
      <g>
       <use style="stroke:#000000;stroke-width:0.8;" x="311.815396" xlink:href="#m61193342f7" y="63.4"/>
      </g>
     </g>
    </g>
   </g>
   <g id="matplotlib.axis_4">
    <g id="ytick_7"/>
    <g id="ytick_8"/>
   </g>
   <g id="line2d_18">
    <path clip-path="url(#p9b5288ce31)" d="M 43.78125 49.695989 
L 49.985022 46.686954 
L 56.188795 43.429268 
L 63.94351 39.10798 
L 84.105771 27.691575 
L 90.309543 24.502285 
L 94.962373 22.325268 
L 99.615202 20.381846 
L 104.268031 18.713198 
L 108.920861 17.354875 
L 112.022747 16.635614 
L 115.124633 16.072128 
L 118.226519 15.667519 
L 121.328405 15.422273 
L 124.430292 15.334155 
L 129.083121 15.485007 
L 133.73595 15.950007 
L 138.38878 16.69026 
L 143.041609 17.658569 
L 149.245381 19.214905 
L 157.000097 21.416862 
L 178.7133 27.722458 
L 191.120845 31.007752 
L 205.079333 34.459501 
L 215.935935 36.954698 
L 225.241594 38.890681 
L 234.547252 40.580963 
L 243.852911 42.011458 
L 253.15857 43.220271 
L 267.117058 44.788053 
L 288.830261 47.225205 
L 301.237806 48.846257 
L 313.645351 50.70034 
L 327.603839 53.041447 
L 352.418929 57.414684 
L 352.418929 57.414684 
" style="fill:none;stroke:#1f77b4;stroke-linecap:square;stroke-width:1.5;"/>
   </g>
   <g id="patch_14">
    <path d="M 43.78125 63.4 
L 352.418929 63.4 
" style="fill:none;stroke:#000000;stroke-linecap:square;stroke-linejoin:miter;stroke-width:0.8;"/>
   </g>
  </g>
  <g id="axes_3">
   <g id="patch_15">
    <path d="M 363.061607 400.6 
L 416.275 400.6 
L 416.275 74.64 
L 363.061607 74.64 
z
" style="fill:#ffffff;"/>
   </g>
   <g id="patch_16">
    <path clip-path="url(#paba40de58c)" d="M 363.061607 385.783636 
L 393.46926 385.783636 
L 393.46926 350.14823 
L 363.061607 350.14823 
z
" style="fill:#1f77b4;fill-opacity:0.5;stroke:#000000;stroke-linejoin:miter;"/>
   </g>
   <g id="patch_17">
    <path clip-path="url(#paba40de58c)" d="M 363.061607 350.14823 
L 403.605145 350.14823 
L 403.605145 314.512824 
L 363.061607 314.512824 
z
" style="fill:#1f77b4;fill-opacity:0.5;stroke:#000000;stroke-linejoin:miter;"/>
   </g>
   <g id="patch_18">
    <path clip-path="url(#paba40de58c)" d="M 363.061607 314.512824 
L 410.362401 314.512824 
L 410.362401 278.877418 
L 363.061607 278.877418 
z
" style="fill:#1f77b4;fill-opacity:0.5;stroke:#000000;stroke-linejoin:miter;"/>
   </g>
   <g id="patch_19">
    <path clip-path="url(#paba40de58c)" d="M 363.061607 278.877418 
L 413.741029 278.877418 
L 413.741029 243.242012 
L 363.061607 243.242012 
z
" style="fill:#1f77b4;fill-opacity:0.5;stroke:#000000;stroke-linejoin:miter;"/>
   </g>
   <g id="patch_20">
    <path clip-path="url(#paba40de58c)" d="M 363.061607 243.242012 
L 413.741029 243.242012 
L 413.741029 207.606606 
L 363.061607 207.606606 
z
" style="fill:#1f77b4;fill-opacity:0.5;stroke:#000000;stroke-linejoin:miter;"/>
   </g>
   <g id="patch_21">
    <path clip-path="url(#paba40de58c)" d="M 363.061607 207.606606 
L 393.46926 207.606606 
L 393.46926 171.9712 
L 363.061607 171.9712 
z
" style="fill:#1f77b4;fill-opacity:0.5;stroke:#000000;stroke-linejoin:miter;"/>
   </g>
   <g id="patch_22">
    <path clip-path="url(#paba40de58c)" d="M 363.061607 171.9712 
L 376.57612 171.9712 
L 376.57612 136.335794 
L 363.061607 136.335794 
z
" style="fill:#1f77b4;fill-opacity:0.5;stroke:#000000;stroke-linejoin:miter;"/>
   </g>
   <g id="patch_23">
    <path clip-path="url(#paba40de58c)" d="M 363.061607 136.335794 
L 376.57612 136.335794 
L 376.57612 100.700388 
L 363.061607 100.700388 
z
" style="fill:#1f77b4;fill-opacity:0.5;stroke:#000000;stroke-linejoin:miter;"/>
   </g>
   <g id="matplotlib.axis_5">
    <g id="xtick_11"/>
    <g id="xtick_12"/>
   </g>
   <g id="matplotlib.axis_6">
    <g id="ytick_9">
     <g id="line2d_19">
      <g>
       <use style="stroke:#000000;stroke-width:0.8;" x="363.061607" xlink:href="#mb83955f542" y="352.460355"/>
      </g>
     </g>
    </g>
    <g id="ytick_10">
     <g id="line2d_20">
      <g>
       <use style="stroke:#000000;stroke-width:0.8;" x="363.061607" xlink:href="#mb83955f542" y="297.430655"/>
      </g>
     </g>
    </g>
    <g id="ytick_11">
     <g id="line2d_21">
      <g>
       <use style="stroke:#000000;stroke-width:0.8;" x="363.061607" xlink:href="#mb83955f542" y="242.400956"/>
      </g>
     </g>
    </g>
    <g id="ytick_12">
     <g id="line2d_22">
      <g>
       <use style="stroke:#000000;stroke-width:0.8;" x="363.061607" xlink:href="#mb83955f542" y="187.371256"/>
      </g>
     </g>
    </g>
    <g id="ytick_13">
     <g id="line2d_23">
      <g>
       <use style="stroke:#000000;stroke-width:0.8;" x="363.061607" xlink:href="#mb83955f542" y="132.341556"/>
      </g>
     </g>
    </g>
    <g id="ytick_14">
     <g id="line2d_24">
      <g>
       <use style="stroke:#000000;stroke-width:0.8;" x="363.061607" xlink:href="#mb83955f542" y="77.311857"/>
      </g>
     </g>
    </g>
   </g>
   <g id="line2d_25">
    <path clip-path="url(#paba40de58c)" d="M 376.773011 385.783636 
L 379.633265 380.05332 
L 384.222636 371.457845 
L 394.316571 352.834316 
L 397.884193 345.67142 
L 400.505144 339.941104 
L 402.875672 334.210787 
L 404.963389 328.480471 
L 406.329038 324.182733 
L 407.516622 319.884996 
L 408.525421 315.587259 
L 409.601493 309.856942 
L 410.396055 304.126625 
L 410.952044 298.396309 
L 411.392313 291.233413 
L 411.682036 282.637938 
L 411.865413 269.744726 
L 411.803849 259.716672 
L 411.551502 252.553776 
L 411.155215 246.82346 
L 410.536075 241.093143 
L 409.657018 235.362827 
L 408.495767 229.63251 
L 407.048781 223.902194 
L 405.332526 218.171877 
L 403.381562 212.441561 
L 400.686062 205.278665 
L 396.619143 195.250611 
L 386.009625 169.464186 
L 382.738039 160.868712 
L 380.240137 153.705816 
L 378.449264 147.975499 
L 376.883171 142.245183 
L 375.56425 136.514866 
L 374.492199 130.78455 
L 373.64 125.054233 
L 372.803285 117.891337 
L 371.059572 100.700388 
L 371.059572 100.700388 
" style="fill:none;stroke:#1f77b4;stroke-linecap:square;stroke-width:1.5;"/>
   </g>
   <g id="patch_24">
    <path d="M 363.061607 400.6 
L 363.061607 74.64 
" style="fill:none;stroke:#000000;stroke-linecap:square;stroke-linejoin:miter;stroke-width:0.8;"/>
   </g>
  </g>
 </g>
 <defs>
  <clipPath id="p2ce321e26f">
   <rect height="325.96" width="308.637679" x="43.78125" y="74.64"/>
  </clipPath>
  <clipPath id="p9b5288ce31">
   <rect height="56.2" width="308.637679" x="43.78125" y="7.2"/>
  </clipPath>
  <clipPath id="paba40de58c">
   <rect height="325.96" width="53.213393" x="363.061607" y="74.64"/>
  </clipPath>
 </defs>
</svg>
