<?xml version="1.0" encoding="utf-8" standalone="no"?>
<!DOCTYPE svg PUBLIC "-//W3C//DTD SVG 1.1//EN"
  "http://www.w3.org/Graphics/SVG/1.1/DTD/svg11.dtd">
<!-- Created with matplotlib (https://matplotlib.org/) -->
<svg height="438.15625pt" version="1.1" viewBox="0 0 423.475 438.15625" width="423.475pt" xmlns="http://www.w3.org/2000/svg" xmlns:xlink="http://www.w3.org/1999/xlink">
 <metadata>
  <rdf:RDF xmlns:cc="http://creativecommons.org/ns#" xmlns:dc="http://purl.org/dc/elements/1.1/" xmlns:rdf="http://www.w3.org/1999/02/22-rdf-syntax-ns#">
   <cc:Work>
    <dc:type rdf:resource="http://purl.org/dc/dcmitype/StillImage"/>
    <dc:date>2021-01-09T15:36:58.906941</dc:date>
    <dc:format>image/svg+xml</dc:format>
    <dc:creator>
     <cc:Agent>
      <dc:title>Matplotlib v3.3.2, https://matplotlib.org/</dc:title>
     </cc:Agent>
    </dc:creator>
   </cc:Work>
  </rdf:RDF>
 </metadata>
 <defs>
  <style type="text/css">*{stroke-linecap:butt;stroke-linejoin:round;}</style>
 </defs>
 <g id="figure_1">
  <g id="patch_1">
   <path d="M 0 438.15625 
L 423.475 438.15625 
L 423.475 0 
L 0 0 
z
" style="fill:none;"/>
  </g>
  <g id="axes_1">
   <g id="patch_2">
    <path d="M 43.78125 400.6 
L 352.418929 400.6 
L 352.418929 74.64 
L 43.78125 74.64 
z
" style="fill:#ffffff;"/>
   </g>
   <g id="PathCollection_1">
    <defs>
     <path d="M 0 3 
C 0.795609 3 1.55874 2.683901 2.12132 2.12132 
C 2.683901 1.55874 3 0.795609 3 0 
C 3 -0.795609 2.683901 -1.55874 2.12132 -2.12132 
C 1.55874 -2.683901 0.795609 -3 0 -3 
C -0.795609 -3 -1.55874 -2.683901 -2.12132 -2.12132 
C -2.683901 -1.55874 -3 -0.795609 -3 0 
C -3 0.795609 -2.683901 1.55874 -2.12132 2.12132 
C -1.55874 2.683901 -0.795609 3 0 3 
z
" id="md1fb6029d4" style="stroke:#1f77b4;stroke-opacity:0.8;"/>
    </defs>
    <g clip-path="url(#p166e2fd661)">
     <use style="fill:#1f77b4;fill-opacity:0.8;stroke:#1f77b4;stroke-opacity:0.8;" x="150.137061" xlink:href="#md1fb6029d4" y="294.434137"/>
     <use style="fill:#1f77b4;fill-opacity:0.8;stroke:#1f77b4;stroke-opacity:0.8;" x="248.085358" xlink:href="#md1fb6029d4" y="215.13791"/>
     <use style="fill:#1f77b4;fill-opacity:0.8;stroke:#1f77b4;stroke-opacity:0.8;" x="122.831384" xlink:href="#md1fb6029d4" y="373.730365"/>
     <use style="fill:#1f77b4;fill-opacity:0.8;stroke:#1f77b4;stroke-opacity:0.8;" x="181.630372" xlink:href="#md1fb6029d4" y="283.530627"/>
     <use style="fill:#1f77b4;fill-opacity:0.8;stroke:#1f77b4;stroke-opacity:0.8;" x="215.518382" xlink:href="#md1fb6029d4" y="230.413938"/>
     <use style="fill:#1f77b4;fill-opacity:0.8;stroke:#1f77b4;stroke-opacity:0.8;" x="136.706698" xlink:href="#md1fb6029d4" y="306.487409"/>
     <use style="fill:#1f77b4;fill-opacity:0.8;stroke:#1f77b4;stroke-opacity:0.8;" x="210.833899" xlink:href="#md1fb6029d4" y="240.665594"/>
     <use style="fill:#1f77b4;fill-opacity:0.8;stroke:#1f77b4;stroke-opacity:0.8;" x="153.287319" xlink:href="#md1fb6029d4" y="306.487409"/>
     <use style="fill:#1f77b4;fill-opacity:0.8;stroke:#1f77b4;stroke-opacity:0.8;" x="123.162062" xlink:href="#md1fb6029d4" y="306.487409"/>
     <use style="fill:#1f77b4;fill-opacity:0.8;stroke:#1f77b4;stroke-opacity:0.8;" x="43.78125" xlink:href="#md1fb6029d4" y="327.345045"/>
     <use style="fill:#1f77b4;fill-opacity:0.8;stroke:#1f77b4;stroke-opacity:0.8;" x="143.073904" xlink:href="#md1fb6029d4" y="319.961821"/>
     <use style="fill:#1f77b4;fill-opacity:0.8;stroke:#1f77b4;stroke-opacity:0.8;" x="121.734833" xlink:href="#md1fb6029d4" y="327.345045"/>
     <use style="fill:#1f77b4;fill-opacity:0.8;stroke:#1f77b4;stroke-opacity:0.8;" x="169.41551" xlink:href="#md1fb6029d4" y="215.13791"/>
     <use style="fill:#1f77b4;fill-opacity:0.8;stroke:#1f77b4;stroke-opacity:0.8;" x="129.957747" xlink:href="#md1fb6029d4" y="313.026347"/>
     <use style="fill:#1f77b4;fill-opacity:0.8;stroke:#1f77b4;stroke-opacity:0.8;" x="190.506329" xlink:href="#md1fb6029d4" y="255.941621"/>
     <use style="fill:#1f77b4;fill-opacity:0.8;stroke:#1f77b4;stroke-opacity:0.8;" x="89.818155" xlink:href="#md1fb6029d4" y="343.715821"/>
     <use style="fill:#1f77b4;fill-opacity:0.8;stroke:#1f77b4;stroke-opacity:0.8;" x="300.746787" xlink:href="#md1fb6029d4" y="178.706716"/>
     <use style="fill:#1f77b4;fill-opacity:0.8;stroke:#1f77b4;stroke-opacity:0.8;" x="150.662696" xlink:href="#md1fb6029d4" y="283.530627"/>
     <use style="fill:#1f77b4;fill-opacity:0.8;stroke:#1f77b4;stroke-opacity:0.8;" x="92.020483" xlink:href="#md1fb6029d4" y="373.730365"/>
     <use style="fill:#1f77b4;fill-opacity:0.8;stroke:#1f77b4;stroke-opacity:0.8;" x="83.316207" xlink:href="#md1fb6029d4" y="327.345045"/>
     <use style="fill:#1f77b4;fill-opacity:0.8;stroke:#1f77b4;stroke-opacity:0.8;" x="259.148204" xlink:href="#md1fb6029d4" y="151.117711"/>
     <use style="fill:#1f77b4;fill-opacity:0.8;stroke:#1f77b4;stroke-opacity:0.8;" x="82.548037" xlink:href="#md1fb6029d4" y="271.217649"/>
     <use style="fill:#1f77b4;fill-opacity:0.8;stroke:#1f77b4;stroke-opacity:0.8;" x="146.242632" xlink:href="#md1fb6029d4" y="319.961821"/>
     <use style="fill:#1f77b4;fill-opacity:0.8;stroke:#1f77b4;stroke-opacity:0.8;" x="265.957627" xlink:href="#md1fb6029d4" y="122.367271"/>
     <use style="fill:#1f77b4;fill-opacity:0.8;stroke:#1f77b4;stroke-opacity:0.8;" x="130.750636" xlink:href="#md1fb6029d4" y="306.487409"/>
     <use style="fill:#1f77b4;fill-opacity:0.8;stroke:#1f77b4;stroke-opacity:0.8;" x="225.561698" xlink:href="#md1fb6029d4" y="230.413938"/>
     <use style="fill:#1f77b4;fill-opacity:0.8;stroke:#1f77b4;stroke-opacity:0.8;" x="98.097751" xlink:href="#md1fb6029d4" y="327.345045"/>
     <use style="fill:#1f77b4;fill-opacity:0.8;stroke:#1f77b4;stroke-opacity:0.8;" x="127.094588" xlink:href="#md1fb6029d4" y="230.413938"/>
     <use style="fill:#1f77b4;fill-opacity:0.8;stroke:#1f77b4;stroke-opacity:0.8;" x="255.768727" xlink:href="#md1fb6029d4" y="168.752591"/>
     <use style="fill:#1f77b4;fill-opacity:0.8;stroke:#1f77b4;stroke-opacity:0.8;" x="149.622216" xlink:href="#md1fb6029d4" y="306.487409"/>
     <use style="fill:#1f77b4;fill-opacity:0.8;stroke:#1f77b4;stroke-opacity:0.8;" x="197.84865" xlink:href="#md1fb6029d4" y="237.145307"/>
     <use style="fill:#1f77b4;fill-opacity:0.8;stroke:#1f77b4;stroke-opacity:0.8;" x="106.1583" xlink:href="#md1fb6029d4" y="319.961821"/>
     <use style="fill:#1f77b4;fill-opacity:0.8;stroke:#1f77b4;stroke-opacity:0.8;" x="216.573082" xlink:href="#md1fb6029d4" y="240.665594"/>
     <use style="fill:#1f77b4;fill-opacity:0.8;stroke:#1f77b4;stroke-opacity:0.8;" x="94.573434" xlink:href="#md1fb6029d4" y="352.872729"/>
     <use style="fill:#1f77b4;fill-opacity:0.8;stroke:#1f77b4;stroke-opacity:0.8;" x="227.55348" xlink:href="#md1fb6029d4" y="178.706716"/>
     <use style="fill:#1f77b4;fill-opacity:0.8;stroke:#1f77b4;stroke-opacity:0.8;" x="245.352021" xlink:href="#md1fb6029d4" y="221.005877"/>
     <use style="fill:#1f77b4;fill-opacity:0.8;stroke:#1f77b4;stroke-opacity:0.8;" x="76.015151" xlink:href="#md1fb6029d4" y="352.872729"/>
     <use style="fill:#1f77b4;fill-opacity:0.8;stroke:#1f77b4;stroke-opacity:0.8;" x="142.616517" xlink:href="#md1fb6029d4" y="215.13791"/>
     <use style="fill:#1f77b4;fill-opacity:0.8;stroke:#1f77b4;stroke-opacity:0.8;" x="209.848306" xlink:href="#md1fb6029d4" y="215.13791"/>
     <use style="fill:#1f77b4;fill-opacity:0.8;stroke:#1f77b4;stroke-opacity:0.8;" x="122.001081" xlink:href="#md1fb6029d4" y="300.302104"/>
     <use style="fill:#1f77b4;fill-opacity:0.8;stroke:#1f77b4;stroke-opacity:0.8;" x="182.764955" xlink:href="#md1fb6029d4" y="248.048818"/>
     <use style="fill:#1f77b4;fill-opacity:0.8;stroke:#1f77b4;stroke-opacity:0.8;" x="247.506479" xlink:href="#md1fb6029d4" y="201.663499"/>
     <use style="fill:#1f77b4;fill-opacity:0.8;stroke:#1f77b4;stroke-opacity:0.8;" x="226.356247" xlink:href="#md1fb6029d4" y="221.005877"/>
     <use style="fill:#1f77b4;fill-opacity:0.8;stroke:#1f77b4;stroke-opacity:0.8;" x="89.876864" xlink:href="#md1fb6029d4" y="362.826854"/>
     <use style="fill:#1f77b4;fill-opacity:0.8;stroke:#1f77b4;stroke-opacity:0.8;" x="122.573556" xlink:href="#md1fb6029d4" y="294.434137"/>
     <use style="fill:#1f77b4;fill-opacity:0.8;stroke:#1f77b4;stroke-opacity:0.8;" x="142.432836" xlink:href="#md1fb6029d4" y="306.487409"/>
     <use style="fill:#1f77b4;fill-opacity:0.8;stroke:#1f77b4;stroke-opacity:0.8;" x="122.256677" xlink:href="#md1fb6029d4" y="306.487409"/>
     <use style="fill:#1f77b4;fill-opacity:0.8;stroke:#1f77b4;stroke-opacity:0.8;" x="254.929599" xlink:href="#md1fb6029d4" y="168.752591"/>
     <use style="fill:#1f77b4;fill-opacity:0.8;stroke:#1f77b4;stroke-opacity:0.8;" x="132.525519" xlink:href="#md1fb6029d4" y="294.434137"/>
     <use style="fill:#1f77b4;fill-opacity:0.8;stroke:#1f77b4;stroke-opacity:0.8;" x="120.339543" xlink:href="#md1fb6029d4" y="294.434137"/>
     <use style="fill:#1f77b4;fill-opacity:0.8;stroke:#1f77b4;stroke-opacity:0.8;" x="142.248032" xlink:href="#md1fb6029d4" y="255.941621"/>
     <use style="fill:#1f77b4;fill-opacity:0.8;stroke:#1f77b4;stroke-opacity:0.8;" x="173.349291" xlink:href="#md1fb6029d4" y="215.13791"/>
     <use style="fill:#1f77b4;fill-opacity:0.8;stroke:#1f77b4;stroke-opacity:0.8;" x="297.286707" xlink:href="#md1fb6029d4" y="168.752591"/>
     <use style="fill:#1f77b4;fill-opacity:0.8;stroke:#1f77b4;stroke-opacity:0.8;" x="148.959889" xlink:href="#md1fb6029d4" y="268.906454"/>
     <use style="fill:#1f77b4;fill-opacity:0.8;stroke:#1f77b4;stroke-opacity:0.8;" x="82.587876" xlink:href="#md1fb6029d4" y="373.730365"/>
     <use style="fill:#1f77b4;fill-opacity:0.8;stroke:#1f77b4;stroke-opacity:0.8;" x="106.04485" xlink:href="#md1fb6029d4" y="327.345045"/>
     <use style="fill:#1f77b4;fill-opacity:0.8;stroke:#1f77b4;stroke-opacity:0.8;" x="254.034371" xlink:href="#md1fb6029d4" y="215.13791"/>
     <use style="fill:#1f77b4;fill-opacity:0.8;stroke:#1f77b4;stroke-opacity:0.8;" x="199.416982" xlink:href="#md1fb6029d4" y="248.048818"/>
     <use style="fill:#1f77b4;fill-opacity:0.8;stroke:#1f77b4;stroke-opacity:0.8;" x="213.993749" xlink:href="#md1fb6029d4" y="230.413938"/>
     <use style="fill:#1f77b4;fill-opacity:0.8;stroke:#1f77b4;stroke-opacity:0.8;" x="167.054413" xlink:href="#md1fb6029d4" y="313.026347"/>
     <use style="fill:#1f77b4;fill-opacity:0.8;stroke:#1f77b4;stroke-opacity:0.8;" x="105.495008" xlink:href="#md1fb6029d4" y="327.345045"/>
     <use style="fill:#1f77b4;fill-opacity:0.8;stroke:#1f77b4;stroke-opacity:0.8;" x="89.535985" xlink:href="#md1fb6029d4" y="327.345045"/>
     <use style="fill:#1f77b4;fill-opacity:0.8;stroke:#1f77b4;stroke-opacity:0.8;" x="81.717184" xlink:href="#md1fb6029d4" y="352.872729"/>
     <use style="fill:#1f77b4;fill-opacity:0.8;stroke:#1f77b4;stroke-opacity:0.8;" x="259.989132" xlink:href="#md1fb6029d4" y="89.456364"/>
     <use style="fill:#1f77b4;fill-opacity:0.8;stroke:#1f77b4;stroke-opacity:0.8;" x="265.778429" xlink:href="#md1fb6029d4" y="255.941621"/>
     <use style="fill:#1f77b4;fill-opacity:0.8;stroke:#1f77b4;stroke-opacity:0.8;" x="162.284276" xlink:href="#md1fb6029d4" y="294.434137"/>
     <use style="fill:#1f77b4;fill-opacity:0.8;stroke:#1f77b4;stroke-opacity:0.8;" x="86.048568" xlink:href="#md1fb6029d4" y="221.005877"/>
     <use style="fill:#1f77b4;fill-opacity:0.8;stroke:#1f77b4;stroke-opacity:0.8;" x="56.053775" xlink:href="#md1fb6029d4" y="385.783636"/>
     <use style="fill:#1f77b4;fill-opacity:0.8;stroke:#1f77b4;stroke-opacity:0.8;" x="140.30216" xlink:href="#md1fb6029d4" y="294.434137"/>
     <use style="fill:#1f77b4;fill-opacity:0.8;stroke:#1f77b4;stroke-opacity:0.8;" x="164.841535" xlink:href="#md1fb6029d4" y="215.13791"/>
     <use style="fill:#1f77b4;fill-opacity:0.8;stroke:#1f77b4;stroke-opacity:0.8;" x="228.592683" xlink:href="#md1fb6029d4" y="189.610227"/>
     <use style="fill:#1f77b4;fill-opacity:0.8;stroke:#1f77b4;stroke-opacity:0.8;" x="259.158871" xlink:href="#md1fb6029d4" y="178.706716"/>
     <use style="fill:#1f77b4;fill-opacity:0.8;stroke:#1f77b4;stroke-opacity:0.8;" x="124.316708" xlink:href="#md1fb6029d4" y="230.413938"/>
     <use style="fill:#1f77b4;fill-opacity:0.8;stroke:#1f77b4;stroke-opacity:0.8;" x="159.150445" xlink:href="#md1fb6029d4" y="255.941621"/>
     <use style="fill:#1f77b4;fill-opacity:0.8;stroke:#1f77b4;stroke-opacity:0.8;" x="64.746894" xlink:href="#md1fb6029d4" y="327.345045"/>
     <use style="fill:#1f77b4;fill-opacity:0.8;stroke:#1f77b4;stroke-opacity:0.8;" x="110.901649" xlink:href="#md1fb6029d4" y="268.906454"/>
     <use style="fill:#1f77b4;fill-opacity:0.8;stroke:#1f77b4;stroke-opacity:0.8;" x="120.576093" xlink:href="#md1fb6029d4" y="319.961821"/>
     <use style="fill:#1f77b4;fill-opacity:0.8;stroke:#1f77b4;stroke-opacity:0.8;" x="149.025818" xlink:href="#md1fb6029d4" y="268.906454"/>
     <use style="fill:#1f77b4;fill-opacity:0.8;stroke:#1f77b4;stroke-opacity:0.8;" x="167.540141" xlink:href="#md1fb6029d4" y="248.048818"/>
     <use style="fill:#1f77b4;fill-opacity:0.8;stroke:#1f77b4;stroke-opacity:0.8;" x="87.57989" xlink:href="#md1fb6029d4" y="335.237849"/>
     <use style="fill:#1f77b4;fill-opacity:0.8;stroke:#1f77b4;stroke-opacity:0.8;" x="63.514969" xlink:href="#md1fb6029d4" y="294.434137"/>
     <use style="fill:#1f77b4;fill-opacity:0.8;stroke:#1f77b4;stroke-opacity:0.8;" x="271.109176" xlink:href="#md1fb6029d4" y="255.941621"/>
     <use style="fill:#1f77b4;fill-opacity:0.8;stroke:#1f77b4;stroke-opacity:0.8;" x="171.621529" xlink:href="#md1fb6029d4" y="248.048818"/>
     <use style="fill:#1f77b4;fill-opacity:0.8;stroke:#1f77b4;stroke-opacity:0.8;" x="232.685363" xlink:href="#md1fb6029d4" y="189.610227"/>
     <use style="fill:#1f77b4;fill-opacity:0.8;stroke:#1f77b4;stroke-opacity:0.8;" x="126.569315" xlink:href="#md1fb6029d4" y="327.345045"/>
     <use style="fill:#1f77b4;fill-opacity:0.8;stroke:#1f77b4;stroke-opacity:0.8;" x="141.029264" xlink:href="#md1fb6029d4" y="283.530627"/>
     <use style="fill:#1f77b4;fill-opacity:0.8;stroke:#1f77b4;stroke-opacity:0.8;" x="168.634101" xlink:href="#md1fb6029d4" y="306.487409"/>
     <use style="fill:#1f77b4;fill-opacity:0.8;stroke:#1f77b4;stroke-opacity:0.8;" x="215.107051" xlink:href="#md1fb6029d4" y="134.420543"/>
     <use style="fill:#1f77b4;fill-opacity:0.8;stroke:#1f77b4;stroke-opacity:0.8;" x="80.648812" xlink:href="#md1fb6029d4" y="343.715821"/>
     <use style="fill:#1f77b4;fill-opacity:0.8;stroke:#1f77b4;stroke-opacity:0.8;" x="105.532322" xlink:href="#md1fb6029d4" y="278.445333"/>
     <use style="fill:#1f77b4;fill-opacity:0.8;stroke:#1f77b4;stroke-opacity:0.8;" x="129.175964" xlink:href="#md1fb6029d4" y="306.487409"/>
     <use style="fill:#1f77b4;fill-opacity:0.8;stroke:#1f77b4;stroke-opacity:0.8;" x="352.418929" xlink:href="#md1fb6029d4" y="89.456364"/>
     <use style="fill:#1f77b4;fill-opacity:0.8;stroke:#1f77b4;stroke-opacity:0.8;" x="100.877502" xlink:href="#md1fb6029d4" y="335.237849"/>
     <use style="fill:#1f77b4;fill-opacity:0.8;stroke:#1f77b4;stroke-opacity:0.8;" x="141.610687" xlink:href="#md1fb6029d4" y="255.941621"/>
     <use style="fill:#1f77b4;fill-opacity:0.8;stroke:#1f77b4;stroke-opacity:0.8;" x="170.246335" xlink:href="#md1fb6029d4" y="248.048818"/>
     <use style="fill:#1f77b4;fill-opacity:0.8;stroke:#1f77b4;stroke-opacity:0.8;" x="235.680846" xlink:href="#md1fb6029d4" y="240.665594"/>
     <use style="fill:#1f77b4;fill-opacity:0.8;stroke:#1f77b4;stroke-opacity:0.8;" x="167.401605" xlink:href="#md1fb6029d4" y="224.056732"/>
     <use style="fill:#1f77b4;fill-opacity:0.8;stroke:#1f77b4;stroke-opacity:0.8;" x="101.370124" xlink:href="#md1fb6029d4" y="294.434137"/>
     <use style="fill:#1f77b4;fill-opacity:0.8;stroke:#1f77b4;stroke-opacity:0.8;" x="191.645656" xlink:href="#md1fb6029d4" y="201.663499"/>
     <use style="fill:#1f77b4;fill-opacity:0.8;stroke:#1f77b4;stroke-opacity:0.8;" x="202.988554" xlink:href="#md1fb6029d4" y="255.941621"/>
     <use style="fill:#1f77b4;fill-opacity:0.8;stroke:#1f77b4;stroke-opacity:0.8;" x="94.475189" xlink:href="#md1fb6029d4" y="294.434137"/>
     <use style="fill:#1f77b4;fill-opacity:0.8;stroke:#1f77b4;stroke-opacity:0.8;" x="150.877426" xlink:href="#md1fb6029d4" y="327.345045"/>
     <use style="fill:#1f77b4;fill-opacity:0.8;stroke:#1f77b4;stroke-opacity:0.8;" x="57.986553" xlink:href="#md1fb6029d4" y="352.872729"/>
     <use style="fill:#1f77b4;fill-opacity:0.8;stroke:#1f77b4;stroke-opacity:0.8;" x="219.180175" xlink:href="#md1fb6029d4" y="283.530627"/>
     <use style="fill:#1f77b4;fill-opacity:0.8;stroke:#1f77b4;stroke-opacity:0.8;" x="191.366776" xlink:href="#md1fb6029d4" y="327.345045"/>
     <use style="fill:#1f77b4;fill-opacity:0.8;stroke:#1f77b4;stroke-opacity:0.8;" x="165.554679" xlink:href="#md1fb6029d4" y="230.413938"/>
     <use style="fill:#1f77b4;fill-opacity:0.8;stroke:#1f77b4;stroke-opacity:0.8;" x="166.626512" xlink:href="#md1fb6029d4" y="294.434137"/>
     <use style="fill:#1f77b4;fill-opacity:0.8;stroke:#1f77b4;stroke-opacity:0.8;" x="123.993806" xlink:href="#md1fb6029d4" y="319.961821"/>
     <use style="fill:#1f77b4;fill-opacity:0.8;stroke:#1f77b4;stroke-opacity:0.8;" x="153.172023" xlink:href="#md1fb6029d4" y="230.413938"/>
     <use style="fill:#1f77b4;fill-opacity:0.8;stroke:#1f77b4;stroke-opacity:0.8;" x="167.402328" xlink:href="#md1fb6029d4" y="189.610227"/>
     <use style="fill:#1f77b4;fill-opacity:0.8;stroke:#1f77b4;stroke-opacity:0.8;" x="307.822771" xlink:href="#md1fb6029d4" y="135.841683"/>
     <use style="fill:#1f77b4;fill-opacity:0.8;stroke:#1f77b4;stroke-opacity:0.8;" x="152.496849" xlink:href="#md1fb6029d4" y="215.13791"/>
     <use style="fill:#1f77b4;fill-opacity:0.8;stroke:#1f77b4;stroke-opacity:0.8;" x="170.854082" xlink:href="#md1fb6029d4" y="278.445333"/>
     <use style="fill:#1f77b4;fill-opacity:0.8;stroke:#1f77b4;stroke-opacity:0.8;" x="52.548184" xlink:href="#md1fb6029d4" y="352.872729"/>
     <use style="fill:#1f77b4;fill-opacity:0.8;stroke:#1f77b4;stroke-opacity:0.8;" x="94.86892" xlink:href="#md1fb6029d4" y="327.345045"/>
     <use style="fill:#1f77b4;fill-opacity:0.8;stroke:#1f77b4;stroke-opacity:0.8;" x="288.988574" xlink:href="#md1fb6029d4" y="189.610227"/>
     <use style="fill:#1f77b4;fill-opacity:0.8;stroke:#1f77b4;stroke-opacity:0.8;" x="278.38926" xlink:href="#md1fb6029d4" y="201.663499"/>
     <use style="fill:#1f77b4;fill-opacity:0.8;stroke:#1f77b4;stroke-opacity:0.8;" x="125.993609" xlink:href="#md1fb6029d4" y="268.906454"/>
     <use style="fill:#1f77b4;fill-opacity:0.8;stroke:#1f77b4;stroke-opacity:0.8;" x="127.28479" xlink:href="#md1fb6029d4" y="294.434137"/>
     <use style="fill:#1f77b4;fill-opacity:0.8;stroke:#1f77b4;stroke-opacity:0.8;" x="73.916135" xlink:href="#md1fb6029d4" y="352.872729"/>
     <use style="fill:#1f77b4;fill-opacity:0.8;stroke:#1f77b4;stroke-opacity:0.8;" x="153.155734" xlink:href="#md1fb6029d4" y="240.665594"/>
     <use style="fill:#1f77b4;fill-opacity:0.8;stroke:#1f77b4;stroke-opacity:0.8;" x="140.720723" xlink:href="#md1fb6029d4" y="313.026347"/>
     <use style="fill:#1f77b4;fill-opacity:0.8;stroke:#1f77b4;stroke-opacity:0.8;" x="81.795125" xlink:href="#md1fb6029d4" y="368.148756"/>
     <use style="fill:#1f77b4;fill-opacity:0.8;stroke:#1f77b4;stroke-opacity:0.8;" x="166.346567" xlink:href="#md1fb6029d4" y="215.13791"/>
     <use style="fill:#1f77b4;fill-opacity:0.8;stroke:#1f77b4;stroke-opacity:0.8;" x="110.809742" xlink:href="#md1fb6029d4" y="306.487409"/>
     <use style="fill:#1f77b4;fill-opacity:0.8;stroke:#1f77b4;stroke-opacity:0.8;" x="327.287333" xlink:href="#md1fb6029d4" y="89.456364"/>
     <use style="fill:#1f77b4;fill-opacity:0.8;stroke:#1f77b4;stroke-opacity:0.8;" x="202.497163" xlink:href="#md1fb6029d4" y="268.906454"/>
     <use style="fill:#1f77b4;fill-opacity:0.8;stroke:#1f77b4;stroke-opacity:0.8;" x="119.467991" xlink:href="#md1fb6029d4" y="280.959726"/>
     <use style="fill:#1f77b4;fill-opacity:0.8;stroke:#1f77b4;stroke-opacity:0.8;" x="139.770651" xlink:href="#md1fb6029d4" y="373.730365"/>
     <use style="fill:#1f77b4;fill-opacity:0.8;stroke:#1f77b4;stroke-opacity:0.8;" x="72.49852" xlink:href="#md1fb6029d4" y="385.783636"/>
     <use style="fill:#1f77b4;fill-opacity:0.8;stroke:#1f77b4;stroke-opacity:0.8;" x="156.468445" xlink:href="#md1fb6029d4" y="306.487409"/>
     <use style="fill:#1f77b4;fill-opacity:0.8;stroke:#1f77b4;stroke-opacity:0.8;" x="192.586499" xlink:href="#md1fb6029d4" y="168.752591"/>
     <use style="fill:#1f77b4;fill-opacity:0.8;stroke:#1f77b4;stroke-opacity:0.8;" x="113.450597" xlink:href="#md1fb6029d4" y="268.906454"/>
     <use style="fill:#1f77b4;fill-opacity:0.8;stroke:#1f77b4;stroke-opacity:0.8;" x="249.925707" xlink:href="#md1fb6029d4" y="215.13791"/>
     <use style="fill:#1f77b4;fill-opacity:0.8;stroke:#1f77b4;stroke-opacity:0.8;" x="128.901612" xlink:href="#md1fb6029d4" y="319.961821"/>
     <use style="fill:#1f77b4;fill-opacity:0.8;stroke:#1f77b4;stroke-opacity:0.8;" x="132.748396" xlink:href="#md1fb6029d4" y="268.906454"/>
     <use style="fill:#1f77b4;fill-opacity:0.8;stroke:#1f77b4;stroke-opacity:0.8;" x="217.689609" xlink:href="#md1fb6029d4" y="215.13791"/>
     <use style="fill:#1f77b4;fill-opacity:0.8;stroke:#1f77b4;stroke-opacity:0.8;" x="148.890469" xlink:href="#md1fb6029d4" y="268.906454"/>
     <use style="fill:#1f77b4;fill-opacity:0.8;stroke:#1f77b4;stroke-opacity:0.8;" x="215.042708" xlink:href="#md1fb6029d4" y="159.595683"/>
     <use style="fill:#1f77b4;fill-opacity:0.8;stroke:#1f77b4;stroke-opacity:0.8;" x="272.704715" xlink:href="#md1fb6029d4" y="168.752591"/>
     <use style="fill:#1f77b4;fill-opacity:0.8;stroke:#1f77b4;stroke-opacity:0.8;" x="281.53604" xlink:href="#md1fb6029d4" y="215.13791"/>
     <use style="fill:#1f77b4;fill-opacity:0.8;stroke:#1f77b4;stroke-opacity:0.8;" x="145.842045" xlink:href="#md1fb6029d4" y="294.434137"/>
     <use style="fill:#1f77b4;fill-opacity:0.8;stroke:#1f77b4;stroke-opacity:0.8;" x="151.104995" xlink:href="#md1fb6029d4" y="255.941621"/>
     <use style="fill:#1f77b4;fill-opacity:0.8;stroke:#1f77b4;stroke-opacity:0.8;" x="314.554359" xlink:href="#md1fb6029d4" y="99.410489"/>
     <use style="fill:#1f77b4;fill-opacity:0.8;stroke:#1f77b4;stroke-opacity:0.8;" x="87.848722" xlink:href="#md1fb6029d4" y="268.906454"/>
     <use style="fill:#1f77b4;fill-opacity:0.8;stroke:#1f77b4;stroke-opacity:0.8;" x="268.481996" xlink:href="#md1fb6029d4" y="215.13791"/>
     <use style="fill:#1f77b4;fill-opacity:0.8;stroke:#1f77b4;stroke-opacity:0.8;" x="164.086671" xlink:href="#md1fb6029d4" y="278.445333"/>
     <use style="fill:#1f77b4;fill-opacity:0.8;stroke:#1f77b4;stroke-opacity:0.8;" x="165.590806" xlink:href="#md1fb6029d4" y="283.530627"/>
     <use style="fill:#1f77b4;fill-opacity:0.8;stroke:#1f77b4;stroke-opacity:0.8;" x="258.036667" xlink:href="#md1fb6029d4" y="168.752591"/>
     <use style="fill:#1f77b4;fill-opacity:0.8;stroke:#1f77b4;stroke-opacity:0.8;" x="132.439087" xlink:href="#md1fb6029d4" y="306.487409"/>
     <use style="fill:#1f77b4;fill-opacity:0.8;stroke:#1f77b4;stroke-opacity:0.8;" x="274.431328" xlink:href="#md1fb6029d4" y="194.280274"/>
     <use style="fill:#1f77b4;fill-opacity:0.8;stroke:#1f77b4;stroke-opacity:0.8;" x="277.014291" xlink:href="#md1fb6029d4" y="147.894955"/>
     <use style="fill:#1f77b4;fill-opacity:0.8;stroke:#1f77b4;stroke-opacity:0.8;" x="253.758458" xlink:href="#md1fb6029d4" y="161.369366"/>
     <use style="fill:#1f77b4;fill-opacity:0.8;stroke:#1f77b4;stroke-opacity:0.8;" x="182.819873" xlink:href="#md1fb6029d4" y="288.852529"/>
     <use style="fill:#1f77b4;fill-opacity:0.8;stroke:#1f77b4;stroke-opacity:0.8;" x="227.131613" xlink:href="#md1fb6029d4" y="189.610227"/>
     <use style="fill:#1f77b4;fill-opacity:0.8;stroke:#1f77b4;stroke-opacity:0.8;" x="326.89288" xlink:href="#md1fb6029d4" y="89.456364"/>
     <use style="fill:#1f77b4;fill-opacity:0.8;stroke:#1f77b4;stroke-opacity:0.8;" x="150.756177" xlink:href="#md1fb6029d4" y="240.665594"/>
     <use style="fill:#1f77b4;fill-opacity:0.8;stroke:#1f77b4;stroke-opacity:0.8;" x="263.291284" xlink:href="#md1fb6029d4" y="230.413938"/>
     <use style="fill:#1f77b4;fill-opacity:0.8;stroke:#1f77b4;stroke-opacity:0.8;" x="137.603755" xlink:href="#md1fb6029d4" y="294.434137"/>
     <use style="fill:#1f77b4;fill-opacity:0.8;stroke:#1f77b4;stroke-opacity:0.8;" x="141.719911" xlink:href="#md1fb6029d4" y="306.487409"/>
     <use style="fill:#1f77b4;fill-opacity:0.8;stroke:#1f77b4;stroke-opacity:0.8;" x="153.775198" xlink:href="#md1fb6029d4" y="306.487409"/>
     <use style="fill:#1f77b4;fill-opacity:0.8;stroke:#1f77b4;stroke-opacity:0.8;" x="207.54636" xlink:href="#md1fb6029d4" y="255.941621"/>
     <use style="fill:#1f77b4;fill-opacity:0.8;stroke:#1f77b4;stroke-opacity:0.8;" x="140.161193" xlink:href="#md1fb6029d4" y="294.434137"/>
     <use style="fill:#1f77b4;fill-opacity:0.8;stroke:#1f77b4;stroke-opacity:0.8;" x="117.16268" xlink:href="#md1fb6029d4" y="313.026347"/>
     <use style="fill:#1f77b4;fill-opacity:0.8;stroke:#1f77b4;stroke-opacity:0.8;" x="183.612711" xlink:href="#md1fb6029d4" y="248.048818"/>
     <use style="fill:#1f77b4;fill-opacity:0.8;stroke:#1f77b4;stroke-opacity:0.8;" x="153.753635" xlink:href="#md1fb6029d4" y="294.434137"/>
     <use style="fill:#1f77b4;fill-opacity:0.8;stroke:#1f77b4;stroke-opacity:0.8;" x="294.80037" xlink:href="#md1fb6029d4" y="215.13791"/>
     <use style="fill:#1f77b4;fill-opacity:0.8;stroke:#1f77b4;stroke-opacity:0.8;" x="63.037478" xlink:href="#md1fb6029d4" y="327.345045"/>
     <use style="fill:#1f77b4;fill-opacity:0.8;stroke:#1f77b4;stroke-opacity:0.8;" x="88.51371" xlink:href="#md1fb6029d4" y="309.710165"/>
     <use style="fill:#1f77b4;fill-opacity:0.8;stroke:#1f77b4;stroke-opacity:0.8;" x="155.703639" xlink:href="#md1fb6029d4" y="189.610227"/>
     <use style="fill:#1f77b4;fill-opacity:0.8;stroke:#1f77b4;stroke-opacity:0.8;" x="252.321941" xlink:href="#md1fb6029d4" y="151.117711"/>
     <use style="fill:#1f77b4;fill-opacity:0.8;stroke:#1f77b4;stroke-opacity:0.8;" x="86.64137" xlink:href="#md1fb6029d4" y="352.872729"/>
     <use style="fill:#1f77b4;fill-opacity:0.8;stroke:#1f77b4;stroke-opacity:0.8;" x="72.385824" xlink:href="#md1fb6029d4" y="306.487409"/>
     <use style="fill:#1f77b4;fill-opacity:0.8;stroke:#1f77b4;stroke-opacity:0.8;" x="156.831222" xlink:href="#md1fb6029d4" y="189.610227"/>
     <use style="fill:#1f77b4;fill-opacity:0.8;stroke:#1f77b4;stroke-opacity:0.8;" x="120.503345" xlink:href="#md1fb6029d4" y="268.906454"/>
     <use style="fill:#1f77b4;fill-opacity:0.8;stroke:#1f77b4;stroke-opacity:0.8;" x="247.308962" xlink:href="#md1fb6029d4" y="201.663499"/>
     <use style="fill:#1f77b4;fill-opacity:0.8;stroke:#1f77b4;stroke-opacity:0.8;" x="213.235624" xlink:href="#md1fb6029d4" y="189.610227"/>
     <use style="fill:#1f77b4;fill-opacity:0.8;stroke:#1f77b4;stroke-opacity:0.8;" x="70.062224" xlink:href="#md1fb6029d4" y="294.434137"/>
     <use style="fill:#1f77b4;fill-opacity:0.8;stroke:#1f77b4;stroke-opacity:0.8;" x="171.100599" xlink:href="#md1fb6029d4" y="294.434137"/>
     <use style="fill:#1f77b4;fill-opacity:0.8;stroke:#1f77b4;stroke-opacity:0.8;" x="154.556579" xlink:href="#md1fb6029d4" y="248.048818"/>
     <use style="fill:#1f77b4;fill-opacity:0.8;stroke:#1f77b4;stroke-opacity:0.8;" x="126.59735" xlink:href="#md1fb6029d4" y="313.026347"/>
     <use style="fill:#1f77b4;fill-opacity:0.8;stroke:#1f77b4;stroke-opacity:0.8;" x="156.698442" xlink:href="#md1fb6029d4" y="327.345045"/>
     <use style="fill:#1f77b4;fill-opacity:0.8;stroke:#1f77b4;stroke-opacity:0.8;" x="249.618365" xlink:href="#md1fb6029d4" y="189.610227"/>
     <use style="fill:#1f77b4;fill-opacity:0.8;stroke:#1f77b4;stroke-opacity:0.8;" x="134.009206" xlink:href="#md1fb6029d4" y="327.345045"/>
     <use style="fill:#1f77b4;fill-opacity:0.8;stroke:#1f77b4;stroke-opacity:0.8;" x="104.075653" xlink:href="#md1fb6029d4" y="343.715821"/>
     <use style="fill:#1f77b4;fill-opacity:0.8;stroke:#1f77b4;stroke-opacity:0.8;" x="109.052737" xlink:href="#md1fb6029d4" y="268.906454"/>
     <use style="fill:#1f77b4;fill-opacity:0.8;stroke:#1f77b4;stroke-opacity:0.8;" x="174.63434" xlink:href="#md1fb6029d4" y="215.13791"/>
    </g>
   </g>
   <g id="PolyCollection_1">
    <path clip-path="url(#p166e2fd661)" d="M 43.78125 351.25977 
L 43.78125 373.559584 
L 46.898802 370.887264 
L 50.016355 368.092753 
L 53.133907 365.299521 
L 56.251459 362.488994 
L 59.369012 359.677385 
L 62.486564 356.865775 
L 65.604116 354.05119 
L 68.721668 351.244888 
L 71.839221 348.433675 
L 74.956773 345.599955 
L 78.074325 342.812641 
L 81.191878 340.002505 
L 84.30943 337.251894 
L 87.426982 334.556603 
L 90.544535 331.713451 
L 93.662087 328.970553 
L 96.779639 326.280005 
L 99.897192 323.517218 
L 103.014744 320.760545 
L 106.132296 318.1933 
L 109.249848 315.558604 
L 112.367401 312.755669 
L 115.484953 309.995236 
L 118.602505 307.452426 
L 121.720058 304.662134 
L 124.83761 301.977749 
L 127.955162 299.336626 
L 131.072715 296.789462 
L 134.190267 294.147398 
L 137.307819 291.390859 
L 140.425372 288.721988 
L 143.542924 286.062923 
L 146.660476 283.424324 
L 149.778028 280.742752 
L 152.895581 278.205063 
L 156.013133 275.600725 
L 159.130685 273.054974 
L 162.248238 270.522282 
L 165.36579 268.081726 
L 168.483342 265.645239 
L 171.600895 263.181743 
L 174.718447 260.818163 
L 177.835999 258.394223 
L 180.953552 255.88779 
L 184.071104 253.465232 
L 187.188656 250.967916 
L 190.306209 248.583401 
L 193.423761 246.114206 
L 196.541313 243.648279 
L 199.658865 241.202502 
L 202.776418 238.798582 
L 205.89397 236.487682 
L 209.011522 234.132744 
L 212.129075 231.766535 
L 215.246627 229.347188 
L 218.364179 227.052191 
L 221.481732 224.709671 
L 224.599284 222.355858 
L 227.716836 219.996551 
L 230.834389 217.615121 
L 233.951941 215.28245 
L 237.069493 212.929206 
L 240.187045 210.575963 
L 243.304598 208.222719 
L 246.42215 205.869475 
L 249.539702 203.548621 
L 252.657255 201.252213 
L 255.774807 198.95316 
L 258.892359 196.654108 
L 262.009912 194.355055 
L 265.127464 192.056002 
L 268.245016 189.624481 
L 271.362569 187.373617 
L 274.480121 185.14802 
L 277.597673 182.875029 
L 280.715225 180.557114 
L 283.832778 178.161134 
L 286.95033 175.882357 
L 290.067882 173.606881 
L 293.185435 171.329169 
L 296.302987 169.051458 
L 299.420539 166.773746 
L 302.538092 164.496035 
L 305.655644 162.213938 
L 308.773196 159.900029 
L 311.890749 157.535683 
L 315.008301 155.20318 
L 318.125853 152.962733 
L 321.243405 150.722285 
L 324.360958 148.441576 
L 327.47851 146.144103 
L 330.596062 143.802135 
L 333.713615 141.465021 
L 336.831167 139.228912 
L 339.948719 136.963531 
L 343.066272 134.658932 
L 346.183824 132.329938 
L 349.301376 130.07663 
L 352.418929 127.768536 
L 352.418929 93.756395 
L 352.418929 93.756395 
L 349.301376 96.618267 
L 346.183824 99.421361 
L 343.066272 102.224454 
L 339.948719 105.003462 
L 336.831167 107.778694 
L 333.713615 110.553926 
L 330.596062 113.369685 
L 327.47851 116.162527 
L 324.360958 118.926207 
L 321.243405 121.689886 
L 318.125853 124.453565 
L 315.008301 127.217245 
L 311.890749 129.980924 
L 308.773196 132.744603 
L 305.655644 135.508002 
L 302.538092 138.287897 
L 299.420539 141.061007 
L 296.302987 143.834117 
L 293.185435 146.607646 
L 290.067882 149.42567 
L 286.95033 152.228544 
L 283.832778 154.927844 
L 280.715225 157.699667 
L 277.597673 160.472777 
L 274.480121 163.245887 
L 271.362569 166.013239 
L 268.245016 168.770679 
L 265.127464 171.528138 
L 262.009912 174.287137 
L 258.892359 177.041513 
L 255.774807 179.725177 
L 252.657255 182.485494 
L 249.539702 185.323812 
L 246.42215 188.092016 
L 243.304598 190.846904 
L 240.187045 193.582996 
L 237.069493 196.303481 
L 233.951941 199.067019 
L 230.834389 201.853649 
L 227.716836 204.592442 
L 224.599284 207.354407 
L 221.481732 210.049273 
L 218.364179 212.686667 
L 215.246627 215.35214 
L 212.129075 218.147366 
L 209.011522 220.808646 
L 205.89397 223.563472 
L 202.776418 226.260337 
L 199.658865 228.949998 
L 196.541313 231.61089 
L 193.423761 234.352277 
L 190.306209 237.015941 
L 187.188656 239.678868 
L 184.071104 242.329976 
L 180.953552 244.944755 
L 177.835999 247.460054 
L 174.718447 250.093681 
L 171.600895 252.687057 
L 168.483342 255.303695 
L 165.36579 257.912055 
L 162.248238 260.469386 
L 159.130685 263.037397 
L 156.013133 265.577635 
L 152.895581 268.138549 
L 149.778028 270.670178 
L 146.660476 273.067221 
L 143.542924 275.544807 
L 140.425372 277.950064 
L 137.307819 280.406261 
L 134.190267 282.781129 
L 131.072715 285.242115 
L 127.955162 287.763485 
L 124.83761 290.084865 
L 121.720058 292.457866 
L 118.602505 295.045215 
L 115.484953 297.493889 
L 112.367401 299.801137 
L 109.249848 302.113631 
L 106.132296 304.58458 
L 103.014744 306.913734 
L 99.897192 309.369827 
L 96.779639 311.849639 
L 93.662087 314.239636 
L 90.544535 316.627355 
L 87.426982 318.74263 
L 84.30943 321.00627 
L 81.191878 323.398161 
L 78.074325 325.744788 
L 74.956773 328.064526 
L 71.839221 330.368848 
L 68.721668 332.648823 
L 65.604116 335.046053 
L 62.486564 337.446032 
L 59.369012 339.818355 
L 56.251459 342.112454 
L 53.133907 344.360432 
L 50.016355 346.685907 
L 46.898802 348.972634 
L 43.78125 351.25977 
z
" style="fill:#1f77b4;fill-opacity:0.15;"/>
   </g>
   <g id="matplotlib.axis_1">
    <g id="xtick_1">
     <g id="line2d_1">
      <defs>
       <path d="M 0 0 
L 0 3.5 
" id="m1348a14214" style="stroke:#000000;stroke-width:0.8;"/>
      </defs>
      <g>
       <use style="stroke:#000000;stroke-width:0.8;" x="56.980234" xlink:href="#m1348a14214" y="400.6"/>
      </g>
     </g>
     <g id="text_1">
      <!-- 2.50 -->
      <g transform="translate(45.847422 415.198437)scale(0.1 -0.1)">
       <defs>
        <path d="M 19.1875 8.296875 
L 53.609375 8.296875 
L 53.609375 0 
L 7.328125 0 
L 7.328125 8.296875 
Q 12.9375 14.109375 22.625 23.890625 
Q 32.328125 33.6875 34.8125 36.53125 
Q 39.546875 41.84375 41.421875 45.53125 
Q 43.3125 49.21875 43.3125 52.78125 
Q 43.3125 58.59375 39.234375 62.25 
Q 35.15625 65.921875 28.609375 65.921875 
Q 23.96875 65.921875 18.8125 64.3125 
Q 13.671875 62.703125 7.8125 59.421875 
L 7.8125 69.390625 
Q 13.765625 71.78125 18.9375 73 
Q 24.125 74.21875 28.421875 74.21875 
Q 39.75 74.21875 46.484375 68.546875 
Q 53.21875 62.890625 53.21875 53.421875 
Q 53.21875 48.921875 51.53125 44.890625 
Q 49.859375 40.875 45.40625 35.40625 
Q 44.1875 33.984375 37.640625 27.21875 
Q 31.109375 20.453125 19.1875 8.296875 
z
" id="DejaVuSans-50"/>
        <path d="M 10.6875 12.40625 
L 21 12.40625 
L 21 0 
L 10.6875 0 
z
" id="DejaVuSans-46"/>
        <path d="M 10.796875 72.90625 
L 49.515625 72.90625 
L 49.515625 64.59375 
L 19.828125 64.59375 
L 19.828125 46.734375 
Q 21.96875 47.46875 24.109375 47.828125 
Q 26.265625 48.1875 28.421875 48.1875 
Q 40.625 48.1875 47.75 41.5 
Q 54.890625 34.8125 54.890625 23.390625 
Q 54.890625 11.625 47.5625 5.09375 
Q 40.234375 -1.421875 26.90625 -1.421875 
Q 22.3125 -1.421875 17.546875 -0.640625 
Q 12.796875 0.140625 7.71875 1.703125 
L 7.71875 11.625 
Q 12.109375 9.234375 16.796875 8.0625 
Q 21.484375 6.890625 26.703125 6.890625 
Q 35.15625 6.890625 40.078125 11.328125 
Q 45.015625 15.765625 45.015625 23.390625 
Q 45.015625 31 40.078125 35.4375 
Q 35.15625 39.890625 26.703125 39.890625 
Q 22.75 39.890625 18.8125 39.015625 
Q 14.890625 38.140625 10.796875 36.28125 
z
" id="DejaVuSans-53"/>
        <path d="M 31.78125 66.40625 
Q 24.171875 66.40625 20.328125 58.90625 
Q 16.5 51.421875 16.5 36.375 
Q 16.5 21.390625 20.328125 13.890625 
Q 24.171875 6.390625 31.78125 6.390625 
Q 39.453125 6.390625 43.28125 13.890625 
Q 47.125 21.390625 47.125 36.375 
Q 47.125 51.421875 43.28125 58.90625 
Q 39.453125 66.40625 31.78125 66.40625 
z
M 31.78125 74.21875 
Q 44.046875 74.21875 50.515625 64.515625 
Q 56.984375 54.828125 56.984375 36.375 
Q 56.984375 17.96875 50.515625 8.265625 
Q 44.046875 -1.421875 31.78125 -1.421875 
Q 19.53125 -1.421875 13.0625 8.265625 
Q 6.59375 17.96875 6.59375 36.375 
Q 6.59375 54.828125 13.0625 64.515625 
Q 19.53125 74.21875 31.78125 74.21875 
z
" id="DejaVuSans-48"/>
       </defs>
       <use xlink:href="#DejaVuSans-50"/>
       <use x="63.623047" xlink:href="#DejaVuSans-46"/>
       <use x="95.410156" xlink:href="#DejaVuSans-53"/>
       <use x="159.033203" xlink:href="#DejaVuSans-48"/>
      </g>
     </g>
    </g>
    <g id="xtick_2">
     <g id="line2d_2">
      <g>
       <use style="stroke:#000000;stroke-width:0.8;" x="92.345569" xlink:href="#m1348a14214" y="400.6"/>
      </g>
     </g>
     <g id="text_2">
      <!-- 2.75 -->
      <g transform="translate(81.212756 415.198437)scale(0.1 -0.1)">
       <defs>
        <path d="M 8.203125 72.90625 
L 55.078125 72.90625 
L 55.078125 68.703125 
L 28.609375 0 
L 18.3125 0 
L 43.21875 64.59375 
L 8.203125 64.59375 
z
" id="DejaVuSans-55"/>
       </defs>
       <use xlink:href="#DejaVuSans-50"/>
       <use x="63.623047" xlink:href="#DejaVuSans-46"/>
       <use x="95.410156" xlink:href="#DejaVuSans-55"/>
       <use x="159.033203" xlink:href="#DejaVuSans-53"/>
      </g>
     </g>
    </g>
    <g id="xtick_3">
     <g id="line2d_3">
      <g>
       <use style="stroke:#000000;stroke-width:0.8;" x="127.710904" xlink:href="#m1348a14214" y="400.6"/>
      </g>
     </g>
     <g id="text_3">
      <!-- 3.00 -->
      <g transform="translate(116.578091 415.198437)scale(0.1 -0.1)">
       <defs>
        <path d="M 40.578125 39.3125 
Q 47.65625 37.796875 51.625 33 
Q 55.609375 28.21875 55.609375 21.1875 
Q 55.609375 10.40625 48.1875 4.484375 
Q 40.765625 -1.421875 27.09375 -1.421875 
Q 22.515625 -1.421875 17.65625 -0.515625 
Q 12.796875 0.390625 7.625 2.203125 
L 7.625 11.71875 
Q 11.71875 9.328125 16.59375 8.109375 
Q 21.484375 6.890625 26.8125 6.890625 
Q 36.078125 6.890625 40.9375 10.546875 
Q 45.796875 14.203125 45.796875 21.1875 
Q 45.796875 27.640625 41.28125 31.265625 
Q 36.765625 34.90625 28.71875 34.90625 
L 20.21875 34.90625 
L 20.21875 43.015625 
L 29.109375 43.015625 
Q 36.375 43.015625 40.234375 45.921875 
Q 44.09375 48.828125 44.09375 54.296875 
Q 44.09375 59.90625 40.109375 62.90625 
Q 36.140625 65.921875 28.71875 65.921875 
Q 24.65625 65.921875 20.015625 65.03125 
Q 15.375 64.15625 9.8125 62.3125 
L 9.8125 71.09375 
Q 15.4375 72.65625 20.34375 73.4375 
Q 25.25 74.21875 29.59375 74.21875 
Q 40.828125 74.21875 47.359375 69.109375 
Q 53.90625 64.015625 53.90625 55.328125 
Q 53.90625 49.265625 50.4375 45.09375 
Q 46.96875 40.921875 40.578125 39.3125 
z
" id="DejaVuSans-51"/>
       </defs>
       <use xlink:href="#DejaVuSans-51"/>
       <use x="63.623047" xlink:href="#DejaVuSans-46"/>
       <use x="95.410156" xlink:href="#DejaVuSans-48"/>
       <use x="159.033203" xlink:href="#DejaVuSans-48"/>
      </g>
     </g>
    </g>
    <g id="xtick_4">
     <g id="line2d_4">
      <g>
       <use style="stroke:#000000;stroke-width:0.8;" x="163.076238" xlink:href="#m1348a14214" y="400.6"/>
      </g>
     </g>
     <g id="text_4">
      <!-- 3.25 -->
      <g transform="translate(151.943426 415.198437)scale(0.1 -0.1)">
       <use xlink:href="#DejaVuSans-51"/>
       <use x="63.623047" xlink:href="#DejaVuSans-46"/>
       <use x="95.410156" xlink:href="#DejaVuSans-50"/>
       <use x="159.033203" xlink:href="#DejaVuSans-53"/>
      </g>
     </g>
    </g>
    <g id="xtick_5">
     <g id="line2d_5">
      <g>
       <use style="stroke:#000000;stroke-width:0.8;" x="198.441573" xlink:href="#m1348a14214" y="400.6"/>
      </g>
     </g>
     <g id="text_5">
      <!-- 3.50 -->
      <g transform="translate(187.308761 415.198437)scale(0.1 -0.1)">
       <use xlink:href="#DejaVuSans-51"/>
       <use x="63.623047" xlink:href="#DejaVuSans-46"/>
       <use x="95.410156" xlink:href="#DejaVuSans-53"/>
       <use x="159.033203" xlink:href="#DejaVuSans-48"/>
      </g>
     </g>
    </g>
    <g id="xtick_6">
     <g id="line2d_6">
      <g>
       <use style="stroke:#000000;stroke-width:0.8;" x="233.806908" xlink:href="#m1348a14214" y="400.6"/>
      </g>
     </g>
     <g id="text_6">
      <!-- 3.75 -->
      <g transform="translate(222.674096 415.198437)scale(0.1 -0.1)">
       <use xlink:href="#DejaVuSans-51"/>
       <use x="63.623047" xlink:href="#DejaVuSans-46"/>
       <use x="95.410156" xlink:href="#DejaVuSans-55"/>
       <use x="159.033203" xlink:href="#DejaVuSans-53"/>
      </g>
     </g>
    </g>
    <g id="xtick_7">
     <g id="line2d_7">
      <g>
       <use style="stroke:#000000;stroke-width:0.8;" x="269.172243" xlink:href="#m1348a14214" y="400.6"/>
      </g>
     </g>
     <g id="text_7">
      <!-- 4.00 -->
      <g transform="translate(258.03943 415.198437)scale(0.1 -0.1)">
       <defs>
        <path d="M 37.796875 64.3125 
L 12.890625 25.390625 
L 37.796875 25.390625 
z
M 35.203125 72.90625 
L 47.609375 72.90625 
L 47.609375 25.390625 
L 58.015625 25.390625 
L 58.015625 17.1875 
L 47.609375 17.1875 
L 47.609375 0 
L 37.796875 0 
L 37.796875 17.1875 
L 4.890625 17.1875 
L 4.890625 26.703125 
z
" id="DejaVuSans-52"/>
       </defs>
       <use xlink:href="#DejaVuSans-52"/>
       <use x="63.623047" xlink:href="#DejaVuSans-46"/>
       <use x="95.410156" xlink:href="#DejaVuSans-48"/>
       <use x="159.033203" xlink:href="#DejaVuSans-48"/>
      </g>
     </g>
    </g>
    <g id="xtick_8">
     <g id="line2d_8">
      <g>
       <use style="stroke:#000000;stroke-width:0.8;" x="304.537578" xlink:href="#m1348a14214" y="400.6"/>
      </g>
     </g>
     <g id="text_8">
      <!-- 4.25 -->
      <g transform="translate(293.404765 415.198437)scale(0.1 -0.1)">
       <use xlink:href="#DejaVuSans-52"/>
       <use x="63.623047" xlink:href="#DejaVuSans-46"/>
       <use x="95.410156" xlink:href="#DejaVuSans-50"/>
       <use x="159.033203" xlink:href="#DejaVuSans-53"/>
      </g>
     </g>
    </g>
    <g id="xtick_9">
     <g id="line2d_9">
      <g>
       <use style="stroke:#000000;stroke-width:0.8;" x="339.902912" xlink:href="#m1348a14214" y="400.6"/>
      </g>
     </g>
     <g id="text_9">
      <!-- 4.50 -->
      <g transform="translate(328.7701 415.198437)scale(0.1 -0.1)">
       <use xlink:href="#DejaVuSans-52"/>
       <use x="63.623047" xlink:href="#DejaVuSans-46"/>
       <use x="95.410156" xlink:href="#DejaVuSans-53"/>
       <use x="159.033203" xlink:href="#DejaVuSans-48"/>
      </g>
     </g>
    </g>
    <g id="text_10">
     <!-- Predicted Values -->
     <g transform="translate(156.704777 428.876562)scale(0.1 -0.1)">
      <defs>
       <path d="M 19.671875 64.796875 
L 19.671875 37.40625 
L 32.078125 37.40625 
Q 38.96875 37.40625 42.71875 40.96875 
Q 46.484375 44.53125 46.484375 51.125 
Q 46.484375 57.671875 42.71875 61.234375 
Q 38.96875 64.796875 32.078125 64.796875 
z
M 9.8125 72.90625 
L 32.078125 72.90625 
Q 44.34375 72.90625 50.609375 67.359375 
Q 56.890625 61.8125 56.890625 51.125 
Q 56.890625 40.328125 50.609375 34.8125 
Q 44.34375 29.296875 32.078125 29.296875 
L 19.671875 29.296875 
L 19.671875 0 
L 9.8125 0 
z
" id="DejaVuSans-80"/>
       <path d="M 41.109375 46.296875 
Q 39.59375 47.171875 37.8125 47.578125 
Q 36.03125 48 33.890625 48 
Q 26.265625 48 22.1875 43.046875 
Q 18.109375 38.09375 18.109375 28.8125 
L 18.109375 0 
L 9.078125 0 
L 9.078125 54.6875 
L 18.109375 54.6875 
L 18.109375 46.1875 
Q 20.953125 51.171875 25.484375 53.578125 
Q 30.03125 56 36.53125 56 
Q 37.453125 56 38.578125 55.875 
Q 39.703125 55.765625 41.0625 55.515625 
z
" id="DejaVuSans-114"/>
       <path d="M 56.203125 29.59375 
L 56.203125 25.203125 
L 14.890625 25.203125 
Q 15.484375 15.921875 20.484375 11.0625 
Q 25.484375 6.203125 34.421875 6.203125 
Q 39.59375 6.203125 44.453125 7.46875 
Q 49.3125 8.734375 54.109375 11.28125 
L 54.109375 2.78125 
Q 49.265625 0.734375 44.1875 -0.34375 
Q 39.109375 -1.421875 33.890625 -1.421875 
Q 20.796875 -1.421875 13.15625 6.1875 
Q 5.515625 13.8125 5.515625 26.8125 
Q 5.515625 40.234375 12.765625 48.109375 
Q 20.015625 56 32.328125 56 
Q 43.359375 56 49.78125 48.890625 
Q 56.203125 41.796875 56.203125 29.59375 
z
M 47.21875 32.234375 
Q 47.125 39.59375 43.09375 43.984375 
Q 39.0625 48.390625 32.421875 48.390625 
Q 24.90625 48.390625 20.390625 44.140625 
Q 15.875 39.890625 15.1875 32.171875 
z
" id="DejaVuSans-101"/>
       <path d="M 45.40625 46.390625 
L 45.40625 75.984375 
L 54.390625 75.984375 
L 54.390625 0 
L 45.40625 0 
L 45.40625 8.203125 
Q 42.578125 3.328125 38.25 0.953125 
Q 33.9375 -1.421875 27.875 -1.421875 
Q 17.96875 -1.421875 11.734375 6.484375 
Q 5.515625 14.40625 5.515625 27.296875 
Q 5.515625 40.1875 11.734375 48.09375 
Q 17.96875 56 27.875 56 
Q 33.9375 56 38.25 53.625 
Q 42.578125 51.265625 45.40625 46.390625 
z
M 14.796875 27.296875 
Q 14.796875 17.390625 18.875 11.75 
Q 22.953125 6.109375 30.078125 6.109375 
Q 37.203125 6.109375 41.296875 11.75 
Q 45.40625 17.390625 45.40625 27.296875 
Q 45.40625 37.203125 41.296875 42.84375 
Q 37.203125 48.484375 30.078125 48.484375 
Q 22.953125 48.484375 18.875 42.84375 
Q 14.796875 37.203125 14.796875 27.296875 
z
" id="DejaVuSans-100"/>
       <path d="M 9.421875 54.6875 
L 18.40625 54.6875 
L 18.40625 0 
L 9.421875 0 
z
M 9.421875 75.984375 
L 18.40625 75.984375 
L 18.40625 64.59375 
L 9.421875 64.59375 
z
" id="DejaVuSans-105"/>
       <path d="M 48.78125 52.59375 
L 48.78125 44.1875 
Q 44.96875 46.296875 41.140625 47.34375 
Q 37.3125 48.390625 33.40625 48.390625 
Q 24.65625 48.390625 19.8125 42.84375 
Q 14.984375 37.3125 14.984375 27.296875 
Q 14.984375 17.28125 19.8125 11.734375 
Q 24.65625 6.203125 33.40625 6.203125 
Q 37.3125 6.203125 41.140625 7.25 
Q 44.96875 8.296875 48.78125 10.40625 
L 48.78125 2.09375 
Q 45.015625 0.34375 40.984375 -0.53125 
Q 36.96875 -1.421875 32.421875 -1.421875 
Q 20.0625 -1.421875 12.78125 6.34375 
Q 5.515625 14.109375 5.515625 27.296875 
Q 5.515625 40.671875 12.859375 48.328125 
Q 20.21875 56 33.015625 56 
Q 37.15625 56 41.109375 55.140625 
Q 45.0625 54.296875 48.78125 52.59375 
z
" id="DejaVuSans-99"/>
       <path d="M 18.3125 70.21875 
L 18.3125 54.6875 
L 36.8125 54.6875 
L 36.8125 47.703125 
L 18.3125 47.703125 
L 18.3125 18.015625 
Q 18.3125 11.328125 20.140625 9.421875 
Q 21.96875 7.515625 27.59375 7.515625 
L 36.8125 7.515625 
L 36.8125 0 
L 27.59375 0 
Q 17.1875 0 13.234375 3.875 
Q 9.28125 7.765625 9.28125 18.015625 
L 9.28125 47.703125 
L 2.6875 47.703125 
L 2.6875 54.6875 
L 9.28125 54.6875 
L 9.28125 70.21875 
z
" id="DejaVuSans-116"/>
       <path id="DejaVuSans-32"/>
       <path d="M 28.609375 0 
L 0.78125 72.90625 
L 11.078125 72.90625 
L 34.1875 11.53125 
L 57.328125 72.90625 
L 67.578125 72.90625 
L 39.796875 0 
z
" id="DejaVuSans-86"/>
       <path d="M 34.28125 27.484375 
Q 23.390625 27.484375 19.1875 25 
Q 14.984375 22.515625 14.984375 16.5 
Q 14.984375 11.71875 18.140625 8.90625 
Q 21.296875 6.109375 26.703125 6.109375 
Q 34.1875 6.109375 38.703125 11.40625 
Q 43.21875 16.703125 43.21875 25.484375 
L 43.21875 27.484375 
z
M 52.203125 31.203125 
L 52.203125 0 
L 43.21875 0 
L 43.21875 8.296875 
Q 40.140625 3.328125 35.546875 0.953125 
Q 30.953125 -1.421875 24.3125 -1.421875 
Q 15.921875 -1.421875 10.953125 3.296875 
Q 6 8.015625 6 15.921875 
Q 6 25.140625 12.171875 29.828125 
Q 18.359375 34.515625 30.609375 34.515625 
L 43.21875 34.515625 
L 43.21875 35.40625 
Q 43.21875 41.609375 39.140625 45 
Q 35.0625 48.390625 27.6875 48.390625 
Q 23 48.390625 18.546875 47.265625 
Q 14.109375 46.140625 10.015625 43.890625 
L 10.015625 52.203125 
Q 14.9375 54.109375 19.578125 55.046875 
Q 24.21875 56 28.609375 56 
Q 40.484375 56 46.34375 49.84375 
Q 52.203125 43.703125 52.203125 31.203125 
z
" id="DejaVuSans-97"/>
       <path d="M 9.421875 75.984375 
L 18.40625 75.984375 
L 18.40625 0 
L 9.421875 0 
z
" id="DejaVuSans-108"/>
       <path d="M 8.5 21.578125 
L 8.5 54.6875 
L 17.484375 54.6875 
L 17.484375 21.921875 
Q 17.484375 14.15625 20.5 10.265625 
Q 23.53125 6.390625 29.59375 6.390625 
Q 36.859375 6.390625 41.078125 11.03125 
Q 45.3125 15.671875 45.3125 23.6875 
L 45.3125 54.6875 
L 54.296875 54.6875 
L 54.296875 0 
L 45.3125 0 
L 45.3125 8.40625 
Q 42.046875 3.421875 37.71875 1 
Q 33.40625 -1.421875 27.6875 -1.421875 
Q 18.265625 -1.421875 13.375 4.4375 
Q 8.5 10.296875 8.5 21.578125 
z
M 31.109375 56 
z
" id="DejaVuSans-117"/>
       <path d="M 44.28125 53.078125 
L 44.28125 44.578125 
Q 40.484375 46.53125 36.375 47.5 
Q 32.28125 48.484375 27.875 48.484375 
Q 21.1875 48.484375 17.84375 46.4375 
Q 14.5 44.390625 14.5 40.28125 
Q 14.5 37.15625 16.890625 35.375 
Q 19.28125 33.59375 26.515625 31.984375 
L 29.59375 31.296875 
Q 39.15625 29.25 43.1875 25.515625 
Q 47.21875 21.78125 47.21875 15.09375 
Q 47.21875 7.46875 41.1875 3.015625 
Q 35.15625 -1.421875 24.609375 -1.421875 
Q 20.21875 -1.421875 15.453125 -0.5625 
Q 10.6875 0.296875 5.421875 2 
L 5.421875 11.28125 
Q 10.40625 8.6875 15.234375 7.390625 
Q 20.0625 6.109375 24.8125 6.109375 
Q 31.15625 6.109375 34.5625 8.28125 
Q 37.984375 10.453125 37.984375 14.40625 
Q 37.984375 18.0625 35.515625 20.015625 
Q 33.0625 21.96875 24.703125 23.78125 
L 21.578125 24.515625 
Q 13.234375 26.265625 9.515625 29.90625 
Q 5.8125 33.546875 5.8125 39.890625 
Q 5.8125 47.609375 11.28125 51.796875 
Q 16.75 56 26.8125 56 
Q 31.78125 56 36.171875 55.265625 
Q 40.578125 54.546875 44.28125 53.078125 
z
" id="DejaVuSans-115"/>
      </defs>
      <use xlink:href="#DejaVuSans-80"/>
      <use x="58.552734" xlink:href="#DejaVuSans-114"/>
      <use x="97.416016" xlink:href="#DejaVuSans-101"/>
      <use x="158.939453" xlink:href="#DejaVuSans-100"/>
      <use x="222.416016" xlink:href="#DejaVuSans-105"/>
      <use x="250.199219" xlink:href="#DejaVuSans-99"/>
      <use x="305.179688" xlink:href="#DejaVuSans-116"/>
      <use x="344.388672" xlink:href="#DejaVuSans-101"/>
      <use x="405.912109" xlink:href="#DejaVuSans-100"/>
      <use x="469.388672" xlink:href="#DejaVuSans-32"/>
      <use x="501.175781" xlink:href="#DejaVuSans-86"/>
      <use x="561.833984" xlink:href="#DejaVuSans-97"/>
      <use x="623.113281" xlink:href="#DejaVuSans-108"/>
      <use x="650.896484" xlink:href="#DejaVuSans-117"/>
      <use x="714.275391" xlink:href="#DejaVuSans-101"/>
      <use x="775.798828" xlink:href="#DejaVuSans-115"/>
     </g>
    </g>
   </g>
   <g id="matplotlib.axis_2">
    <g id="ytick_1">
     <g id="line2d_10">
      <defs>
       <path d="M 0 0 
L -3.5 0 
" id="mdf65d2bb85" style="stroke:#000000;stroke-width:0.8;"/>
      </defs>
      <g>
       <use style="stroke:#000000;stroke-width:0.8;" x="43.78125" xlink:href="#mdf65d2bb85" y="351.146045"/>
      </g>
     </g>
     <g id="text_11">
      <!-- 2.5 -->
      <g transform="translate(20.878125 354.945264)scale(0.1 -0.1)">
       <use xlink:href="#DejaVuSans-50"/>
       <use x="63.623047" xlink:href="#DejaVuSans-46"/>
       <use x="95.410156" xlink:href="#DejaVuSans-53"/>
      </g>
     </g>
    </g>
    <g id="ytick_2">
     <g id="line2d_11">
      <g>
       <use style="stroke:#000000;stroke-width:0.8;" x="43.78125" xlink:href="#mdf65d2bb85" y="293.945908"/>
      </g>
     </g>
     <g id="text_12">
      <!-- 3.0 -->
      <g transform="translate(20.878125 297.745127)scale(0.1 -0.1)">
       <use xlink:href="#DejaVuSans-51"/>
       <use x="63.623047" xlink:href="#DejaVuSans-46"/>
       <use x="95.410156" xlink:href="#DejaVuSans-48"/>
      </g>
     </g>
    </g>
    <g id="ytick_3">
     <g id="line2d_12">
      <g>
       <use style="stroke:#000000;stroke-width:0.8;" x="43.78125" xlink:href="#mdf65d2bb85" y="236.745771"/>
      </g>
     </g>
     <g id="text_13">
      <!-- 3.5 -->
      <g transform="translate(20.878125 240.54499)scale(0.1 -0.1)">
       <use xlink:href="#DejaVuSans-51"/>
       <use x="63.623047" xlink:href="#DejaVuSans-46"/>
       <use x="95.410156" xlink:href="#DejaVuSans-53"/>
      </g>
     </g>
    </g>
    <g id="ytick_4">
     <g id="line2d_13">
      <g>
       <use style="stroke:#000000;stroke-width:0.8;" x="43.78125" xlink:href="#mdf65d2bb85" y="179.545635"/>
      </g>
     </g>
     <g id="text_14">
      <!-- 4.0 -->
      <g transform="translate(20.878125 183.344853)scale(0.1 -0.1)">
       <use xlink:href="#DejaVuSans-52"/>
       <use x="63.623047" xlink:href="#DejaVuSans-46"/>
       <use x="95.410156" xlink:href="#DejaVuSans-48"/>
      </g>
     </g>
    </g>
    <g id="ytick_5">
     <g id="line2d_14">
      <g>
       <use style="stroke:#000000;stroke-width:0.8;" x="43.78125" xlink:href="#mdf65d2bb85" y="122.345498"/>
      </g>
     </g>
     <g id="text_15">
      <!-- 4.5 -->
      <g transform="translate(20.878125 126.144716)scale(0.1 -0.1)">
       <use xlink:href="#DejaVuSans-52"/>
       <use x="63.623047" xlink:href="#DejaVuSans-46"/>
       <use x="95.410156" xlink:href="#DejaVuSans-53"/>
      </g>
     </g>
    </g>
    <g id="text_16">
     <!-- Real Values -->
     <g transform="translate(14.798438 266.323906)rotate(-90)scale(0.1 -0.1)">
      <defs>
       <path d="M 44.390625 34.1875 
Q 47.5625 33.109375 50.5625 29.59375 
Q 53.5625 26.078125 56.59375 19.921875 
L 66.609375 0 
L 56 0 
L 46.6875 18.703125 
Q 43.0625 26.03125 39.671875 28.421875 
Q 36.28125 30.8125 30.421875 30.8125 
L 19.671875 30.8125 
L 19.671875 0 
L 9.8125 0 
L 9.8125 72.90625 
L 32.078125 72.90625 
Q 44.578125 72.90625 50.734375 67.671875 
Q 56.890625 62.453125 56.890625 51.90625 
Q 56.890625 45.015625 53.6875 40.46875 
Q 50.484375 35.9375 44.390625 34.1875 
z
M 19.671875 64.796875 
L 19.671875 38.921875 
L 32.078125 38.921875 
Q 39.203125 38.921875 42.84375 42.21875 
Q 46.484375 45.515625 46.484375 51.90625 
Q 46.484375 58.296875 42.84375 61.546875 
Q 39.203125 64.796875 32.078125 64.796875 
z
" id="DejaVuSans-82"/>
      </defs>
      <use xlink:href="#DejaVuSans-82"/>
      <use x="64.982422" xlink:href="#DejaVuSans-101"/>
      <use x="126.505859" xlink:href="#DejaVuSans-97"/>
      <use x="187.785156" xlink:href="#DejaVuSans-108"/>
      <use x="215.568359" xlink:href="#DejaVuSans-32"/>
      <use x="247.355469" xlink:href="#DejaVuSans-86"/>
      <use x="308.013672" xlink:href="#DejaVuSans-97"/>
      <use x="369.292969" xlink:href="#DejaVuSans-108"/>
      <use x="397.076172" xlink:href="#DejaVuSans-117"/>
      <use x="460.455078" xlink:href="#DejaVuSans-101"/>
      <use x="521.978516" xlink:href="#DejaVuSans-115"/>
     </g>
    </g>
   </g>
   <g id="line2d_15">
    <path clip-path="url(#p166e2fd661)" d="M 43.78125 362.198854 
L 46.898802 359.657159 
L 50.016355 357.115465 
L 53.133907 354.57377 
L 56.251459 352.032075 
L 59.369012 349.490381 
L 62.486564 346.948686 
L 65.604116 344.406991 
L 68.721668 341.865297 
L 71.839221 339.323602 
L 74.956773 336.781907 
L 78.074325 334.240213 
L 81.191878 331.698518 
L 84.30943 329.156823 
L 87.426982 326.615129 
L 90.544535 324.073434 
L 93.662087 321.531739 
L 96.779639 318.990045 
L 99.897192 316.44835 
L 103.014744 313.906655 
L 106.132296 311.364961 
L 109.249848 308.823266 
L 112.367401 306.281571 
L 115.484953 303.739877 
L 118.602505 301.198182 
L 121.720058 298.656487 
L 124.83761 296.114793 
L 127.955162 293.573098 
L 131.072715 291.031403 
L 134.190267 288.489709 
L 137.307819 285.948014 
L 140.425372 283.406319 
L 143.542924 280.864625 
L 146.660476 278.32293 
L 149.778028 275.781235 
L 152.895581 273.239541 
L 156.013133 270.697846 
L 159.130685 268.156151 
L 162.248238 265.614457 
L 165.36579 263.072762 
L 168.483342 260.531067 
L 171.600895 257.989373 
L 174.718447 255.447678 
L 177.835999 252.905983 
L 180.953552 250.364289 
L 184.071104 247.822594 
L 187.188656 245.280899 
L 190.306209 242.739205 
L 193.423761 240.19751 
L 196.541313 237.655815 
L 199.658865 235.114121 
L 202.776418 232.572426 
L 205.89397 230.030731 
L 209.011522 227.489037 
L 212.129075 224.947342 
L 215.246627 222.405647 
L 218.364179 219.863953 
L 221.481732 217.322258 
L 224.599284 214.780563 
L 227.716836 212.238869 
L 230.834389 209.697174 
L 233.951941 207.155479 
L 237.069493 204.613785 
L 240.187045 202.07209 
L 243.304598 199.530395 
L 246.42215 196.988701 
L 249.539702 194.447006 
L 252.657255 191.905311 
L 255.774807 189.363617 
L 258.892359 186.821922 
L 262.009912 184.280227 
L 265.127464 181.738533 
L 268.245016 179.196838 
L 271.362569 176.655143 
L 274.480121 174.113449 
L 277.597673 171.571754 
L 280.715225 169.030059 
L 283.832778 166.488365 
L 286.95033 163.94667 
L 290.067882 161.404975 
L 293.185435 158.863281 
L 296.302987 156.321586 
L 299.420539 153.779891 
L 302.538092 151.238197 
L 305.655644 148.696502 
L 308.773196 146.154807 
L 311.890749 143.613113 
L 315.008301 141.071418 
L 318.125853 138.529723 
L 321.243405 135.988029 
L 324.360958 133.446334 
L 327.47851 130.904639 
L 330.596062 128.362945 
L 333.713615 125.82125 
L 336.831167 123.279555 
L 339.948719 120.737861 
L 343.066272 118.196166 
L 346.183824 115.654471 
L 349.301376 113.112777 
L 352.418929 110.571082 
" style="fill:none;stroke:#1f77b4;stroke-linecap:square;stroke-width:2.25;"/>
   </g>
   <g id="patch_3">
    <path d="M 43.78125 400.6 
L 43.78125 74.64 
" style="fill:none;stroke:#000000;stroke-linecap:square;stroke-linejoin:miter;stroke-width:0.8;"/>
   </g>
   <g id="patch_4">
    <path d="M 43.78125 400.6 
L 352.418929 400.6 
" style="fill:none;stroke:#000000;stroke-linecap:square;stroke-linejoin:miter;stroke-width:0.8;"/>
   </g>
  </g>
  <g id="axes_2">
   <g id="patch_5">
    <path d="M 43.78125 63.4 
L 352.418929 63.4 
L 352.418929 7.2 
L 43.78125 7.2 
z
" style="fill:#ffffff;"/>
   </g>
   <g id="patch_6">
    <path clip-path="url(#pc87a311390)" d="M 43.78125 63.4 
L 74.645018 63.4 
L 74.645018 50.019048 
L 43.78125 50.019048 
z
" style="fill:#1f77b4;fill-opacity:0.5;stroke:#000000;stroke-linejoin:miter;"/>
   </g>
   <g id="patch_7">
    <path clip-path="url(#pc87a311390)" d="M 74.645018 63.4 
L 105.508786 63.4 
L 105.508786 34.205195 
L 74.645018 34.205195 
z
" style="fill:#1f77b4;fill-opacity:0.5;stroke:#000000;stroke-linejoin:miter;"/>
   </g>
   <g id="patch_8">
    <path clip-path="url(#pc87a311390)" d="M 105.508786 63.4 
L 136.372554 63.4 
L 136.372554 23.257143 
L 105.508786 23.257143 
z
" style="fill:#1f77b4;fill-opacity:0.5;stroke:#000000;stroke-linejoin:miter;"/>
   </g>
   <g id="patch_9">
    <path clip-path="url(#pc87a311390)" d="M 136.372554 63.4 
L 167.236321 63.4 
L 167.236321 9.87619 
L 136.372554 9.87619 
z
" style="fill:#1f77b4;fill-opacity:0.5;stroke:#000000;stroke-linejoin:miter;"/>
   </g>
   <g id="patch_10">
    <path clip-path="url(#pc87a311390)" d="M 167.236321 63.4 
L 198.100089 63.4 
L 198.100089 39.070996 
L 167.236321 39.070996 
z
" style="fill:#1f77b4;fill-opacity:0.5;stroke:#000000;stroke-linejoin:miter;"/>
   </g>
   <g id="patch_11">
    <path clip-path="url(#pc87a311390)" d="M 198.100089 63.4 
L 228.963857 63.4 
L 228.963857 40.287446 
L 198.100089 40.287446 
z
" style="fill:#1f77b4;fill-opacity:0.5;stroke:#000000;stroke-linejoin:miter;"/>
   </g>
   <g id="patch_12">
    <path clip-path="url(#pc87a311390)" d="M 228.963857 63.4 
L 259.827625 63.4 
L 259.827625 43.936797 
L 228.963857 43.936797 
z
" style="fill:#1f77b4;fill-opacity:0.5;stroke:#000000;stroke-linejoin:miter;"/>
   </g>
   <g id="patch_13">
    <path clip-path="url(#pc87a311390)" d="M 259.827625 63.4 
L 290.691393 63.4 
L 290.691393 48.802597 
L 259.827625 48.802597 
z
" style="fill:#1f77b4;fill-opacity:0.5;stroke:#000000;stroke-linejoin:miter;"/>
   </g>
   <g id="patch_14">
    <path clip-path="url(#pc87a311390)" d="M 290.691393 63.4 
L 321.555161 63.4 
L 321.555161 57.317749 
L 290.691393 57.317749 
z
" style="fill:#1f77b4;fill-opacity:0.5;stroke:#000000;stroke-linejoin:miter;"/>
   </g>
   <g id="patch_15">
    <path clip-path="url(#pc87a311390)" d="M 321.555161 63.4 
L 352.418929 63.4 
L 352.418929 59.750649 
L 321.555161 59.750649 
z
" style="fill:#1f77b4;fill-opacity:0.5;stroke:#000000;stroke-linejoin:miter;"/>
   </g>
   <g id="matplotlib.axis_3">
    <g id="xtick_10">
     <g id="line2d_16">
      <g>
       <use style="stroke:#000000;stroke-width:0.8;" x="56.980234" xlink:href="#m1348a14214" y="63.4"/>
      </g>
     </g>
    </g>
    <g id="xtick_11">
     <g id="line2d_17">
      <g>
       <use style="stroke:#000000;stroke-width:0.8;" x="92.345569" xlink:href="#m1348a14214" y="63.4"/>
      </g>
     </g>
    </g>
    <g id="xtick_12">
     <g id="line2d_18">
      <g>
       <use style="stroke:#000000;stroke-width:0.8;" x="127.710904" xlink:href="#m1348a14214" y="63.4"/>
      </g>
     </g>
    </g>
    <g id="xtick_13">
     <g id="line2d_19">
      <g>
       <use style="stroke:#000000;stroke-width:0.8;" x="163.076238" xlink:href="#m1348a14214" y="63.4"/>
      </g>
     </g>
    </g>
    <g id="xtick_14">
     <g id="line2d_20">
      <g>
       <use style="stroke:#000000;stroke-width:0.8;" x="198.441573" xlink:href="#m1348a14214" y="63.4"/>
      </g>
     </g>
    </g>
    <g id="xtick_15">
     <g id="line2d_21">
      <g>
       <use style="stroke:#000000;stroke-width:0.8;" x="233.806908" xlink:href="#m1348a14214" y="63.4"/>
      </g>
     </g>
    </g>
    <g id="xtick_16">
     <g id="line2d_22">
      <g>
       <use style="stroke:#000000;stroke-width:0.8;" x="269.172243" xlink:href="#m1348a14214" y="63.4"/>
      </g>
     </g>
    </g>
    <g id="xtick_17">
     <g id="line2d_23">
      <g>
       <use style="stroke:#000000;stroke-width:0.8;" x="304.537578" xlink:href="#m1348a14214" y="63.4"/>
      </g>
     </g>
    </g>
    <g id="xtick_18">
     <g id="line2d_24">
      <g>
       <use style="stroke:#000000;stroke-width:0.8;" x="339.902912" xlink:href="#m1348a14214" y="63.4"/>
      </g>
     </g>
    </g>
   </g>
   <g id="matplotlib.axis_4">
    <g id="ytick_6"/>
    <g id="ytick_7"/>
   </g>
   <g id="line2d_25">
    <path clip-path="url(#pc87a311390)" d="M 43.78125 55.874961 
L 48.434079 54.103594 
L 54.637852 51.465529 
L 62.392567 47.859709 
L 79.452941 39.780269 
L 87.207657 36.397507 
L 98.064259 31.946772 
L 121.328405 22.637514 
L 125.981235 21.02516 
L 130.634064 19.677785 
L 133.73595 18.976089 
L 136.837837 18.464152 
L 139.939723 18.166085 
L 143.041609 18.101008 
L 146.143495 18.281764 
L 149.245381 18.713884 
L 152.347268 19.394895 
L 155.449154 20.313992 
L 158.55104 21.452146 
L 161.652926 22.782662 
L 166.305756 25.064701 
L 172.509528 28.430793 
L 181.815187 33.485367 
L 186.468016 35.743177 
L 191.120845 37.705822 
L 195.773675 39.333684 
L 200.426504 40.623536 
L 205.079333 41.600937 
L 209.732163 42.309412 
L 214.384992 42.799368 
L 220.588764 43.196078 
L 228.34348 43.415632 
L 248.50574 43.740401 
L 254.709513 44.172981 
L 259.362342 44.70731 
L 264.015171 45.440864 
L 268.668001 46.367724 
L 274.871773 47.854693 
L 284.177432 50.393639 
L 295.034034 53.328992 
L 302.788749 55.162653 
L 308.992522 56.422863 
L 316.747237 57.754243 
L 324.501953 58.860551 
L 333.807611 59.96013 
L 344.664213 60.999142 
L 352.418929 61.604948 
L 352.418929 61.604948 
" style="fill:none;stroke:#1f77b4;stroke-linecap:square;stroke-width:1.5;"/>
   </g>
   <g id="patch_16">
    <path d="M 43.78125 63.4 
L 352.418929 63.4 
" style="fill:none;stroke:#000000;stroke-linecap:square;stroke-linejoin:miter;stroke-width:0.8;"/>
   </g>
  </g>
  <g id="axes_3">
   <g id="patch_17">
    <path d="M 363.061607 400.6 
L 416.275 400.6 
L 416.275 74.64 
L 363.061607 74.64 
z
" style="fill:#ffffff;"/>
   </g>
   <g id="patch_18">
    <path clip-path="url(#pbc7033bad9)" d="M 363.061607 385.783636 
L 373.457386 385.783636 
L 373.457386 356.150909 
L 363.061607 356.150909 
z
" style="fill:#1f77b4;fill-opacity:0.5;stroke:#000000;stroke-linejoin:miter;"/>
   </g>
   <g id="patch_19">
    <path clip-path="url(#pbc7033bad9)" d="M 363.061607 356.150909 
L 398.147361 356.150909 
L 398.147361 326.518182 
L 363.061607 326.518182 
z
" style="fill:#1f77b4;fill-opacity:0.5;stroke:#000000;stroke-linejoin:miter;"/>
   </g>
   <g id="patch_20">
    <path clip-path="url(#pbc7033bad9)" d="M 363.061607 326.518182 
L 399.446833 326.518182 
L 399.446833 296.885455 
L 363.061607 296.885455 
z
" style="fill:#1f77b4;fill-opacity:0.5;stroke:#000000;stroke-linejoin:miter;"/>
   </g>
   <g id="patch_21">
    <path clip-path="url(#pbc7033bad9)" d="M 363.061607 296.885455 
L 413.741029 296.885455 
L 413.741029 267.252727 
L 363.061607 267.252727 
z
" style="fill:#1f77b4;fill-opacity:0.5;stroke:#000000;stroke-linejoin:miter;"/>
   </g>
   <g id="patch_22">
    <path clip-path="url(#pbc7033bad9)" d="M 363.061607 267.252727 
L 390.350527 267.252727 
L 390.350527 237.62 
L 363.061607 237.62 
z
" style="fill:#1f77b4;fill-opacity:0.5;stroke:#000000;stroke-linejoin:miter;"/>
   </g>
   <g id="patch_23">
    <path clip-path="url(#pbc7033bad9)" d="M 363.061607 237.62 
L 399.446833 237.62 
L 399.446833 207.987273 
L 363.061607 207.987273 
z
" style="fill:#1f77b4;fill-opacity:0.5;stroke:#000000;stroke-linejoin:miter;"/>
   </g>
   <g id="patch_24">
    <path clip-path="url(#pbc7033bad9)" d="M 363.061607 207.987273 
L 385.152637 207.987273 
L 385.152637 178.354545 
L 363.061607 178.354545 
z
" style="fill:#1f77b4;fill-opacity:0.5;stroke:#000000;stroke-linejoin:miter;"/>
   </g>
   <g id="patch_25">
    <path clip-path="url(#pbc7033bad9)" d="M 363.061607 178.354545 
L 376.056331 178.354545 
L 376.056331 148.721818 
L 363.061607 148.721818 
z
" style="fill:#1f77b4;fill-opacity:0.5;stroke:#000000;stroke-linejoin:miter;"/>
   </g>
   <g id="patch_26">
    <path clip-path="url(#pbc7033bad9)" d="M 363.061607 148.721818 
L 368.259497 148.721818 
L 368.259497 119.089091 
L 363.061607 119.089091 
z
" style="fill:#1f77b4;fill-opacity:0.5;stroke:#000000;stroke-linejoin:miter;"/>
   </g>
   <g id="patch_27">
    <path clip-path="url(#pbc7033bad9)" d="M 363.061607 119.089091 
L 369.558969 119.089091 
L 369.558969 89.456364 
L 363.061607 89.456364 
z
" style="fill:#1f77b4;fill-opacity:0.5;stroke:#000000;stroke-linejoin:miter;"/>
   </g>
   <g id="matplotlib.axis_5">
    <g id="xtick_19"/>
    <g id="xtick_20"/>
   </g>
   <g id="matplotlib.axis_6">
    <g id="ytick_8">
     <g id="line2d_26">
      <g>
       <use style="stroke:#000000;stroke-width:0.8;" x="363.061607" xlink:href="#mdf65d2bb85" y="351.146045"/>
      </g>
     </g>
    </g>
    <g id="ytick_9">
     <g id="line2d_27">
      <g>
       <use style="stroke:#000000;stroke-width:0.8;" x="363.061607" xlink:href="#mdf65d2bb85" y="293.945908"/>
      </g>
     </g>
    </g>
    <g id="ytick_10">
     <g id="line2d_28">
      <g>
       <use style="stroke:#000000;stroke-width:0.8;" x="363.061607" xlink:href="#mdf65d2bb85" y="236.745771"/>
      </g>
     </g>
    </g>
    <g id="ytick_11">
     <g id="line2d_29">
      <g>
       <use style="stroke:#000000;stroke-width:0.8;" x="363.061607" xlink:href="#mdf65d2bb85" y="179.545635"/>
      </g>
     </g>
    </g>
    <g id="ytick_12">
     <g id="line2d_30">
      <g>
       <use style="stroke:#000000;stroke-width:0.8;" x="363.061607" xlink:href="#mdf65d2bb85" y="122.345498"/>
      </g>
     </g>
    </g>
   </g>
   <g id="line2d_31">
    <path clip-path="url(#pbc7033bad9)" d="M 370.312449 385.783636 
L 372.16474 379.827309 
L 374.225411 373.870982 
L 376.51416 367.914655 
L 379.067801 361.958328 
L 381.925284 356.002001 
L 385.103124 350.045674 
L 388.568352 344.089347 
L 399.318219 326.220365 
L 401.60029 321.75312 
L 402.923923 318.774957 
L 404.059629 315.796793 
L 404.987622 312.81863 
L 405.694399 309.840466 
L 406.1735 306.862302 
L 406.425896 303.884139 
L 406.459957 300.905975 
L 406.290999 297.927812 
L 405.940432 294.949648 
L 405.132617 290.482403 
L 404.077887 286.015158 
L 401.64909 277.080667 
L 399.724591 269.635258 
L 398.444318 263.678931 
L 397.449032 257.722604 
L 396.72145 251.766277 
L 396.087971 244.320868 
L 394.832077 227.940968 
L 394.088283 221.984641 
L 393.074962 216.028314 
L 391.780452 210.071987 
L 390.238109 204.11566 
L 388.058267 196.670251 
L 384.289229 184.757597 
L 376.239394 159.443207 
L 373.638977 150.508716 
L 371.723612 143.063307 
L 370.42042 137.10698 
L 369.358506 131.150653 
L 368.553293 125.194326 
L 367.995062 119.237999 
L 367.645202 113.281672 
L 367.362449 104.347181 
L 366.937132 90.945445 
L 366.862069 89.456364 
L 366.862069 89.456364 
" style="fill:none;stroke:#1f77b4;stroke-linecap:square;stroke-width:1.5;"/>
   </g>
   <g id="patch_28">
    <path d="M 363.061607 400.6 
L 363.061607 74.64 
" style="fill:none;stroke:#000000;stroke-linecap:square;stroke-linejoin:miter;stroke-width:0.8;"/>
   </g>
  </g>
 </g>
 <defs>
  <clipPath id="p166e2fd661">
   <rect height="325.96" width="308.637679" x="43.78125" y="74.64"/>
  </clipPath>
  <clipPath id="pc87a311390">
   <rect height="56.2" width="308.637679" x="43.78125" y="7.2"/>
  </clipPath>
  <clipPath id="pbc7033bad9">
   <rect height="325.96" width="53.213393" x="363.061607" y="74.64"/>
  </clipPath>
 </defs>
</svg>
