<?xml version="1.0" encoding="utf-8" standalone="no"?>
<!DOCTYPE svg PUBLIC "-//W3C//DTD SVG 1.1//EN"
  "http://www.w3.org/Graphics/SVG/1.1/DTD/svg11.dtd">
<!-- Created with matplotlib (https://matplotlib.org/) -->
<svg height="438.15625pt" version="1.1" viewBox="0 0 423.475 438.15625" width="423.475pt" xmlns="http://www.w3.org/2000/svg" xmlns:xlink="http://www.w3.org/1999/xlink">
 <metadata>
  <rdf:RDF xmlns:cc="http://creativecommons.org/ns#" xmlns:dc="http://purl.org/dc/elements/1.1/" xmlns:rdf="http://www.w3.org/1999/02/22-rdf-syntax-ns#">
   <cc:Work>
    <dc:type rdf:resource="http://purl.org/dc/dcmitype/StillImage"/>
    <dc:date>2021-01-06T22:32:50.122245</dc:date>
    <dc:format>image/svg+xml</dc:format>
    <dc:creator>
     <cc:Agent>
      <dc:title>Matplotlib v3.3.2, https://matplotlib.org/</dc:title>
     </cc:Agent>
    </dc:creator>
   </cc:Work>
  </rdf:RDF>
 </metadata>
 <defs>
  <style type="text/css">*{stroke-linecap:butt;stroke-linejoin:round;}</style>
 </defs>
 <g id="figure_1">
  <g id="patch_1">
   <path d="M 0 438.15625 
L 423.475 438.15625 
L 423.475 0 
L 0 0 
z
" style="fill:none;"/>
  </g>
  <g id="axes_1">
   <g id="patch_2">
    <path d="M 43.78125 400.6 
L 352.418929 400.6 
L 352.418929 74.64 
L 43.78125 74.64 
z
" style="fill:#ffffff;"/>
   </g>
   <g id="PathCollection_1">
    <defs>
     <path d="M 0 3 
C 0.795609 3 1.55874 2.683901 2.12132 2.12132 
C 2.683901 1.55874 3 0.795609 3 0 
C 3 -0.795609 2.683901 -1.55874 2.12132 -2.12132 
C 1.55874 -2.683901 0.795609 -3 0 -3 
C -0.795609 -3 -1.55874 -2.683901 -2.12132 -2.12132 
C -2.683901 -1.55874 -3 -0.795609 -3 0 
C -3 0.795609 -2.683901 1.55874 -2.12132 2.12132 
C -1.55874 2.683901 -0.795609 3 0 3 
z
" id="mf9b4f40708" style="stroke:#1f77b4;stroke-opacity:0.8;"/>
    </defs>
    <g clip-path="url(#p2ad0b138a4)">
     <use style="fill:#1f77b4;fill-opacity:0.8;stroke:#1f77b4;stroke-opacity:0.8;" x="134.836052" xlink:href="#mf9b4f40708" y="294.434137"/>
     <use style="fill:#1f77b4;fill-opacity:0.8;stroke:#1f77b4;stroke-opacity:0.8;" x="105.937331" xlink:href="#mf9b4f40708" y="373.730365"/>
     <use style="fill:#1f77b4;fill-opacity:0.8;stroke:#1f77b4;stroke-opacity:0.8;" x="150.472528" xlink:href="#mf9b4f40708" y="283.530627"/>
     <use style="fill:#1f77b4;fill-opacity:0.8;stroke:#1f77b4;stroke-opacity:0.8;" x="204.72228" xlink:href="#mf9b4f40708" y="230.413938"/>
     <use style="fill:#1f77b4;fill-opacity:0.8;stroke:#1f77b4;stroke-opacity:0.8;" x="157.257686" xlink:href="#mf9b4f40708" y="306.487409"/>
     <use style="fill:#1f77b4;fill-opacity:0.8;stroke:#1f77b4;stroke-opacity:0.8;" x="217.349936" xlink:href="#mf9b4f40708" y="240.665594"/>
     <use style="fill:#1f77b4;fill-opacity:0.8;stroke:#1f77b4;stroke-opacity:0.8;" x="153.644086" xlink:href="#mf9b4f40708" y="306.487409"/>
     <use style="fill:#1f77b4;fill-opacity:0.8;stroke:#1f77b4;stroke-opacity:0.8;" x="104.869604" xlink:href="#mf9b4f40708" y="306.487409"/>
     <use style="fill:#1f77b4;fill-opacity:0.8;stroke:#1f77b4;stroke-opacity:0.8;" x="68.957285" xlink:href="#mf9b4f40708" y="327.345045"/>
     <use style="fill:#1f77b4;fill-opacity:0.8;stroke:#1f77b4;stroke-opacity:0.8;" x="165.755784" xlink:href="#mf9b4f40708" y="319.961821"/>
     <use style="fill:#1f77b4;fill-opacity:0.8;stroke:#1f77b4;stroke-opacity:0.8;" x="126.453076" xlink:href="#mf9b4f40708" y="327.345045"/>
     <use style="fill:#1f77b4;fill-opacity:0.8;stroke:#1f77b4;stroke-opacity:0.8;" x="168.731835" xlink:href="#mf9b4f40708" y="215.13791"/>
     <use style="fill:#1f77b4;fill-opacity:0.8;stroke:#1f77b4;stroke-opacity:0.8;" x="166.087571" xlink:href="#mf9b4f40708" y="313.026347"/>
     <use style="fill:#1f77b4;fill-opacity:0.8;stroke:#1f77b4;stroke-opacity:0.8;" x="192.82585" xlink:href="#mf9b4f40708" y="255.941621"/>
     <use style="fill:#1f77b4;fill-opacity:0.8;stroke:#1f77b4;stroke-opacity:0.8;" x="93.800239" xlink:href="#mf9b4f40708" y="343.715821"/>
     <use style="fill:#1f77b4;fill-opacity:0.8;stroke:#1f77b4;stroke-opacity:0.8;" x="303.066434" xlink:href="#mf9b4f40708" y="178.706716"/>
     <use style="fill:#1f77b4;fill-opacity:0.8;stroke:#1f77b4;stroke-opacity:0.8;" x="144.160157" xlink:href="#mf9b4f40708" y="283.530627"/>
     <use style="fill:#1f77b4;fill-opacity:0.8;stroke:#1f77b4;stroke-opacity:0.8;" x="83.398001" xlink:href="#mf9b4f40708" y="373.730365"/>
     <use style="fill:#1f77b4;fill-opacity:0.8;stroke:#1f77b4;stroke-opacity:0.8;" x="58.643597" xlink:href="#mf9b4f40708" y="327.345045"/>
     <use style="fill:#1f77b4;fill-opacity:0.8;stroke:#1f77b4;stroke-opacity:0.8;" x="275.946962" xlink:href="#mf9b4f40708" y="151.117711"/>
     <use style="fill:#1f77b4;fill-opacity:0.8;stroke:#1f77b4;stroke-opacity:0.8;" x="59.176485" xlink:href="#mf9b4f40708" y="271.217649"/>
     <use style="fill:#1f77b4;fill-opacity:0.8;stroke:#1f77b4;stroke-opacity:0.8;" x="154.169847" xlink:href="#mf9b4f40708" y="319.961821"/>
     <use style="fill:#1f77b4;fill-opacity:0.8;stroke:#1f77b4;stroke-opacity:0.8;" x="266.907448" xlink:href="#mf9b4f40708" y="122.367271"/>
     <use style="fill:#1f77b4;fill-opacity:0.8;stroke:#1f77b4;stroke-opacity:0.8;" x="139.000811" xlink:href="#mf9b4f40708" y="306.487409"/>
     <use style="fill:#1f77b4;fill-opacity:0.8;stroke:#1f77b4;stroke-opacity:0.8;" x="231.263379" xlink:href="#mf9b4f40708" y="230.413938"/>
     <use style="fill:#1f77b4;fill-opacity:0.8;stroke:#1f77b4;stroke-opacity:0.8;" x="87.836123" xlink:href="#mf9b4f40708" y="327.345045"/>
     <use style="fill:#1f77b4;fill-opacity:0.8;stroke:#1f77b4;stroke-opacity:0.8;" x="135.534472" xlink:href="#mf9b4f40708" y="230.413938"/>
     <use style="fill:#1f77b4;fill-opacity:0.8;stroke:#1f77b4;stroke-opacity:0.8;" x="254.017801" xlink:href="#mf9b4f40708" y="168.752591"/>
     <use style="fill:#1f77b4;fill-opacity:0.8;stroke:#1f77b4;stroke-opacity:0.8;" x="152.920021" xlink:href="#mf9b4f40708" y="306.487409"/>
     <use style="fill:#1f77b4;fill-opacity:0.8;stroke:#1f77b4;stroke-opacity:0.8;" x="181.661332" xlink:href="#mf9b4f40708" y="237.145307"/>
     <use style="fill:#1f77b4;fill-opacity:0.8;stroke:#1f77b4;stroke-opacity:0.8;" x="119.479112" xlink:href="#mf9b4f40708" y="319.961821"/>
     <use style="fill:#1f77b4;fill-opacity:0.8;stroke:#1f77b4;stroke-opacity:0.8;" x="213.676877" xlink:href="#mf9b4f40708" y="240.665594"/>
     <use style="fill:#1f77b4;fill-opacity:0.8;stroke:#1f77b4;stroke-opacity:0.8;" x="66.451169" xlink:href="#mf9b4f40708" y="352.872729"/>
     <use style="fill:#1f77b4;fill-opacity:0.8;stroke:#1f77b4;stroke-opacity:0.8;" x="224.416058" xlink:href="#mf9b4f40708" y="178.706716"/>
     <use style="fill:#1f77b4;fill-opacity:0.8;stroke:#1f77b4;stroke-opacity:0.8;" x="243.162024" xlink:href="#mf9b4f40708" y="221.005877"/>
     <use style="fill:#1f77b4;fill-opacity:0.8;stroke:#1f77b4;stroke-opacity:0.8;" x="89.051711" xlink:href="#mf9b4f40708" y="352.872729"/>
     <use style="fill:#1f77b4;fill-opacity:0.8;stroke:#1f77b4;stroke-opacity:0.8;" x="160.385553" xlink:href="#mf9b4f40708" y="215.13791"/>
     <use style="fill:#1f77b4;fill-opacity:0.8;stroke:#1f77b4;stroke-opacity:0.8;" x="221.450809" xlink:href="#mf9b4f40708" y="215.13791"/>
     <use style="fill:#1f77b4;fill-opacity:0.8;stroke:#1f77b4;stroke-opacity:0.8;" x="133.801069" xlink:href="#mf9b4f40708" y="300.302104"/>
     <use style="fill:#1f77b4;fill-opacity:0.8;stroke:#1f77b4;stroke-opacity:0.8;" x="191.761214" xlink:href="#mf9b4f40708" y="248.048818"/>
     <use style="fill:#1f77b4;fill-opacity:0.8;stroke:#1f77b4;stroke-opacity:0.8;" x="239.34205" xlink:href="#mf9b4f40708" y="201.663499"/>
     <use style="fill:#1f77b4;fill-opacity:0.8;stroke:#1f77b4;stroke-opacity:0.8;" x="230.056776" xlink:href="#mf9b4f40708" y="221.005877"/>
     <use style="fill:#1f77b4;fill-opacity:0.8;stroke:#1f77b4;stroke-opacity:0.8;" x="114.69586" xlink:href="#mf9b4f40708" y="362.826854"/>
     <use style="fill:#1f77b4;fill-opacity:0.8;stroke:#1f77b4;stroke-opacity:0.8;" x="111.903758" xlink:href="#mf9b4f40708" y="294.434137"/>
     <use style="fill:#1f77b4;fill-opacity:0.8;stroke:#1f77b4;stroke-opacity:0.8;" x="134.427799" xlink:href="#mf9b4f40708" y="306.487409"/>
     <use style="fill:#1f77b4;fill-opacity:0.8;stroke:#1f77b4;stroke-opacity:0.8;" x="135.632074" xlink:href="#mf9b4f40708" y="306.487409"/>
     <use style="fill:#1f77b4;fill-opacity:0.8;stroke:#1f77b4;stroke-opacity:0.8;" x="252.041983" xlink:href="#mf9b4f40708" y="168.752591"/>
     <use style="fill:#1f77b4;fill-opacity:0.8;stroke:#1f77b4;stroke-opacity:0.8;" x="118.904673" xlink:href="#mf9b4f40708" y="294.434137"/>
     <use style="fill:#1f77b4;fill-opacity:0.8;stroke:#1f77b4;stroke-opacity:0.8;" x="137.177142" xlink:href="#mf9b4f40708" y="294.434137"/>
     <use style="fill:#1f77b4;fill-opacity:0.8;stroke:#1f77b4;stroke-opacity:0.8;" x="146.679278" xlink:href="#mf9b4f40708" y="255.941621"/>
     <use style="fill:#1f77b4;fill-opacity:0.8;stroke:#1f77b4;stroke-opacity:0.8;" x="191.553579" xlink:href="#mf9b4f40708" y="215.13791"/>
     <use style="fill:#1f77b4;fill-opacity:0.8;stroke:#1f77b4;stroke-opacity:0.8;" x="281.50748" xlink:href="#mf9b4f40708" y="168.752591"/>
     <use style="fill:#1f77b4;fill-opacity:0.8;stroke:#1f77b4;stroke-opacity:0.8;" x="175.223556" xlink:href="#mf9b4f40708" y="268.906454"/>
     <use style="fill:#1f77b4;fill-opacity:0.8;stroke:#1f77b4;stroke-opacity:0.8;" x="86.223672" xlink:href="#mf9b4f40708" y="373.730365"/>
     <use style="fill:#1f77b4;fill-opacity:0.8;stroke:#1f77b4;stroke-opacity:0.8;" x="99.00941" xlink:href="#mf9b4f40708" y="327.345045"/>
     <use style="fill:#1f77b4;fill-opacity:0.8;stroke:#1f77b4;stroke-opacity:0.8;" x="282.243035" xlink:href="#mf9b4f40708" y="215.13791"/>
     <use style="fill:#1f77b4;fill-opacity:0.8;stroke:#1f77b4;stroke-opacity:0.8;" x="178.891976" xlink:href="#mf9b4f40708" y="248.048818"/>
     <use style="fill:#1f77b4;fill-opacity:0.8;stroke:#1f77b4;stroke-opacity:0.8;" x="196.191537" xlink:href="#mf9b4f40708" y="230.413938"/>
     <use style="fill:#1f77b4;fill-opacity:0.8;stroke:#1f77b4;stroke-opacity:0.8;" x="187.393498" xlink:href="#mf9b4f40708" y="313.026347"/>
     <use style="fill:#1f77b4;fill-opacity:0.8;stroke:#1f77b4;stroke-opacity:0.8;" x="116.974217" xlink:href="#mf9b4f40708" y="327.345045"/>
     <use style="fill:#1f77b4;fill-opacity:0.8;stroke:#1f77b4;stroke-opacity:0.8;" x="109.283673" xlink:href="#mf9b4f40708" y="327.345045"/>
     <use style="fill:#1f77b4;fill-opacity:0.8;stroke:#1f77b4;stroke-opacity:0.8;" x="95.754018" xlink:href="#mf9b4f40708" y="352.872729"/>
     <use style="fill:#1f77b4;fill-opacity:0.8;stroke:#1f77b4;stroke-opacity:0.8;" x="257.353721" xlink:href="#mf9b4f40708" y="89.456364"/>
     <use style="fill:#1f77b4;fill-opacity:0.8;stroke:#1f77b4;stroke-opacity:0.8;" x="232.338445" xlink:href="#mf9b4f40708" y="255.941621"/>
     <use style="fill:#1f77b4;fill-opacity:0.8;stroke:#1f77b4;stroke-opacity:0.8;" x="129.914757" xlink:href="#mf9b4f40708" y="294.434137"/>
     <use style="fill:#1f77b4;fill-opacity:0.8;stroke:#1f77b4;stroke-opacity:0.8;" x="110.525893" xlink:href="#mf9b4f40708" y="221.005877"/>
     <use style="fill:#1f77b4;fill-opacity:0.8;stroke:#1f77b4;stroke-opacity:0.8;" x="43.78125" xlink:href="#mf9b4f40708" y="385.783636"/>
     <use style="fill:#1f77b4;fill-opacity:0.8;stroke:#1f77b4;stroke-opacity:0.8;" x="143.322503" xlink:href="#mf9b4f40708" y="294.434137"/>
     <use style="fill:#1f77b4;fill-opacity:0.8;stroke:#1f77b4;stroke-opacity:0.8;" x="172.04818" xlink:href="#mf9b4f40708" y="215.13791"/>
     <use style="fill:#1f77b4;fill-opacity:0.8;stroke:#1f77b4;stroke-opacity:0.8;" x="256.296487" xlink:href="#mf9b4f40708" y="189.610227"/>
     <use style="fill:#1f77b4;fill-opacity:0.8;stroke:#1f77b4;stroke-opacity:0.8;" x="256.697631" xlink:href="#mf9b4f40708" y="178.706716"/>
     <use style="fill:#1f77b4;fill-opacity:0.8;stroke:#1f77b4;stroke-opacity:0.8;" x="135.368458" xlink:href="#mf9b4f40708" y="230.413938"/>
     <use style="fill:#1f77b4;fill-opacity:0.8;stroke:#1f77b4;stroke-opacity:0.8;" x="217.832203" xlink:href="#mf9b4f40708" y="255.941621"/>
     <use style="fill:#1f77b4;fill-opacity:0.8;stroke:#1f77b4;stroke-opacity:0.8;" x="112.084781" xlink:href="#mf9b4f40708" y="327.345045"/>
     <use style="fill:#1f77b4;fill-opacity:0.8;stroke:#1f77b4;stroke-opacity:0.8;" x="119.591547" xlink:href="#mf9b4f40708" y="268.906454"/>
     <use style="fill:#1f77b4;fill-opacity:0.8;stroke:#1f77b4;stroke-opacity:0.8;" x="117.7218" xlink:href="#mf9b4f40708" y="319.961821"/>
     <use style="fill:#1f77b4;fill-opacity:0.8;stroke:#1f77b4;stroke-opacity:0.8;" x="129.472078" xlink:href="#mf9b4f40708" y="268.906454"/>
     <use style="fill:#1f77b4;fill-opacity:0.8;stroke:#1f77b4;stroke-opacity:0.8;" x="188.026173" xlink:href="#mf9b4f40708" y="248.048818"/>
     <use style="fill:#1f77b4;fill-opacity:0.8;stroke:#1f77b4;stroke-opacity:0.8;" x="87.821782" xlink:href="#mf9b4f40708" y="335.237849"/>
     <use style="fill:#1f77b4;fill-opacity:0.8;stroke:#1f77b4;stroke-opacity:0.8;" x="77.225936" xlink:href="#mf9b4f40708" y="294.434137"/>
     <use style="fill:#1f77b4;fill-opacity:0.8;stroke:#1f77b4;stroke-opacity:0.8;" x="263.531484" xlink:href="#mf9b4f40708" y="255.941621"/>
     <use style="fill:#1f77b4;fill-opacity:0.8;stroke:#1f77b4;stroke-opacity:0.8;" x="153.921205" xlink:href="#mf9b4f40708" y="248.048818"/>
     <use style="fill:#1f77b4;fill-opacity:0.8;stroke:#1f77b4;stroke-opacity:0.8;" x="219.724005" xlink:href="#mf9b4f40708" y="189.610227"/>
     <use style="fill:#1f77b4;fill-opacity:0.8;stroke:#1f77b4;stroke-opacity:0.8;" x="111.950262" xlink:href="#mf9b4f40708" y="327.345045"/>
     <use style="fill:#1f77b4;fill-opacity:0.8;stroke:#1f77b4;stroke-opacity:0.8;" x="146.636914" xlink:href="#mf9b4f40708" y="283.530627"/>
     <use style="fill:#1f77b4;fill-opacity:0.8;stroke:#1f77b4;stroke-opacity:0.8;" x="151.437365" xlink:href="#mf9b4f40708" y="306.487409"/>
     <use style="fill:#1f77b4;fill-opacity:0.8;stroke:#1f77b4;stroke-opacity:0.8;" x="208.692731" xlink:href="#mf9b4f40708" y="134.420543"/>
     <use style="fill:#1f77b4;fill-opacity:0.8;stroke:#1f77b4;stroke-opacity:0.8;" x="61.412549" xlink:href="#mf9b4f40708" y="343.715821"/>
     <use style="fill:#1f77b4;fill-opacity:0.8;stroke:#1f77b4;stroke-opacity:0.8;" x="110.857691" xlink:href="#mf9b4f40708" y="278.445333"/>
     <use style="fill:#1f77b4;fill-opacity:0.8;stroke:#1f77b4;stroke-opacity:0.8;" x="120.188015" xlink:href="#mf9b4f40708" y="306.487409"/>
     <use style="fill:#1f77b4;fill-opacity:0.8;stroke:#1f77b4;stroke-opacity:0.8;" x="338.028349" xlink:href="#mf9b4f40708" y="89.456364"/>
     <use style="fill:#1f77b4;fill-opacity:0.8;stroke:#1f77b4;stroke-opacity:0.8;" x="138.94155" xlink:href="#mf9b4f40708" y="335.237849"/>
     <use style="fill:#1f77b4;fill-opacity:0.8;stroke:#1f77b4;stroke-opacity:0.8;" x="150.958029" xlink:href="#mf9b4f40708" y="255.941621"/>
     <use style="fill:#1f77b4;fill-opacity:0.8;stroke:#1f77b4;stroke-opacity:0.8;" x="172.931407" xlink:href="#mf9b4f40708" y="248.048818"/>
     <use style="fill:#1f77b4;fill-opacity:0.8;stroke:#1f77b4;stroke-opacity:0.8;" x="242.847296" xlink:href="#mf9b4f40708" y="240.665594"/>
     <use style="fill:#1f77b4;fill-opacity:0.8;stroke:#1f77b4;stroke-opacity:0.8;" x="190.107283" xlink:href="#mf9b4f40708" y="224.056732"/>
     <use style="fill:#1f77b4;fill-opacity:0.8;stroke:#1f77b4;stroke-opacity:0.8;" x="102.437978" xlink:href="#mf9b4f40708" y="294.434137"/>
     <use style="fill:#1f77b4;fill-opacity:0.8;stroke:#1f77b4;stroke-opacity:0.8;" x="193.933486" xlink:href="#mf9b4f40708" y="201.663499"/>
     <use style="fill:#1f77b4;fill-opacity:0.8;stroke:#1f77b4;stroke-opacity:0.8;" x="188.677728" xlink:href="#mf9b4f40708" y="255.941621"/>
     <use style="fill:#1f77b4;fill-opacity:0.8;stroke:#1f77b4;stroke-opacity:0.8;" x="84.104301" xlink:href="#mf9b4f40708" y="294.434137"/>
     <use style="fill:#1f77b4;fill-opacity:0.8;stroke:#1f77b4;stroke-opacity:0.8;" x="140.539946" xlink:href="#mf9b4f40708" y="327.345045"/>
     <use style="fill:#1f77b4;fill-opacity:0.8;stroke:#1f77b4;stroke-opacity:0.8;" x="67.996655" xlink:href="#mf9b4f40708" y="352.872729"/>
     <use style="fill:#1f77b4;fill-opacity:0.8;stroke:#1f77b4;stroke-opacity:0.8;" x="155.088583" xlink:href="#mf9b4f40708" y="283.530627"/>
     <use style="fill:#1f77b4;fill-opacity:0.8;stroke:#1f77b4;stroke-opacity:0.8;" x="159.038136" xlink:href="#mf9b4f40708" y="327.345045"/>
     <use style="fill:#1f77b4;fill-opacity:0.8;stroke:#1f77b4;stroke-opacity:0.8;" x="168.286619" xlink:href="#mf9b4f40708" y="230.413938"/>
     <use style="fill:#1f77b4;fill-opacity:0.8;stroke:#1f77b4;stroke-opacity:0.8;" x="175.462749" xlink:href="#mf9b4f40708" y="294.434137"/>
     <use style="fill:#1f77b4;fill-opacity:0.8;stroke:#1f77b4;stroke-opacity:0.8;" x="127.754921" xlink:href="#mf9b4f40708" y="319.961821"/>
     <use style="fill:#1f77b4;fill-opacity:0.8;stroke:#1f77b4;stroke-opacity:0.8;" x="179.172558" xlink:href="#mf9b4f40708" y="230.413938"/>
     <use style="fill:#1f77b4;fill-opacity:0.8;stroke:#1f77b4;stroke-opacity:0.8;" x="157.120775" xlink:href="#mf9b4f40708" y="189.610227"/>
     <use style="fill:#1f77b4;fill-opacity:0.8;stroke:#1f77b4;stroke-opacity:0.8;" x="289.097113" xlink:href="#mf9b4f40708" y="135.841683"/>
     <use style="fill:#1f77b4;fill-opacity:0.8;stroke:#1f77b4;stroke-opacity:0.8;" x="165.449846" xlink:href="#mf9b4f40708" y="215.13791"/>
     <use style="fill:#1f77b4;fill-opacity:0.8;stroke:#1f77b4;stroke-opacity:0.8;" x="176.646749" xlink:href="#mf9b4f40708" y="278.445333"/>
     <use style="fill:#1f77b4;fill-opacity:0.8;stroke:#1f77b4;stroke-opacity:0.8;" x="56.963742" xlink:href="#mf9b4f40708" y="352.872729"/>
     <use style="fill:#1f77b4;fill-opacity:0.8;stroke:#1f77b4;stroke-opacity:0.8;" x="126.440812" xlink:href="#mf9b4f40708" y="327.345045"/>
     <use style="fill:#1f77b4;fill-opacity:0.8;stroke:#1f77b4;stroke-opacity:0.8;" x="246.961242" xlink:href="#mf9b4f40708" y="189.610227"/>
     <use style="fill:#1f77b4;fill-opacity:0.8;stroke:#1f77b4;stroke-opacity:0.8;" x="260.684459" xlink:href="#mf9b4f40708" y="201.663499"/>
     <use style="fill:#1f77b4;fill-opacity:0.8;stroke:#1f77b4;stroke-opacity:0.8;" x="114.41947" xlink:href="#mf9b4f40708" y="268.906454"/>
     <use style="fill:#1f77b4;fill-opacity:0.8;stroke:#1f77b4;stroke-opacity:0.8;" x="142.733026" xlink:href="#mf9b4f40708" y="294.434137"/>
     <use style="fill:#1f77b4;fill-opacity:0.8;stroke:#1f77b4;stroke-opacity:0.8;" x="94.807739" xlink:href="#mf9b4f40708" y="352.872729"/>
     <use style="fill:#1f77b4;fill-opacity:0.8;stroke:#1f77b4;stroke-opacity:0.8;" x="157.340066" xlink:href="#mf9b4f40708" y="240.665594"/>
     <use style="fill:#1f77b4;fill-opacity:0.8;stroke:#1f77b4;stroke-opacity:0.8;" x="137.719757" xlink:href="#mf9b4f40708" y="313.026347"/>
     <use style="fill:#1f77b4;fill-opacity:0.8;stroke:#1f77b4;stroke-opacity:0.8;" x="81.017813" xlink:href="#mf9b4f40708" y="368.148756"/>
     <use style="fill:#1f77b4;fill-opacity:0.8;stroke:#1f77b4;stroke-opacity:0.8;" x="174.172837" xlink:href="#mf9b4f40708" y="215.13791"/>
     <use style="fill:#1f77b4;fill-opacity:0.8;stroke:#1f77b4;stroke-opacity:0.8;" x="142.595319" xlink:href="#mf9b4f40708" y="306.487409"/>
     <use style="fill:#1f77b4;fill-opacity:0.8;stroke:#1f77b4;stroke-opacity:0.8;" x="352.418929" xlink:href="#mf9b4f40708" y="89.456364"/>
     <use style="fill:#1f77b4;fill-opacity:0.8;stroke:#1f77b4;stroke-opacity:0.8;" x="189.3456" xlink:href="#mf9b4f40708" y="268.906454"/>
     <use style="fill:#1f77b4;fill-opacity:0.8;stroke:#1f77b4;stroke-opacity:0.8;" x="123.857834" xlink:href="#mf9b4f40708" y="280.959726"/>
     <use style="fill:#1f77b4;fill-opacity:0.8;stroke:#1f77b4;stroke-opacity:0.8;" x="146.341927" xlink:href="#mf9b4f40708" y="373.730365"/>
     <use style="fill:#1f77b4;fill-opacity:0.8;stroke:#1f77b4;stroke-opacity:0.8;" x="73.331019" xlink:href="#mf9b4f40708" y="385.783636"/>
     <use style="fill:#1f77b4;fill-opacity:0.8;stroke:#1f77b4;stroke-opacity:0.8;" x="155.023744" xlink:href="#mf9b4f40708" y="306.487409"/>
     <use style="fill:#1f77b4;fill-opacity:0.8;stroke:#1f77b4;stroke-opacity:0.8;" x="211.661291" xlink:href="#mf9b4f40708" y="168.752591"/>
     <use style="fill:#1f77b4;fill-opacity:0.8;stroke:#1f77b4;stroke-opacity:0.8;" x="115.518392" xlink:href="#mf9b4f40708" y="268.906454"/>
     <use style="fill:#1f77b4;fill-opacity:0.8;stroke:#1f77b4;stroke-opacity:0.8;" x="243.41732" xlink:href="#mf9b4f40708" y="215.13791"/>
     <use style="fill:#1f77b4;fill-opacity:0.8;stroke:#1f77b4;stroke-opacity:0.8;" x="119.241287" xlink:href="#mf9b4f40708" y="319.961821"/>
     <use style="fill:#1f77b4;fill-opacity:0.8;stroke:#1f77b4;stroke-opacity:0.8;" x="158.799187" xlink:href="#mf9b4f40708" y="268.906454"/>
     <use style="fill:#1f77b4;fill-opacity:0.8;stroke:#1f77b4;stroke-opacity:0.8;" x="237.516818" xlink:href="#mf9b4f40708" y="215.13791"/>
     <use style="fill:#1f77b4;fill-opacity:0.8;stroke:#1f77b4;stroke-opacity:0.8;" x="146.320309" xlink:href="#mf9b4f40708" y="268.906454"/>
     <use style="fill:#1f77b4;fill-opacity:0.8;stroke:#1f77b4;stroke-opacity:0.8;" x="213.023522" xlink:href="#mf9b4f40708" y="159.595683"/>
     <use style="fill:#1f77b4;fill-opacity:0.8;stroke:#1f77b4;stroke-opacity:0.8;" x="264.189443" xlink:href="#mf9b4f40708" y="168.752591"/>
     <use style="fill:#1f77b4;fill-opacity:0.8;stroke:#1f77b4;stroke-opacity:0.8;" x="248.4569" xlink:href="#mf9b4f40708" y="215.13791"/>
     <use style="fill:#1f77b4;fill-opacity:0.8;stroke:#1f77b4;stroke-opacity:0.8;" x="153.057454" xlink:href="#mf9b4f40708" y="294.434137"/>
     <use style="fill:#1f77b4;fill-opacity:0.8;stroke:#1f77b4;stroke-opacity:0.8;" x="133.695309" xlink:href="#mf9b4f40708" y="255.941621"/>
     <use style="fill:#1f77b4;fill-opacity:0.8;stroke:#1f77b4;stroke-opacity:0.8;" x="334.308244" xlink:href="#mf9b4f40708" y="99.410489"/>
     <use style="fill:#1f77b4;fill-opacity:0.8;stroke:#1f77b4;stroke-opacity:0.8;" x="88.513864" xlink:href="#mf9b4f40708" y="268.906454"/>
     <use style="fill:#1f77b4;fill-opacity:0.8;stroke:#1f77b4;stroke-opacity:0.8;" x="264.997958" xlink:href="#mf9b4f40708" y="215.13791"/>
     <use style="fill:#1f77b4;fill-opacity:0.8;stroke:#1f77b4;stroke-opacity:0.8;" x="171.397047" xlink:href="#mf9b4f40708" y="278.445333"/>
     <use style="fill:#1f77b4;fill-opacity:0.8;stroke:#1f77b4;stroke-opacity:0.8;" x="178.107778" xlink:href="#mf9b4f40708" y="283.530627"/>
     <use style="fill:#1f77b4;fill-opacity:0.8;stroke:#1f77b4;stroke-opacity:0.8;" x="267.908852" xlink:href="#mf9b4f40708" y="168.752591"/>
     <use style="fill:#1f77b4;fill-opacity:0.8;stroke:#1f77b4;stroke-opacity:0.8;" x="142.92498" xlink:href="#mf9b4f40708" y="306.487409"/>
     <use style="fill:#1f77b4;fill-opacity:0.8;stroke:#1f77b4;stroke-opacity:0.8;" x="246.281846" xlink:href="#mf9b4f40708" y="194.280274"/>
     <use style="fill:#1f77b4;fill-opacity:0.8;stroke:#1f77b4;stroke-opacity:0.8;" x="317.077192" xlink:href="#mf9b4f40708" y="147.894955"/>
     <use style="fill:#1f77b4;fill-opacity:0.8;stroke:#1f77b4;stroke-opacity:0.8;" x="259.819304" xlink:href="#mf9b4f40708" y="161.369366"/>
     <use style="fill:#1f77b4;fill-opacity:0.8;stroke:#1f77b4;stroke-opacity:0.8;" x="131.074824" xlink:href="#mf9b4f40708" y="288.852529"/>
     <use style="fill:#1f77b4;fill-opacity:0.8;stroke:#1f77b4;stroke-opacity:0.8;" x="221.116307" xlink:href="#mf9b4f40708" y="189.610227"/>
     <use style="fill:#1f77b4;fill-opacity:0.8;stroke:#1f77b4;stroke-opacity:0.8;" x="345.24174" xlink:href="#mf9b4f40708" y="89.456364"/>
     <use style="fill:#1f77b4;fill-opacity:0.8;stroke:#1f77b4;stroke-opacity:0.8;" x="178.796465" xlink:href="#mf9b4f40708" y="240.665594"/>
     <use style="fill:#1f77b4;fill-opacity:0.8;stroke:#1f77b4;stroke-opacity:0.8;" x="228.32038" xlink:href="#mf9b4f40708" y="230.413938"/>
     <use style="fill:#1f77b4;fill-opacity:0.8;stroke:#1f77b4;stroke-opacity:0.8;" x="143.083875" xlink:href="#mf9b4f40708" y="294.434137"/>
     <use style="fill:#1f77b4;fill-opacity:0.8;stroke:#1f77b4;stroke-opacity:0.8;" x="154.304801" xlink:href="#mf9b4f40708" y="306.487409"/>
     <use style="fill:#1f77b4;fill-opacity:0.8;stroke:#1f77b4;stroke-opacity:0.8;" x="161.924044" xlink:href="#mf9b4f40708" y="306.487409"/>
     <use style="fill:#1f77b4;fill-opacity:0.8;stroke:#1f77b4;stroke-opacity:0.8;" x="243.951924" xlink:href="#mf9b4f40708" y="255.941621"/>
     <use style="fill:#1f77b4;fill-opacity:0.8;stroke:#1f77b4;stroke-opacity:0.8;" x="153.379437" xlink:href="#mf9b4f40708" y="294.434137"/>
     <use style="fill:#1f77b4;fill-opacity:0.8;stroke:#1f77b4;stroke-opacity:0.8;" x="115.345554" xlink:href="#mf9b4f40708" y="313.026347"/>
     <use style="fill:#1f77b4;fill-opacity:0.8;stroke:#1f77b4;stroke-opacity:0.8;" x="186.120539" xlink:href="#mf9b4f40708" y="248.048818"/>
     <use style="fill:#1f77b4;fill-opacity:0.8;stroke:#1f77b4;stroke-opacity:0.8;" x="133.622411" xlink:href="#mf9b4f40708" y="294.434137"/>
     <use style="fill:#1f77b4;fill-opacity:0.8;stroke:#1f77b4;stroke-opacity:0.8;" x="267.174766" xlink:href="#mf9b4f40708" y="215.13791"/>
     <use style="fill:#1f77b4;fill-opacity:0.8;stroke:#1f77b4;stroke-opacity:0.8;" x="61.558232" xlink:href="#mf9b4f40708" y="327.345045"/>
     <use style="fill:#1f77b4;fill-opacity:0.8;stroke:#1f77b4;stroke-opacity:0.8;" x="106.853863" xlink:href="#mf9b4f40708" y="309.710165"/>
     <use style="fill:#1f77b4;fill-opacity:0.8;stroke:#1f77b4;stroke-opacity:0.8;" x="133.965529" xlink:href="#mf9b4f40708" y="189.610227"/>
     <use style="fill:#1f77b4;fill-opacity:0.8;stroke:#1f77b4;stroke-opacity:0.8;" x="237.603926" xlink:href="#mf9b4f40708" y="151.117711"/>
     <use style="fill:#1f77b4;fill-opacity:0.8;stroke:#1f77b4;stroke-opacity:0.8;" x="75.896366" xlink:href="#mf9b4f40708" y="352.872729"/>
     <use style="fill:#1f77b4;fill-opacity:0.8;stroke:#1f77b4;stroke-opacity:0.8;" x="80.26373" xlink:href="#mf9b4f40708" y="306.487409"/>
     <use style="fill:#1f77b4;fill-opacity:0.8;stroke:#1f77b4;stroke-opacity:0.8;" x="143.505085" xlink:href="#mf9b4f40708" y="189.610227"/>
     <use style="fill:#1f77b4;fill-opacity:0.8;stroke:#1f77b4;stroke-opacity:0.8;" x="124.382682" xlink:href="#mf9b4f40708" y="268.906454"/>
     <use style="fill:#1f77b4;fill-opacity:0.8;stroke:#1f77b4;stroke-opacity:0.8;" x="251.009431" xlink:href="#mf9b4f40708" y="201.663499"/>
     <use style="fill:#1f77b4;fill-opacity:0.8;stroke:#1f77b4;stroke-opacity:0.8;" x="240.636262" xlink:href="#mf9b4f40708" y="189.610227"/>
     <use style="fill:#1f77b4;fill-opacity:0.8;stroke:#1f77b4;stroke-opacity:0.8;" x="96.059311" xlink:href="#mf9b4f40708" y="294.434137"/>
     <use style="fill:#1f77b4;fill-opacity:0.8;stroke:#1f77b4;stroke-opacity:0.8;" x="133.621252" xlink:href="#mf9b4f40708" y="294.434137"/>
     <use style="fill:#1f77b4;fill-opacity:0.8;stroke:#1f77b4;stroke-opacity:0.8;" x="159.523658" xlink:href="#mf9b4f40708" y="248.048818"/>
     <use style="fill:#1f77b4;fill-opacity:0.8;stroke:#1f77b4;stroke-opacity:0.8;" x="135.933506" xlink:href="#mf9b4f40708" y="313.026347"/>
     <use style="fill:#1f77b4;fill-opacity:0.8;stroke:#1f77b4;stroke-opacity:0.8;" x="152.393614" xlink:href="#mf9b4f40708" y="327.345045"/>
     <use style="fill:#1f77b4;fill-opacity:0.8;stroke:#1f77b4;stroke-opacity:0.8;" x="244.949999" xlink:href="#mf9b4f40708" y="189.610227"/>
     <use style="fill:#1f77b4;fill-opacity:0.8;stroke:#1f77b4;stroke-opacity:0.8;" x="127.227596" xlink:href="#mf9b4f40708" y="327.345045"/>
     <use style="fill:#1f77b4;fill-opacity:0.8;stroke:#1f77b4;stroke-opacity:0.8;" x="93.109163" xlink:href="#mf9b4f40708" y="343.715821"/>
     <use style="fill:#1f77b4;fill-opacity:0.8;stroke:#1f77b4;stroke-opacity:0.8;" x="125.16004" xlink:href="#mf9b4f40708" y="268.906454"/>
     <use style="fill:#1f77b4;fill-opacity:0.8;stroke:#1f77b4;stroke-opacity:0.8;" x="175.078851" xlink:href="#mf9b4f40708" y="215.13791"/>
    </g>
   </g>
   <g id="PolyCollection_1">
    <path clip-path="url(#p2ad0b138a4)" d="M 43.78125 357.35352 
L 43.78125 377.363598 
L 46.898802 374.491816 
L 50.016355 371.620033 
L 53.133907 368.840692 
L 56.251459 366.055655 
L 59.369012 363.189447 
L 62.486564 360.322902 
L 65.604116 357.487472 
L 68.721668 354.741146 
L 71.839221 351.940039 
L 74.956773 349.07923 
L 78.074325 346.236618 
L 81.191878 343.42489 
L 84.30943 340.590656 
L 87.426982 337.705535 
L 90.544535 334.880986 
L 93.662087 332.06541 
L 96.779639 329.296567 
L 99.897192 326.552808 
L 103.014744 323.74102 
L 106.132296 320.906971 
L 109.249848 318.033722 
L 112.367401 315.299002 
L 115.484953 312.524396 
L 118.602505 309.769699 
L 121.720058 307.038703 
L 124.83761 304.323911 
L 127.955162 301.609119 
L 131.072715 298.889091 
L 134.190267 296.062104 
L 137.307819 293.25833 
L 140.425372 290.493945 
L 143.542924 287.784152 
L 146.660476 285.022029 
L 149.778028 282.306061 
L 152.895581 279.655532 
L 156.013133 276.983721 
L 159.130685 274.287785 
L 162.248238 271.613997 
L 165.36579 268.946202 
L 168.483342 266.256222 
L 171.600895 263.605094 
L 174.718447 260.889835 
L 177.835999 258.324176 
L 180.953552 255.788341 
L 184.071104 253.17392 
L 187.188656 250.556537 
L 190.306209 247.942212 
L 193.423761 245.452647 
L 196.541313 242.92493 
L 199.658865 240.422663 
L 202.776418 237.814662 
L 205.89397 235.249178 
L 209.011522 232.739849 
L 212.129075 230.163888 
L 215.246627 227.592423 
L 218.364179 225.104287 
L 221.481732 222.634512 
L 224.599284 220.139226 
L 227.716836 217.630276 
L 230.834389 215.152416 
L 233.951941 212.659529 
L 237.069493 210.149738 
L 240.187045 207.674378 
L 243.304598 205.171531 
L 246.42215 202.621699 
L 249.539702 200.176164 
L 252.657255 197.626424 
L 255.774807 195.102772 
L 258.892359 192.695804 
L 262.009912 190.277886 
L 265.127464 187.792104 
L 268.245016 185.303111 
L 271.362569 182.816252 
L 274.480121 180.329942 
L 277.597673 177.843173 
L 280.715225 175.421507 
L 283.832778 172.980921 
L 286.95033 170.526624 
L 290.067882 168.06897 
L 293.185435 165.548606 
L 296.302987 163.028242 
L 299.420539 160.507878 
L 302.538092 157.987514 
L 305.655644 155.574755 
L 308.773196 153.147628 
L 311.890749 150.753497 
L 315.008301 148.354107 
L 318.125853 145.925206 
L 321.243405 143.519398 
L 324.360958 141.11359 
L 327.47851 138.694569 
L 330.596062 136.214342 
L 333.713615 133.732912 
L 336.831167 131.25098 
L 339.948719 128.76821 
L 343.066272 126.254769 
L 346.183824 123.804887 
L 349.301376 121.325764 
L 352.418929 118.858892 
L 352.418929 92.115427 
L 352.418929 92.115427 
L 349.301376 94.913536 
L 346.183824 97.711644 
L 343.066272 100.541492 
L 339.948719 103.381003 
L 336.831167 106.220513 
L 333.713615 109.060023 
L 330.596062 111.899534 
L 327.47851 114.654352 
L 324.360958 117.416553 
L 321.243405 120.27913 
L 318.125853 123.151469 
L 315.008301 126.039567 
L 311.890749 128.927665 
L 308.773196 131.759659 
L 305.655644 134.590568 
L 302.538092 137.447709 
L 299.420539 140.201515 
L 296.302987 142.957933 
L 293.185435 145.764768 
L 290.067882 148.629112 
L 286.95033 151.494222 
L 283.832778 154.294067 
L 280.715225 157.054462 
L 277.597673 159.888423 
L 274.480121 162.747001 
L 271.362569 165.523122 
L 268.245016 168.419051 
L 265.127464 171.322619 
L 262.009912 174.129886 
L 258.892359 176.928382 
L 255.774807 179.672064 
L 252.657255 182.441615 
L 249.539702 185.214328 
L 246.42215 188.007456 
L 243.304598 190.772818 
L 240.187045 193.52455 
L 237.069493 196.254996 
L 233.951941 198.985442 
L 230.834389 201.761598 
L 227.716836 204.575861 
L 224.599284 207.371504 
L 221.481732 210.115133 
L 218.364179 212.875398 
L 215.246627 215.658256 
L 212.129075 218.417353 
L 209.011522 221.143883 
L 205.89397 223.872782 
L 202.776418 226.667498 
L 199.658865 229.477966 
L 196.541313 232.169438 
L 193.423761 234.967299 
L 190.306209 237.750312 
L 187.188656 240.411443 
L 184.071104 243.156691 
L 180.953552 245.936088 
L 177.835999 248.543456 
L 174.718447 251.187617 
L 171.600895 253.834096 
L 168.483342 256.410754 
L 165.36579 259.078532 
L 162.248238 261.769403 
L 159.130685 264.406874 
L 156.013133 267.005202 
L 152.895581 269.628582 
L 149.778028 272.295743 
L 146.660476 274.895292 
L 143.542924 277.498223 
L 140.425372 280.140821 
L 137.307819 282.599041 
L 134.190267 285.052925 
L 131.072715 287.574628 
L 127.955162 290.06948 
L 124.83761 292.621863 
L 121.720058 295.145217 
L 118.602505 297.671799 
L 115.484953 300.190922 
L 112.367401 302.725796 
L 109.249848 305.244775 
L 106.132296 307.759425 
L 103.014744 310.282065 
L 99.897192 312.805873 
L 96.779639 315.314303 
L 93.662087 317.799823 
L 90.544535 320.365173 
L 87.426982 322.89694 
L 84.30943 325.387677 
L 81.191878 327.852057 
L 78.074325 330.319103 
L 74.956773 332.786218 
L 71.839221 335.270215 
L 68.721668 337.758971 
L 65.604116 340.204246 
L 62.486564 342.649111 
L 59.369012 345.112994 
L 56.251459 347.538756 
L 53.133907 349.982472 
L 50.016355 352.438816 
L 46.898802 354.896168 
L 43.78125 357.35352 
z
" style="fill:#1f77b4;fill-opacity:0.15;"/>
   </g>
   <g id="matplotlib.axis_1">
    <g id="xtick_1">
     <g id="line2d_1">
      <defs>
       <path d="M 0 0 
L 0 3.5 
" id="m47601945ab" style="stroke:#000000;stroke-width:0.8;"/>
      </defs>
      <g>
       <use style="stroke:#000000;stroke-width:0.8;" x="62.723594" xlink:href="#m47601945ab" y="400.6"/>
      </g>
     </g>
     <g id="text_1">
      <!-- 2.5 -->
      <g transform="translate(54.772031 415.198437)scale(0.1 -0.1)">
       <defs>
        <path d="M 19.1875 8.296875 
L 53.609375 8.296875 
L 53.609375 0 
L 7.328125 0 
L 7.328125 8.296875 
Q 12.9375 14.109375 22.625 23.890625 
Q 32.328125 33.6875 34.8125 36.53125 
Q 39.546875 41.84375 41.421875 45.53125 
Q 43.3125 49.21875 43.3125 52.78125 
Q 43.3125 58.59375 39.234375 62.25 
Q 35.15625 65.921875 28.609375 65.921875 
Q 23.96875 65.921875 18.8125 64.3125 
Q 13.671875 62.703125 7.8125 59.421875 
L 7.8125 69.390625 
Q 13.765625 71.78125 18.9375 73 
Q 24.125 74.21875 28.421875 74.21875 
Q 39.75 74.21875 46.484375 68.546875 
Q 53.21875 62.890625 53.21875 53.421875 
Q 53.21875 48.921875 51.53125 44.890625 
Q 49.859375 40.875 45.40625 35.40625 
Q 44.1875 33.984375 37.640625 27.21875 
Q 31.109375 20.453125 19.1875 8.296875 
z
" id="DejaVuSans-50"/>
        <path d="M 10.6875 12.40625 
L 21 12.40625 
L 21 0 
L 10.6875 0 
z
" id="DejaVuSans-46"/>
        <path d="M 10.796875 72.90625 
L 49.515625 72.90625 
L 49.515625 64.59375 
L 19.828125 64.59375 
L 19.828125 46.734375 
Q 21.96875 47.46875 24.109375 47.828125 
Q 26.265625 48.1875 28.421875 48.1875 
Q 40.625 48.1875 47.75 41.5 
Q 54.890625 34.8125 54.890625 23.390625 
Q 54.890625 11.625 47.5625 5.09375 
Q 40.234375 -1.421875 26.90625 -1.421875 
Q 22.3125 -1.421875 17.546875 -0.640625 
Q 12.796875 0.140625 7.71875 1.703125 
L 7.71875 11.625 
Q 12.109375 9.234375 16.796875 8.0625 
Q 21.484375 6.890625 26.703125 6.890625 
Q 35.15625 6.890625 40.078125 11.328125 
Q 45.015625 15.765625 45.015625 23.390625 
Q 45.015625 31 40.078125 35.4375 
Q 35.15625 39.890625 26.703125 39.890625 
Q 22.75 39.890625 18.8125 39.015625 
Q 14.890625 38.140625 10.796875 36.28125 
z
" id="DejaVuSans-53"/>
       </defs>
       <use xlink:href="#DejaVuSans-50"/>
       <use x="63.623047" xlink:href="#DejaVuSans-46"/>
       <use x="95.410156" xlink:href="#DejaVuSans-53"/>
      </g>
     </g>
    </g>
    <g id="xtick_2">
     <g id="line2d_2">
      <g>
       <use style="stroke:#000000;stroke-width:0.8;" x="130.301584" xlink:href="#m47601945ab" y="400.6"/>
      </g>
     </g>
     <g id="text_2">
      <!-- 3.0 -->
      <g transform="translate(122.350022 415.198437)scale(0.1 -0.1)">
       <defs>
        <path d="M 40.578125 39.3125 
Q 47.65625 37.796875 51.625 33 
Q 55.609375 28.21875 55.609375 21.1875 
Q 55.609375 10.40625 48.1875 4.484375 
Q 40.765625 -1.421875 27.09375 -1.421875 
Q 22.515625 -1.421875 17.65625 -0.515625 
Q 12.796875 0.390625 7.625 2.203125 
L 7.625 11.71875 
Q 11.71875 9.328125 16.59375 8.109375 
Q 21.484375 6.890625 26.8125 6.890625 
Q 36.078125 6.890625 40.9375 10.546875 
Q 45.796875 14.203125 45.796875 21.1875 
Q 45.796875 27.640625 41.28125 31.265625 
Q 36.765625 34.90625 28.71875 34.90625 
L 20.21875 34.90625 
L 20.21875 43.015625 
L 29.109375 43.015625 
Q 36.375 43.015625 40.234375 45.921875 
Q 44.09375 48.828125 44.09375 54.296875 
Q 44.09375 59.90625 40.109375 62.90625 
Q 36.140625 65.921875 28.71875 65.921875 
Q 24.65625 65.921875 20.015625 65.03125 
Q 15.375 64.15625 9.8125 62.3125 
L 9.8125 71.09375 
Q 15.4375 72.65625 20.34375 73.4375 
Q 25.25 74.21875 29.59375 74.21875 
Q 40.828125 74.21875 47.359375 69.109375 
Q 53.90625 64.015625 53.90625 55.328125 
Q 53.90625 49.265625 50.4375 45.09375 
Q 46.96875 40.921875 40.578125 39.3125 
z
" id="DejaVuSans-51"/>
        <path d="M 31.78125 66.40625 
Q 24.171875 66.40625 20.328125 58.90625 
Q 16.5 51.421875 16.5 36.375 
Q 16.5 21.390625 20.328125 13.890625 
Q 24.171875 6.390625 31.78125 6.390625 
Q 39.453125 6.390625 43.28125 13.890625 
Q 47.125 21.390625 47.125 36.375 
Q 47.125 51.421875 43.28125 58.90625 
Q 39.453125 66.40625 31.78125 66.40625 
z
M 31.78125 74.21875 
Q 44.046875 74.21875 50.515625 64.515625 
Q 56.984375 54.828125 56.984375 36.375 
Q 56.984375 17.96875 50.515625 8.265625 
Q 44.046875 -1.421875 31.78125 -1.421875 
Q 19.53125 -1.421875 13.0625 8.265625 
Q 6.59375 17.96875 6.59375 36.375 
Q 6.59375 54.828125 13.0625 64.515625 
Q 19.53125 74.21875 31.78125 74.21875 
z
" id="DejaVuSans-48"/>
       </defs>
       <use xlink:href="#DejaVuSans-51"/>
       <use x="63.623047" xlink:href="#DejaVuSans-46"/>
       <use x="95.410156" xlink:href="#DejaVuSans-48"/>
      </g>
     </g>
    </g>
    <g id="xtick_3">
     <g id="line2d_3">
      <g>
       <use style="stroke:#000000;stroke-width:0.8;" x="197.879575" xlink:href="#m47601945ab" y="400.6"/>
      </g>
     </g>
     <g id="text_3">
      <!-- 3.5 -->
      <g transform="translate(189.928012 415.198437)scale(0.1 -0.1)">
       <use xlink:href="#DejaVuSans-51"/>
       <use x="63.623047" xlink:href="#DejaVuSans-46"/>
       <use x="95.410156" xlink:href="#DejaVuSans-53"/>
      </g>
     </g>
    </g>
    <g id="xtick_4">
     <g id="line2d_4">
      <g>
       <use style="stroke:#000000;stroke-width:0.8;" x="265.457565" xlink:href="#m47601945ab" y="400.6"/>
      </g>
     </g>
     <g id="text_4">
      <!-- 4.0 -->
      <g transform="translate(257.506003 415.198437)scale(0.1 -0.1)">
       <defs>
        <path d="M 37.796875 64.3125 
L 12.890625 25.390625 
L 37.796875 25.390625 
z
M 35.203125 72.90625 
L 47.609375 72.90625 
L 47.609375 25.390625 
L 58.015625 25.390625 
L 58.015625 17.1875 
L 47.609375 17.1875 
L 47.609375 0 
L 37.796875 0 
L 37.796875 17.1875 
L 4.890625 17.1875 
L 4.890625 26.703125 
z
" id="DejaVuSans-52"/>
       </defs>
       <use xlink:href="#DejaVuSans-52"/>
       <use x="63.623047" xlink:href="#DejaVuSans-46"/>
       <use x="95.410156" xlink:href="#DejaVuSans-48"/>
      </g>
     </g>
    </g>
    <g id="xtick_5">
     <g id="line2d_5">
      <g>
       <use style="stroke:#000000;stroke-width:0.8;" x="333.035555" xlink:href="#m47601945ab" y="400.6"/>
      </g>
     </g>
     <g id="text_5">
      <!-- 4.5 -->
      <g transform="translate(325.083993 415.198437)scale(0.1 -0.1)">
       <use xlink:href="#DejaVuSans-52"/>
       <use x="63.623047" xlink:href="#DejaVuSans-46"/>
       <use x="95.410156" xlink:href="#DejaVuSans-53"/>
      </g>
     </g>
    </g>
    <g id="text_6">
     <!-- Predicted Values -->
     <g transform="translate(156.704777 428.876562)scale(0.1 -0.1)">
      <defs>
       <path d="M 19.671875 64.796875 
L 19.671875 37.40625 
L 32.078125 37.40625 
Q 38.96875 37.40625 42.71875 40.96875 
Q 46.484375 44.53125 46.484375 51.125 
Q 46.484375 57.671875 42.71875 61.234375 
Q 38.96875 64.796875 32.078125 64.796875 
z
M 9.8125 72.90625 
L 32.078125 72.90625 
Q 44.34375 72.90625 50.609375 67.359375 
Q 56.890625 61.8125 56.890625 51.125 
Q 56.890625 40.328125 50.609375 34.8125 
Q 44.34375 29.296875 32.078125 29.296875 
L 19.671875 29.296875 
L 19.671875 0 
L 9.8125 0 
z
" id="DejaVuSans-80"/>
       <path d="M 41.109375 46.296875 
Q 39.59375 47.171875 37.8125 47.578125 
Q 36.03125 48 33.890625 48 
Q 26.265625 48 22.1875 43.046875 
Q 18.109375 38.09375 18.109375 28.8125 
L 18.109375 0 
L 9.078125 0 
L 9.078125 54.6875 
L 18.109375 54.6875 
L 18.109375 46.1875 
Q 20.953125 51.171875 25.484375 53.578125 
Q 30.03125 56 36.53125 56 
Q 37.453125 56 38.578125 55.875 
Q 39.703125 55.765625 41.0625 55.515625 
z
" id="DejaVuSans-114"/>
       <path d="M 56.203125 29.59375 
L 56.203125 25.203125 
L 14.890625 25.203125 
Q 15.484375 15.921875 20.484375 11.0625 
Q 25.484375 6.203125 34.421875 6.203125 
Q 39.59375 6.203125 44.453125 7.46875 
Q 49.3125 8.734375 54.109375 11.28125 
L 54.109375 2.78125 
Q 49.265625 0.734375 44.1875 -0.34375 
Q 39.109375 -1.421875 33.890625 -1.421875 
Q 20.796875 -1.421875 13.15625 6.1875 
Q 5.515625 13.8125 5.515625 26.8125 
Q 5.515625 40.234375 12.765625 48.109375 
Q 20.015625 56 32.328125 56 
Q 43.359375 56 49.78125 48.890625 
Q 56.203125 41.796875 56.203125 29.59375 
z
M 47.21875 32.234375 
Q 47.125 39.59375 43.09375 43.984375 
Q 39.0625 48.390625 32.421875 48.390625 
Q 24.90625 48.390625 20.390625 44.140625 
Q 15.875 39.890625 15.1875 32.171875 
z
" id="DejaVuSans-101"/>
       <path d="M 45.40625 46.390625 
L 45.40625 75.984375 
L 54.390625 75.984375 
L 54.390625 0 
L 45.40625 0 
L 45.40625 8.203125 
Q 42.578125 3.328125 38.25 0.953125 
Q 33.9375 -1.421875 27.875 -1.421875 
Q 17.96875 -1.421875 11.734375 6.484375 
Q 5.515625 14.40625 5.515625 27.296875 
Q 5.515625 40.1875 11.734375 48.09375 
Q 17.96875 56 27.875 56 
Q 33.9375 56 38.25 53.625 
Q 42.578125 51.265625 45.40625 46.390625 
z
M 14.796875 27.296875 
Q 14.796875 17.390625 18.875 11.75 
Q 22.953125 6.109375 30.078125 6.109375 
Q 37.203125 6.109375 41.296875 11.75 
Q 45.40625 17.390625 45.40625 27.296875 
Q 45.40625 37.203125 41.296875 42.84375 
Q 37.203125 48.484375 30.078125 48.484375 
Q 22.953125 48.484375 18.875 42.84375 
Q 14.796875 37.203125 14.796875 27.296875 
z
" id="DejaVuSans-100"/>
       <path d="M 9.421875 54.6875 
L 18.40625 54.6875 
L 18.40625 0 
L 9.421875 0 
z
M 9.421875 75.984375 
L 18.40625 75.984375 
L 18.40625 64.59375 
L 9.421875 64.59375 
z
" id="DejaVuSans-105"/>
       <path d="M 48.78125 52.59375 
L 48.78125 44.1875 
Q 44.96875 46.296875 41.140625 47.34375 
Q 37.3125 48.390625 33.40625 48.390625 
Q 24.65625 48.390625 19.8125 42.84375 
Q 14.984375 37.3125 14.984375 27.296875 
Q 14.984375 17.28125 19.8125 11.734375 
Q 24.65625 6.203125 33.40625 6.203125 
Q 37.3125 6.203125 41.140625 7.25 
Q 44.96875 8.296875 48.78125 10.40625 
L 48.78125 2.09375 
Q 45.015625 0.34375 40.984375 -0.53125 
Q 36.96875 -1.421875 32.421875 -1.421875 
Q 20.0625 -1.421875 12.78125 6.34375 
Q 5.515625 14.109375 5.515625 27.296875 
Q 5.515625 40.671875 12.859375 48.328125 
Q 20.21875 56 33.015625 56 
Q 37.15625 56 41.109375 55.140625 
Q 45.0625 54.296875 48.78125 52.59375 
z
" id="DejaVuSans-99"/>
       <path d="M 18.3125 70.21875 
L 18.3125 54.6875 
L 36.8125 54.6875 
L 36.8125 47.703125 
L 18.3125 47.703125 
L 18.3125 18.015625 
Q 18.3125 11.328125 20.140625 9.421875 
Q 21.96875 7.515625 27.59375 7.515625 
L 36.8125 7.515625 
L 36.8125 0 
L 27.59375 0 
Q 17.1875 0 13.234375 3.875 
Q 9.28125 7.765625 9.28125 18.015625 
L 9.28125 47.703125 
L 2.6875 47.703125 
L 2.6875 54.6875 
L 9.28125 54.6875 
L 9.28125 70.21875 
z
" id="DejaVuSans-116"/>
       <path id="DejaVuSans-32"/>
       <path d="M 28.609375 0 
L 0.78125 72.90625 
L 11.078125 72.90625 
L 34.1875 11.53125 
L 57.328125 72.90625 
L 67.578125 72.90625 
L 39.796875 0 
z
" id="DejaVuSans-86"/>
       <path d="M 34.28125 27.484375 
Q 23.390625 27.484375 19.1875 25 
Q 14.984375 22.515625 14.984375 16.5 
Q 14.984375 11.71875 18.140625 8.90625 
Q 21.296875 6.109375 26.703125 6.109375 
Q 34.1875 6.109375 38.703125 11.40625 
Q 43.21875 16.703125 43.21875 25.484375 
L 43.21875 27.484375 
z
M 52.203125 31.203125 
L 52.203125 0 
L 43.21875 0 
L 43.21875 8.296875 
Q 40.140625 3.328125 35.546875 0.953125 
Q 30.953125 -1.421875 24.3125 -1.421875 
Q 15.921875 -1.421875 10.953125 3.296875 
Q 6 8.015625 6 15.921875 
Q 6 25.140625 12.171875 29.828125 
Q 18.359375 34.515625 30.609375 34.515625 
L 43.21875 34.515625 
L 43.21875 35.40625 
Q 43.21875 41.609375 39.140625 45 
Q 35.0625 48.390625 27.6875 48.390625 
Q 23 48.390625 18.546875 47.265625 
Q 14.109375 46.140625 10.015625 43.890625 
L 10.015625 52.203125 
Q 14.9375 54.109375 19.578125 55.046875 
Q 24.21875 56 28.609375 56 
Q 40.484375 56 46.34375 49.84375 
Q 52.203125 43.703125 52.203125 31.203125 
z
" id="DejaVuSans-97"/>
       <path d="M 9.421875 75.984375 
L 18.40625 75.984375 
L 18.40625 0 
L 9.421875 0 
z
" id="DejaVuSans-108"/>
       <path d="M 8.5 21.578125 
L 8.5 54.6875 
L 17.484375 54.6875 
L 17.484375 21.921875 
Q 17.484375 14.15625 20.5 10.265625 
Q 23.53125 6.390625 29.59375 6.390625 
Q 36.859375 6.390625 41.078125 11.03125 
Q 45.3125 15.671875 45.3125 23.6875 
L 45.3125 54.6875 
L 54.296875 54.6875 
L 54.296875 0 
L 45.3125 0 
L 45.3125 8.40625 
Q 42.046875 3.421875 37.71875 1 
Q 33.40625 -1.421875 27.6875 -1.421875 
Q 18.265625 -1.421875 13.375 4.4375 
Q 8.5 10.296875 8.5 21.578125 
z
M 31.109375 56 
z
" id="DejaVuSans-117"/>
       <path d="M 44.28125 53.078125 
L 44.28125 44.578125 
Q 40.484375 46.53125 36.375 47.5 
Q 32.28125 48.484375 27.875 48.484375 
Q 21.1875 48.484375 17.84375 46.4375 
Q 14.5 44.390625 14.5 40.28125 
Q 14.5 37.15625 16.890625 35.375 
Q 19.28125 33.59375 26.515625 31.984375 
L 29.59375 31.296875 
Q 39.15625 29.25 43.1875 25.515625 
Q 47.21875 21.78125 47.21875 15.09375 
Q 47.21875 7.46875 41.1875 3.015625 
Q 35.15625 -1.421875 24.609375 -1.421875 
Q 20.21875 -1.421875 15.453125 -0.5625 
Q 10.6875 0.296875 5.421875 2 
L 5.421875 11.28125 
Q 10.40625 8.6875 15.234375 7.390625 
Q 20.0625 6.109375 24.8125 6.109375 
Q 31.15625 6.109375 34.5625 8.28125 
Q 37.984375 10.453125 37.984375 14.40625 
Q 37.984375 18.0625 35.515625 20.015625 
Q 33.0625 21.96875 24.703125 23.78125 
L 21.578125 24.515625 
Q 13.234375 26.265625 9.515625 29.90625 
Q 5.8125 33.546875 5.8125 39.890625 
Q 5.8125 47.609375 11.28125 51.796875 
Q 16.75 56 26.8125 56 
Q 31.78125 56 36.171875 55.265625 
Q 40.578125 54.546875 44.28125 53.078125 
z
" id="DejaVuSans-115"/>
      </defs>
      <use xlink:href="#DejaVuSans-80"/>
      <use x="58.552734" xlink:href="#DejaVuSans-114"/>
      <use x="97.416016" xlink:href="#DejaVuSans-101"/>
      <use x="158.939453" xlink:href="#DejaVuSans-100"/>
      <use x="222.416016" xlink:href="#DejaVuSans-105"/>
      <use x="250.199219" xlink:href="#DejaVuSans-99"/>
      <use x="305.179688" xlink:href="#DejaVuSans-116"/>
      <use x="344.388672" xlink:href="#DejaVuSans-101"/>
      <use x="405.912109" xlink:href="#DejaVuSans-100"/>
      <use x="469.388672" xlink:href="#DejaVuSans-32"/>
      <use x="501.175781" xlink:href="#DejaVuSans-86"/>
      <use x="561.833984" xlink:href="#DejaVuSans-97"/>
      <use x="623.113281" xlink:href="#DejaVuSans-108"/>
      <use x="650.896484" xlink:href="#DejaVuSans-117"/>
      <use x="714.275391" xlink:href="#DejaVuSans-101"/>
      <use x="775.798828" xlink:href="#DejaVuSans-115"/>
     </g>
    </g>
   </g>
   <g id="matplotlib.axis_2">
    <g id="ytick_1">
     <g id="line2d_6">
      <defs>
       <path d="M 0 0 
L -3.5 0 
" id="md0041bd616" style="stroke:#000000;stroke-width:0.8;"/>
      </defs>
      <g>
       <use style="stroke:#000000;stroke-width:0.8;" x="43.78125" xlink:href="#md0041bd616" y="351.146045"/>
      </g>
     </g>
     <g id="text_7">
      <!-- 2.5 -->
      <g transform="translate(20.878125 354.945264)scale(0.1 -0.1)">
       <use xlink:href="#DejaVuSans-50"/>
       <use x="63.623047" xlink:href="#DejaVuSans-46"/>
       <use x="95.410156" xlink:href="#DejaVuSans-53"/>
      </g>
     </g>
    </g>
    <g id="ytick_2">
     <g id="line2d_7">
      <g>
       <use style="stroke:#000000;stroke-width:0.8;" x="43.78125" xlink:href="#md0041bd616" y="293.945908"/>
      </g>
     </g>
     <g id="text_8">
      <!-- 3.0 -->
      <g transform="translate(20.878125 297.745127)scale(0.1 -0.1)">
       <use xlink:href="#DejaVuSans-51"/>
       <use x="63.623047" xlink:href="#DejaVuSans-46"/>
       <use x="95.410156" xlink:href="#DejaVuSans-48"/>
      </g>
     </g>
    </g>
    <g id="ytick_3">
     <g id="line2d_8">
      <g>
       <use style="stroke:#000000;stroke-width:0.8;" x="43.78125" xlink:href="#md0041bd616" y="236.745771"/>
      </g>
     </g>
     <g id="text_9">
      <!-- 3.5 -->
      <g transform="translate(20.878125 240.54499)scale(0.1 -0.1)">
       <use xlink:href="#DejaVuSans-51"/>
       <use x="63.623047" xlink:href="#DejaVuSans-46"/>
       <use x="95.410156" xlink:href="#DejaVuSans-53"/>
      </g>
     </g>
    </g>
    <g id="ytick_4">
     <g id="line2d_9">
      <g>
       <use style="stroke:#000000;stroke-width:0.8;" x="43.78125" xlink:href="#md0041bd616" y="179.545635"/>
      </g>
     </g>
     <g id="text_10">
      <!-- 4.0 -->
      <g transform="translate(20.878125 183.344853)scale(0.1 -0.1)">
       <use xlink:href="#DejaVuSans-52"/>
       <use x="63.623047" xlink:href="#DejaVuSans-46"/>
       <use x="95.410156" xlink:href="#DejaVuSans-48"/>
      </g>
     </g>
    </g>
    <g id="ytick_5">
     <g id="line2d_10">
      <g>
       <use style="stroke:#000000;stroke-width:0.8;" x="43.78125" xlink:href="#md0041bd616" y="122.345498"/>
      </g>
     </g>
     <g id="text_11">
      <!-- 4.5 -->
      <g transform="translate(20.878125 126.144716)scale(0.1 -0.1)">
       <use xlink:href="#DejaVuSans-52"/>
       <use x="63.623047" xlink:href="#DejaVuSans-46"/>
       <use x="95.410156" xlink:href="#DejaVuSans-53"/>
      </g>
     </g>
    </g>
    <g id="text_12">
     <!-- Real Values -->
     <g transform="translate(14.798438 266.323906)rotate(-90)scale(0.1 -0.1)">
      <defs>
       <path d="M 44.390625 34.1875 
Q 47.5625 33.109375 50.5625 29.59375 
Q 53.5625 26.078125 56.59375 19.921875 
L 66.609375 0 
L 56 0 
L 46.6875 18.703125 
Q 43.0625 26.03125 39.671875 28.421875 
Q 36.28125 30.8125 30.421875 30.8125 
L 19.671875 30.8125 
L 19.671875 0 
L 9.8125 0 
L 9.8125 72.90625 
L 32.078125 72.90625 
Q 44.578125 72.90625 50.734375 67.671875 
Q 56.890625 62.453125 56.890625 51.90625 
Q 56.890625 45.015625 53.6875 40.46875 
Q 50.484375 35.9375 44.390625 34.1875 
z
M 19.671875 64.796875 
L 19.671875 38.921875 
L 32.078125 38.921875 
Q 39.203125 38.921875 42.84375 42.21875 
Q 46.484375 45.515625 46.484375 51.90625 
Q 46.484375 58.296875 42.84375 61.546875 
Q 39.203125 64.796875 32.078125 64.796875 
z
" id="DejaVuSans-82"/>
      </defs>
      <use xlink:href="#DejaVuSans-82"/>
      <use x="64.982422" xlink:href="#DejaVuSans-101"/>
      <use x="126.505859" xlink:href="#DejaVuSans-97"/>
      <use x="187.785156" xlink:href="#DejaVuSans-108"/>
      <use x="215.568359" xlink:href="#DejaVuSans-32"/>
      <use x="247.355469" xlink:href="#DejaVuSans-86"/>
      <use x="308.013672" xlink:href="#DejaVuSans-97"/>
      <use x="369.292969" xlink:href="#DejaVuSans-108"/>
      <use x="397.076172" xlink:href="#DejaVuSans-117"/>
      <use x="460.455078" xlink:href="#DejaVuSans-101"/>
      <use x="521.978516" xlink:href="#DejaVuSans-115"/>
     </g>
    </g>
   </g>
   <g id="line2d_11">
    <path clip-path="url(#p2ad0b138a4)" d="M 43.78125 367.726099 
L 46.898802 365.068262 
L 50.016355 362.410424 
L 53.133907 359.752587 
L 56.251459 357.09475 
L 59.369012 354.436913 
L 62.486564 351.779075 
L 65.604116 349.121238 
L 68.721668 346.463401 
L 71.839221 343.805564 
L 74.956773 341.147727 
L 78.074325 338.489889 
L 81.191878 335.832052 
L 84.30943 333.174215 
L 87.426982 330.516378 
L 90.544535 327.85854 
L 93.662087 325.200703 
L 96.779639 322.542866 
L 99.897192 319.885029 
L 103.014744 317.227192 
L 106.132296 314.569354 
L 109.249848 311.911517 
L 112.367401 309.25368 
L 115.484953 306.595843 
L 118.602505 303.938006 
L 121.720058 301.280168 
L 124.83761 298.622331 
L 127.955162 295.964494 
L 131.072715 293.306657 
L 134.190267 290.648819 
L 137.307819 287.990982 
L 140.425372 285.333145 
L 143.542924 282.675308 
L 146.660476 280.017471 
L 149.778028 277.359633 
L 152.895581 274.701796 
L 156.013133 272.043959 
L 159.130685 269.386122 
L 162.248238 266.728284 
L 165.36579 264.070447 
L 168.483342 261.41261 
L 171.600895 258.754773 
L 174.718447 256.096936 
L 177.835999 253.439098 
L 180.953552 250.781261 
L 184.071104 248.123424 
L 187.188656 245.465587 
L 190.306209 242.807749 
L 193.423761 240.149912 
L 196.541313 237.492075 
L 199.658865 234.834238 
L 202.776418 232.176401 
L 205.89397 229.518563 
L 209.011522 226.860726 
L 212.129075 224.202889 
L 215.246627 221.545052 
L 218.364179 218.887215 
L 221.481732 216.229377 
L 224.599284 213.57154 
L 227.716836 210.913703 
L 230.834389 208.255866 
L 233.951941 205.598028 
L 237.069493 202.940191 
L 240.187045 200.282354 
L 243.304598 197.624517 
L 246.42215 194.96668 
L 249.539702 192.308842 
L 252.657255 189.651005 
L 255.774807 186.993168 
L 258.892359 184.335331 
L 262.009912 181.677493 
L 265.127464 179.019656 
L 268.245016 176.361819 
L 271.362569 173.703982 
L 274.480121 171.046145 
L 277.597673 168.388307 
L 280.715225 165.73047 
L 283.832778 163.072633 
L 286.95033 160.414796 
L 290.067882 157.756958 
L 293.185435 155.099121 
L 296.302987 152.441284 
L 299.420539 149.783447 
L 302.538092 147.12561 
L 305.655644 144.467772 
L 308.773196 141.809935 
L 311.890749 139.152098 
L 315.008301 136.494261 
L 318.125853 133.836424 
L 321.243405 131.178586 
L 324.360958 128.520749 
L 327.47851 125.862912 
L 330.596062 123.205075 
L 333.713615 120.547237 
L 336.831167 117.8894 
L 339.948719 115.231563 
L 343.066272 112.573726 
L 346.183824 109.915889 
L 349.301376 107.258051 
L 352.418929 104.600214 
" style="fill:none;stroke:#1f77b4;stroke-linecap:square;stroke-width:2.25;"/>
   </g>
   <g id="patch_3">
    <path d="M 43.78125 400.6 
L 43.78125 74.64 
" style="fill:none;stroke:#000000;stroke-linecap:square;stroke-linejoin:miter;stroke-width:0.8;"/>
   </g>
   <g id="patch_4">
    <path d="M 43.78125 400.6 
L 352.418929 400.6 
" style="fill:none;stroke:#000000;stroke-linecap:square;stroke-linejoin:miter;stroke-width:0.8;"/>
   </g>
  </g>
  <g id="axes_2">
   <g id="patch_5">
    <path d="M 43.78125 63.4 
L 352.418929 63.4 
L 352.418929 7.2 
L 43.78125 7.2 
z
" style="fill:#ffffff;"/>
   </g>
   <g id="patch_6">
    <path clip-path="url(#paf3138f4bd)" d="M 43.78125 63.4 
L 74.645018 63.4 
L 74.645018 50.019048 
L 43.78125 50.019048 
z
" style="fill:#1f77b4;fill-opacity:0.5;stroke:#000000;stroke-linejoin:miter;"/>
   </g>
   <g id="patch_7">
    <path clip-path="url(#paf3138f4bd)" d="M 74.645018 63.4 
L 105.508786 63.4 
L 105.508786 37.97619 
L 74.645018 37.97619 
z
" style="fill:#1f77b4;fill-opacity:0.5;stroke:#000000;stroke-linejoin:miter;"/>
   </g>
   <g id="patch_8">
    <path clip-path="url(#paf3138f4bd)" d="M 105.508786 63.4 
L 136.372554 63.4 
L 136.372554 9.87619 
L 105.508786 9.87619 
z
" style="fill:#1f77b4;fill-opacity:0.5;stroke:#000000;stroke-linejoin:miter;"/>
   </g>
   <g id="patch_9">
    <path clip-path="url(#paf3138f4bd)" d="M 136.372554 63.4 
L 167.236321 63.4 
L 167.236321 9.87619 
L 136.372554 9.87619 
z
" style="fill:#1f77b4;fill-opacity:0.5;stroke:#000000;stroke-linejoin:miter;"/>
   </g>
   <g id="patch_10">
    <path clip-path="url(#paf3138f4bd)" d="M 167.236321 63.4 
L 198.100089 63.4 
L 198.100089 28.609524 
L 167.236321 28.609524 
z
" style="fill:#1f77b4;fill-opacity:0.5;stroke:#000000;stroke-linejoin:miter;"/>
   </g>
   <g id="patch_11">
    <path clip-path="url(#paf3138f4bd)" d="M 198.100089 63.4 
L 228.963857 63.4 
L 228.963857 47.342857 
L 198.100089 47.342857 
z
" style="fill:#1f77b4;fill-opacity:0.5;stroke:#000000;stroke-linejoin:miter;"/>
   </g>
   <g id="patch_12">
    <path clip-path="url(#paf3138f4bd)" d="M 228.963857 63.4 
L 259.827625 63.4 
L 259.827625 33.961905 
L 228.963857 33.961905 
z
" style="fill:#1f77b4;fill-opacity:0.5;stroke:#000000;stroke-linejoin:miter;"/>
   </g>
   <g id="patch_13">
    <path clip-path="url(#paf3138f4bd)" d="M 259.827625 63.4 
L 290.691393 63.4 
L 290.691393 48.680952 
L 259.827625 48.680952 
z
" style="fill:#1f77b4;fill-opacity:0.5;stroke:#000000;stroke-linejoin:miter;"/>
   </g>
   <g id="patch_14">
    <path clip-path="url(#paf3138f4bd)" d="M 290.691393 63.4 
L 321.555161 63.4 
L 321.555161 60.72381 
L 290.691393 60.72381 
z
" style="fill:#1f77b4;fill-opacity:0.5;stroke:#000000;stroke-linejoin:miter;"/>
   </g>
   <g id="patch_15">
    <path clip-path="url(#paf3138f4bd)" d="M 321.555161 63.4 
L 352.418929 63.4 
L 352.418929 58.047619 
L 321.555161 58.047619 
z
" style="fill:#1f77b4;fill-opacity:0.5;stroke:#000000;stroke-linejoin:miter;"/>
   </g>
   <g id="matplotlib.axis_3">
    <g id="xtick_6">
     <g id="line2d_12">
      <g>
       <use style="stroke:#000000;stroke-width:0.8;" x="62.723594" xlink:href="#m47601945ab" y="63.4"/>
      </g>
     </g>
    </g>
    <g id="xtick_7">
     <g id="line2d_13">
      <g>
       <use style="stroke:#000000;stroke-width:0.8;" x="130.301584" xlink:href="#m47601945ab" y="63.4"/>
      </g>
     </g>
    </g>
    <g id="xtick_8">
     <g id="line2d_14">
      <g>
       <use style="stroke:#000000;stroke-width:0.8;" x="197.879575" xlink:href="#m47601945ab" y="63.4"/>
      </g>
     </g>
    </g>
    <g id="xtick_9">
     <g id="line2d_15">
      <g>
       <use style="stroke:#000000;stroke-width:0.8;" x="265.457565" xlink:href="#m47601945ab" y="63.4"/>
      </g>
     </g>
    </g>
    <g id="xtick_10">
     <g id="line2d_16">
      <g>
       <use style="stroke:#000000;stroke-width:0.8;" x="333.035555" xlink:href="#m47601945ab" y="63.4"/>
      </g>
     </g>
    </g>
   </g>
   <g id="matplotlib.axis_4">
    <g id="ytick_6"/>
    <g id="ytick_7"/>
   </g>
   <g id="line2d_17">
    <path clip-path="url(#paf3138f4bd)" d="M 43.78125 55.971629 
L 49.985022 53.646742 
L 56.188795 51.070287 
L 63.94351 47.615205 
L 74.800112 42.536151 
L 84.105771 37.985393 
L 91.860486 33.963236 
L 99.615202 29.667164 
L 119.777462 18.2076 
L 124.430292 16.004047 
L 127.532178 14.7483 
L 130.634064 13.700008 
L 133.73595 12.886378 
L 136.837837 12.329169 
L 139.939723 12.043567 
L 143.041609 12.037427 
L 146.143495 12.310946 
L 149.245381 12.856753 
L 152.347268 13.660408 
L 155.449154 14.701243 
L 158.55104 15.953442 
L 163.203869 18.162215 
L 167.856699 20.668448 
L 175.611414 25.191862 
L 183.36613 29.697655 
L 188.018959 32.194912 
L 192.671788 34.429627 
L 197.324618 36.33137 
L 200.426504 37.388615 
L 203.52839 38.266603 
L 206.630276 38.962406 
L 209.732163 39.479192 
L 212.834049 39.826398 
L 217.486878 40.064956 
L 222.139707 40.03455 
L 229.894423 39.661727 
L 237.649139 39.345683 
L 242.301968 39.393011 
L 246.954797 39.721663 
L 250.056683 40.123407 
L 253.15857 40.679689 
L 257.811399 41.80003 
L 262.464228 43.232634 
L 267.117058 44.915789 
L 274.871773 48.047102 
L 284.177432 51.812049 
L 288.830261 53.505379 
L 293.48309 54.995069 
L 298.13592 56.250002 
L 302.788749 57.260549 
L 307.441578 58.036099 
L 312.094408 58.601478 
L 318.29818 59.091977 
L 326.052896 59.429172 
L 346.215156 60.158161 
L 352.418929 60.550125 
L 352.418929 60.550125 
" style="fill:none;stroke:#1f77b4;stroke-linecap:square;stroke-width:1.5;"/>
   </g>
   <g id="patch_16">
    <path d="M 43.78125 63.4 
L 352.418929 63.4 
" style="fill:none;stroke:#000000;stroke-linecap:square;stroke-linejoin:miter;stroke-width:0.8;"/>
   </g>
  </g>
  <g id="axes_3">
   <g id="patch_17">
    <path d="M 363.061607 400.6 
L 416.275 400.6 
L 416.275 74.64 
L 363.061607 74.64 
z
" style="fill:#ffffff;"/>
   </g>
   <g id="patch_18">
    <path clip-path="url(#p9590a964fd)" d="M 363.061607 385.783636 
L 373.457386 385.783636 
L 373.457386 356.150909 
L 363.061607 356.150909 
z
" style="fill:#1f77b4;fill-opacity:0.5;stroke:#000000;stroke-linejoin:miter;"/>
   </g>
   <g id="patch_19">
    <path clip-path="url(#p9590a964fd)" d="M 363.061607 356.150909 
L 398.147361 356.150909 
L 398.147361 326.518182 
L 363.061607 326.518182 
z
" style="fill:#1f77b4;fill-opacity:0.5;stroke:#000000;stroke-linejoin:miter;"/>
   </g>
   <g id="patch_20">
    <path clip-path="url(#p9590a964fd)" d="M 363.061607 326.518182 
L 399.446833 326.518182 
L 399.446833 296.885455 
L 363.061607 296.885455 
z
" style="fill:#1f77b4;fill-opacity:0.5;stroke:#000000;stroke-linejoin:miter;"/>
   </g>
   <g id="patch_21">
    <path clip-path="url(#p9590a964fd)" d="M 363.061607 296.885455 
L 413.741029 296.885455 
L 413.741029 267.252727 
L 363.061607 267.252727 
z
" style="fill:#1f77b4;fill-opacity:0.5;stroke:#000000;stroke-linejoin:miter;"/>
   </g>
   <g id="patch_22">
    <path clip-path="url(#p9590a964fd)" d="M 363.061607 267.252727 
L 390.350527 267.252727 
L 390.350527 237.62 
L 363.061607 237.62 
z
" style="fill:#1f77b4;fill-opacity:0.5;stroke:#000000;stroke-linejoin:miter;"/>
   </g>
   <g id="patch_23">
    <path clip-path="url(#p9590a964fd)" d="M 363.061607 237.62 
L 398.147361 237.62 
L 398.147361 207.987273 
L 363.061607 207.987273 
z
" style="fill:#1f77b4;fill-opacity:0.5;stroke:#000000;stroke-linejoin:miter;"/>
   </g>
   <g id="patch_24">
    <path clip-path="url(#p9590a964fd)" d="M 363.061607 207.987273 
L 385.152637 207.987273 
L 385.152637 178.354545 
L 363.061607 178.354545 
z
" style="fill:#1f77b4;fill-opacity:0.5;stroke:#000000;stroke-linejoin:miter;"/>
   </g>
   <g id="patch_25">
    <path clip-path="url(#p9590a964fd)" d="M 363.061607 178.354545 
L 376.056331 178.354545 
L 376.056331 148.721818 
L 363.061607 148.721818 
z
" style="fill:#1f77b4;fill-opacity:0.5;stroke:#000000;stroke-linejoin:miter;"/>
   </g>
   <g id="patch_26">
    <path clip-path="url(#p9590a964fd)" d="M 363.061607 148.721818 
L 368.259497 148.721818 
L 368.259497 119.089091 
L 363.061607 119.089091 
z
" style="fill:#1f77b4;fill-opacity:0.5;stroke:#000000;stroke-linejoin:miter;"/>
   </g>
   <g id="patch_27">
    <path clip-path="url(#p9590a964fd)" d="M 363.061607 119.089091 
L 369.558969 119.089091 
L 369.558969 89.456364 
L 363.061607 89.456364 
z
" style="fill:#1f77b4;fill-opacity:0.5;stroke:#000000;stroke-linejoin:miter;"/>
   </g>
   <g id="matplotlib.axis_5">
    <g id="xtick_11"/>
    <g id="xtick_12"/>
   </g>
   <g id="matplotlib.axis_6">
    <g id="ytick_8">
     <g id="line2d_18">
      <g>
       <use style="stroke:#000000;stroke-width:0.8;" x="363.061607" xlink:href="#md0041bd616" y="351.146045"/>
      </g>
     </g>
    </g>
    <g id="ytick_9">
     <g id="line2d_19">
      <g>
       <use style="stroke:#000000;stroke-width:0.8;" x="363.061607" xlink:href="#md0041bd616" y="293.945908"/>
      </g>
     </g>
    </g>
    <g id="ytick_10">
     <g id="line2d_20">
      <g>
       <use style="stroke:#000000;stroke-width:0.8;" x="363.061607" xlink:href="#md0041bd616" y="236.745771"/>
      </g>
     </g>
    </g>
    <g id="ytick_11">
     <g id="line2d_21">
      <g>
       <use style="stroke:#000000;stroke-width:0.8;" x="363.061607" xlink:href="#md0041bd616" y="179.545635"/>
      </g>
     </g>
    </g>
    <g id="ytick_12">
     <g id="line2d_22">
      <g>
       <use style="stroke:#000000;stroke-width:0.8;" x="363.061607" xlink:href="#md0041bd616" y="122.345498"/>
      </g>
     </g>
    </g>
   </g>
   <g id="line2d_23">
    <path clip-path="url(#p9590a964fd)" d="M 370.319595 385.783636 
L 372.171858 379.827309 
L 374.233212 373.870982 
L 376.523261 367.914655 
L 379.0783 361.958328 
L 381.936416 356.002001 
L 385.113169 350.045674 
L 388.574892 344.089347 
L 399.301883 326.220365 
L 401.577854 321.75312 
L 402.898036 318.774957 
L 404.030999 315.796793 
L 404.9571 312.81863 
L 405.662931 309.840466 
L 406.142072 306.862302 
L 406.395468 303.884139 
L 406.431396 300.905975 
L 406.265006 297.927812 
L 405.917478 294.949648 
L 405.114443 290.482403 
L 404.063663 286.015158 
L 401.634379 277.080667 
L 399.693045 269.635258 
L 398.382738 263.678931 
L 397.338623 257.722604 
L 396.541188 251.766277 
L 395.792565 244.320868 
L 394.251895 227.940968 
L 393.438749 221.984641 
L 392.396413 216.028314 
L 391.118688 210.071987 
L 389.238181 202.626578 
L 386.701138 193.692088 
L 382.177424 178.80127 
L 374.889361 154.975962 
L 372.836645 147.530553 
L 371.380365 141.574226 
L 370.138235 135.617899 
L 369.141286 129.661571 
L 368.39967 123.705244 
L 367.896867 117.748917 
L 367.532286 110.303508 
L 366.857943 89.456364 
L 366.857943 89.456364 
" style="fill:none;stroke:#1f77b4;stroke-linecap:square;stroke-width:1.5;"/>
   </g>
   <g id="patch_28">
    <path d="M 363.061607 400.6 
L 363.061607 74.64 
" style="fill:none;stroke:#000000;stroke-linecap:square;stroke-linejoin:miter;stroke-width:0.8;"/>
   </g>
  </g>
 </g>
 <defs>
  <clipPath id="p2ad0b138a4">
   <rect height="325.96" width="308.637679" x="43.78125" y="74.64"/>
  </clipPath>
  <clipPath id="paf3138f4bd">
   <rect height="56.2" width="308.637679" x="43.78125" y="7.2"/>
  </clipPath>
  <clipPath id="p9590a964fd">
   <rect height="325.96" width="53.213393" x="363.061607" y="74.64"/>
  </clipPath>
 </defs>
</svg>
