<?xml version="1.0" encoding="utf-8" standalone="no"?>
<!DOCTYPE svg PUBLIC "-//W3C//DTD SVG 1.1//EN"
  "http://www.w3.org/Graphics/SVG/1.1/DTD/svg11.dtd">
<!-- Created with matplotlib (https://matplotlib.org/) -->
<svg height="438.15625pt" version="1.1" viewBox="0 0 426.659375 438.15625" width="426.659375pt" xmlns="http://www.w3.org/2000/svg" xmlns:xlink="http://www.w3.org/1999/xlink">
 <metadata>
  <rdf:RDF xmlns:cc="http://creativecommons.org/ns#" xmlns:dc="http://purl.org/dc/elements/1.1/" xmlns:rdf="http://www.w3.org/1999/02/22-rdf-syntax-ns#">
   <cc:Work>
    <dc:type rdf:resource="http://purl.org/dc/dcmitype/StillImage"/>
    <dc:date>2021-01-09T15:37:36.129673</dc:date>
    <dc:format>image/svg+xml</dc:format>
    <dc:creator>
     <cc:Agent>
      <dc:title>Matplotlib v3.3.2, https://matplotlib.org/</dc:title>
     </cc:Agent>
    </dc:creator>
   </cc:Work>
  </rdf:RDF>
 </metadata>
 <defs>
  <style type="text/css">*{stroke-linecap:butt;stroke-linejoin:round;}</style>
 </defs>
 <g id="figure_1">
  <g id="patch_1">
   <path d="M 0 438.15625 
L 426.659375 438.15625 
L 426.659375 0 
L 0 0 
z
" style="fill:none;"/>
  </g>
  <g id="axes_1">
   <g id="patch_2">
    <path d="M 46.965625 400.6 
L 355.603304 400.6 
L 355.603304 74.64 
L 46.965625 74.64 
z
" style="fill:#ffffff;"/>
   </g>
   <g id="PathCollection_1">
    <defs>
     <path d="M 0 3 
C 0.795609 3 1.55874 2.683901 2.12132 2.12132 
C 2.683901 1.55874 3 0.795609 3 0 
C 3 -0.795609 2.683901 -1.55874 2.12132 -2.12132 
C 1.55874 -2.683901 0.795609 -3 0 -3 
C -0.795609 -3 -1.55874 -2.683901 -2.12132 -2.12132 
C -2.683901 -1.55874 -3 -0.795609 -3 0 
C -3 0.795609 -2.683901 1.55874 -2.12132 2.12132 
C -1.55874 2.683901 -0.795609 3 0 3 
z
" id="mf9e678df82" style="stroke:#1f77b4;stroke-opacity:0.8;"/>
    </defs>
    <g clip-path="url(#p5503d0a846)">
     <use style="fill:#1f77b4;fill-opacity:0.8;stroke:#1f77b4;stroke-opacity:0.8;" x="77.193029" xlink:href="#mf9e678df82" y="354.591105"/>
     <use style="fill:#1f77b4;fill-opacity:0.8;stroke:#1f77b4;stroke-opacity:0.8;" x="97.803057" xlink:href="#mf9e678df82" y="323.398573"/>
     <use style="fill:#1f77b4;fill-opacity:0.8;stroke:#1f77b4;stroke-opacity:0.8;" x="77.171578" xlink:href="#mf9e678df82" y="364.188807"/>
     <use style="fill:#1f77b4;fill-opacity:0.8;stroke:#1f77b4;stroke-opacity:0.8;" x="74.40889" xlink:href="#mf9e678df82" y="371.387083"/>
     <use style="fill:#1f77b4;fill-opacity:0.8;stroke:#1f77b4;stroke-opacity:0.8;" x="53.919587" xlink:href="#mf9e678df82" y="371.387083"/>
     <use style="fill:#1f77b4;fill-opacity:0.8;stroke:#1f77b4;stroke-opacity:0.8;" x="82.335378" xlink:href="#mf9e678df82" y="311.401445"/>
     <use style="fill:#1f77b4;fill-opacity:0.8;stroke:#1f77b4;stroke-opacity:0.8;" x="66.808593" xlink:href="#mf9e678df82" y="366.588232"/>
     <use style="fill:#1f77b4;fill-opacity:0.8;stroke:#1f77b4;stroke-opacity:0.8;" x="102.990456" xlink:href="#mf9e678df82" y="340.194552"/>
     <use style="fill:#1f77b4;fill-opacity:0.8;stroke:#1f77b4;stroke-opacity:0.8;" x="60.360199" xlink:href="#mf9e678df82" y="376.185934"/>
     <use style="fill:#1f77b4;fill-opacity:0.8;stroke:#1f77b4;stroke-opacity:0.8;" x="263.751739" xlink:href="#mf9e678df82" y="275.410063"/>
     <use style="fill:#1f77b4;fill-opacity:0.8;stroke:#1f77b4;stroke-opacity:0.8;" x="77.329708" xlink:href="#mf9e678df82" y="354.591105"/>
     <use style="fill:#1f77b4;fill-opacity:0.8;stroke:#1f77b4;stroke-opacity:0.8;" x="195.845414" xlink:href="#mf9e678df82" y="239.41868"/>
     <use style="fill:#1f77b4;fill-opacity:0.8;stroke:#1f77b4;stroke-opacity:0.8;" x="92.800929" xlink:href="#mf9e678df82" y="368.987658"/>
     <use style="fill:#1f77b4;fill-opacity:0.8;stroke:#1f77b4;stroke-opacity:0.8;" x="114.181576" xlink:href="#mf9e678df82" y="323.398573"/>
     <use style="fill:#1f77b4;fill-opacity:0.8;stroke:#1f77b4;stroke-opacity:0.8;" x="175.11953" xlink:href="#mf9e678df82" y="263.412935"/>
     <use style="fill:#1f77b4;fill-opacity:0.8;stroke:#1f77b4;stroke-opacity:0.8;" x="55.881946" xlink:href="#mf9e678df82" y="378.58536"/>
     <use style="fill:#1f77b4;fill-opacity:0.8;stroke:#1f77b4;stroke-opacity:0.8;" x="58.877626" xlink:href="#mf9e678df82" y="378.58536"/>
     <use style="fill:#1f77b4;fill-opacity:0.8;stroke:#1f77b4;stroke-opacity:0.8;" x="137.847971" xlink:href="#mf9e678df82" y="311.401445"/>
     <use style="fill:#1f77b4;fill-opacity:0.8;stroke:#1f77b4;stroke-opacity:0.8;" x="71.154073" xlink:href="#mf9e678df82" y="361.789381"/>
     <use style="fill:#1f77b4;fill-opacity:0.8;stroke:#1f77b4;stroke-opacity:0.8;" x="96.503709" xlink:href="#mf9e678df82" y="335.3957"/>
     <use style="fill:#1f77b4;fill-opacity:0.8;stroke:#1f77b4;stroke-opacity:0.8;" x="151.78646" xlink:href="#mf9e678df82" y="299.404318"/>
     <use style="fill:#1f77b4;fill-opacity:0.8;stroke:#1f77b4;stroke-opacity:0.8;" x="114.143212" xlink:href="#mf9e678df82" y="316.200296"/>
     <use style="fill:#1f77b4;fill-opacity:0.8;stroke:#1f77b4;stroke-opacity:0.8;" x="52.086992" xlink:href="#mf9e678df82" y="380.984785"/>
     <use style="fill:#1f77b4;fill-opacity:0.8;stroke:#1f77b4;stroke-opacity:0.8;" x="249.026097" xlink:href="#mf9e678df82" y="263.412935"/>
     <use style="fill:#1f77b4;fill-opacity:0.8;stroke:#1f77b4;stroke-opacity:0.8;" x="63.856438" xlink:href="#mf9e678df82" y="383.384211"/>
     <use style="fill:#1f77b4;fill-opacity:0.8;stroke:#1f77b4;stroke-opacity:0.8;" x="107.069431" xlink:href="#mf9e678df82" y="335.3957"/>
     <use style="fill:#1f77b4;fill-opacity:0.8;stroke:#1f77b4;stroke-opacity:0.8;" x="78.378491" xlink:href="#mf9e678df82" y="366.588232"/>
     <use style="fill:#1f77b4;fill-opacity:0.8;stroke:#1f77b4;stroke-opacity:0.8;" x="63.719216" xlink:href="#mf9e678df82" y="378.58536"/>
     <use style="fill:#1f77b4;fill-opacity:0.8;stroke:#1f77b4;stroke-opacity:0.8;" x="182.043989" xlink:href="#mf9e678df82" y="119.447404"/>
     <use style="fill:#1f77b4;fill-opacity:0.8;stroke:#1f77b4;stroke-opacity:0.8;" x="53.58758" xlink:href="#mf9e678df82" y="316.200296"/>
     <use style="fill:#1f77b4;fill-opacity:0.8;stroke:#1f77b4;stroke-opacity:0.8;" x="46.965625" xlink:href="#mf9e678df82" y="385.783636"/>
     <use style="fill:#1f77b4;fill-opacity:0.8;stroke:#1f77b4;stroke-opacity:0.8;" x="153.13982" xlink:href="#mf9e678df82" y="287.40719"/>
     <use style="fill:#1f77b4;fill-opacity:0.8;stroke:#1f77b4;stroke-opacity:0.8;" x="88.009705" xlink:href="#mf9e678df82" y="340.194552"/>
     <use style="fill:#1f77b4;fill-opacity:0.8;stroke:#1f77b4;stroke-opacity:0.8;" x="52.44582" xlink:href="#mf9e678df82" y="371.387083"/>
     <use style="fill:#1f77b4;fill-opacity:0.8;stroke:#1f77b4;stroke-opacity:0.8;" x="66.211968" xlink:href="#mf9e678df82" y="368.987658"/>
     <use style="fill:#1f77b4;fill-opacity:0.8;stroke:#1f77b4;stroke-opacity:0.8;" x="104.963589" xlink:href="#mf9e678df82" y="335.3957"/>
     <use style="fill:#1f77b4;fill-opacity:0.8;stroke:#1f77b4;stroke-opacity:0.8;" x="61.573017" xlink:href="#mf9e678df82" y="359.389956"/>
     <use style="fill:#1f77b4;fill-opacity:0.8;stroke:#1f77b4;stroke-opacity:0.8;" x="70.667867" xlink:href="#mf9e678df82" y="364.188807"/>
     <use style="fill:#1f77b4;fill-opacity:0.8;stroke:#1f77b4;stroke-opacity:0.8;" x="54.949469" xlink:href="#mf9e678df82" y="376.185934"/>
     <use style="fill:#1f77b4;fill-opacity:0.8;stroke:#1f77b4;stroke-opacity:0.8;" x="68.262434" xlink:href="#mf9e678df82" y="352.191679"/>
     <use style="fill:#1f77b4;fill-opacity:0.8;stroke:#1f77b4;stroke-opacity:0.8;" x="85.351817" xlink:href="#mf9e678df82" y="340.194552"/>
     <use style="fill:#1f77b4;fill-opacity:0.8;stroke:#1f77b4;stroke-opacity:0.8;" x="64.471194" xlink:href="#mf9e678df82" y="359.389956"/>
     <use style="fill:#1f77b4;fill-opacity:0.8;stroke:#1f77b4;stroke-opacity:0.8;" x="126.213299" xlink:href="#mf9e678df82" y="299.404318"/>
     <use style="fill:#1f77b4;fill-opacity:0.8;stroke:#1f77b4;stroke-opacity:0.8;" x="57.289888" xlink:href="#mf9e678df82" y="378.58536"/>
     <use style="fill:#1f77b4;fill-opacity:0.8;stroke:#1f77b4;stroke-opacity:0.8;" x="81.801798" xlink:href="#mf9e678df82" y="354.591105"/>
     <use style="fill:#1f77b4;fill-opacity:0.8;stroke:#1f77b4;stroke-opacity:0.8;" x="64.67766" xlink:href="#mf9e678df82" y="371.387083"/>
     <use style="fill:#1f77b4;fill-opacity:0.8;stroke:#1f77b4;stroke-opacity:0.8;" x="112.187723" xlink:href="#mf9e678df82" y="323.398573"/>
     <use style="fill:#1f77b4;fill-opacity:0.8;stroke:#1f77b4;stroke-opacity:0.8;" x="261.107218" xlink:href="#mf9e678df82" y="215.424425"/>
     <use style="fill:#1f77b4;fill-opacity:0.8;stroke:#1f77b4;stroke-opacity:0.8;" x="108.617128" xlink:href="#mf9e678df82" y="311.401445"/>
     <use style="fill:#1f77b4;fill-opacity:0.8;stroke:#1f77b4;stroke-opacity:0.8;" x="49.76193" xlink:href="#mf9e678df82" y="378.58536"/>
     <use style="fill:#1f77b4;fill-opacity:0.8;stroke:#1f77b4;stroke-opacity:0.8;" x="122.449392" xlink:href="#mf9e678df82" y="287.40719"/>
     <use style="fill:#1f77b4;fill-opacity:0.8;stroke:#1f77b4;stroke-opacity:0.8;" x="68.13266" xlink:href="#mf9e678df82" y="347.392828"/>
     <use style="fill:#1f77b4;fill-opacity:0.8;stroke:#1f77b4;stroke-opacity:0.8;" x="85.207383" xlink:href="#mf9e678df82" y="330.596849"/>
     <use style="fill:#1f77b4;fill-opacity:0.8;stroke:#1f77b4;stroke-opacity:0.8;" x="55.763357" xlink:href="#mf9e678df82" y="382.184498"/>
     <use style="fill:#1f77b4;fill-opacity:0.8;stroke:#1f77b4;stroke-opacity:0.8;" x="64.339907" xlink:href="#mf9e678df82" y="364.188807"/>
     <use style="fill:#1f77b4;fill-opacity:0.8;stroke:#1f77b4;stroke-opacity:0.8;" x="355.603304" xlink:href="#mf9e678df82" y="119.447404"/>
     <use style="fill:#1f77b4;fill-opacity:0.8;stroke:#1f77b4;stroke-opacity:0.8;" x="78.028878" xlink:href="#mf9e678df82" y="347.392828"/>
     <use style="fill:#1f77b4;fill-opacity:0.8;stroke:#1f77b4;stroke-opacity:0.8;" x="71.105107" xlink:href="#mf9e678df82" y="364.188807"/>
     <use style="fill:#1f77b4;fill-opacity:0.8;stroke:#1f77b4;stroke-opacity:0.8;" x="134.092982" xlink:href="#mf9e678df82" y="311.401445"/>
     <use style="fill:#1f77b4;fill-opacity:0.8;stroke:#1f77b4;stroke-opacity:0.8;" x="82.327402" xlink:href="#mf9e678df82" y="347.392828"/>
     <use style="fill:#1f77b4;fill-opacity:0.8;stroke:#1f77b4;stroke-opacity:0.8;" x="199.252059" xlink:href="#mf9e678df82" y="263.412935"/>
     <use style="fill:#1f77b4;fill-opacity:0.8;stroke:#1f77b4;stroke-opacity:0.8;" x="130.185761" xlink:href="#mf9e678df82" y="311.401445"/>
     <use style="fill:#1f77b4;fill-opacity:0.8;stroke:#1f77b4;stroke-opacity:0.8;" x="75.366269" xlink:href="#mf9e678df82" y="359.389956"/>
     <use style="fill:#1f77b4;fill-opacity:0.8;stroke:#1f77b4;stroke-opacity:0.8;" x="70.80936" xlink:href="#mf9e678df82" y="340.194552"/>
     <use style="fill:#1f77b4;fill-opacity:0.8;stroke:#1f77b4;stroke-opacity:0.8;" x="307.653068" xlink:href="#mf9e678df82" y="143.441659"/>
     <use style="fill:#1f77b4;fill-opacity:0.8;stroke:#1f77b4;stroke-opacity:0.8;" x="161.267432" xlink:href="#mf9e678df82" y="311.401445"/>
     <use style="fill:#1f77b4;fill-opacity:0.8;stroke:#1f77b4;stroke-opacity:0.8;" x="76.694604" xlink:href="#mf9e678df82" y="354.591105"/>
     <use style="fill:#1f77b4;fill-opacity:0.8;stroke:#1f77b4;stroke-opacity:0.8;" x="177.340987" xlink:href="#mf9e678df82" y="263.412935"/>
     <use style="fill:#1f77b4;fill-opacity:0.8;stroke:#1f77b4;stroke-opacity:0.8;" x="161.002224" xlink:href="#mf9e678df82" y="292.206041"/>
     <use style="fill:#1f77b4;fill-opacity:0.8;stroke:#1f77b4;stroke-opacity:0.8;" x="229.106614" xlink:href="#mf9e678df82" y="234.619829"/>
     <use style="fill:#1f77b4;fill-opacity:0.8;stroke:#1f77b4;stroke-opacity:0.8;" x="301.326616" xlink:href="#mf9e678df82" y="119.447404"/>
     <use style="fill:#1f77b4;fill-opacity:0.8;stroke:#1f77b4;stroke-opacity:0.8;" x="110.108449" xlink:href="#mf9e678df82" y="323.398573"/>
     <use style="fill:#1f77b4;fill-opacity:0.8;stroke:#1f77b4;stroke-opacity:0.8;" x="128.552341" xlink:href="#mf9e678df82" y="340.194552"/>
     <use style="fill:#1f77b4;fill-opacity:0.8;stroke:#1f77b4;stroke-opacity:0.8;" x="63.618741" xlink:href="#mf9e678df82" y="366.588232"/>
     <use style="fill:#1f77b4;fill-opacity:0.8;stroke:#1f77b4;stroke-opacity:0.8;" x="106.988406" xlink:href="#mf9e678df82" y="335.3957"/>
     <use style="fill:#1f77b4;fill-opacity:0.8;stroke:#1f77b4;stroke-opacity:0.8;" x="211.134894" xlink:href="#mf9e678df82" y="311.401445"/>
     <use style="fill:#1f77b4;fill-opacity:0.8;stroke:#1f77b4;stroke-opacity:0.8;" x="221.750408" xlink:href="#mf9e678df82" y="239.41868"/>
     <use style="fill:#1f77b4;fill-opacity:0.8;stroke:#1f77b4;stroke-opacity:0.8;" x="94.084426" xlink:href="#mf9e678df82" y="287.40719"/>
     <use style="fill:#1f77b4;fill-opacity:0.8;stroke:#1f77b4;stroke-opacity:0.8;" x="69.203863" xlink:href="#mf9e678df82" y="359.389956"/>
     <use style="fill:#1f77b4;fill-opacity:0.8;stroke:#1f77b4;stroke-opacity:0.8;" x="92.648377" xlink:href="#mf9e678df82" y="335.3957"/>
     <use style="fill:#1f77b4;fill-opacity:0.8;stroke:#1f77b4;stroke-opacity:0.8;" x="75.045464" xlink:href="#mf9e678df82" y="371.387083"/>
     <use style="fill:#1f77b4;fill-opacity:0.8;stroke:#1f77b4;stroke-opacity:0.8;" x="73.64067" xlink:href="#mf9e678df82" y="347.392828"/>
    </g>
   </g>
   <g id="PolyCollection_1">
    <path clip-path="url(#p5503d0a846)" d="M 46.965625 371.675797 
L 46.965625 382.710926 
L 50.083177 379.894864 
L 53.20073 377.077551 
L 56.318282 374.425289 
L 59.435834 371.661314 
L 62.553387 369.016823 
L 65.670939 366.192891 
L 68.788491 363.529656 
L 71.906043 361.027957 
L 75.023596 358.459238 
L 78.141148 355.804131 
L 81.2587 353.229738 
L 84.376253 350.75996 
L 87.493805 348.28791 
L 90.611357 345.828474 
L 93.72891 343.357523 
L 96.846462 341.062868 
L 99.964014 338.715518 
L 103.081567 336.435063 
L 106.199119 334.236265 
L 109.316671 331.928287 
L 112.434223 329.635681 
L 115.551776 327.416949 
L 118.669328 325.134691 
L 121.78688 322.851757 
L 124.904433 320.570176 
L 128.021985 318.321397 
L 131.139537 316.109651 
L 134.25709 313.907278 
L 137.374642 311.663363 
L 140.492194 309.47572 
L 143.609747 307.234495 
L 146.727299 305.04416 
L 149.844851 302.904522 
L 152.962403 300.78854 
L 156.079956 298.672557 
L 159.197508 296.441371 
L 162.31506 294.138277 
L 165.432613 291.83426 
L 168.550165 289.687654 
L 171.667717 287.541049 
L 174.78527 285.394262 
L 177.902822 283.247222 
L 181.020374 281.01592 
L 184.137927 278.828732 
L 187.255479 276.602878 
L 190.373031 274.416312 
L 193.490584 272.299321 
L 196.608136 270.184742 
L 199.725688 268.070164 
L 202.84324 265.955079 
L 205.960793 263.839944 
L 209.078345 261.724344 
L 212.195897 259.608665 
L 215.31345 257.494539 
L 218.431002 255.368591 
L 221.548554 253.224839 
L 224.666107 251.081087 
L 227.783659 248.937334 
L 230.901211 246.793582 
L 234.018764 244.64983 
L 237.136316 242.506078 
L 240.253868 240.360719 
L 243.37142 238.228382 
L 246.488973 236.098371 
L 249.606525 233.957094 
L 252.724077 231.780281 
L 255.84163 229.636174 
L 258.959182 227.492067 
L 262.076734 225.34796 
L 265.194287 223.203853 
L 268.311839 221.059746 
L 271.429391 218.915639 
L 274.546944 216.771532 
L 277.664496 214.627424 
L 280.782048 212.483317 
L 283.8996 210.33921 
L 287.017153 208.195103 
L 290.134705 206.050996 
L 293.252257 203.906889 
L 296.36981 201.762782 
L 299.487362 199.618675 
L 302.604914 197.474568 
L 305.722467 195.33046 
L 308.840019 193.186353 
L 311.957571 191.042246 
L 315.075124 188.898139 
L 318.192676 186.754032 
L 321.310228 184.609925 
L 324.42778 182.465818 
L 327.545333 180.321711 
L 330.662885 178.177604 
L 333.780437 176.033497 
L 336.89799 173.889389 
L 340.015542 171.745282 
L 343.133094 169.601175 
L 346.250647 167.457068 
L 349.368199 165.312961 
L 352.485751 163.168854 
L 355.603304 161.024747 
L 355.603304 89.456364 
L 355.603304 89.456364 
L 352.485751 92.359734 
L 349.368199 95.285876 
L 346.250647 98.233303 
L 343.133094 101.18073 
L 340.015542 104.128156 
L 336.89799 107.075583 
L 333.780437 110.02301 
L 330.662885 112.970436 
L 327.545333 115.917863 
L 324.42778 118.86529 
L 321.310228 121.812716 
L 318.192676 124.760143 
L 315.075124 127.70757 
L 311.957571 130.655023 
L 308.840019 133.603211 
L 305.722467 136.551398 
L 302.604914 139.499585 
L 299.487362 142.447772 
L 296.36981 145.396966 
L 293.252257 148.336903 
L 290.134705 151.234457 
L 287.017153 154.13201 
L 283.8996 157.029563 
L 280.782048 159.927116 
L 277.664496 162.82467 
L 274.546944 165.722223 
L 271.429391 168.619776 
L 268.311839 171.567246 
L 265.194287 174.5405 
L 262.076734 177.515987 
L 258.959182 180.491475 
L 255.84163 183.466963 
L 252.724077 186.442451 
L 249.606525 189.417938 
L 246.488973 192.393426 
L 243.37142 195.3818 
L 240.253868 198.375748 
L 237.136316 201.369696 
L 234.018764 204.301608 
L 230.901211 207.266264 
L 227.783659 210.238741 
L 224.666107 213.200202 
L 221.548554 216.093203 
L 218.431002 218.989024 
L 215.31345 221.884846 
L 212.195897 224.791728 
L 209.078345 227.784761 
L 205.960793 230.714825 
L 202.84324 233.648516 
L 199.725688 236.627222 
L 196.608136 239.605929 
L 193.490584 242.584636 
L 190.373031 245.563342 
L 187.255479 248.47884 
L 184.137927 251.317939 
L 181.020374 254.157038 
L 177.902822 257.082947 
L 174.78527 259.904699 
L 171.667717 262.825874 
L 168.550165 265.784242 
L 165.432613 268.745173 
L 162.31506 271.706104 
L 159.197508 274.661679 
L 156.079956 277.545466 
L 152.962403 280.451194 
L 149.844851 283.270789 
L 146.727299 286.131716 
L 143.609747 289.020745 
L 140.492194 291.974576 
L 137.374642 294.928407 
L 134.25709 297.732538 
L 131.139537 300.45084 
L 128.021985 303.342062 
L 124.904433 306.171154 
L 121.78688 309.136533 
L 118.669328 312.102469 
L 115.551776 315.069613 
L 112.434223 318.036758 
L 109.316671 320.907642 
L 106.199119 323.608871 
L 103.081567 326.4464 
L 99.964014 329.245084 
L 96.846462 332.120735 
L 93.72891 334.837604 
L 90.611357 337.617602 
L 87.493805 340.219448 
L 84.376253 342.819403 
L 81.2587 345.329875 
L 78.141148 348.012035 
L 75.023596 350.568851 
L 71.906043 352.935492 
L 68.788491 355.159467 
L 65.670939 357.6793 
L 62.553387 360.050526 
L 59.435834 362.378174 
L 56.318282 364.809035 
L 53.20073 367.18025 
L 50.083177 369.40672 
L 46.965625 371.675797 
z
" style="fill:#1f77b4;fill-opacity:0.15;"/>
   </g>
   <g id="matplotlib.axis_1">
    <g id="xtick_1">
     <g id="line2d_1">
      <defs>
       <path d="M 0 0 
L 0 3.5 
" id="m44ab85ba86" style="stroke:#000000;stroke-width:0.8;"/>
      </defs>
      <g>
       <use style="stroke:#000000;stroke-width:0.8;" x="72.755379" xlink:href="#m44ab85ba86" y="400.6"/>
      </g>
     </g>
     <g id="text_1">
      <!-- 20 -->
      <g transform="translate(66.392879 415.198437)scale(0.1 -0.1)">
       <defs>
        <path d="M 19.1875 8.296875 
L 53.609375 8.296875 
L 53.609375 0 
L 7.328125 0 
L 7.328125 8.296875 
Q 12.9375 14.109375 22.625 23.890625 
Q 32.328125 33.6875 34.8125 36.53125 
Q 39.546875 41.84375 41.421875 45.53125 
Q 43.3125 49.21875 43.3125 52.78125 
Q 43.3125 58.59375 39.234375 62.25 
Q 35.15625 65.921875 28.609375 65.921875 
Q 23.96875 65.921875 18.8125 64.3125 
Q 13.671875 62.703125 7.8125 59.421875 
L 7.8125 69.390625 
Q 13.765625 71.78125 18.9375 73 
Q 24.125 74.21875 28.421875 74.21875 
Q 39.75 74.21875 46.484375 68.546875 
Q 53.21875 62.890625 53.21875 53.421875 
Q 53.21875 48.921875 51.53125 44.890625 
Q 49.859375 40.875 45.40625 35.40625 
Q 44.1875 33.984375 37.640625 27.21875 
Q 31.109375 20.453125 19.1875 8.296875 
z
" id="DejaVuSans-50"/>
        <path d="M 31.78125 66.40625 
Q 24.171875 66.40625 20.328125 58.90625 
Q 16.5 51.421875 16.5 36.375 
Q 16.5 21.390625 20.328125 13.890625 
Q 24.171875 6.390625 31.78125 6.390625 
Q 39.453125 6.390625 43.28125 13.890625 
Q 47.125 21.390625 47.125 36.375 
Q 47.125 51.421875 43.28125 58.90625 
Q 39.453125 66.40625 31.78125 66.40625 
z
M 31.78125 74.21875 
Q 44.046875 74.21875 50.515625 64.515625 
Q 56.984375 54.828125 56.984375 36.375 
Q 56.984375 17.96875 50.515625 8.265625 
Q 44.046875 -1.421875 31.78125 -1.421875 
Q 19.53125 -1.421875 13.0625 8.265625 
Q 6.59375 17.96875 6.59375 36.375 
Q 6.59375 54.828125 13.0625 64.515625 
Q 19.53125 74.21875 31.78125 74.21875 
z
" id="DejaVuSans-48"/>
       </defs>
       <use xlink:href="#DejaVuSans-50"/>
       <use x="63.623047" xlink:href="#DejaVuSans-48"/>
      </g>
     </g>
    </g>
    <g id="xtick_2">
     <g id="line2d_2">
      <g>
       <use style="stroke:#000000;stroke-width:0.8;" x="126.766448" xlink:href="#m44ab85ba86" y="400.6"/>
      </g>
     </g>
     <g id="text_2">
      <!-- 40 -->
      <g transform="translate(120.403948 415.198437)scale(0.1 -0.1)">
       <defs>
        <path d="M 37.796875 64.3125 
L 12.890625 25.390625 
L 37.796875 25.390625 
z
M 35.203125 72.90625 
L 47.609375 72.90625 
L 47.609375 25.390625 
L 58.015625 25.390625 
L 58.015625 17.1875 
L 47.609375 17.1875 
L 47.609375 0 
L 37.796875 0 
L 37.796875 17.1875 
L 4.890625 17.1875 
L 4.890625 26.703125 
z
" id="DejaVuSans-52"/>
       </defs>
       <use xlink:href="#DejaVuSans-52"/>
       <use x="63.623047" xlink:href="#DejaVuSans-48"/>
      </g>
     </g>
    </g>
    <g id="xtick_3">
     <g id="line2d_3">
      <g>
       <use style="stroke:#000000;stroke-width:0.8;" x="180.777516" xlink:href="#m44ab85ba86" y="400.6"/>
      </g>
     </g>
     <g id="text_3">
      <!-- 60 -->
      <g transform="translate(174.415016 415.198437)scale(0.1 -0.1)">
       <defs>
        <path d="M 33.015625 40.375 
Q 26.375 40.375 22.484375 35.828125 
Q 18.609375 31.296875 18.609375 23.390625 
Q 18.609375 15.53125 22.484375 10.953125 
Q 26.375 6.390625 33.015625 6.390625 
Q 39.65625 6.390625 43.53125 10.953125 
Q 47.40625 15.53125 47.40625 23.390625 
Q 47.40625 31.296875 43.53125 35.828125 
Q 39.65625 40.375 33.015625 40.375 
z
M 52.59375 71.296875 
L 52.59375 62.3125 
Q 48.875 64.0625 45.09375 64.984375 
Q 41.3125 65.921875 37.59375 65.921875 
Q 27.828125 65.921875 22.671875 59.328125 
Q 17.53125 52.734375 16.796875 39.40625 
Q 19.671875 43.65625 24.015625 45.921875 
Q 28.375 48.1875 33.59375 48.1875 
Q 44.578125 48.1875 50.953125 41.515625 
Q 57.328125 34.859375 57.328125 23.390625 
Q 57.328125 12.15625 50.6875 5.359375 
Q 44.046875 -1.421875 33.015625 -1.421875 
Q 20.359375 -1.421875 13.671875 8.265625 
Q 6.984375 17.96875 6.984375 36.375 
Q 6.984375 53.65625 15.1875 63.9375 
Q 23.390625 74.21875 37.203125 74.21875 
Q 40.921875 74.21875 44.703125 73.484375 
Q 48.484375 72.75 52.59375 71.296875 
z
" id="DejaVuSans-54"/>
       </defs>
       <use xlink:href="#DejaVuSans-54"/>
       <use x="63.623047" xlink:href="#DejaVuSans-48"/>
      </g>
     </g>
    </g>
    <g id="xtick_4">
     <g id="line2d_4">
      <g>
       <use style="stroke:#000000;stroke-width:0.8;" x="234.788585" xlink:href="#m44ab85ba86" y="400.6"/>
      </g>
     </g>
     <g id="text_4">
      <!-- 80 -->
      <g transform="translate(228.426085 415.198437)scale(0.1 -0.1)">
       <defs>
        <path d="M 31.78125 34.625 
Q 24.75 34.625 20.71875 30.859375 
Q 16.703125 27.09375 16.703125 20.515625 
Q 16.703125 13.921875 20.71875 10.15625 
Q 24.75 6.390625 31.78125 6.390625 
Q 38.8125 6.390625 42.859375 10.171875 
Q 46.921875 13.96875 46.921875 20.515625 
Q 46.921875 27.09375 42.890625 30.859375 
Q 38.875 34.625 31.78125 34.625 
z
M 21.921875 38.8125 
Q 15.578125 40.375 12.03125 44.71875 
Q 8.5 49.078125 8.5 55.328125 
Q 8.5 64.0625 14.71875 69.140625 
Q 20.953125 74.21875 31.78125 74.21875 
Q 42.671875 74.21875 48.875 69.140625 
Q 55.078125 64.0625 55.078125 55.328125 
Q 55.078125 49.078125 51.53125 44.71875 
Q 48 40.375 41.703125 38.8125 
Q 48.828125 37.15625 52.796875 32.3125 
Q 56.78125 27.484375 56.78125 20.515625 
Q 56.78125 9.90625 50.3125 4.234375 
Q 43.84375 -1.421875 31.78125 -1.421875 
Q 19.734375 -1.421875 13.25 4.234375 
Q 6.78125 9.90625 6.78125 20.515625 
Q 6.78125 27.484375 10.78125 32.3125 
Q 14.796875 37.15625 21.921875 38.8125 
z
M 18.3125 54.390625 
Q 18.3125 48.734375 21.84375 45.5625 
Q 25.390625 42.390625 31.78125 42.390625 
Q 38.140625 42.390625 41.71875 45.5625 
Q 45.3125 48.734375 45.3125 54.390625 
Q 45.3125 60.0625 41.71875 63.234375 
Q 38.140625 66.40625 31.78125 66.40625 
Q 25.390625 66.40625 21.84375 63.234375 
Q 18.3125 60.0625 18.3125 54.390625 
z
" id="DejaVuSans-56"/>
       </defs>
       <use xlink:href="#DejaVuSans-56"/>
       <use x="63.623047" xlink:href="#DejaVuSans-48"/>
      </g>
     </g>
    </g>
    <g id="xtick_5">
     <g id="line2d_5">
      <g>
       <use style="stroke:#000000;stroke-width:0.8;" x="288.799653" xlink:href="#m44ab85ba86" y="400.6"/>
      </g>
     </g>
     <g id="text_5">
      <!-- 100 -->
      <g transform="translate(279.255903 415.198437)scale(0.1 -0.1)">
       <defs>
        <path d="M 12.40625 8.296875 
L 28.515625 8.296875 
L 28.515625 63.921875 
L 10.984375 60.40625 
L 10.984375 69.390625 
L 28.421875 72.90625 
L 38.28125 72.90625 
L 38.28125 8.296875 
L 54.390625 8.296875 
L 54.390625 0 
L 12.40625 0 
z
" id="DejaVuSans-49"/>
       </defs>
       <use xlink:href="#DejaVuSans-49"/>
       <use x="63.623047" xlink:href="#DejaVuSans-48"/>
       <use x="127.246094" xlink:href="#DejaVuSans-48"/>
      </g>
     </g>
    </g>
    <g id="xtick_6">
     <g id="line2d_6">
      <g>
       <use style="stroke:#000000;stroke-width:0.8;" x="342.810722" xlink:href="#m44ab85ba86" y="400.6"/>
      </g>
     </g>
     <g id="text_6">
      <!-- 120 -->
      <g transform="translate(333.266972 415.198437)scale(0.1 -0.1)">
       <use xlink:href="#DejaVuSans-49"/>
       <use x="63.623047" xlink:href="#DejaVuSans-50"/>
       <use x="127.246094" xlink:href="#DejaVuSans-48"/>
      </g>
     </g>
    </g>
    <g id="text_7">
     <!-- Predicted Values -->
     <g transform="translate(159.889152 428.876562)scale(0.1 -0.1)">
      <defs>
       <path d="M 19.671875 64.796875 
L 19.671875 37.40625 
L 32.078125 37.40625 
Q 38.96875 37.40625 42.71875 40.96875 
Q 46.484375 44.53125 46.484375 51.125 
Q 46.484375 57.671875 42.71875 61.234375 
Q 38.96875 64.796875 32.078125 64.796875 
z
M 9.8125 72.90625 
L 32.078125 72.90625 
Q 44.34375 72.90625 50.609375 67.359375 
Q 56.890625 61.8125 56.890625 51.125 
Q 56.890625 40.328125 50.609375 34.8125 
Q 44.34375 29.296875 32.078125 29.296875 
L 19.671875 29.296875 
L 19.671875 0 
L 9.8125 0 
z
" id="DejaVuSans-80"/>
       <path d="M 41.109375 46.296875 
Q 39.59375 47.171875 37.8125 47.578125 
Q 36.03125 48 33.890625 48 
Q 26.265625 48 22.1875 43.046875 
Q 18.109375 38.09375 18.109375 28.8125 
L 18.109375 0 
L 9.078125 0 
L 9.078125 54.6875 
L 18.109375 54.6875 
L 18.109375 46.1875 
Q 20.953125 51.171875 25.484375 53.578125 
Q 30.03125 56 36.53125 56 
Q 37.453125 56 38.578125 55.875 
Q 39.703125 55.765625 41.0625 55.515625 
z
" id="DejaVuSans-114"/>
       <path d="M 56.203125 29.59375 
L 56.203125 25.203125 
L 14.890625 25.203125 
Q 15.484375 15.921875 20.484375 11.0625 
Q 25.484375 6.203125 34.421875 6.203125 
Q 39.59375 6.203125 44.453125 7.46875 
Q 49.3125 8.734375 54.109375 11.28125 
L 54.109375 2.78125 
Q 49.265625 0.734375 44.1875 -0.34375 
Q 39.109375 -1.421875 33.890625 -1.421875 
Q 20.796875 -1.421875 13.15625 6.1875 
Q 5.515625 13.8125 5.515625 26.8125 
Q 5.515625 40.234375 12.765625 48.109375 
Q 20.015625 56 32.328125 56 
Q 43.359375 56 49.78125 48.890625 
Q 56.203125 41.796875 56.203125 29.59375 
z
M 47.21875 32.234375 
Q 47.125 39.59375 43.09375 43.984375 
Q 39.0625 48.390625 32.421875 48.390625 
Q 24.90625 48.390625 20.390625 44.140625 
Q 15.875 39.890625 15.1875 32.171875 
z
" id="DejaVuSans-101"/>
       <path d="M 45.40625 46.390625 
L 45.40625 75.984375 
L 54.390625 75.984375 
L 54.390625 0 
L 45.40625 0 
L 45.40625 8.203125 
Q 42.578125 3.328125 38.25 0.953125 
Q 33.9375 -1.421875 27.875 -1.421875 
Q 17.96875 -1.421875 11.734375 6.484375 
Q 5.515625 14.40625 5.515625 27.296875 
Q 5.515625 40.1875 11.734375 48.09375 
Q 17.96875 56 27.875 56 
Q 33.9375 56 38.25 53.625 
Q 42.578125 51.265625 45.40625 46.390625 
z
M 14.796875 27.296875 
Q 14.796875 17.390625 18.875 11.75 
Q 22.953125 6.109375 30.078125 6.109375 
Q 37.203125 6.109375 41.296875 11.75 
Q 45.40625 17.390625 45.40625 27.296875 
Q 45.40625 37.203125 41.296875 42.84375 
Q 37.203125 48.484375 30.078125 48.484375 
Q 22.953125 48.484375 18.875 42.84375 
Q 14.796875 37.203125 14.796875 27.296875 
z
" id="DejaVuSans-100"/>
       <path d="M 9.421875 54.6875 
L 18.40625 54.6875 
L 18.40625 0 
L 9.421875 0 
z
M 9.421875 75.984375 
L 18.40625 75.984375 
L 18.40625 64.59375 
L 9.421875 64.59375 
z
" id="DejaVuSans-105"/>
       <path d="M 48.78125 52.59375 
L 48.78125 44.1875 
Q 44.96875 46.296875 41.140625 47.34375 
Q 37.3125 48.390625 33.40625 48.390625 
Q 24.65625 48.390625 19.8125 42.84375 
Q 14.984375 37.3125 14.984375 27.296875 
Q 14.984375 17.28125 19.8125 11.734375 
Q 24.65625 6.203125 33.40625 6.203125 
Q 37.3125 6.203125 41.140625 7.25 
Q 44.96875 8.296875 48.78125 10.40625 
L 48.78125 2.09375 
Q 45.015625 0.34375 40.984375 -0.53125 
Q 36.96875 -1.421875 32.421875 -1.421875 
Q 20.0625 -1.421875 12.78125 6.34375 
Q 5.515625 14.109375 5.515625 27.296875 
Q 5.515625 40.671875 12.859375 48.328125 
Q 20.21875 56 33.015625 56 
Q 37.15625 56 41.109375 55.140625 
Q 45.0625 54.296875 48.78125 52.59375 
z
" id="DejaVuSans-99"/>
       <path d="M 18.3125 70.21875 
L 18.3125 54.6875 
L 36.8125 54.6875 
L 36.8125 47.703125 
L 18.3125 47.703125 
L 18.3125 18.015625 
Q 18.3125 11.328125 20.140625 9.421875 
Q 21.96875 7.515625 27.59375 7.515625 
L 36.8125 7.515625 
L 36.8125 0 
L 27.59375 0 
Q 17.1875 0 13.234375 3.875 
Q 9.28125 7.765625 9.28125 18.015625 
L 9.28125 47.703125 
L 2.6875 47.703125 
L 2.6875 54.6875 
L 9.28125 54.6875 
L 9.28125 70.21875 
z
" id="DejaVuSans-116"/>
       <path id="DejaVuSans-32"/>
       <path d="M 28.609375 0 
L 0.78125 72.90625 
L 11.078125 72.90625 
L 34.1875 11.53125 
L 57.328125 72.90625 
L 67.578125 72.90625 
L 39.796875 0 
z
" id="DejaVuSans-86"/>
       <path d="M 34.28125 27.484375 
Q 23.390625 27.484375 19.1875 25 
Q 14.984375 22.515625 14.984375 16.5 
Q 14.984375 11.71875 18.140625 8.90625 
Q 21.296875 6.109375 26.703125 6.109375 
Q 34.1875 6.109375 38.703125 11.40625 
Q 43.21875 16.703125 43.21875 25.484375 
L 43.21875 27.484375 
z
M 52.203125 31.203125 
L 52.203125 0 
L 43.21875 0 
L 43.21875 8.296875 
Q 40.140625 3.328125 35.546875 0.953125 
Q 30.953125 -1.421875 24.3125 -1.421875 
Q 15.921875 -1.421875 10.953125 3.296875 
Q 6 8.015625 6 15.921875 
Q 6 25.140625 12.171875 29.828125 
Q 18.359375 34.515625 30.609375 34.515625 
L 43.21875 34.515625 
L 43.21875 35.40625 
Q 43.21875 41.609375 39.140625 45 
Q 35.0625 48.390625 27.6875 48.390625 
Q 23 48.390625 18.546875 47.265625 
Q 14.109375 46.140625 10.015625 43.890625 
L 10.015625 52.203125 
Q 14.9375 54.109375 19.578125 55.046875 
Q 24.21875 56 28.609375 56 
Q 40.484375 56 46.34375 49.84375 
Q 52.203125 43.703125 52.203125 31.203125 
z
" id="DejaVuSans-97"/>
       <path d="M 9.421875 75.984375 
L 18.40625 75.984375 
L 18.40625 0 
L 9.421875 0 
z
" id="DejaVuSans-108"/>
       <path d="M 8.5 21.578125 
L 8.5 54.6875 
L 17.484375 54.6875 
L 17.484375 21.921875 
Q 17.484375 14.15625 20.5 10.265625 
Q 23.53125 6.390625 29.59375 6.390625 
Q 36.859375 6.390625 41.078125 11.03125 
Q 45.3125 15.671875 45.3125 23.6875 
L 45.3125 54.6875 
L 54.296875 54.6875 
L 54.296875 0 
L 45.3125 0 
L 45.3125 8.40625 
Q 42.046875 3.421875 37.71875 1 
Q 33.40625 -1.421875 27.6875 -1.421875 
Q 18.265625 -1.421875 13.375 4.4375 
Q 8.5 10.296875 8.5 21.578125 
z
M 31.109375 56 
z
" id="DejaVuSans-117"/>
       <path d="M 44.28125 53.078125 
L 44.28125 44.578125 
Q 40.484375 46.53125 36.375 47.5 
Q 32.28125 48.484375 27.875 48.484375 
Q 21.1875 48.484375 17.84375 46.4375 
Q 14.5 44.390625 14.5 40.28125 
Q 14.5 37.15625 16.890625 35.375 
Q 19.28125 33.59375 26.515625 31.984375 
L 29.59375 31.296875 
Q 39.15625 29.25 43.1875 25.515625 
Q 47.21875 21.78125 47.21875 15.09375 
Q 47.21875 7.46875 41.1875 3.015625 
Q 35.15625 -1.421875 24.609375 -1.421875 
Q 20.21875 -1.421875 15.453125 -0.5625 
Q 10.6875 0.296875 5.421875 2 
L 5.421875 11.28125 
Q 10.40625 8.6875 15.234375 7.390625 
Q 20.0625 6.109375 24.8125 6.109375 
Q 31.15625 6.109375 34.5625 8.28125 
Q 37.984375 10.453125 37.984375 14.40625 
Q 37.984375 18.0625 35.515625 20.015625 
Q 33.0625 21.96875 24.703125 23.78125 
L 21.578125 24.515625 
Q 13.234375 26.265625 9.515625 29.90625 
Q 5.8125 33.546875 5.8125 39.890625 
Q 5.8125 47.609375 11.28125 51.796875 
Q 16.75 56 26.8125 56 
Q 31.78125 56 36.171875 55.265625 
Q 40.578125 54.546875 44.28125 53.078125 
z
" id="DejaVuSans-115"/>
      </defs>
      <use xlink:href="#DejaVuSans-80"/>
      <use x="58.552734" xlink:href="#DejaVuSans-114"/>
      <use x="97.416016" xlink:href="#DejaVuSans-101"/>
      <use x="158.939453" xlink:href="#DejaVuSans-100"/>
      <use x="222.416016" xlink:href="#DejaVuSans-105"/>
      <use x="250.199219" xlink:href="#DejaVuSans-99"/>
      <use x="305.179688" xlink:href="#DejaVuSans-116"/>
      <use x="344.388672" xlink:href="#DejaVuSans-101"/>
      <use x="405.912109" xlink:href="#DejaVuSans-100"/>
      <use x="469.388672" xlink:href="#DejaVuSans-32"/>
      <use x="501.175781" xlink:href="#DejaVuSans-86"/>
      <use x="561.833984" xlink:href="#DejaVuSans-97"/>
      <use x="623.113281" xlink:href="#DejaVuSans-108"/>
      <use x="650.896484" xlink:href="#DejaVuSans-117"/>
      <use x="714.275391" xlink:href="#DejaVuSans-101"/>
      <use x="775.798828" xlink:href="#DejaVuSans-115"/>
     </g>
    </g>
   </g>
   <g id="matplotlib.axis_2">
    <g id="ytick_1">
     <g id="line2d_7">
      <defs>
       <path d="M 0 0 
L -3.5 0 
" id="m10ba13f826" style="stroke:#000000;stroke-width:0.8;"/>
      </defs>
      <g>
       <use style="stroke:#000000;stroke-width:0.8;" x="46.965625" xlink:href="#m10ba13f826" y="359.389956"/>
      </g>
     </g>
     <g id="text_8">
      <!-- 20 -->
      <g transform="translate(27.240625 363.189174)scale(0.1 -0.1)">
       <use xlink:href="#DejaVuSans-50"/>
       <use x="63.623047" xlink:href="#DejaVuSans-48"/>
      </g>
     </g>
    </g>
    <g id="ytick_2">
     <g id="line2d_8">
      <g>
       <use style="stroke:#000000;stroke-width:0.8;" x="46.965625" xlink:href="#m10ba13f826" y="311.401445"/>
      </g>
     </g>
     <g id="text_9">
      <!-- 40 -->
      <g transform="translate(27.240625 315.200664)scale(0.1 -0.1)">
       <use xlink:href="#DejaVuSans-52"/>
       <use x="63.623047" xlink:href="#DejaVuSans-48"/>
      </g>
     </g>
    </g>
    <g id="ytick_3">
     <g id="line2d_9">
      <g>
       <use style="stroke:#000000;stroke-width:0.8;" x="46.965625" xlink:href="#m10ba13f826" y="263.412935"/>
      </g>
     </g>
     <g id="text_10">
      <!-- 60 -->
      <g transform="translate(27.240625 267.212154)scale(0.1 -0.1)">
       <use xlink:href="#DejaVuSans-54"/>
       <use x="63.623047" xlink:href="#DejaVuSans-48"/>
      </g>
     </g>
    </g>
    <g id="ytick_4">
     <g id="line2d_10">
      <g>
       <use style="stroke:#000000;stroke-width:0.8;" x="46.965625" xlink:href="#m10ba13f826" y="215.424425"/>
      </g>
     </g>
     <g id="text_11">
      <!-- 80 -->
      <g transform="translate(27.240625 219.223643)scale(0.1 -0.1)">
       <use xlink:href="#DejaVuSans-56"/>
       <use x="63.623047" xlink:href="#DejaVuSans-48"/>
      </g>
     </g>
    </g>
    <g id="ytick_5">
     <g id="line2d_11">
      <g>
       <use style="stroke:#000000;stroke-width:0.8;" x="46.965625" xlink:href="#m10ba13f826" y="167.435914"/>
      </g>
     </g>
     <g id="text_12">
      <!-- 100 -->
      <g transform="translate(20.878125 171.235133)scale(0.1 -0.1)">
       <use xlink:href="#DejaVuSans-49"/>
       <use x="63.623047" xlink:href="#DejaVuSans-48"/>
       <use x="127.246094" xlink:href="#DejaVuSans-48"/>
      </g>
     </g>
    </g>
    <g id="ytick_6">
     <g id="line2d_12">
      <g>
       <use style="stroke:#000000;stroke-width:0.8;" x="46.965625" xlink:href="#m10ba13f826" y="119.447404"/>
      </g>
     </g>
     <g id="text_13">
      <!-- 120 -->
      <g transform="translate(20.878125 123.246623)scale(0.1 -0.1)">
       <use xlink:href="#DejaVuSans-49"/>
       <use x="63.623047" xlink:href="#DejaVuSans-50"/>
       <use x="127.246094" xlink:href="#DejaVuSans-48"/>
      </g>
     </g>
    </g>
    <g id="text_14">
     <!-- Real Values -->
     <g transform="translate(14.798437 266.323906)rotate(-90)scale(0.1 -0.1)">
      <defs>
       <path d="M 44.390625 34.1875 
Q 47.5625 33.109375 50.5625 29.59375 
Q 53.5625 26.078125 56.59375 19.921875 
L 66.609375 0 
L 56 0 
L 46.6875 18.703125 
Q 43.0625 26.03125 39.671875 28.421875 
Q 36.28125 30.8125 30.421875 30.8125 
L 19.671875 30.8125 
L 19.671875 0 
L 9.8125 0 
L 9.8125 72.90625 
L 32.078125 72.90625 
Q 44.578125 72.90625 50.734375 67.671875 
Q 56.890625 62.453125 56.890625 51.90625 
Q 56.890625 45.015625 53.6875 40.46875 
Q 50.484375 35.9375 44.390625 34.1875 
z
M 19.671875 64.796875 
L 19.671875 38.921875 
L 32.078125 38.921875 
Q 39.203125 38.921875 42.84375 42.21875 
Q 46.484375 45.515625 46.484375 51.90625 
Q 46.484375 58.296875 42.84375 61.546875 
Q 39.203125 64.796875 32.078125 64.796875 
z
" id="DejaVuSans-82"/>
      </defs>
      <use xlink:href="#DejaVuSans-82"/>
      <use x="64.982422" xlink:href="#DejaVuSans-101"/>
      <use x="126.505859" xlink:href="#DejaVuSans-97"/>
      <use x="187.785156" xlink:href="#DejaVuSans-108"/>
      <use x="215.568359" xlink:href="#DejaVuSans-32"/>
      <use x="247.355469" xlink:href="#DejaVuSans-86"/>
      <use x="308.013672" xlink:href="#DejaVuSans-97"/>
      <use x="369.292969" xlink:href="#DejaVuSans-108"/>
      <use x="397.076172" xlink:href="#DejaVuSans-117"/>
      <use x="460.455078" xlink:href="#DejaVuSans-101"/>
      <use x="521.978516" xlink:href="#DejaVuSans-115"/>
     </g>
    </g>
   </g>
   <g id="line2d_13">
    <path clip-path="url(#p5503d0a846)" d="M 46.965625 377.416242 
L 50.083177 374.881936 
L 53.20073 372.347629 
L 56.318282 369.813323 
L 59.435834 367.279016 
L 62.553387 364.74471 
L 65.670939 362.210403 
L 68.788491 359.676096 
L 71.906043 357.14179 
L 75.023596 354.607483 
L 78.141148 352.073177 
L 81.2587 349.53887 
L 84.376253 347.004564 
L 87.493805 344.470257 
L 90.611357 341.93595 
L 93.72891 339.401644 
L 96.846462 336.867337 
L 99.964014 334.333031 
L 103.081567 331.798724 
L 106.199119 329.264418 
L 109.316671 326.730111 
L 112.434223 324.195805 
L 115.551776 321.661498 
L 118.669328 319.127191 
L 121.78688 316.592885 
L 124.904433 314.058578 
L 128.021985 311.524272 
L 131.139537 308.989965 
L 134.25709 306.455659 
L 137.374642 303.921352 
L 140.492194 301.387045 
L 143.609747 298.852739 
L 146.727299 296.318432 
L 149.844851 293.784126 
L 152.962403 291.249819 
L 156.079956 288.715513 
L 159.197508 286.181206 
L 162.31506 283.6469 
L 165.432613 281.112593 
L 168.550165 278.578286 
L 171.667717 276.04398 
L 174.78527 273.509673 
L 177.902822 270.975367 
L 181.020374 268.44106 
L 184.137927 265.906754 
L 187.255479 263.372447 
L 190.373031 260.838141 
L 193.490584 258.303834 
L 196.608136 255.769527 
L 199.725688 253.235221 
L 202.84324 250.700914 
L 205.960793 248.166608 
L 209.078345 245.632301 
L 212.195897 243.097995 
L 215.31345 240.563688 
L 218.431002 238.029381 
L 221.548554 235.495075 
L 224.666107 232.960768 
L 227.783659 230.426462 
L 230.901211 227.892155 
L 234.018764 225.357849 
L 237.136316 222.823542 
L 240.253868 220.289236 
L 243.37142 217.754929 
L 246.488973 215.220622 
L 249.606525 212.686316 
L 252.724077 210.152009 
L 255.84163 207.617703 
L 258.959182 205.083396 
L 262.076734 202.54909 
L 265.194287 200.014783 
L 268.311839 197.480476 
L 271.429391 194.94617 
L 274.546944 192.411863 
L 277.664496 189.877557 
L 280.782048 187.34325 
L 283.8996 184.808944 
L 287.017153 182.274637 
L 290.134705 179.740331 
L 293.252257 177.206024 
L 296.36981 174.671717 
L 299.487362 172.137411 
L 302.604914 169.603104 
L 305.722467 167.068798 
L 308.840019 164.534491 
L 311.957571 162.000185 
L 315.075124 159.465878 
L 318.192676 156.931571 
L 321.310228 154.397265 
L 324.42778 151.862958 
L 327.545333 149.328652 
L 330.662885 146.794345 
L 333.780437 144.260039 
L 336.89799 141.725732 
L 340.015542 139.191426 
L 343.133094 136.657119 
L 346.250647 134.122812 
L 349.368199 131.588506 
L 352.485751 129.054199 
L 355.603304 126.519893 
" style="fill:none;stroke:#1f77b4;stroke-linecap:square;stroke-width:2.25;"/>
   </g>
   <g id="patch_3">
    <path d="M 46.965625 400.6 
L 46.965625 74.64 
" style="fill:none;stroke:#000000;stroke-linecap:square;stroke-linejoin:miter;stroke-width:0.8;"/>
   </g>
   <g id="patch_4">
    <path d="M 46.965625 400.6 
L 355.603304 400.6 
" style="fill:none;stroke:#000000;stroke-linecap:square;stroke-linejoin:miter;stroke-width:0.8;"/>
   </g>
  </g>
  <g id="axes_2">
   <g id="patch_5">
    <path d="M 46.965625 63.4 
L 355.603304 63.4 
L 355.603304 7.2 
L 46.965625 7.2 
z
" style="fill:#ffffff;"/>
   </g>
   <g id="patch_6">
    <path clip-path="url(#p5194929d9f)" d="M 46.965625 63.4 
L 75.023596 63.4 
L 75.023596 9.87619 
L 46.965625 9.87619 
z
" style="fill:#1f77b4;fill-opacity:0.5;stroke:#000000;stroke-linejoin:miter;"/>
   </g>
   <g id="patch_7">
    <path clip-path="url(#p5194929d9f)" d="M 75.023596 63.4 
L 103.081567 63.4 
L 103.081567 27.71746 
L 75.023596 27.71746 
z
" style="fill:#1f77b4;fill-opacity:0.5;stroke:#000000;stroke-linejoin:miter;"/>
   </g>
   <g id="patch_8">
    <path clip-path="url(#p5194929d9f)" d="M 103.081567 63.4 
L 131.139537 63.4 
L 131.139537 41.990476 
L 103.081567 41.990476 
z
" style="fill:#1f77b4;fill-opacity:0.5;stroke:#000000;stroke-linejoin:miter;"/>
   </g>
   <g id="patch_9">
    <path clip-path="url(#p5194929d9f)" d="M 131.139537 63.4 
L 159.197508 63.4 
L 159.197508 56.263492 
L 131.139537 56.263492 
z
" style="fill:#1f77b4;fill-opacity:0.5;stroke:#000000;stroke-linejoin:miter;"/>
   </g>
   <g id="patch_10">
    <path clip-path="url(#p5194929d9f)" d="M 159.197508 63.4 
L 187.255479 63.4 
L 187.255479 54.479365 
L 159.197508 54.479365 
z
" style="fill:#1f77b4;fill-opacity:0.5;stroke:#000000;stroke-linejoin:miter;"/>
   </g>
   <g id="patch_11">
    <path clip-path="url(#p5194929d9f)" d="M 187.255479 63.4 
L 215.31345 63.4 
L 215.31345 58.047619 
L 187.255479 58.047619 
z
" style="fill:#1f77b4;fill-opacity:0.5;stroke:#000000;stroke-linejoin:miter;"/>
   </g>
   <g id="patch_12">
    <path clip-path="url(#p5194929d9f)" d="M 215.31345 63.4 
L 243.37142 63.4 
L 243.37142 59.831746 
L 215.31345 59.831746 
z
" style="fill:#1f77b4;fill-opacity:0.5;stroke:#000000;stroke-linejoin:miter;"/>
   </g>
   <g id="patch_13">
    <path clip-path="url(#p5194929d9f)" d="M 243.37142 63.4 
L 271.429391 63.4 
L 271.429391 58.047619 
L 243.37142 58.047619 
z
" style="fill:#1f77b4;fill-opacity:0.5;stroke:#000000;stroke-linejoin:miter;"/>
   </g>
   <g id="patch_14">
    <path clip-path="url(#p5194929d9f)" d="M 271.429391 63.4 
L 299.487362 63.4 
L 299.487362 63.4 
L 271.429391 63.4 
z
" style="fill:#1f77b4;fill-opacity:0.5;stroke:#000000;stroke-linejoin:miter;"/>
   </g>
   <g id="patch_15">
    <path clip-path="url(#p5194929d9f)" d="M 299.487362 63.4 
L 327.545333 63.4 
L 327.545333 59.831746 
L 299.487362 59.831746 
z
" style="fill:#1f77b4;fill-opacity:0.5;stroke:#000000;stroke-linejoin:miter;"/>
   </g>
   <g id="patch_16">
    <path clip-path="url(#p5194929d9f)" d="M 327.545333 63.4 
L 355.603304 63.4 
L 355.603304 61.615873 
L 327.545333 61.615873 
z
" style="fill:#1f77b4;fill-opacity:0.5;stroke:#000000;stroke-linejoin:miter;"/>
   </g>
   <g id="matplotlib.axis_3">
    <g id="xtick_7">
     <g id="line2d_14">
      <g>
       <use style="stroke:#000000;stroke-width:0.8;" x="72.755379" xlink:href="#m44ab85ba86" y="63.4"/>
      </g>
     </g>
    </g>
    <g id="xtick_8">
     <g id="line2d_15">
      <g>
       <use style="stroke:#000000;stroke-width:0.8;" x="126.766448" xlink:href="#m44ab85ba86" y="63.4"/>
      </g>
     </g>
    </g>
    <g id="xtick_9">
     <g id="line2d_16">
      <g>
       <use style="stroke:#000000;stroke-width:0.8;" x="180.777516" xlink:href="#m44ab85ba86" y="63.4"/>
      </g>
     </g>
    </g>
    <g id="xtick_10">
     <g id="line2d_17">
      <g>
       <use style="stroke:#000000;stroke-width:0.8;" x="234.788585" xlink:href="#m44ab85ba86" y="63.4"/>
      </g>
     </g>
    </g>
    <g id="xtick_11">
     <g id="line2d_18">
      <g>
       <use style="stroke:#000000;stroke-width:0.8;" x="288.799653" xlink:href="#m44ab85ba86" y="63.4"/>
      </g>
     </g>
    </g>
    <g id="xtick_12">
     <g id="line2d_19">
      <g>
       <use style="stroke:#000000;stroke-width:0.8;" x="342.810722" xlink:href="#m44ab85ba86" y="63.4"/>
      </g>
     </g>
    </g>
   </g>
   <g id="matplotlib.axis_4">
    <g id="ytick_7"/>
    <g id="ytick_8"/>
   </g>
   <g id="line2d_20">
    <path clip-path="url(#p5194929d9f)" d="M 46.965625 38.925712 
L 51.618454 36.027294 
L 56.271284 33.431723 
L 59.37317 31.93128 
L 62.475056 30.651443 
L 65.576942 29.616785 
L 68.678829 28.8447 
L 71.780715 28.344824 
L 74.882601 28.118866 
L 77.984487 28.160852 
L 81.086373 28.457745 
L 84.18826 28.990384 
L 87.290146 29.734665 
L 90.392032 30.662863 
L 95.044861 32.334169 
L 99.697691 34.247965 
L 107.452406 37.710735 
L 116.758065 41.85967 
L 122.961837 44.412671 
L 129.16561 46.706053 
L 135.369382 48.707247 
L 141.573155 50.412081 
L 147.776927 51.836385 
L 153.980699 53.009353 
L 160.184472 53.96814 
L 167.939187 54.926915 
L 177.244846 55.824701 
L 189.652391 56.760448 
L 206.712765 57.7883 
L 225.324082 58.680211 
L 248.588229 59.544903 
L 292.014636 60.921866 
L 340.093872 62.117375 
L 355.603304 62.406651 
L 355.603304 62.406651 
" style="fill:none;stroke:#1f77b4;stroke-linecap:square;stroke-width:1.5;"/>
   </g>
   <g id="patch_17">
    <path d="M 46.965625 63.4 
L 355.603304 63.4 
" style="fill:none;stroke:#000000;stroke-linecap:square;stroke-linejoin:miter;stroke-width:0.8;"/>
   </g>
  </g>
  <g id="axes_3">
   <g id="patch_18">
    <path d="M 366.245982 400.6 
L 419.459375 400.6 
L 419.459375 74.64 
L 366.245982 74.64 
z
" style="fill:#ffffff;"/>
   </g>
   <g id="patch_19">
    <path clip-path="url(#p5adc2ec0ec)" d="M 366.245982 385.783636 
L 416.925404 385.783636 
L 416.925404 361.571252 
L 366.245982 361.571252 
z
" style="fill:#1f77b4;fill-opacity:0.5;stroke:#000000;stroke-linejoin:miter;"/>
   </g>
   <g id="patch_20">
    <path clip-path="url(#p5adc2ec0ec)" d="M 366.245982 361.571252 
L 401.331736 361.571252 
L 401.331736 337.358867 
L 366.245982 337.358867 
z
" style="fill:#1f77b4;fill-opacity:0.5;stroke:#000000;stroke-linejoin:miter;"/>
   </g>
   <g id="patch_21">
    <path clip-path="url(#p5adc2ec0ec)" d="M 366.245982 337.358867 
L 389.636484 337.358867 
L 389.636484 313.146482 
L 366.245982 313.146482 
z
" style="fill:#1f77b4;fill-opacity:0.5;stroke:#000000;stroke-linejoin:miter;"/>
   </g>
   <g id="patch_22">
    <path clip-path="url(#p5adc2ec0ec)" d="M 366.245982 313.146482 
L 385.738067 313.146482 
L 385.738067 288.934097 
L 366.245982 288.934097 
z
" style="fill:#1f77b4;fill-opacity:0.5;stroke:#000000;stroke-linejoin:miter;"/>
   </g>
   <g id="patch_23">
    <path clip-path="url(#p5adc2ec0ec)" d="M 366.245982 288.934097 
L 374.042816 288.934097 
L 374.042816 264.721712 
L 366.245982 264.721712 
z
" style="fill:#1f77b4;fill-opacity:0.5;stroke:#000000;stroke-linejoin:miter;"/>
   </g>
   <g id="patch_24">
    <path clip-path="url(#p5adc2ec0ec)" d="M 366.245982 264.721712 
L 374.042816 264.721712 
L 374.042816 240.509328 
L 366.245982 240.509328 
z
" style="fill:#1f77b4;fill-opacity:0.5;stroke:#000000;stroke-linejoin:miter;"/>
   </g>
   <g id="patch_25">
    <path clip-path="url(#p5adc2ec0ec)" d="M 366.245982 240.509328 
L 372.093608 240.509328 
L 372.093608 216.296943 
L 366.245982 216.296943 
z
" style="fill:#1f77b4;fill-opacity:0.5;stroke:#000000;stroke-linejoin:miter;"/>
   </g>
   <g id="patch_26">
    <path clip-path="url(#p5adc2ec0ec)" d="M 366.245982 216.296943 
L 368.195191 216.296943 
L 368.195191 192.084558 
L 366.245982 192.084558 
z
" style="fill:#1f77b4;fill-opacity:0.5;stroke:#000000;stroke-linejoin:miter;"/>
   </g>
   <g id="patch_27">
    <path clip-path="url(#p5adc2ec0ec)" d="M 366.245982 192.084558 
L 366.245982 192.084558 
L 366.245982 167.872173 
L 366.245982 167.872173 
z
" style="fill:#1f77b4;fill-opacity:0.5;stroke:#000000;stroke-linejoin:miter;"/>
   </g>
   <g id="patch_28">
    <path clip-path="url(#p5adc2ec0ec)" d="M 366.245982 167.872173 
L 366.245982 167.872173 
L 366.245982 143.659789 
L 366.245982 143.659789 
z
" style="fill:#1f77b4;fill-opacity:0.5;stroke:#000000;stroke-linejoin:miter;"/>
   </g>
   <g id="patch_29">
    <path clip-path="url(#p5adc2ec0ec)" d="M 366.245982 143.659789 
L 374.042816 143.659789 
L 374.042816 119.447404 
L 366.245982 119.447404 
z
" style="fill:#1f77b4;fill-opacity:0.5;stroke:#000000;stroke-linejoin:miter;"/>
   </g>
   <g id="matplotlib.axis_5">
    <g id="xtick_13"/>
    <g id="xtick_14"/>
   </g>
   <g id="matplotlib.axis_6">
    <g id="ytick_9">
     <g id="line2d_21">
      <g>
       <use style="stroke:#000000;stroke-width:0.8;" x="366.245982" xlink:href="#m10ba13f826" y="359.389956"/>
      </g>
     </g>
    </g>
    <g id="ytick_10">
     <g id="line2d_22">
      <g>
       <use style="stroke:#000000;stroke-width:0.8;" x="366.245982" xlink:href="#m10ba13f826" y="311.401445"/>
      </g>
     </g>
    </g>
    <g id="ytick_11">
     <g id="line2d_23">
      <g>
       <use style="stroke:#000000;stroke-width:0.8;" x="366.245982" xlink:href="#m10ba13f826" y="263.412935"/>
      </g>
     </g>
    </g>
    <g id="ytick_12">
     <g id="line2d_24">
      <g>
       <use style="stroke:#000000;stroke-width:0.8;" x="366.245982" xlink:href="#m10ba13f826" y="215.424425"/>
      </g>
     </g>
    </g>
    <g id="ytick_13">
     <g id="line2d_25">
      <g>
       <use style="stroke:#000000;stroke-width:0.8;" x="366.245982" xlink:href="#m10ba13f826" y="167.435914"/>
      </g>
     </g>
    </g>
    <g id="ytick_14">
     <g id="line2d_26">
      <g>
       <use style="stroke:#000000;stroke-width:0.8;" x="366.245982" xlink:href="#m10ba13f826" y="119.447404"/>
      </g>
     </g>
    </g>
   </g>
   <g id="line2d_27">
    <path clip-path="url(#p5adc2ec0ec)" d="M 388.729787 385.783636 
L 392.152364 380.430144 
L 394.461517 376.415025 
L 396.458596 372.399906 
L 397.584666 369.72316 
L 398.530411 367.046414 
L 399.287384 364.369668 
L 399.851949 361.692922 
L 400.225117 359.016176 
L 400.412161 356.33943 
L 400.422063 353.662684 
L 400.266838 350.985938 
L 399.756084 346.970819 
L 398.960084 342.955699 
L 397.934735 338.94058 
L 396.302451 333.587088 
L 393.987357 326.895223 
L 389.510646 314.849866 
L 385.116808 302.804509 
L 382.430868 294.77427 
L 380.419044 288.082405 
L 378.646821 281.39054 
L 377.119145 274.698675 
L 375.815302 268.00681 
L 374.490003 259.976572 
L 373.17098 250.607961 
L 371.349431 235.885857 
L 369.403428 218.487008 
L 368.272596 206.441651 
L 367.611467 197.073039 
L 367.241561 189.042801 
L 367.072814 181.012563 
L 367.10666 172.982325 
L 367.378104 163.613714 
L 367.984562 151.568357 
L 368.810111 135.50788 
L 369.014137 127.477642 
L 368.987558 119.447404 
L 368.987558 119.447404 
" style="fill:none;stroke:#1f77b4;stroke-linecap:square;stroke-width:1.5;"/>
   </g>
   <g id="patch_30">
    <path d="M 366.245982 400.6 
L 366.245982 74.64 
" style="fill:none;stroke:#000000;stroke-linecap:square;stroke-linejoin:miter;stroke-width:0.8;"/>
   </g>
  </g>
 </g>
 <defs>
  <clipPath id="p5503d0a846">
   <rect height="325.96" width="308.637679" x="46.965625" y="74.64"/>
  </clipPath>
  <clipPath id="p5194929d9f">
   <rect height="56.2" width="308.637679" x="46.965625" y="7.2"/>
  </clipPath>
  <clipPath id="p5adc2ec0ec">
   <rect height="325.96" width="53.213393" x="366.245982" y="74.64"/>
  </clipPath>
 </defs>
</svg>
