<?xml version="1.0" encoding="utf-8" standalone="no"?>
<!DOCTYPE svg PUBLIC "-//W3C//DTD SVG 1.1//EN"
  "http://www.w3.org/Graphics/SVG/1.1/DTD/svg11.dtd">
<!-- Created with matplotlib (https://matplotlib.org/) -->
<svg height="438.15625pt" version="1.1" viewBox="0 0 423.475 438.15625" width="423.475pt" xmlns="http://www.w3.org/2000/svg" xmlns:xlink="http://www.w3.org/1999/xlink">
 <metadata>
  <rdf:RDF xmlns:cc="http://creativecommons.org/ns#" xmlns:dc="http://purl.org/dc/elements/1.1/" xmlns:rdf="http://www.w3.org/1999/02/22-rdf-syntax-ns#">
   <cc:Work>
    <dc:type rdf:resource="http://purl.org/dc/dcmitype/StillImage"/>
    <dc:date>2021-01-06T16:14:38.340330</dc:date>
    <dc:format>image/svg+xml</dc:format>
    <dc:creator>
     <cc:Agent>
      <dc:title>Matplotlib v3.3.2, https://matplotlib.org/</dc:title>
     </cc:Agent>
    </dc:creator>
   </cc:Work>
  </rdf:RDF>
 </metadata>
 <defs>
  <style type="text/css">*{stroke-linecap:butt;stroke-linejoin:round;}</style>
 </defs>
 <g id="figure_1">
  <g id="patch_1">
   <path d="M 0 438.15625 
L 423.475 438.15625 
L 423.475 0 
L 0 0 
z
" style="fill:none;"/>
  </g>
  <g id="axes_1">
   <g id="patch_2">
    <path d="M 43.78125 400.6 
L 352.418929 400.6 
L 352.418929 74.64 
L 43.78125 74.64 
z
" style="fill:#ffffff;"/>
   </g>
   <g id="PathCollection_1">
    <defs>
     <path d="M 0 3 
C 0.795609 3 1.55874 2.683901 2.12132 2.12132 
C 2.683901 1.55874 3 0.795609 3 0 
C 3 -0.795609 2.683901 -1.55874 2.12132 -2.12132 
C 1.55874 -2.683901 0.795609 -3 0 -3 
C -0.795609 -3 -1.55874 -2.683901 -2.12132 -2.12132 
C -2.683901 -1.55874 -3 -0.795609 -3 0 
C -3 0.795609 -2.683901 1.55874 -2.12132 2.12132 
C -1.55874 2.683901 -0.795609 3 0 3 
z
" id="m2aa1d72a6c" style="stroke:#1f77b4;stroke-opacity:0.8;"/>
    </defs>
    <g clip-path="url(#p15fce416e7)">
     <use style="fill:#1f77b4;fill-opacity:0.8;stroke:#1f77b4;stroke-opacity:0.8;" x="132.62507" xlink:href="#m2aa1d72a6c" y="299.57086"/>
     <use style="fill:#1f77b4;fill-opacity:0.8;stroke:#1f77b4;stroke-opacity:0.8;" x="85.177207" xlink:href="#m2aa1d72a6c" y="374.408139"/>
     <use style="fill:#1f77b4;fill-opacity:0.8;stroke:#1f77b4;stroke-opacity:0.8;" x="135.820748" xlink:href="#m2aa1d72a6c" y="289.28047"/>
     <use style="fill:#1f77b4;fill-opacity:0.8;stroke:#1f77b4;stroke-opacity:0.8;" x="189.225755" xlink:href="#m2aa1d72a6c" y="239.150615"/>
     <use style="fill:#1f77b4;fill-opacity:0.8;stroke:#1f77b4;stroke-opacity:0.8;" x="155.124076" xlink:href="#m2aa1d72a6c" y="310.946358"/>
     <use style="fill:#1f77b4;fill-opacity:0.8;stroke:#1f77b4;stroke-opacity:0.8;" x="224.950216" xlink:href="#m2aa1d72a6c" y="248.825804"/>
     <use style="fill:#1f77b4;fill-opacity:0.8;stroke:#1f77b4;stroke-opacity:0.8;" x="151.068075" xlink:href="#m2aa1d72a6c" y="310.946358"/>
     <use style="fill:#1f77b4;fill-opacity:0.8;stroke:#1f77b4;stroke-opacity:0.8;" x="134.713818" xlink:href="#m2aa1d72a6c" y="310.946358"/>
     <use style="fill:#1f77b4;fill-opacity:0.8;stroke:#1f77b4;stroke-opacity:0.8;" x="63.68997" xlink:href="#m2aa1d72a6c" y="330.631137"/>
     <use style="fill:#1f77b4;fill-opacity:0.8;stroke:#1f77b4;stroke-opacity:0.8;" x="173.179141" xlink:href="#m2aa1d72a6c" y="323.663082"/>
     <use style="fill:#1f77b4;fill-opacity:0.8;stroke:#1f77b4;stroke-opacity:0.8;" x="88.648864" xlink:href="#m2aa1d72a6c" y="330.631137"/>
     <use style="fill:#1f77b4;fill-opacity:0.8;stroke:#1f77b4;stroke-opacity:0.8;" x="172.436614" xlink:href="#m2aa1d72a6c" y="224.733581"/>
     <use style="fill:#1f77b4;fill-opacity:0.8;stroke:#1f77b4;stroke-opacity:0.8;" x="167.93304" xlink:href="#m2aa1d72a6c" y="317.117601"/>
     <use style="fill:#1f77b4;fill-opacity:0.8;stroke:#1f77b4;stroke-opacity:0.8;" x="189.032485" xlink:href="#m2aa1d72a6c" y="263.242837"/>
     <use style="fill:#1f77b4;fill-opacity:0.8;stroke:#1f77b4;stroke-opacity:0.8;" x="91.943836" xlink:href="#m2aa1d72a6c" y="346.081359"/>
     <use style="fill:#1f77b4;fill-opacity:0.8;stroke:#1f77b4;stroke-opacity:0.8;" x="290.01277" xlink:href="#m2aa1d72a6c" y="190.350969"/>
     <use style="fill:#1f77b4;fill-opacity:0.8;stroke:#1f77b4;stroke-opacity:0.8;" x="152.359934" xlink:href="#m2aa1d72a6c" y="289.28047"/>
     <use style="fill:#1f77b4;fill-opacity:0.8;stroke:#1f77b4;stroke-opacity:0.8;" x="76.924363" xlink:href="#m2aa1d72a6c" y="374.408139"/>
     <use style="fill:#1f77b4;fill-opacity:0.8;stroke:#1f77b4;stroke-opacity:0.8;" x="92.573895" xlink:href="#m2aa1d72a6c" y="330.631137"/>
     <use style="fill:#1f77b4;fill-opacity:0.8;stroke:#1f77b4;stroke-opacity:0.8;" x="266.739637" xlink:href="#m2aa1d72a6c" y="164.313336"/>
     <use style="fill:#1f77b4;fill-opacity:0.8;stroke:#1f77b4;stroke-opacity:0.8;" x="74.872967" xlink:href="#m2aa1d72a6c" y="277.659871"/>
     <use style="fill:#1f77b4;fill-opacity:0.8;stroke:#1f77b4;stroke-opacity:0.8;" x="165.660542" xlink:href="#m2aa1d72a6c" y="323.663082"/>
     <use style="fill:#1f77b4;fill-opacity:0.8;stroke:#1f77b4;stroke-opacity:0.8;" x="289.275879" xlink:href="#m2aa1d72a6c" y="137.179578"/>
     <use style="fill:#1f77b4;fill-opacity:0.8;stroke:#1f77b4;stroke-opacity:0.8;" x="123.605504" xlink:href="#m2aa1d72a6c" y="310.946358"/>
     <use style="fill:#1f77b4;fill-opacity:0.8;stroke:#1f77b4;stroke-opacity:0.8;" x="204.160214" xlink:href="#m2aa1d72a6c" y="239.150615"/>
     <use style="fill:#1f77b4;fill-opacity:0.8;stroke:#1f77b4;stroke-opacity:0.8;" x="119.968318" xlink:href="#m2aa1d72a6c" y="330.631137"/>
     <use style="fill:#1f77b4;fill-opacity:0.8;stroke:#1f77b4;stroke-opacity:0.8;" x="138.461777" xlink:href="#m2aa1d72a6c" y="239.150615"/>
     <use style="fill:#1f77b4;fill-opacity:0.8;stroke:#1f77b4;stroke-opacity:0.8;" x="254.703421" xlink:href="#m2aa1d72a6c" y="180.95658"/>
     <use style="fill:#1f77b4;fill-opacity:0.8;stroke:#1f77b4;stroke-opacity:0.8;" x="142.53681" xlink:href="#m2aa1d72a6c" y="310.946358"/>
     <use style="fill:#1f77b4;fill-opacity:0.8;stroke:#1f77b4;stroke-opacity:0.8;" x="186.326532" xlink:href="#m2aa1d72a6c" y="245.503469"/>
     <use style="fill:#1f77b4;fill-opacity:0.8;stroke:#1f77b4;stroke-opacity:0.8;" x="128.505025" xlink:href="#m2aa1d72a6c" y="323.663082"/>
     <use style="fill:#1f77b4;fill-opacity:0.8;stroke:#1f77b4;stroke-opacity:0.8;" x="214.128887" xlink:href="#m2aa1d72a6c" y="248.825804"/>
     <use style="fill:#1f77b4;fill-opacity:0.8;stroke:#1f77b4;stroke-opacity:0.8;" x="80.540246" xlink:href="#m2aa1d72a6c" y="354.723359"/>
     <use style="fill:#1f77b4;fill-opacity:0.8;stroke:#1f77b4;stroke-opacity:0.8;" x="206.466951" xlink:href="#m2aa1d72a6c" y="190.350969"/>
     <use style="fill:#1f77b4;fill-opacity:0.8;stroke:#1f77b4;stroke-opacity:0.8;" x="239.399332" xlink:href="#m2aa1d72a6c" y="230.271583"/>
     <use style="fill:#1f77b4;fill-opacity:0.8;stroke:#1f77b4;stroke-opacity:0.8;" x="88.960455" xlink:href="#m2aa1d72a6c" y="354.723359"/>
     <use style="fill:#1f77b4;fill-opacity:0.8;stroke:#1f77b4;stroke-opacity:0.8;" x="153.022028" xlink:href="#m2aa1d72a6c" y="224.733581"/>
     <use style="fill:#1f77b4;fill-opacity:0.8;stroke:#1f77b4;stroke-opacity:0.8;" x="208.037592" xlink:href="#m2aa1d72a6c" y="224.733581"/>
     <use style="fill:#1f77b4;fill-opacity:0.8;stroke:#1f77b4;stroke-opacity:0.8;" x="133.953577" xlink:href="#m2aa1d72a6c" y="305.108862"/>
     <use style="fill:#1f77b4;fill-opacity:0.8;stroke:#1f77b4;stroke-opacity:0.8;" x="180.782547" xlink:href="#m2aa1d72a6c" y="255.793858"/>
     <use style="fill:#1f77b4;fill-opacity:0.8;stroke:#1f77b4;stroke-opacity:0.8;" x="222.518676" xlink:href="#m2aa1d72a6c" y="212.016857"/>
     <use style="fill:#1f77b4;fill-opacity:0.8;stroke:#1f77b4;stroke-opacity:0.8;" x="209.031836" xlink:href="#m2aa1d72a6c" y="230.271583"/>
     <use style="fill:#1f77b4;fill-opacity:0.8;stroke:#1f77b4;stroke-opacity:0.8;" x="98.662277" xlink:href="#m2aa1d72a6c" y="364.117749"/>
     <use style="fill:#1f77b4;fill-opacity:0.8;stroke:#1f77b4;stroke-opacity:0.8;" x="121.303267" xlink:href="#m2aa1d72a6c" y="299.57086"/>
     <use style="fill:#1f77b4;fill-opacity:0.8;stroke:#1f77b4;stroke-opacity:0.8;" x="135.637604" xlink:href="#m2aa1d72a6c" y="310.946358"/>
     <use style="fill:#1f77b4;fill-opacity:0.8;stroke:#1f77b4;stroke-opacity:0.8;" x="133.823725" xlink:href="#m2aa1d72a6c" y="310.946358"/>
     <use style="fill:#1f77b4;fill-opacity:0.8;stroke:#1f77b4;stroke-opacity:0.8;" x="249.046787" xlink:href="#m2aa1d72a6c" y="180.95658"/>
     <use style="fill:#1f77b4;fill-opacity:0.8;stroke:#1f77b4;stroke-opacity:0.8;" x="125.560307" xlink:href="#m2aa1d72a6c" y="299.57086"/>
     <use style="fill:#1f77b4;fill-opacity:0.8;stroke:#1f77b4;stroke-opacity:0.8;" x="130.717404" xlink:href="#m2aa1d72a6c" y="299.57086"/>
     <use style="fill:#1f77b4;fill-opacity:0.8;stroke:#1f77b4;stroke-opacity:0.8;" x="146.004763" xlink:href="#m2aa1d72a6c" y="263.242837"/>
     <use style="fill:#1f77b4;fill-opacity:0.8;stroke:#1f77b4;stroke-opacity:0.8;" x="195.617693" xlink:href="#m2aa1d72a6c" y="224.733581"/>
     <use style="fill:#1f77b4;fill-opacity:0.8;stroke:#1f77b4;stroke-opacity:0.8;" x="260.515152" xlink:href="#m2aa1d72a6c" y="180.95658"/>
     <use style="fill:#1f77b4;fill-opacity:0.8;stroke:#1f77b4;stroke-opacity:0.8;" x="172.847589" xlink:href="#m2aa1d72a6c" y="275.478637"/>
     <use style="fill:#1f77b4;fill-opacity:0.8;stroke:#1f77b4;stroke-opacity:0.8;" x="92.637056" xlink:href="#m2aa1d72a6c" y="374.408139"/>
     <use style="fill:#1f77b4;fill-opacity:0.8;stroke:#1f77b4;stroke-opacity:0.8;" x="96.472679" xlink:href="#m2aa1d72a6c" y="330.631137"/>
     <use style="fill:#1f77b4;fill-opacity:0.8;stroke:#1f77b4;stroke-opacity:0.8;" x="245.307674" xlink:href="#m2aa1d72a6c" y="224.733581"/>
     <use style="fill:#1f77b4;fill-opacity:0.8;stroke:#1f77b4;stroke-opacity:0.8;" x="185.036315" xlink:href="#m2aa1d72a6c" y="255.793858"/>
     <use style="fill:#1f77b4;fill-opacity:0.8;stroke:#1f77b4;stroke-opacity:0.8;" x="197.739896" xlink:href="#m2aa1d72a6c" y="239.150615"/>
     <use style="fill:#1f77b4;fill-opacity:0.8;stroke:#1f77b4;stroke-opacity:0.8;" x="156.704952" xlink:href="#m2aa1d72a6c" y="317.117601"/>
     <use style="fill:#1f77b4;fill-opacity:0.8;stroke:#1f77b4;stroke-opacity:0.8;" x="123.71938" xlink:href="#m2aa1d72a6c" y="330.631137"/>
     <use style="fill:#1f77b4;fill-opacity:0.8;stroke:#1f77b4;stroke-opacity:0.8;" x="115.832133" xlink:href="#m2aa1d72a6c" y="330.631137"/>
     <use style="fill:#1f77b4;fill-opacity:0.8;stroke:#1f77b4;stroke-opacity:0.8;" x="94.172911" xlink:href="#m2aa1d72a6c" y="354.723359"/>
     <use style="fill:#1f77b4;fill-opacity:0.8;stroke:#1f77b4;stroke-opacity:0.8;" x="264.360637" xlink:href="#m2aa1d72a6c" y="106.119301"/>
     <use style="fill:#1f77b4;fill-opacity:0.8;stroke:#1f77b4;stroke-opacity:0.8;" x="226.639105" xlink:href="#m2aa1d72a6c" y="263.242837"/>
     <use style="fill:#1f77b4;fill-opacity:0.8;stroke:#1f77b4;stroke-opacity:0.8;" x="118.792758" xlink:href="#m2aa1d72a6c" y="299.57086"/>
     <use style="fill:#1f77b4;fill-opacity:0.8;stroke:#1f77b4;stroke-opacity:0.8;" x="108.874987" xlink:href="#m2aa1d72a6c" y="230.271583"/>
     <use style="fill:#1f77b4;fill-opacity:0.8;stroke:#1f77b4;stroke-opacity:0.8;" x="43.78125" xlink:href="#m2aa1d72a6c" y="385.783636"/>
     <use style="fill:#1f77b4;fill-opacity:0.8;stroke:#1f77b4;stroke-opacity:0.8;" x="131.697944" xlink:href="#m2aa1d72a6c" y="299.57086"/>
     <use style="fill:#1f77b4;fill-opacity:0.8;stroke:#1f77b4;stroke-opacity:0.8;" x="168.877819" xlink:href="#m2aa1d72a6c" y="224.733581"/>
     <use style="fill:#1f77b4;fill-opacity:0.8;stroke:#1f77b4;stroke-opacity:0.8;" x="250.243999" xlink:href="#m2aa1d72a6c" y="200.641359"/>
     <use style="fill:#1f77b4;fill-opacity:0.8;stroke:#1f77b4;stroke-opacity:0.8;" x="227.130113" xlink:href="#m2aa1d72a6c" y="190.350969"/>
     <use style="fill:#1f77b4;fill-opacity:0.8;stroke:#1f77b4;stroke-opacity:0.8;" x="123.022263" xlink:href="#m2aa1d72a6c" y="239.150615"/>
     <use style="fill:#1f77b4;fill-opacity:0.8;stroke:#1f77b4;stroke-opacity:0.8;" x="197.546978" xlink:href="#m2aa1d72a6c" y="263.242837"/>
     <use style="fill:#1f77b4;fill-opacity:0.8;stroke:#1f77b4;stroke-opacity:0.8;" x="97.550673" xlink:href="#m2aa1d72a6c" y="330.631137"/>
     <use style="fill:#1f77b4;fill-opacity:0.8;stroke:#1f77b4;stroke-opacity:0.8;" x="138.643527" xlink:href="#m2aa1d72a6c" y="275.478637"/>
     <use style="fill:#1f77b4;fill-opacity:0.8;stroke:#1f77b4;stroke-opacity:0.8;" x="108.598041" xlink:href="#m2aa1d72a6c" y="323.663082"/>
     <use style="fill:#1f77b4;fill-opacity:0.8;stroke:#1f77b4;stroke-opacity:0.8;" x="143.680786" xlink:href="#m2aa1d72a6c" y="275.478637"/>
     <use style="fill:#1f77b4;fill-opacity:0.8;stroke:#1f77b4;stroke-opacity:0.8;" x="179.937153" xlink:href="#m2aa1d72a6c" y="255.793858"/>
     <use style="fill:#1f77b4;fill-opacity:0.8;stroke:#1f77b4;stroke-opacity:0.8;" x="78.984288" xlink:href="#m2aa1d72a6c" y="338.080116"/>
     <use style="fill:#1f77b4;fill-opacity:0.8;stroke:#1f77b4;stroke-opacity:0.8;" x="70.538127" xlink:href="#m2aa1d72a6c" y="299.57086"/>
     <use style="fill:#1f77b4;fill-opacity:0.8;stroke:#1f77b4;stroke-opacity:0.8;" x="243.70861" xlink:href="#m2aa1d72a6c" y="263.242837"/>
     <use style="fill:#1f77b4;fill-opacity:0.8;stroke:#1f77b4;stroke-opacity:0.8;" x="149.013704" xlink:href="#m2aa1d72a6c" y="255.793858"/>
     <use style="fill:#1f77b4;fill-opacity:0.8;stroke:#1f77b4;stroke-opacity:0.8;" x="226.835976" xlink:href="#m2aa1d72a6c" y="200.641359"/>
     <use style="fill:#1f77b4;fill-opacity:0.8;stroke:#1f77b4;stroke-opacity:0.8;" x="117.641669" xlink:href="#m2aa1d72a6c" y="330.631137"/>
     <use style="fill:#1f77b4;fill-opacity:0.8;stroke:#1f77b4;stroke-opacity:0.8;" x="150.411735" xlink:href="#m2aa1d72a6c" y="289.28047"/>
     <use style="fill:#1f77b4;fill-opacity:0.8;stroke:#1f77b4;stroke-opacity:0.8;" x="137.075492" xlink:href="#m2aa1d72a6c" y="310.946358"/>
     <use style="fill:#1f77b4;fill-opacity:0.8;stroke:#1f77b4;stroke-opacity:0.8;" x="226.511865" xlink:href="#m2aa1d72a6c" y="148.555076"/>
     <use style="fill:#1f77b4;fill-opacity:0.8;stroke:#1f77b4;stroke-opacity:0.8;" x="79.072118" xlink:href="#m2aa1d72a6c" y="346.081359"/>
     <use style="fill:#1f77b4;fill-opacity:0.8;stroke:#1f77b4;stroke-opacity:0.8;" x="114.529772" xlink:href="#m2aa1d72a6c" y="284.48113"/>
     <use style="fill:#1f77b4;fill-opacity:0.8;stroke:#1f77b4;stroke-opacity:0.8;" x="122.986859" xlink:href="#m2aa1d72a6c" y="310.946358"/>
     <use style="fill:#1f77b4;fill-opacity:0.8;stroke:#1f77b4;stroke-opacity:0.8;" x="327.942908" xlink:href="#m2aa1d72a6c" y="106.119301"/>
     <use style="fill:#1f77b4;fill-opacity:0.8;stroke:#1f77b4;stroke-opacity:0.8;" x="115.104381" xlink:href="#m2aa1d72a6c" y="338.080116"/>
     <use style="fill:#1f77b4;fill-opacity:0.8;stroke:#1f77b4;stroke-opacity:0.8;" x="140.071731" xlink:href="#m2aa1d72a6c" y="263.242837"/>
     <use style="fill:#1f77b4;fill-opacity:0.8;stroke:#1f77b4;stroke-opacity:0.8;" x="147.827588" xlink:href="#m2aa1d72a6c" y="255.793858"/>
     <use style="fill:#1f77b4;fill-opacity:0.8;stroke:#1f77b4;stroke-opacity:0.8;" x="217.596486" xlink:href="#m2aa1d72a6c" y="248.825804"/>
     <use style="fill:#1f77b4;fill-opacity:0.8;stroke:#1f77b4;stroke-opacity:0.8;" x="182.822183" xlink:href="#m2aa1d72a6c" y="233.150884"/>
     <use style="fill:#1f77b4;fill-opacity:0.8;stroke:#1f77b4;stroke-opacity:0.8;" x="106.60622" xlink:href="#m2aa1d72a6c" y="299.57086"/>
     <use style="fill:#1f77b4;fill-opacity:0.8;stroke:#1f77b4;stroke-opacity:0.8;" x="188.861387" xlink:href="#m2aa1d72a6c" y="212.016857"/>
     <use style="fill:#1f77b4;fill-opacity:0.8;stroke:#1f77b4;stroke-opacity:0.8;" x="180.180633" xlink:href="#m2aa1d72a6c" y="263.242837"/>
     <use style="fill:#1f77b4;fill-opacity:0.8;stroke:#1f77b4;stroke-opacity:0.8;" x="87.741019" xlink:href="#m2aa1d72a6c" y="299.57086"/>
     <use style="fill:#1f77b4;fill-opacity:0.8;stroke:#1f77b4;stroke-opacity:0.8;" x="149.338541" xlink:href="#m2aa1d72a6c" y="330.631137"/>
     <use style="fill:#1f77b4;fill-opacity:0.8;stroke:#1f77b4;stroke-opacity:0.8;" x="89.807741" xlink:href="#m2aa1d72a6c" y="354.723359"/>
     <use style="fill:#1f77b4;fill-opacity:0.8;stroke:#1f77b4;stroke-opacity:0.8;" x="159.979813" xlink:href="#m2aa1d72a6c" y="289.28047"/>
     <use style="fill:#1f77b4;fill-opacity:0.8;stroke:#1f77b4;stroke-opacity:0.8;" x="99.722173" xlink:href="#m2aa1d72a6c" y="330.631137"/>
     <use style="fill:#1f77b4;fill-opacity:0.8;stroke:#1f77b4;stroke-opacity:0.8;" x="165.952309" xlink:href="#m2aa1d72a6c" y="239.150615"/>
     <use style="fill:#1f77b4;fill-opacity:0.8;stroke:#1f77b4;stroke-opacity:0.8;" x="170.254836" xlink:href="#m2aa1d72a6c" y="299.57086"/>
     <use style="fill:#1f77b4;fill-opacity:0.8;stroke:#1f77b4;stroke-opacity:0.8;" x="128.059075" xlink:href="#m2aa1d72a6c" y="323.663082"/>
     <use style="fill:#1f77b4;fill-opacity:0.8;stroke:#1f77b4;stroke-opacity:0.8;" x="158.955278" xlink:href="#m2aa1d72a6c" y="239.150615"/>
     <use style="fill:#1f77b4;fill-opacity:0.8;stroke:#1f77b4;stroke-opacity:0.8;" x="153.175416" xlink:href="#m2aa1d72a6c" y="200.641359"/>
     <use style="fill:#1f77b4;fill-opacity:0.8;stroke:#1f77b4;stroke-opacity:0.8;" x="277.224506" xlink:href="#m2aa1d72a6c" y="149.896303"/>
     <use style="fill:#1f77b4;fill-opacity:0.8;stroke:#1f77b4;stroke-opacity:0.8;" x="146.904491" xlink:href="#m2aa1d72a6c" y="224.733581"/>
     <use style="fill:#1f77b4;fill-opacity:0.8;stroke:#1f77b4;stroke-opacity:0.8;" x="140.709565" xlink:href="#m2aa1d72a6c" y="284.48113"/>
     <use style="fill:#1f77b4;fill-opacity:0.8;stroke:#1f77b4;stroke-opacity:0.8;" x="72.245543" xlink:href="#m2aa1d72a6c" y="354.723359"/>
     <use style="fill:#1f77b4;fill-opacity:0.8;stroke:#1f77b4;stroke-opacity:0.8;" x="125.730585" xlink:href="#m2aa1d72a6c" y="330.631137"/>
     <use style="fill:#1f77b4;fill-opacity:0.8;stroke:#1f77b4;stroke-opacity:0.8;" x="207.601949" xlink:href="#m2aa1d72a6c" y="200.641359"/>
     <use style="fill:#1f77b4;fill-opacity:0.8;stroke:#1f77b4;stroke-opacity:0.8;" x="245.886621" xlink:href="#m2aa1d72a6c" y="212.016857"/>
     <use style="fill:#1f77b4;fill-opacity:0.8;stroke:#1f77b4;stroke-opacity:0.8;" x="120.411516" xlink:href="#m2aa1d72a6c" y="275.478637"/>
     <use style="fill:#1f77b4;fill-opacity:0.8;stroke:#1f77b4;stroke-opacity:0.8;" x="118.525481" xlink:href="#m2aa1d72a6c" y="299.57086"/>
     <use style="fill:#1f77b4;fill-opacity:0.8;stroke:#1f77b4;stroke-opacity:0.8;" x="90.915862" xlink:href="#m2aa1d72a6c" y="354.723359"/>
     <use style="fill:#1f77b4;fill-opacity:0.8;stroke:#1f77b4;stroke-opacity:0.8;" x="149.134489" xlink:href="#m2aa1d72a6c" y="248.825804"/>
     <use style="fill:#1f77b4;fill-opacity:0.8;stroke:#1f77b4;stroke-opacity:0.8;" x="126.557994" xlink:href="#m2aa1d72a6c" y="317.117601"/>
     <use style="fill:#1f77b4;fill-opacity:0.8;stroke:#1f77b4;stroke-opacity:0.8;" x="83.31343" xlink:href="#m2aa1d72a6c" y="369.140393"/>
     <use style="fill:#1f77b4;fill-opacity:0.8;stroke:#1f77b4;stroke-opacity:0.8;" x="172.575543" xlink:href="#m2aa1d72a6c" y="224.733581"/>
     <use style="fill:#1f77b4;fill-opacity:0.8;stroke:#1f77b4;stroke-opacity:0.8;" x="121.085162" xlink:href="#m2aa1d72a6c" y="310.946358"/>
     <use style="fill:#1f77b4;fill-opacity:0.8;stroke:#1f77b4;stroke-opacity:0.8;" x="328.897293" xlink:href="#m2aa1d72a6c" y="106.119301"/>
     <use style="fill:#1f77b4;fill-opacity:0.8;stroke:#1f77b4;stroke-opacity:0.8;" x="147.767459" xlink:href="#m2aa1d72a6c" y="275.478637"/>
     <use style="fill:#1f77b4;fill-opacity:0.8;stroke:#1f77b4;stroke-opacity:0.8;" x="132.632653" xlink:href="#m2aa1d72a6c" y="286.854135"/>
     <use style="fill:#1f77b4;fill-opacity:0.8;stroke:#1f77b4;stroke-opacity:0.8;" x="137.771726" xlink:href="#m2aa1d72a6c" y="374.408139"/>
     <use style="fill:#1f77b4;fill-opacity:0.8;stroke:#1f77b4;stroke-opacity:0.8;" x="74.765052" xlink:href="#m2aa1d72a6c" y="385.783636"/>
     <use style="fill:#1f77b4;fill-opacity:0.8;stroke:#1f77b4;stroke-opacity:0.8;" x="157.704304" xlink:href="#m2aa1d72a6c" y="310.946358"/>
     <use style="fill:#1f77b4;fill-opacity:0.8;stroke:#1f77b4;stroke-opacity:0.8;" x="201.427719" xlink:href="#m2aa1d72a6c" y="180.95658"/>
     <use style="fill:#1f77b4;fill-opacity:0.8;stroke:#1f77b4;stroke-opacity:0.8;" x="131.134687" xlink:href="#m2aa1d72a6c" y="275.478637"/>
     <use style="fill:#1f77b4;fill-opacity:0.8;stroke:#1f77b4;stroke-opacity:0.8;" x="239.658759" xlink:href="#m2aa1d72a6c" y="224.733581"/>
     <use style="fill:#1f77b4;fill-opacity:0.8;stroke:#1f77b4;stroke-opacity:0.8;" x="123.659036" xlink:href="#m2aa1d72a6c" y="323.663082"/>
     <use style="fill:#1f77b4;fill-opacity:0.8;stroke:#1f77b4;stroke-opacity:0.8;" x="154.195016" xlink:href="#m2aa1d72a6c" y="275.478637"/>
     <use style="fill:#1f77b4;fill-opacity:0.8;stroke:#1f77b4;stroke-opacity:0.8;" x="203.427028" xlink:href="#m2aa1d72a6c" y="224.733581"/>
     <use style="fill:#1f77b4;fill-opacity:0.8;stroke:#1f77b4;stroke-opacity:0.8;" x="158.043881" xlink:href="#m2aa1d72a6c" y="275.478637"/>
     <use style="fill:#1f77b4;fill-opacity:0.8;stroke:#1f77b4;stroke-opacity:0.8;" x="233.893433" xlink:href="#m2aa1d72a6c" y="172.314579"/>
     <use style="fill:#1f77b4;fill-opacity:0.8;stroke:#1f77b4;stroke-opacity:0.8;" x="252.000669" xlink:href="#m2aa1d72a6c" y="180.95658"/>
     <use style="fill:#1f77b4;fill-opacity:0.8;stroke:#1f77b4;stroke-opacity:0.8;" x="224.706595" xlink:href="#m2aa1d72a6c" y="224.733581"/>
     <use style="fill:#1f77b4;fill-opacity:0.8;stroke:#1f77b4;stroke-opacity:0.8;" x="137.569445" xlink:href="#m2aa1d72a6c" y="299.57086"/>
     <use style="fill:#1f77b4;fill-opacity:0.8;stroke:#1f77b4;stroke-opacity:0.8;" x="147.637922" xlink:href="#m2aa1d72a6c" y="263.242837"/>
     <use style="fill:#1f77b4;fill-opacity:0.8;stroke:#1f77b4;stroke-opacity:0.8;" x="340.032803" xlink:href="#m2aa1d72a6c" y="115.513691"/>
     <use style="fill:#1f77b4;fill-opacity:0.8;stroke:#1f77b4;stroke-opacity:0.8;" x="85.216648" xlink:href="#m2aa1d72a6c" y="275.478637"/>
     <use style="fill:#1f77b4;fill-opacity:0.8;stroke:#1f77b4;stroke-opacity:0.8;" x="229.586693" xlink:href="#m2aa1d72a6c" y="224.733581"/>
     <use style="fill:#1f77b4;fill-opacity:0.8;stroke:#1f77b4;stroke-opacity:0.8;" x="152.068791" xlink:href="#m2aa1d72a6c" y="284.48113"/>
     <use style="fill:#1f77b4;fill-opacity:0.8;stroke:#1f77b4;stroke-opacity:0.8;" x="156.915751" xlink:href="#m2aa1d72a6c" y="289.28047"/>
     <use style="fill:#1f77b4;fill-opacity:0.8;stroke:#1f77b4;stroke-opacity:0.8;" x="239.434222" xlink:href="#m2aa1d72a6c" y="180.95658"/>
     <use style="fill:#1f77b4;fill-opacity:0.8;stroke:#1f77b4;stroke-opacity:0.8;" x="132.836634" xlink:href="#m2aa1d72a6c" y="310.946358"/>
     <use style="fill:#1f77b4;fill-opacity:0.8;stroke:#1f77b4;stroke-opacity:0.8;" x="240.064929" xlink:href="#m2aa1d72a6c" y="205.048802"/>
     <use style="fill:#1f77b4;fill-opacity:0.8;stroke:#1f77b4;stroke-opacity:0.8;" x="265.709222" xlink:href="#m2aa1d72a6c" y="161.271801"/>
     <use style="fill:#1f77b4;fill-opacity:0.8;stroke:#1f77b4;stroke-opacity:0.8;" x="268.67716" xlink:href="#m2aa1d72a6c" y="173.988525"/>
     <use style="fill:#1f77b4;fill-opacity:0.8;stroke:#1f77b4;stroke-opacity:0.8;" x="147.728085" xlink:href="#m2aa1d72a6c" y="294.303114"/>
     <use style="fill:#1f77b4;fill-opacity:0.8;stroke:#1f77b4;stroke-opacity:0.8;" x="224.072996" xlink:href="#m2aa1d72a6c" y="200.641359"/>
     <use style="fill:#1f77b4;fill-opacity:0.8;stroke:#1f77b4;stroke-opacity:0.8;" x="352.418929" xlink:href="#m2aa1d72a6c" y="106.119301"/>
     <use style="fill:#1f77b4;fill-opacity:0.8;stroke:#1f77b4;stroke-opacity:0.8;" x="124.839301" xlink:href="#m2aa1d72a6c" y="248.825804"/>
     <use style="fill:#1f77b4;fill-opacity:0.8;stroke:#1f77b4;stroke-opacity:0.8;" x="189.779462" xlink:href="#m2aa1d72a6c" y="239.150615"/>
     <use style="fill:#1f77b4;fill-opacity:0.8;stroke:#1f77b4;stroke-opacity:0.8;" x="149.077824" xlink:href="#m2aa1d72a6c" y="299.57086"/>
     <use style="fill:#1f77b4;fill-opacity:0.8;stroke:#1f77b4;stroke-opacity:0.8;" x="156.837216" xlink:href="#m2aa1d72a6c" y="310.946358"/>
     <use style="fill:#1f77b4;fill-opacity:0.8;stroke:#1f77b4;stroke-opacity:0.8;" x="197.601913" xlink:href="#m2aa1d72a6c" y="310.946358"/>
     <use style="fill:#1f77b4;fill-opacity:0.8;stroke:#1f77b4;stroke-opacity:0.8;" x="229.030689" xlink:href="#m2aa1d72a6c" y="263.242837"/>
     <use style="fill:#1f77b4;fill-opacity:0.8;stroke:#1f77b4;stroke-opacity:0.8;" x="152.362512" xlink:href="#m2aa1d72a6c" y="299.57086"/>
     <use style="fill:#1f77b4;fill-opacity:0.8;stroke:#1f77b4;stroke-opacity:0.8;" x="127.40665" xlink:href="#m2aa1d72a6c" y="317.117601"/>
     <use style="fill:#1f77b4;fill-opacity:0.8;stroke:#1f77b4;stroke-opacity:0.8;" x="198.632887" xlink:href="#m2aa1d72a6c" y="255.793858"/>
     <use style="fill:#1f77b4;fill-opacity:0.8;stroke:#1f77b4;stroke-opacity:0.8;" x="96.890431" xlink:href="#m2aa1d72a6c" y="299.57086"/>
     <use style="fill:#1f77b4;fill-opacity:0.8;stroke:#1f77b4;stroke-opacity:0.8;" x="256.182578" xlink:href="#m2aa1d72a6c" y="224.733581"/>
     <use style="fill:#1f77b4;fill-opacity:0.8;stroke:#1f77b4;stroke-opacity:0.8;" x="62.054599" xlink:href="#m2aa1d72a6c" y="330.631137"/>
     <use style="fill:#1f77b4;fill-opacity:0.8;stroke:#1f77b4;stroke-opacity:0.8;" x="104.458367" xlink:href="#m2aa1d72a6c" y="313.987893"/>
     <use style="fill:#1f77b4;fill-opacity:0.8;stroke:#1f77b4;stroke-opacity:0.8;" x="133.199921" xlink:href="#m2aa1d72a6c" y="200.641359"/>
     <use style="fill:#1f77b4;fill-opacity:0.8;stroke:#1f77b4;stroke-opacity:0.8;" x="241.200405" xlink:href="#m2aa1d72a6c" y="164.313336"/>
     <use style="fill:#1f77b4;fill-opacity:0.8;stroke:#1f77b4;stroke-opacity:0.8;" x="86.562361" xlink:href="#m2aa1d72a6c" y="354.723359"/>
     <use style="fill:#1f77b4;fill-opacity:0.8;stroke:#1f77b4;stroke-opacity:0.8;" x="93.845304" xlink:href="#m2aa1d72a6c" y="310.946358"/>
     <use style="fill:#1f77b4;fill-opacity:0.8;stroke:#1f77b4;stroke-opacity:0.8;" x="138.22653" xlink:href="#m2aa1d72a6c" y="200.641359"/>
     <use style="fill:#1f77b4;fill-opacity:0.8;stroke:#1f77b4;stroke-opacity:0.8;" x="124.462213" xlink:href="#m2aa1d72a6c" y="275.478637"/>
     <use style="fill:#1f77b4;fill-opacity:0.8;stroke:#1f77b4;stroke-opacity:0.8;" x="232.925527" xlink:href="#m2aa1d72a6c" y="212.016857"/>
     <use style="fill:#1f77b4;fill-opacity:0.8;stroke:#1f77b4;stroke-opacity:0.8;" x="227.367819" xlink:href="#m2aa1d72a6c" y="200.641359"/>
     <use style="fill:#1f77b4;fill-opacity:0.8;stroke:#1f77b4;stroke-opacity:0.8;" x="94.963403" xlink:href="#m2aa1d72a6c" y="299.57086"/>
     <use style="fill:#1f77b4;fill-opacity:0.8;stroke:#1f77b4;stroke-opacity:0.8;" x="134.350167" xlink:href="#m2aa1d72a6c" y="299.57086"/>
     <use style="fill:#1f77b4;fill-opacity:0.8;stroke:#1f77b4;stroke-opacity:0.8;" x="164.021572" xlink:href="#m2aa1d72a6c" y="255.793858"/>
     <use style="fill:#1f77b4;fill-opacity:0.8;stroke:#1f77b4;stroke-opacity:0.8;" x="136.572324" xlink:href="#m2aa1d72a6c" y="317.117601"/>
     <use style="fill:#1f77b4;fill-opacity:0.8;stroke:#1f77b4;stroke-opacity:0.8;" x="145.6453" xlink:href="#m2aa1d72a6c" y="330.631137"/>
     <use style="fill:#1f77b4;fill-opacity:0.8;stroke:#1f77b4;stroke-opacity:0.8;" x="248.861041" xlink:href="#m2aa1d72a6c" y="200.641359"/>
     <use style="fill:#1f77b4;fill-opacity:0.8;stroke:#1f77b4;stroke-opacity:0.8;" x="118.507258" xlink:href="#m2aa1d72a6c" y="330.631137"/>
     <use style="fill:#1f77b4;fill-opacity:0.8;stroke:#1f77b4;stroke-opacity:0.8;" x="97.512446" xlink:href="#m2aa1d72a6c" y="346.081359"/>
     <use style="fill:#1f77b4;fill-opacity:0.8;stroke:#1f77b4;stroke-opacity:0.8;" x="140.829056" xlink:href="#m2aa1d72a6c" y="275.478637"/>
     <use style="fill:#1f77b4;fill-opacity:0.8;stroke:#1f77b4;stroke-opacity:0.8;" x="166.850009" xlink:href="#m2aa1d72a6c" y="224.733581"/>
    </g>
   </g>
   <g id="PolyCollection_1">
    <path clip-path="url(#p15fce416e7)" d="M 43.78125 364.250583 
L 43.78125 382.530561 
L 46.898802 379.542942 
L 50.016355 376.590486 
L 53.133907 373.680338 
L 56.251459 370.77019 
L 59.369012 367.881679 
L 62.486564 364.983154 
L 65.604116 362.097655 
L 68.721668 359.218025 
L 71.839221 356.25111 
L 74.956773 353.348655 
L 78.074325 350.52648 
L 81.191878 347.704305 
L 84.30943 344.777617 
L 87.426982 341.834512 
L 90.544535 338.958053 
L 93.662087 336.067673 
L 96.779639 333.243894 
L 99.897192 330.379428 
L 103.014744 327.527143 
L 106.132296 324.658689 
L 109.249848 321.709623 
L 112.367401 318.862219 
L 115.484953 315.961703 
L 118.602505 313.161702 
L 121.720058 310.360279 
L 124.83761 307.482481 
L 127.955162 304.648384 
L 131.072715 301.891908 
L 134.190267 299.121312 
L 137.307819 296.447622 
L 140.425372 293.712416 
L 143.542924 290.892302 
L 146.660476 288.069058 
L 149.778028 285.329629 
L 152.895581 282.532564 
L 156.013133 279.719643 
L 159.130685 276.929026 
L 162.248238 274.263798 
L 165.36579 271.543803 
L 168.483342 268.769307 
L 171.600895 266.063494 
L 174.718447 263.330516 
L 177.835999 260.636691 
L 180.953552 257.989212 
L 184.071104 255.435051 
L 187.188656 252.701757 
L 190.306209 250.007096 
L 193.423761 247.414081 
L 196.541313 244.847582 
L 199.658865 242.192499 
L 202.776418 239.618475 
L 205.89397 236.97012 
L 209.011522 234.31857 
L 212.129075 231.644929 
L 215.246627 229.02036 
L 218.364179 226.369637 
L 221.481732 223.740484 
L 224.599284 221.141789 
L 227.716836 218.441115 
L 230.834389 215.851286 
L 233.951941 213.261505 
L 237.069493 210.671723 
L 240.187045 208.081942 
L 243.304598 205.493564 
L 246.42215 202.872302 
L 249.539702 200.199677 
L 252.657255 197.601121 
L 255.774807 195.019637 
L 258.892359 192.452792 
L 262.009912 189.903404 
L 265.127464 187.373303 
L 268.245016 184.786578 
L 271.362569 182.245859 
L 274.480121 179.712517 
L 277.597673 177.16036 
L 280.715225 174.523848 
L 283.832778 171.913196 
L 286.95033 169.37793 
L 290.067882 166.860027 
L 293.185435 164.37384 
L 296.302987 161.887652 
L 299.420539 159.401465 
L 302.538092 156.915277 
L 305.655644 154.384374 
L 308.773196 151.85297 
L 311.890749 149.3213 
L 315.008301 146.788245 
L 318.125853 144.255189 
L 321.243405 141.722134 
L 324.360958 139.188921 
L 327.47851 136.595318 
L 330.596062 133.993307 
L 333.713615 131.390724 
L 336.831167 128.808595 
L 339.948719 126.272107 
L 343.066272 123.745282 
L 346.183824 121.236765 
L 349.301376 118.731184 
L 352.418929 116.224971 
L 352.418929 89.456364 
L 352.418929 89.456364 
L 349.301376 92.380475 
L 346.183824 95.315334 
L 343.066272 98.234541 
L 339.948719 101.153748 
L 336.831167 104.072955 
L 333.713615 106.992162 
L 330.596062 109.91157 
L 327.47851 112.831618 
L 324.360958 115.751666 
L 321.243405 118.671714 
L 318.125853 121.591762 
L 315.008301 124.531848 
L 311.890749 127.473169 
L 308.773196 130.41449 
L 305.655644 133.355812 
L 302.538092 136.297133 
L 299.420539 139.238455 
L 296.302987 142.179776 
L 293.185435 145.121098 
L 290.067882 148.062419 
L 286.95033 150.987935 
L 283.832778 153.908967 
L 280.715225 156.829999 
L 277.597673 159.751031 
L 274.480121 162.58694 
L 271.362569 165.404164 
L 268.245016 168.30373 
L 265.127464 171.141041 
L 262.009912 173.959552 
L 258.892359 176.814173 
L 255.774807 179.653809 
L 252.657255 182.576058 
L 249.539702 185.591501 
L 246.42215 188.479881 
L 243.304598 191.523532 
L 240.187045 194.465331 
L 237.069493 197.334062 
L 233.951941 200.199865 
L 230.834389 202.952534 
L 227.716836 205.846714 
L 224.599284 208.82104 
L 221.481732 211.656781 
L 218.364179 214.511044 
L 215.246627 217.41808 
L 212.129075 220.293036 
L 209.011522 223.23392 
L 205.89397 226.069944 
L 202.776418 228.880713 
L 199.658865 231.780683 
L 196.541313 234.67308 
L 193.423761 237.478181 
L 190.306209 240.347556 
L 187.188656 243.000731 
L 184.071104 245.79402 
L 180.953552 248.565954 
L 177.835999 251.382428 
L 174.718447 254.155735 
L 171.600895 256.853799 
L 168.483342 259.561821 
L 165.36579 262.272397 
L 162.248238 265.153027 
L 159.130685 267.709943 
L 156.013133 270.478254 
L 152.895581 273.200057 
L 149.778028 275.819004 
L 146.660476 278.559741 
L 143.542924 281.157705 
L 140.425372 283.754125 
L 137.307819 286.464186 
L 134.190267 289.100951 
L 131.072715 291.715891 
L 127.955162 294.363772 
L 124.83761 297.027993 
L 121.720058 299.663579 
L 118.602505 302.352959 
L 115.484953 304.96455 
L 112.367401 307.612191 
L 109.249848 310.261159 
L 106.132296 312.907006 
L 103.014744 315.399908 
L 99.897192 318.04738 
L 96.779639 320.703388 
L 93.662087 323.29763 
L 90.544535 325.839893 
L 87.426982 328.378722 
L 84.30943 330.864818 
L 81.191878 333.406351 
L 78.074325 335.90008 
L 74.956773 338.465357 
L 71.839221 341.003641 
L 68.721668 343.57162 
L 65.604116 346.140929 
L 62.486564 348.710861 
L 59.369012 351.292107 
L 56.251459 353.988398 
L 53.133907 356.685014 
L 50.016355 359.206987 
L 46.898802 361.714291 
L 43.78125 364.250583 
z
" style="fill:#1f77b4;fill-opacity:0.15;"/>
   </g>
   <g id="matplotlib.axis_1">
    <g id="xtick_1">
     <g id="line2d_1">
      <defs>
       <path d="M 0 0 
L 0 3.5 
" id="m6c0681d303" style="stroke:#000000;stroke-width:0.8;"/>
      </defs>
      <g>
       <use style="stroke:#000000;stroke-width:0.8;" x="68.558125" xlink:href="#m6c0681d303" y="400.6"/>
      </g>
     </g>
     <g id="text_1">
      <!-- 2.5 -->
      <g transform="translate(60.606562 415.198437)scale(0.1 -0.1)">
       <defs>
        <path d="M 19.1875 8.296875 
L 53.609375 8.296875 
L 53.609375 0 
L 7.328125 0 
L 7.328125 8.296875 
Q 12.9375 14.109375 22.625 23.890625 
Q 32.328125 33.6875 34.8125 36.53125 
Q 39.546875 41.84375 41.421875 45.53125 
Q 43.3125 49.21875 43.3125 52.78125 
Q 43.3125 58.59375 39.234375 62.25 
Q 35.15625 65.921875 28.609375 65.921875 
Q 23.96875 65.921875 18.8125 64.3125 
Q 13.671875 62.703125 7.8125 59.421875 
L 7.8125 69.390625 
Q 13.765625 71.78125 18.9375 73 
Q 24.125 74.21875 28.421875 74.21875 
Q 39.75 74.21875 46.484375 68.546875 
Q 53.21875 62.890625 53.21875 53.421875 
Q 53.21875 48.921875 51.53125 44.890625 
Q 49.859375 40.875 45.40625 35.40625 
Q 44.1875 33.984375 37.640625 27.21875 
Q 31.109375 20.453125 19.1875 8.296875 
z
" id="DejaVuSans-50"/>
        <path d="M 10.6875 12.40625 
L 21 12.40625 
L 21 0 
L 10.6875 0 
z
" id="DejaVuSans-46"/>
        <path d="M 10.796875 72.90625 
L 49.515625 72.90625 
L 49.515625 64.59375 
L 19.828125 64.59375 
L 19.828125 46.734375 
Q 21.96875 47.46875 24.109375 47.828125 
Q 26.265625 48.1875 28.421875 48.1875 
Q 40.625 48.1875 47.75 41.5 
Q 54.890625 34.8125 54.890625 23.390625 
Q 54.890625 11.625 47.5625 5.09375 
Q 40.234375 -1.421875 26.90625 -1.421875 
Q 22.3125 -1.421875 17.546875 -0.640625 
Q 12.796875 0.140625 7.71875 1.703125 
L 7.71875 11.625 
Q 12.109375 9.234375 16.796875 8.0625 
Q 21.484375 6.890625 26.703125 6.890625 
Q 35.15625 6.890625 40.078125 11.328125 
Q 45.015625 15.765625 45.015625 23.390625 
Q 45.015625 31 40.078125 35.4375 
Q 35.15625 39.890625 26.703125 39.890625 
Q 22.75 39.890625 18.8125 39.015625 
Q 14.890625 38.140625 10.796875 36.28125 
z
" id="DejaVuSans-53"/>
       </defs>
       <use xlink:href="#DejaVuSans-50"/>
       <use x="63.623047" xlink:href="#DejaVuSans-46"/>
       <use x="95.410156" xlink:href="#DejaVuSans-53"/>
      </g>
     </g>
    </g>
    <g id="xtick_2">
     <g id="line2d_2">
      <g>
       <use style="stroke:#000000;stroke-width:0.8;" x="129.64585" xlink:href="#m6c0681d303" y="400.6"/>
      </g>
     </g>
     <g id="text_2">
      <!-- 3.0 -->
      <g transform="translate(121.694288 415.198437)scale(0.1 -0.1)">
       <defs>
        <path d="M 40.578125 39.3125 
Q 47.65625 37.796875 51.625 33 
Q 55.609375 28.21875 55.609375 21.1875 
Q 55.609375 10.40625 48.1875 4.484375 
Q 40.765625 -1.421875 27.09375 -1.421875 
Q 22.515625 -1.421875 17.65625 -0.515625 
Q 12.796875 0.390625 7.625 2.203125 
L 7.625 11.71875 
Q 11.71875 9.328125 16.59375 8.109375 
Q 21.484375 6.890625 26.8125 6.890625 
Q 36.078125 6.890625 40.9375 10.546875 
Q 45.796875 14.203125 45.796875 21.1875 
Q 45.796875 27.640625 41.28125 31.265625 
Q 36.765625 34.90625 28.71875 34.90625 
L 20.21875 34.90625 
L 20.21875 43.015625 
L 29.109375 43.015625 
Q 36.375 43.015625 40.234375 45.921875 
Q 44.09375 48.828125 44.09375 54.296875 
Q 44.09375 59.90625 40.109375 62.90625 
Q 36.140625 65.921875 28.71875 65.921875 
Q 24.65625 65.921875 20.015625 65.03125 
Q 15.375 64.15625 9.8125 62.3125 
L 9.8125 71.09375 
Q 15.4375 72.65625 20.34375 73.4375 
Q 25.25 74.21875 29.59375 74.21875 
Q 40.828125 74.21875 47.359375 69.109375 
Q 53.90625 64.015625 53.90625 55.328125 
Q 53.90625 49.265625 50.4375 45.09375 
Q 46.96875 40.921875 40.578125 39.3125 
z
" id="DejaVuSans-51"/>
        <path d="M 31.78125 66.40625 
Q 24.171875 66.40625 20.328125 58.90625 
Q 16.5 51.421875 16.5 36.375 
Q 16.5 21.390625 20.328125 13.890625 
Q 24.171875 6.390625 31.78125 6.390625 
Q 39.453125 6.390625 43.28125 13.890625 
Q 47.125 21.390625 47.125 36.375 
Q 47.125 51.421875 43.28125 58.90625 
Q 39.453125 66.40625 31.78125 66.40625 
z
M 31.78125 74.21875 
Q 44.046875 74.21875 50.515625 64.515625 
Q 56.984375 54.828125 56.984375 36.375 
Q 56.984375 17.96875 50.515625 8.265625 
Q 44.046875 -1.421875 31.78125 -1.421875 
Q 19.53125 -1.421875 13.0625 8.265625 
Q 6.59375 17.96875 6.59375 36.375 
Q 6.59375 54.828125 13.0625 64.515625 
Q 19.53125 74.21875 31.78125 74.21875 
z
" id="DejaVuSans-48"/>
       </defs>
       <use xlink:href="#DejaVuSans-51"/>
       <use x="63.623047" xlink:href="#DejaVuSans-46"/>
       <use x="95.410156" xlink:href="#DejaVuSans-48"/>
      </g>
     </g>
    </g>
    <g id="xtick_3">
     <g id="line2d_3">
      <g>
       <use style="stroke:#000000;stroke-width:0.8;" x="190.733575" xlink:href="#m6c0681d303" y="400.6"/>
      </g>
     </g>
     <g id="text_3">
      <!-- 3.5 -->
      <g transform="translate(182.782013 415.198437)scale(0.1 -0.1)">
       <use xlink:href="#DejaVuSans-51"/>
       <use x="63.623047" xlink:href="#DejaVuSans-46"/>
       <use x="95.410156" xlink:href="#DejaVuSans-53"/>
      </g>
     </g>
    </g>
    <g id="xtick_4">
     <g id="line2d_4">
      <g>
       <use style="stroke:#000000;stroke-width:0.8;" x="251.821301" xlink:href="#m6c0681d303" y="400.6"/>
      </g>
     </g>
     <g id="text_4">
      <!-- 4.0 -->
      <g transform="translate(243.869738 415.198437)scale(0.1 -0.1)">
       <defs>
        <path d="M 37.796875 64.3125 
L 12.890625 25.390625 
L 37.796875 25.390625 
z
M 35.203125 72.90625 
L 47.609375 72.90625 
L 47.609375 25.390625 
L 58.015625 25.390625 
L 58.015625 17.1875 
L 47.609375 17.1875 
L 47.609375 0 
L 37.796875 0 
L 37.796875 17.1875 
L 4.890625 17.1875 
L 4.890625 26.703125 
z
" id="DejaVuSans-52"/>
       </defs>
       <use xlink:href="#DejaVuSans-52"/>
       <use x="63.623047" xlink:href="#DejaVuSans-46"/>
       <use x="95.410156" xlink:href="#DejaVuSans-48"/>
      </g>
     </g>
    </g>
    <g id="xtick_5">
     <g id="line2d_5">
      <g>
       <use style="stroke:#000000;stroke-width:0.8;" x="312.909026" xlink:href="#m6c0681d303" y="400.6"/>
      </g>
     </g>
     <g id="text_5">
      <!-- 4.5 -->
      <g transform="translate(304.957464 415.198437)scale(0.1 -0.1)">
       <use xlink:href="#DejaVuSans-52"/>
       <use x="63.623047" xlink:href="#DejaVuSans-46"/>
       <use x="95.410156" xlink:href="#DejaVuSans-53"/>
      </g>
     </g>
    </g>
    <g id="text_6">
     <!-- Predicted Values -->
     <g transform="translate(156.704777 428.876562)scale(0.1 -0.1)">
      <defs>
       <path d="M 19.671875 64.796875 
L 19.671875 37.40625 
L 32.078125 37.40625 
Q 38.96875 37.40625 42.71875 40.96875 
Q 46.484375 44.53125 46.484375 51.125 
Q 46.484375 57.671875 42.71875 61.234375 
Q 38.96875 64.796875 32.078125 64.796875 
z
M 9.8125 72.90625 
L 32.078125 72.90625 
Q 44.34375 72.90625 50.609375 67.359375 
Q 56.890625 61.8125 56.890625 51.125 
Q 56.890625 40.328125 50.609375 34.8125 
Q 44.34375 29.296875 32.078125 29.296875 
L 19.671875 29.296875 
L 19.671875 0 
L 9.8125 0 
z
" id="DejaVuSans-80"/>
       <path d="M 41.109375 46.296875 
Q 39.59375 47.171875 37.8125 47.578125 
Q 36.03125 48 33.890625 48 
Q 26.265625 48 22.1875 43.046875 
Q 18.109375 38.09375 18.109375 28.8125 
L 18.109375 0 
L 9.078125 0 
L 9.078125 54.6875 
L 18.109375 54.6875 
L 18.109375 46.1875 
Q 20.953125 51.171875 25.484375 53.578125 
Q 30.03125 56 36.53125 56 
Q 37.453125 56 38.578125 55.875 
Q 39.703125 55.765625 41.0625 55.515625 
z
" id="DejaVuSans-114"/>
       <path d="M 56.203125 29.59375 
L 56.203125 25.203125 
L 14.890625 25.203125 
Q 15.484375 15.921875 20.484375 11.0625 
Q 25.484375 6.203125 34.421875 6.203125 
Q 39.59375 6.203125 44.453125 7.46875 
Q 49.3125 8.734375 54.109375 11.28125 
L 54.109375 2.78125 
Q 49.265625 0.734375 44.1875 -0.34375 
Q 39.109375 -1.421875 33.890625 -1.421875 
Q 20.796875 -1.421875 13.15625 6.1875 
Q 5.515625 13.8125 5.515625 26.8125 
Q 5.515625 40.234375 12.765625 48.109375 
Q 20.015625 56 32.328125 56 
Q 43.359375 56 49.78125 48.890625 
Q 56.203125 41.796875 56.203125 29.59375 
z
M 47.21875 32.234375 
Q 47.125 39.59375 43.09375 43.984375 
Q 39.0625 48.390625 32.421875 48.390625 
Q 24.90625 48.390625 20.390625 44.140625 
Q 15.875 39.890625 15.1875 32.171875 
z
" id="DejaVuSans-101"/>
       <path d="M 45.40625 46.390625 
L 45.40625 75.984375 
L 54.390625 75.984375 
L 54.390625 0 
L 45.40625 0 
L 45.40625 8.203125 
Q 42.578125 3.328125 38.25 0.953125 
Q 33.9375 -1.421875 27.875 -1.421875 
Q 17.96875 -1.421875 11.734375 6.484375 
Q 5.515625 14.40625 5.515625 27.296875 
Q 5.515625 40.1875 11.734375 48.09375 
Q 17.96875 56 27.875 56 
Q 33.9375 56 38.25 53.625 
Q 42.578125 51.265625 45.40625 46.390625 
z
M 14.796875 27.296875 
Q 14.796875 17.390625 18.875 11.75 
Q 22.953125 6.109375 30.078125 6.109375 
Q 37.203125 6.109375 41.296875 11.75 
Q 45.40625 17.390625 45.40625 27.296875 
Q 45.40625 37.203125 41.296875 42.84375 
Q 37.203125 48.484375 30.078125 48.484375 
Q 22.953125 48.484375 18.875 42.84375 
Q 14.796875 37.203125 14.796875 27.296875 
z
" id="DejaVuSans-100"/>
       <path d="M 9.421875 54.6875 
L 18.40625 54.6875 
L 18.40625 0 
L 9.421875 0 
z
M 9.421875 75.984375 
L 18.40625 75.984375 
L 18.40625 64.59375 
L 9.421875 64.59375 
z
" id="DejaVuSans-105"/>
       <path d="M 48.78125 52.59375 
L 48.78125 44.1875 
Q 44.96875 46.296875 41.140625 47.34375 
Q 37.3125 48.390625 33.40625 48.390625 
Q 24.65625 48.390625 19.8125 42.84375 
Q 14.984375 37.3125 14.984375 27.296875 
Q 14.984375 17.28125 19.8125 11.734375 
Q 24.65625 6.203125 33.40625 6.203125 
Q 37.3125 6.203125 41.140625 7.25 
Q 44.96875 8.296875 48.78125 10.40625 
L 48.78125 2.09375 
Q 45.015625 0.34375 40.984375 -0.53125 
Q 36.96875 -1.421875 32.421875 -1.421875 
Q 20.0625 -1.421875 12.78125 6.34375 
Q 5.515625 14.109375 5.515625 27.296875 
Q 5.515625 40.671875 12.859375 48.328125 
Q 20.21875 56 33.015625 56 
Q 37.15625 56 41.109375 55.140625 
Q 45.0625 54.296875 48.78125 52.59375 
z
" id="DejaVuSans-99"/>
       <path d="M 18.3125 70.21875 
L 18.3125 54.6875 
L 36.8125 54.6875 
L 36.8125 47.703125 
L 18.3125 47.703125 
L 18.3125 18.015625 
Q 18.3125 11.328125 20.140625 9.421875 
Q 21.96875 7.515625 27.59375 7.515625 
L 36.8125 7.515625 
L 36.8125 0 
L 27.59375 0 
Q 17.1875 0 13.234375 3.875 
Q 9.28125 7.765625 9.28125 18.015625 
L 9.28125 47.703125 
L 2.6875 47.703125 
L 2.6875 54.6875 
L 9.28125 54.6875 
L 9.28125 70.21875 
z
" id="DejaVuSans-116"/>
       <path id="DejaVuSans-32"/>
       <path d="M 28.609375 0 
L 0.78125 72.90625 
L 11.078125 72.90625 
L 34.1875 11.53125 
L 57.328125 72.90625 
L 67.578125 72.90625 
L 39.796875 0 
z
" id="DejaVuSans-86"/>
       <path d="M 34.28125 27.484375 
Q 23.390625 27.484375 19.1875 25 
Q 14.984375 22.515625 14.984375 16.5 
Q 14.984375 11.71875 18.140625 8.90625 
Q 21.296875 6.109375 26.703125 6.109375 
Q 34.1875 6.109375 38.703125 11.40625 
Q 43.21875 16.703125 43.21875 25.484375 
L 43.21875 27.484375 
z
M 52.203125 31.203125 
L 52.203125 0 
L 43.21875 0 
L 43.21875 8.296875 
Q 40.140625 3.328125 35.546875 0.953125 
Q 30.953125 -1.421875 24.3125 -1.421875 
Q 15.921875 -1.421875 10.953125 3.296875 
Q 6 8.015625 6 15.921875 
Q 6 25.140625 12.171875 29.828125 
Q 18.359375 34.515625 30.609375 34.515625 
L 43.21875 34.515625 
L 43.21875 35.40625 
Q 43.21875 41.609375 39.140625 45 
Q 35.0625 48.390625 27.6875 48.390625 
Q 23 48.390625 18.546875 47.265625 
Q 14.109375 46.140625 10.015625 43.890625 
L 10.015625 52.203125 
Q 14.9375 54.109375 19.578125 55.046875 
Q 24.21875 56 28.609375 56 
Q 40.484375 56 46.34375 49.84375 
Q 52.203125 43.703125 52.203125 31.203125 
z
" id="DejaVuSans-97"/>
       <path d="M 9.421875 75.984375 
L 18.40625 75.984375 
L 18.40625 0 
L 9.421875 0 
z
" id="DejaVuSans-108"/>
       <path d="M 8.5 21.578125 
L 8.5 54.6875 
L 17.484375 54.6875 
L 17.484375 21.921875 
Q 17.484375 14.15625 20.5 10.265625 
Q 23.53125 6.390625 29.59375 6.390625 
Q 36.859375 6.390625 41.078125 11.03125 
Q 45.3125 15.671875 45.3125 23.6875 
L 45.3125 54.6875 
L 54.296875 54.6875 
L 54.296875 0 
L 45.3125 0 
L 45.3125 8.40625 
Q 42.046875 3.421875 37.71875 1 
Q 33.40625 -1.421875 27.6875 -1.421875 
Q 18.265625 -1.421875 13.375 4.4375 
Q 8.5 10.296875 8.5 21.578125 
z
M 31.109375 56 
z
" id="DejaVuSans-117"/>
       <path d="M 44.28125 53.078125 
L 44.28125 44.578125 
Q 40.484375 46.53125 36.375 47.5 
Q 32.28125 48.484375 27.875 48.484375 
Q 21.1875 48.484375 17.84375 46.4375 
Q 14.5 44.390625 14.5 40.28125 
Q 14.5 37.15625 16.890625 35.375 
Q 19.28125 33.59375 26.515625 31.984375 
L 29.59375 31.296875 
Q 39.15625 29.25 43.1875 25.515625 
Q 47.21875 21.78125 47.21875 15.09375 
Q 47.21875 7.46875 41.1875 3.015625 
Q 35.15625 -1.421875 24.609375 -1.421875 
Q 20.21875 -1.421875 15.453125 -0.5625 
Q 10.6875 0.296875 5.421875 2 
L 5.421875 11.28125 
Q 10.40625 8.6875 15.234375 7.390625 
Q 20.0625 6.109375 24.8125 6.109375 
Q 31.15625 6.109375 34.5625 8.28125 
Q 37.984375 10.453125 37.984375 14.40625 
Q 37.984375 18.0625 35.515625 20.015625 
Q 33.0625 21.96875 24.703125 23.78125 
L 21.578125 24.515625 
Q 13.234375 26.265625 9.515625 29.90625 
Q 5.8125 33.546875 5.8125 39.890625 
Q 5.8125 47.609375 11.28125 51.796875 
Q 16.75 56 26.8125 56 
Q 31.78125 56 36.171875 55.265625 
Q 40.578125 54.546875 44.28125 53.078125 
z
" id="DejaVuSans-115"/>
      </defs>
      <use xlink:href="#DejaVuSans-80"/>
      <use x="58.552734" xlink:href="#DejaVuSans-114"/>
      <use x="97.416016" xlink:href="#DejaVuSans-101"/>
      <use x="158.939453" xlink:href="#DejaVuSans-100"/>
      <use x="222.416016" xlink:href="#DejaVuSans-105"/>
      <use x="250.199219" xlink:href="#DejaVuSans-99"/>
      <use x="305.179688" xlink:href="#DejaVuSans-116"/>
      <use x="344.388672" xlink:href="#DejaVuSans-101"/>
      <use x="405.912109" xlink:href="#DejaVuSans-100"/>
      <use x="469.388672" xlink:href="#DejaVuSans-32"/>
      <use x="501.175781" xlink:href="#DejaVuSans-86"/>
      <use x="561.833984" xlink:href="#DejaVuSans-97"/>
      <use x="623.113281" xlink:href="#DejaVuSans-108"/>
      <use x="650.896484" xlink:href="#DejaVuSans-117"/>
      <use x="714.275391" xlink:href="#DejaVuSans-101"/>
      <use x="775.798828" xlink:href="#DejaVuSans-115"/>
     </g>
    </g>
   </g>
   <g id="matplotlib.axis_2">
    <g id="ytick_1">
     <g id="line2d_6">
      <defs>
       <path d="M 0 0 
L -3.5 0 
" id="mc9700bdc97" style="stroke:#000000;stroke-width:0.8;"/>
      </defs>
      <g>
       <use style="stroke:#000000;stroke-width:0.8;" x="43.78125" xlink:href="#mc9700bdc97" y="353.09377"/>
      </g>
     </g>
     <g id="text_7">
      <!-- 2.5 -->
      <g transform="translate(20.878125 356.892989)scale(0.1 -0.1)">
       <use xlink:href="#DejaVuSans-50"/>
       <use x="63.623047" xlink:href="#DejaVuSans-46"/>
       <use x="95.410156" xlink:href="#DejaVuSans-53"/>
      </g>
     </g>
    </g>
    <g id="ytick_2">
     <g id="line2d_7">
      <g>
       <use style="stroke:#000000;stroke-width:0.8;" x="43.78125" xlink:href="#mc9700bdc97" y="299.110085"/>
      </g>
     </g>
     <g id="text_8">
      <!-- 3.0 -->
      <g transform="translate(20.878125 302.909303)scale(0.1 -0.1)">
       <use xlink:href="#DejaVuSans-51"/>
       <use x="63.623047" xlink:href="#DejaVuSans-46"/>
       <use x="95.410156" xlink:href="#DejaVuSans-48"/>
      </g>
     </g>
    </g>
    <g id="ytick_3">
     <g id="line2d_8">
      <g>
       <use style="stroke:#000000;stroke-width:0.8;" x="43.78125" xlink:href="#mc9700bdc97" y="245.126399"/>
      </g>
     </g>
     <g id="text_9">
      <!-- 3.5 -->
      <g transform="translate(20.878125 248.925618)scale(0.1 -0.1)">
       <use xlink:href="#DejaVuSans-51"/>
       <use x="63.623047" xlink:href="#DejaVuSans-46"/>
       <use x="95.410156" xlink:href="#DejaVuSans-53"/>
      </g>
     </g>
    </g>
    <g id="ytick_4">
     <g id="line2d_9">
      <g>
       <use style="stroke:#000000;stroke-width:0.8;" x="43.78125" xlink:href="#mc9700bdc97" y="191.142714"/>
      </g>
     </g>
     <g id="text_10">
      <!-- 4.0 -->
      <g transform="translate(20.878125 194.941933)scale(0.1 -0.1)">
       <use xlink:href="#DejaVuSans-52"/>
       <use x="63.623047" xlink:href="#DejaVuSans-46"/>
       <use x="95.410156" xlink:href="#DejaVuSans-48"/>
      </g>
     </g>
    </g>
    <g id="ytick_5">
     <g id="line2d_10">
      <g>
       <use style="stroke:#000000;stroke-width:0.8;" x="43.78125" xlink:href="#mc9700bdc97" y="137.159029"/>
      </g>
     </g>
     <g id="text_11">
      <!-- 4.5 -->
      <g transform="translate(20.878125 140.958247)scale(0.1 -0.1)">
       <use xlink:href="#DejaVuSans-52"/>
       <use x="63.623047" xlink:href="#DejaVuSans-46"/>
       <use x="95.410156" xlink:href="#DejaVuSans-53"/>
      </g>
     </g>
    </g>
    <g id="ytick_6">
     <g id="line2d_11">
      <g>
       <use style="stroke:#000000;stroke-width:0.8;" x="43.78125" xlink:href="#mc9700bdc97" y="83.175343"/>
      </g>
     </g>
     <g id="text_12">
      <!-- 5.0 -->
      <g transform="translate(20.878125 86.974562)scale(0.1 -0.1)">
       <use xlink:href="#DejaVuSans-53"/>
       <use x="63.623047" xlink:href="#DejaVuSans-46"/>
       <use x="95.410156" xlink:href="#DejaVuSans-48"/>
      </g>
     </g>
    </g>
    <g id="text_13">
     <!-- Real Values -->
     <g transform="translate(14.798438 266.323906)rotate(-90)scale(0.1 -0.1)">
      <defs>
       <path d="M 44.390625 34.1875 
Q 47.5625 33.109375 50.5625 29.59375 
Q 53.5625 26.078125 56.59375 19.921875 
L 66.609375 0 
L 56 0 
L 46.6875 18.703125 
Q 43.0625 26.03125 39.671875 28.421875 
Q 36.28125 30.8125 30.421875 30.8125 
L 19.671875 30.8125 
L 19.671875 0 
L 9.8125 0 
L 9.8125 72.90625 
L 32.078125 72.90625 
Q 44.578125 72.90625 50.734375 67.671875 
Q 56.890625 62.453125 56.890625 51.90625 
Q 56.890625 45.015625 53.6875 40.46875 
Q 50.484375 35.9375 44.390625 34.1875 
z
M 19.671875 64.796875 
L 19.671875 38.921875 
L 32.078125 38.921875 
Q 39.203125 38.921875 42.84375 42.21875 
Q 46.484375 45.515625 46.484375 51.90625 
Q 46.484375 58.296875 42.84375 61.546875 
Q 39.203125 64.796875 32.078125 64.796875 
z
" id="DejaVuSans-82"/>
      </defs>
      <use xlink:href="#DejaVuSans-82"/>
      <use x="64.982422" xlink:href="#DejaVuSans-101"/>
      <use x="126.505859" xlink:href="#DejaVuSans-97"/>
      <use x="187.785156" xlink:href="#DejaVuSans-108"/>
      <use x="215.568359" xlink:href="#DejaVuSans-32"/>
      <use x="247.355469" xlink:href="#DejaVuSans-86"/>
      <use x="308.013672" xlink:href="#DejaVuSans-97"/>
      <use x="369.292969" xlink:href="#DejaVuSans-108"/>
      <use x="397.076172" xlink:href="#DejaVuSans-117"/>
      <use x="460.455078" xlink:href="#DejaVuSans-101"/>
      <use x="521.978516" xlink:href="#DejaVuSans-115"/>
     </g>
    </g>
   </g>
   <g id="line2d_12">
    <path clip-path="url(#p15fce416e7)" d="M 43.78125 373.823041 
L 46.898802 371.078106 
L 50.016355 368.333172 
L 53.133907 365.588237 
L 56.251459 362.843302 
L 59.369012 360.098368 
L 62.486564 357.353433 
L 65.604116 354.608498 
L 68.721668 351.863564 
L 71.839221 349.118629 
L 74.956773 346.373694 
L 78.074325 343.62876 
L 81.191878 340.883825 
L 84.30943 338.13889 
L 87.426982 335.393956 
L 90.544535 332.649021 
L 93.662087 329.904086 
L 96.779639 327.159152 
L 99.897192 324.414217 
L 103.014744 321.669283 
L 106.132296 318.924348 
L 109.249848 316.179413 
L 112.367401 313.434479 
L 115.484953 310.689544 
L 118.602505 307.944609 
L 121.720058 305.199675 
L 124.83761 302.45474 
L 127.955162 299.709805 
L 131.072715 296.964871 
L 134.190267 294.219936 
L 137.307819 291.475001 
L 140.425372 288.730067 
L 143.542924 285.985132 
L 146.660476 283.240197 
L 149.778028 280.495263 
L 152.895581 277.750328 
L 156.013133 275.005393 
L 159.130685 272.260459 
L 162.248238 269.515524 
L 165.36579 266.77059 
L 168.483342 264.025655 
L 171.600895 261.28072 
L 174.718447 258.535786 
L 177.835999 255.790851 
L 180.953552 253.045916 
L 184.071104 250.300982 
L 187.188656 247.556047 
L 190.306209 244.811112 
L 193.423761 242.066178 
L 196.541313 239.321243 
L 199.658865 236.576308 
L 202.776418 233.831374 
L 205.89397 231.086439 
L 209.011522 228.341504 
L 212.129075 225.59657 
L 215.246627 222.851635 
L 218.364179 220.1067 
L 221.481732 217.361766 
L 224.599284 214.616831 
L 227.716836 211.871897 
L 230.834389 209.126962 
L 233.951941 206.382027 
L 237.069493 203.637093 
L 240.187045 200.892158 
L 243.304598 198.147223 
L 246.42215 195.402289 
L 249.539702 192.657354 
L 252.657255 189.912419 
L 255.774807 187.167485 
L 258.892359 184.42255 
L 262.009912 181.677615 
L 265.127464 178.932681 
L 268.245016 176.187746 
L 271.362569 173.442811 
L 274.480121 170.697877 
L 277.597673 167.952942 
L 280.715225 165.208007 
L 283.832778 162.463073 
L 286.95033 159.718138 
L 290.067882 156.973203 
L 293.185435 154.228269 
L 296.302987 151.483334 
L 299.420539 148.7384 
L 302.538092 145.993465 
L 305.655644 143.24853 
L 308.773196 140.503596 
L 311.890749 137.758661 
L 315.008301 135.013726 
L 318.125853 132.268792 
L 321.243405 129.523857 
L 324.360958 126.778922 
L 327.47851 124.033988 
L 330.596062 121.289053 
L 333.713615 118.544118 
L 336.831167 115.799184 
L 339.948719 113.054249 
L 343.066272 110.309314 
L 346.183824 107.56438 
L 349.301376 104.819445 
L 352.418929 102.07451 
" style="fill:none;stroke:#1f77b4;stroke-linecap:square;stroke-width:2.25;"/>
   </g>
   <g id="patch_3">
    <path d="M 43.78125 400.6 
L 43.78125 74.64 
" style="fill:none;stroke:#000000;stroke-linecap:square;stroke-linejoin:miter;stroke-width:0.8;"/>
   </g>
   <g id="patch_4">
    <path d="M 43.78125 400.6 
L 352.418929 400.6 
" style="fill:none;stroke:#000000;stroke-linecap:square;stroke-linejoin:miter;stroke-width:0.8;"/>
   </g>
  </g>
  <g id="axes_2">
   <g id="patch_5">
    <path d="M 43.78125 63.4 
L 352.418929 63.4 
L 352.418929 7.2 
L 43.78125 7.2 
z
" style="fill:#ffffff;"/>
   </g>
   <g id="patch_6">
    <path clip-path="url(#p11c39e43aa)" d="M 43.78125 63.4 
L 71.839221 63.4 
L 71.839221 58.844782 
L 43.78125 58.844782 
z
" style="fill:#1f77b4;fill-opacity:0.5;stroke:#000000;stroke-linejoin:miter;"/>
   </g>
   <g id="patch_7">
    <path clip-path="url(#p11c39e43aa)" d="M 71.839221 63.4 
L 99.897192 63.4 
L 99.897192 31.513475 
L 71.839221 31.513475 
z
" style="fill:#1f77b4;fill-opacity:0.5;stroke:#000000;stroke-linejoin:miter;"/>
   </g>
   <g id="patch_8">
    <path clip-path="url(#p11c39e43aa)" d="M 99.897192 63.4 
L 127.955162 63.4 
L 127.955162 33.791084 
L 99.897192 33.791084 
z
" style="fill:#1f77b4;fill-opacity:0.5;stroke:#000000;stroke-linejoin:miter;"/>
   </g>
   <g id="patch_9">
    <path clip-path="url(#p11c39e43aa)" d="M 127.955162 63.4 
L 156.013133 63.4 
L 156.013133 9.87619 
L 127.955162 9.87619 
z
" style="fill:#1f77b4;fill-opacity:0.5;stroke:#000000;stroke-linejoin:miter;"/>
   </g>
   <g id="patch_10">
    <path clip-path="url(#p11c39e43aa)" d="M 156.013133 63.4 
L 184.071104 63.4 
L 184.071104 38.346302 
L 156.013133 38.346302 
z
" style="fill:#1f77b4;fill-opacity:0.5;stroke:#000000;stroke-linejoin:miter;"/>
   </g>
   <g id="patch_11">
    <path clip-path="url(#p11c39e43aa)" d="M 184.071104 63.4 
L 212.129075 63.4 
L 212.129075 42.90152 
L 184.071104 42.90152 
z
" style="fill:#1f77b4;fill-opacity:0.5;stroke:#000000;stroke-linejoin:miter;"/>
   </g>
   <g id="patch_12">
    <path clip-path="url(#p11c39e43aa)" d="M 212.129075 63.4 
L 240.187045 63.4 
L 240.187045 41.762715 
L 212.129075 41.762715 
z
" style="fill:#1f77b4;fill-opacity:0.5;stroke:#000000;stroke-linejoin:miter;"/>
   </g>
   <g id="patch_13">
    <path clip-path="url(#p11c39e43aa)" d="M 240.187045 63.4 
L 268.245016 63.4 
L 268.245016 47.456738 
L 240.187045 47.456738 
z
" style="fill:#1f77b4;fill-opacity:0.5;stroke:#000000;stroke-linejoin:miter;"/>
   </g>
   <g id="patch_14">
    <path clip-path="url(#p11c39e43aa)" d="M 268.245016 63.4 
L 296.302987 63.4 
L 296.302987 58.844782 
L 268.245016 58.844782 
z
" style="fill:#1f77b4;fill-opacity:0.5;stroke:#000000;stroke-linejoin:miter;"/>
   </g>
   <g id="patch_15">
    <path clip-path="url(#p11c39e43aa)" d="M 296.302987 63.4 
L 324.360958 63.4 
L 324.360958 63.4 
L 296.302987 63.4 
z
" style="fill:#1f77b4;fill-opacity:0.5;stroke:#000000;stroke-linejoin:miter;"/>
   </g>
   <g id="patch_16">
    <path clip-path="url(#p11c39e43aa)" d="M 324.360958 63.4 
L 352.418929 63.4 
L 352.418929 58.844782 
L 324.360958 58.844782 
z
" style="fill:#1f77b4;fill-opacity:0.5;stroke:#000000;stroke-linejoin:miter;"/>
   </g>
   <g id="matplotlib.axis_3">
    <g id="xtick_6">
     <g id="line2d_13">
      <g>
       <use style="stroke:#000000;stroke-width:0.8;" x="68.558125" xlink:href="#m6c0681d303" y="63.4"/>
      </g>
     </g>
    </g>
    <g id="xtick_7">
     <g id="line2d_14">
      <g>
       <use style="stroke:#000000;stroke-width:0.8;" x="129.64585" xlink:href="#m6c0681d303" y="63.4"/>
      </g>
     </g>
    </g>
    <g id="xtick_8">
     <g id="line2d_15">
      <g>
       <use style="stroke:#000000;stroke-width:0.8;" x="190.733575" xlink:href="#m6c0681d303" y="63.4"/>
      </g>
     </g>
    </g>
    <g id="xtick_9">
     <g id="line2d_16">
      <g>
       <use style="stroke:#000000;stroke-width:0.8;" x="251.821301" xlink:href="#m6c0681d303" y="63.4"/>
      </g>
     </g>
    </g>
    <g id="xtick_10">
     <g id="line2d_17">
      <g>
       <use style="stroke:#000000;stroke-width:0.8;" x="312.909026" xlink:href="#m6c0681d303" y="63.4"/>
      </g>
     </g>
    </g>
   </g>
   <g id="matplotlib.axis_4">
    <g id="ytick_7"/>
    <g id="ytick_8"/>
   </g>
   <g id="line2d_18">
    <path clip-path="url(#p11c39e43aa)" d="M 43.78125 59.348328 
L 48.434079 58.020102 
L 53.086909 56.414498 
L 57.739738 54.539236 
L 62.392567 52.427338 
L 68.59634 49.345133 
L 85.656714 40.62809 
L 94.962373 36.232563 
L 107.369917 30.352934 
L 119.777462 24.386399 
L 124.430292 22.475486 
L 127.532178 21.426288 
L 130.634064 20.611972 
L 133.73595 20.072452 
L 136.837837 19.837306 
L 139.939723 19.923246 
L 143.041609 20.332716 
L 146.143495 21.053675 
L 149.245381 22.060505 
L 152.347268 23.315903 
L 155.449154 24.773528 
L 160.101983 27.224043 
L 172.509528 34.04876 
L 177.162357 36.297454 
L 181.815187 38.23298 
L 186.468016 39.821756 
L 191.120845 41.063793 
L 195.773675 41.983014 
L 200.426504 42.618575 
L 205.079333 43.019202 
L 211.283106 43.285636 
L 229.894423 43.769142 
L 234.547252 44.180525 
L 239.200082 44.811346 
L 243.852911 45.67718 
L 248.50574 46.768062 
L 254.709513 48.51301 
L 262.464228 50.982198 
L 273.32083 54.473868 
L 279.524602 56.260022 
L 285.728375 57.789274 
L 290.381204 58.740361 
L 295.034034 59.514627 
L 299.686863 60.113173 
L 305.890635 60.655052 
L 312.094408 60.946429 
L 319.849123 61.064098 
L 341.562327 61.212437 
L 350.867985 61.567154 
L 352.418929 61.642952 
L 352.418929 61.642952 
" style="fill:none;stroke:#1f77b4;stroke-linecap:square;stroke-width:1.5;"/>
   </g>
   <g id="patch_17">
    <path d="M 43.78125 63.4 
L 352.418929 63.4 
" style="fill:none;stroke:#000000;stroke-linecap:square;stroke-linejoin:miter;stroke-width:0.8;"/>
   </g>
  </g>
  <g id="axes_3">
   <g id="patch_18">
    <path d="M 363.061607 400.6 
L 416.275 400.6 
L 416.275 74.64 
L 363.061607 74.64 
z
" style="fill:#ffffff;"/>
   </g>
   <g id="patch_19">
    <path clip-path="url(#p16236d77db)" d="M 363.061607 385.783636 
L 373.457386 385.783636 
L 373.457386 357.817203 
L 363.061607 357.817203 
z
" style="fill:#1f77b4;fill-opacity:0.5;stroke:#000000;stroke-linejoin:miter;"/>
   </g>
   <g id="patch_20">
    <path clip-path="url(#p16236d77db)" d="M 363.061607 357.817203 
L 398.147361 357.817203 
L 398.147361 329.850769 
L 363.061607 329.850769 
z
" style="fill:#1f77b4;fill-opacity:0.5;stroke:#000000;stroke-linejoin:miter;"/>
   </g>
   <g id="patch_21">
    <path clip-path="url(#p16236d77db)" d="M 363.061607 329.850769 
L 399.446833 329.850769 
L 399.446833 301.884336 
L 363.061607 301.884336 
z
" style="fill:#1f77b4;fill-opacity:0.5;stroke:#000000;stroke-linejoin:miter;"/>
   </g>
   <g id="patch_22">
    <path clip-path="url(#p16236d77db)" d="M 363.061607 301.884336 
L 413.741029 301.884336 
L 413.741029 273.917902 
L 363.061607 273.917902 
z
" style="fill:#1f77b4;fill-opacity:0.5;stroke:#000000;stroke-linejoin:miter;"/>
   </g>
   <g id="patch_23">
    <path clip-path="url(#p16236d77db)" d="M 363.061607 273.917902 
L 390.350527 273.917902 
L 390.350527 245.951469 
L 363.061607 245.951469 
z
" style="fill:#1f77b4;fill-opacity:0.5;stroke:#000000;stroke-linejoin:miter;"/>
   </g>
   <g id="patch_24">
    <path clip-path="url(#p16236d77db)" d="M 363.061607 245.951469 
L 398.147361 245.951469 
L 398.147361 217.985035 
L 363.061607 217.985035 
z
" style="fill:#1f77b4;fill-opacity:0.5;stroke:#000000;stroke-linejoin:miter;"/>
   </g>
   <g id="patch_25">
    <path clip-path="url(#p16236d77db)" d="M 363.061607 217.985035 
L 385.152637 217.985035 
L 385.152637 190.018602 
L 363.061607 190.018602 
z
" style="fill:#1f77b4;fill-opacity:0.5;stroke:#000000;stroke-linejoin:miter;"/>
   </g>
   <g id="patch_26">
    <path clip-path="url(#p16236d77db)" d="M 363.061607 190.018602 
L 376.056331 190.018602 
L 376.056331 162.052168 
L 363.061607 162.052168 
z
" style="fill:#1f77b4;fill-opacity:0.5;stroke:#000000;stroke-linejoin:miter;"/>
   </g>
   <g id="patch_27">
    <path clip-path="url(#p16236d77db)" d="M 363.061607 162.052168 
L 368.259497 162.052168 
L 368.259497 134.085735 
L 363.061607 134.085735 
z
" style="fill:#1f77b4;fill-opacity:0.5;stroke:#000000;stroke-linejoin:miter;"/>
   </g>
   <g id="patch_28">
    <path clip-path="url(#p16236d77db)" d="M 363.061607 134.085735 
L 369.558969 134.085735 
L 369.558969 106.119301 
L 363.061607 106.119301 
z
" style="fill:#1f77b4;fill-opacity:0.5;stroke:#000000;stroke-linejoin:miter;"/>
   </g>
   <g id="matplotlib.axis_5">
    <g id="xtick_11"/>
    <g id="xtick_12"/>
   </g>
   <g id="matplotlib.axis_6">
    <g id="ytick_9">
     <g id="line2d_19">
      <g>
       <use style="stroke:#000000;stroke-width:0.8;" x="363.061607" xlink:href="#mc9700bdc97" y="353.09377"/>
      </g>
     </g>
    </g>
    <g id="ytick_10">
     <g id="line2d_20">
      <g>
       <use style="stroke:#000000;stroke-width:0.8;" x="363.061607" xlink:href="#mc9700bdc97" y="299.110085"/>
      </g>
     </g>
    </g>
    <g id="ytick_11">
     <g id="line2d_21">
      <g>
       <use style="stroke:#000000;stroke-width:0.8;" x="363.061607" xlink:href="#mc9700bdc97" y="245.126399"/>
      </g>
     </g>
    </g>
    <g id="ytick_12">
     <g id="line2d_22">
      <g>
       <use style="stroke:#000000;stroke-width:0.8;" x="363.061607" xlink:href="#mc9700bdc97" y="191.142714"/>
      </g>
     </g>
    </g>
    <g id="ytick_13">
     <g id="line2d_23">
      <g>
       <use style="stroke:#000000;stroke-width:0.8;" x="363.061607" xlink:href="#mc9700bdc97" y="137.159029"/>
      </g>
     </g>
    </g>
    <g id="ytick_14">
     <g id="line2d_24">
      <g>
       <use style="stroke:#000000;stroke-width:0.8;" x="363.061607" xlink:href="#mc9700bdc97" y="83.175343"/>
      </g>
     </g>
    </g>
   </g>
   <g id="line2d_25">
    <path clip-path="url(#p16236d77db)" d="M 370.319595 385.783636 
L 372.171858 380.162243 
L 374.233212 374.540849 
L 376.523261 368.919455 
L 379.0783 363.298062 
L 381.936416 357.676668 
L 385.113169 352.055274 
L 388.574892 346.433881 
L 399.301883 329.5697 
L 401.577854 325.353654 
L 402.898036 322.542958 
L 404.030999 319.732261 
L 404.9571 316.921564 
L 405.662931 314.110867 
L 406.142072 311.30017 
L 406.395468 308.489473 
L 406.431396 305.678776 
L 406.265006 302.86808 
L 405.917478 300.057383 
L 405.114443 295.841338 
L 404.063663 291.625292 
L 401.634379 283.193202 
L 399.693045 276.16646 
L 398.382738 270.545066 
L 397.338623 264.923672 
L 396.541188 259.302279 
L 395.792565 252.275537 
L 394.251895 236.816704 
L 393.438749 231.19531 
L 392.396413 225.573917 
L 391.118688 219.952523 
L 389.238181 212.925781 
L 386.701138 204.49369 
L 382.177424 190.440206 
L 374.889361 167.954631 
L 372.836645 160.927889 
L 371.380365 155.306496 
L 370.138235 149.685102 
L 369.141286 144.063708 
L 368.39967 138.442315 
L 367.896867 132.820921 
L 367.532286 125.794179 
L 366.857943 106.119301 
L 366.857943 106.119301 
" style="fill:none;stroke:#1f77b4;stroke-linecap:square;stroke-width:1.5;"/>
   </g>
   <g id="patch_29">
    <path d="M 363.061607 400.6 
L 363.061607 74.64 
" style="fill:none;stroke:#000000;stroke-linecap:square;stroke-linejoin:miter;stroke-width:0.8;"/>
   </g>
  </g>
 </g>
 <defs>
  <clipPath id="p15fce416e7">
   <rect height="325.96" width="308.637679" x="43.78125" y="74.64"/>
  </clipPath>
  <clipPath id="p11c39e43aa">
   <rect height="56.2" width="308.637679" x="43.78125" y="7.2"/>
  </clipPath>
  <clipPath id="p16236d77db">
   <rect height="325.96" width="53.213393" x="363.061607" y="74.64"/>
  </clipPath>
 </defs>
</svg>
